<svg width="128" height="30" viewBox="0 0 128 30" fill="none" xmlns="http://www.w3.org/2000/svg">
<mask id="path-1-inside-1_59_3442" fill="white">
<path fill-rule="evenodd" clip-rule="evenodd" d="M62.5558 0.0506783C62.0331 0.12799 61.7626 0.223193 61.6093 0.383801L61.4613 0.538905V11.9984V23.458L61.6264 23.5977C61.889 23.8201 62.3786 23.893 63.6198 23.8946C64.8744 23.8961 65.3403 23.825 65.6266 23.5879L65.8079 23.4377L65.8236 19.3048L65.8392 15.1719L68.5366 19.3676C71.6133 24.1531 71.2713 23.7484 72.3445 23.8727C73.102 23.9604 74.8269 23.9096 75.2924 23.7861C75.873 23.6318 75.9839 23.2926 75.6673 22.6398C75.5715 22.4423 74.3115 20.4801 72.8673 18.2794C71.423 16.0787 70.2496 14.2448 70.2596 14.204C70.2697 14.1632 71.2756 13.0153 72.495 11.653C73.7143 10.2906 74.8213 9.02067 74.9548 8.8308C75.161 8.53747 75.2011 8.42958 75.2216 8.11255C75.2423 7.79241 75.2277 7.72336 75.1188 7.62636C74.9069 7.43763 74.3999 7.34524 73.379 7.30933C71.7649 7.25255 70.8637 7.44403 70.5351 7.91365C70.4605 8.02016 69.3735 9.46228 68.1194 11.1183L65.8392 14.1293L65.8088 7.3143C65.792 3.55689 65.7544 0.462729 65.7249 0.41779C65.6335 0.278185 65.1908 0.122364 64.6947 0.0551651C64.1666 -0.0164024 63.025 -0.0187949 62.5558 0.0506783ZM35.9661 3.3453C35.5805 3.41243 35.3113 3.54055 35.226 3.69745C35.187 3.76908 35.1633 4.49217 35.1633 5.61164V7.41076H34.1379C32.9296 7.41076 32.8594 7.43817 32.7221 7.96385C32.5922 8.46136 32.6108 9.99928 32.7512 10.3572C32.9458 10.8538 33.0205 10.8814 34.1683 10.8814H35.1633L35.1645 15.1749C35.1655 18.5462 35.1843 19.6059 35.2523 20.109C35.5385 22.2242 36.4992 23.4409 38.2629 23.9219C40.0349 24.4052 42.7902 24.0859 43.2924 23.3392C43.5058 23.0219 43.5697 22.5639 43.5395 21.5683C43.4958 20.134 43.4248 20.0477 42.5326 20.3457C42.029 20.514 41.8588 20.5427 41.3654 20.5426C40.3287 20.5424 39.8899 20.2064 39.6108 19.1991C39.5352 18.9262 39.5157 18.1876 39.4965 14.8757L39.4734 10.8814H41.2059C42.209 10.8814 43.0055 10.8564 43.0976 10.8218C43.398 10.7094 43.5154 10.3134 43.5429 9.32046C43.5707 8.31882 43.498 7.8553 43.2717 7.59058L43.1194 7.41256L41.3152 7.3967L39.5108 7.38084L39.4804 5.5354C39.45 3.6917 39.4499 3.68991 39.3084 3.57717C39.2304 3.51512 39.0662 3.43368 38.9435 3.39616C38.6596 3.30933 36.3947 3.27062 35.9661 3.3453ZM114.16 6.87245C113.691 6.93743 113.354 7.09218 113.25 7.29108C113.187 7.41088 113.176 8.51952 113.195 12.8561C113.215 17.5216 113.233 18.3586 113.319 18.8999C113.665 21.0584 114.563 22.4211 116.143 23.1807C116.707 23.4522 117.325 23.6073 118.176 23.691C120.128 23.8831 121.851 23.2179 123.66 21.5742L124.234 21.0533L124.253 22.0164L124.272 22.9796L124.44 23.121C124.532 23.1989 124.709 23.2914 124.835 23.3267C125.223 23.4361 126.414 23.4709 126.994 23.3899C127.613 23.3033 127.888 23.1554 127.963 22.8674C127.991 22.7622 128.006 19.2119 127.997 14.9779L127.981 7.27971L127.802 7.13885C127.496 6.89872 127.111 6.84217 125.792 6.84355C124.822 6.8445 124.508 6.86539 124.237 6.94683C123.606 7.13694 123.667 6.57044 123.648 12.4917L123.632 17.6797L123.192 18.1593C121.866 19.6055 120.868 20.1339 119.756 19.9789C118.743 19.8377 118.058 19.1788 117.688 17.9884C117.603 17.7127 117.586 17.0225 117.557 12.4883C117.518 6.59396 117.575 7.137 116.981 6.95658C116.613 6.84492 114.759 6.78957 114.16 6.87245ZM108.872 6.93893C108.396 7.0084 107.967 7.17284 107.527 7.45432C107.09 7.73419 106.133 8.6806 105.665 9.29569L105.301 9.7744L105.271 8.67689C105.241 7.61517 105.236 7.57574 105.098 7.46593C104.841 7.26158 104.492 7.20707 103.447 7.20838C102.364 7.20976 102.033 7.26637 101.76 7.49741L101.592 7.63976V15.489V23.3383L101.757 23.478C102.028 23.7073 102.507 23.7768 103.812 23.776C105.15 23.7753 105.585 23.6955 105.814 23.4091C105.939 23.2533 105.94 23.2125 105.94 18.4244V13.5968L106.32 13.0493C107.041 12.0105 107.858 11.2516 108.494 11.0309C108.933 10.8785 109.604 10.9149 110.32 11.13C110.891 11.3017 110.962 11.3109 111.104 11.2326C111.327 11.1097 111.409 10.8997 111.483 10.2687C111.544 9.74299 111.513 8.10453 111.434 7.66669C111.379 7.36367 111.159 7.19761 110.635 7.06256C110.055 6.91338 109.375 6.86563 108.872 6.93893ZM6.4028 7.02617C4.56809 7.23364 3.26553 7.57574 2.08027 8.16144C1.41665 8.48942 1.19149 8.67779 1.01352 9.05388C0.888687 9.31765 0.870689 9.44619 0.870202 10.0777C0.869473 10.9158 0.973388 11.3518 1.23509 11.6094C1.4822 11.8526 1.71095 11.8318 2.39415 11.504C3.71366 10.871 4.75275 10.5 5.63873 10.3458C6.18579 10.2506 7.61512 10.2672 8.09359 10.3742C8.92698 10.5608 9.42272 10.9969 9.69044 11.779C9.79679 12.0898 9.82968 12.3557 9.85388 13.1018L9.88416 14.0355L8.18912 14.0697C6.32905 14.1071 5.45462 14.1972 4.30128 14.47C1.91148 15.0355 0.578585 16.1592 0.131611 17.9852C-0.0338989 18.6612 -0.044783 19.7881 0.10735 20.4852C0.522097 22.3851 1.98293 23.6964 4.10002 24.0692C6.49255 24.4905 8.59225 23.9155 10.1575 22.4103L10.5375 22.0449V22.7135C10.5375 23.0895 10.5681 23.4482 10.6074 23.533C10.7411 23.822 11.101 23.8965 12.3616 23.8961C13.3874 23.8958 13.5118 23.8843 13.7731 23.7658C13.9622 23.68 14.0716 23.5886 14.0948 23.4969C14.1142 23.4204 14.1202 20.692 14.1082 17.4338C14.0844 10.9638 14.1044 11.3417 13.726 10.2156C13.1559 8.5185 11.7003 7.49172 9.3714 7.14388C8.76524 7.05334 6.83835 6.97693 6.4028 7.02617ZM25.5258 7.02695C24.6265 7.15273 24.0433 7.31969 23.3977 7.63629C22.7207 7.96822 21.9449 8.52263 21.2697 9.15698C20.9259 9.48011 20.6278 9.74448 20.6074 9.74448C20.587 9.74448 20.5702 9.28869 20.5702 8.73159V7.71863L20.4103 7.59482C20.1291 7.37713 19.802 7.32387 18.7461 7.32387C17.6528 7.32387 17.3073 7.38515 17.067 7.62163L16.922 7.76435V18.6198V29.4752L17.0476 29.6324C17.2791 29.922 17.7103 30 19.0805 30C20.4329 30 20.8444 29.927 21.1203 29.638L21.2695 29.4818L21.2865 25.8017L21.3035 22.1215L21.6573 22.4439C22.5508 23.258 23.6493 23.8873 24.4921 24.0679C25.461 24.2756 26.5689 24.2446 27.6056 23.9808C28.8877 23.6545 30.1279 22.7821 30.8992 21.6636C31.4641 20.8444 31.9974 19.5169 32.2379 18.3314C32.6057 16.5182 32.5808 14.0446 32.1763 12.207C31.5641 9.42632 29.9392 7.60667 27.654 7.1425C27.179 7.04604 25.8897 6.97603 25.5258 7.02695ZM51.0669 7.05352C47.1117 7.4992 44.7174 10.1471 44.2779 14.5615C44.1926 15.4187 44.2396 17.0501 44.3744 17.9119C44.9164 21.3781 46.7728 23.3618 50.0616 23.9893C52.2491 24.4066 55.1789 24.1915 57.3799 23.4519C58.5929 23.0444 58.657 22.9468 58.682 21.4729C58.6974 20.5618 58.6855 20.3986 58.5908 20.217C58.3999 19.8511 58.2835 19.8526 57.1005 20.2358C55.7421 20.6758 54.9308 20.8522 53.8692 20.9383C50.559 21.207 48.9034 20.0162 48.6852 17.2094L48.6445 16.6858L53.5024 16.6855C56.8606 16.6853 58.4353 16.6647 58.6035 16.619C58.9078 16.5363 59.2524 16.1894 59.3506 15.8669C59.3968 15.7149 59.4243 15.2117 59.4243 14.5156C59.4243 12.0314 58.8249 10.2533 57.5467 8.94605C57.0354 8.42318 56.5635 8.09107 55.8373 7.74329C55.175 7.42602 54.6946 7.27516 53.9215 7.14148C53.2556 7.02635 51.7262 6.97926 51.0669 7.05352ZM82.074 7.05496C81.2366 7.14041 80.3333 7.33584 79.4325 7.6266C77.9205 8.11459 77.1778 8.56607 76.9558 9.13221C76.8707 9.34931 76.8454 9.57586 76.8474 10.1035C76.8504 10.8967 76.9667 11.374 77.2169 11.6203C77.4685 11.8679 77.7153 11.8345 78.5231 11.4439C79.492 10.9753 80.095 10.7368 80.8637 10.5182C81.454 10.3504 81.6386 10.3263 82.5458 10.2987C83.9676 10.2555 84.6332 10.4076 85.1349 10.8903C85.6292 11.3659 85.8041 11.9188 85.8561 13.1703L85.8928 14.0529H84.6762C79.5257 14.0529 76.8646 15.2403 76.1338 17.8646C75.9402 18.5596 75.9414 19.9821 76.1361 20.6932C76.3589 21.5067 76.6946 22.0797 77.2973 22.6752C78.0513 23.42 78.9184 23.8541 80.0779 24.0673C82.4295 24.4998 84.5519 23.9214 86.1631 22.4091L86.5431 22.0524V22.7826C86.5431 23.4715 86.5513 23.521 86.6875 23.655C86.8836 23.848 87.235 23.897 88.3977 23.8935C89.4453 23.8903 89.8067 23.827 90.0115 23.6107C90.1356 23.4796 90.1359 23.4588 90.1134 17.5543C90.089 11.1511 90.0999 11.373 89.7587 10.3446C89.5125 9.60242 89.2306 9.15082 88.6682 8.59773C88.2126 8.14965 88.0553 8.03859 87.5093 7.77919C86.7927 7.43877 86.2299 7.27223 85.3552 7.14184C84.5965 7.02875 82.7979 6.98111 82.074 7.05496ZM52.965 10.1339C54.3315 10.4509 55.1029 11.5456 55.2101 13.3199L55.2471 13.9332H51.9485H48.65L48.6909 13.5592C48.894 11.7056 49.7979 10.4576 51.1753 10.1288C51.6094 10.0252 52.5076 10.0278 52.965 10.1339ZM25.9118 10.8339C26.1701 10.9286 26.3627 11.0653 26.6872 11.3844C27.4418 12.1264 27.8024 13.1088 27.9319 14.7753C28.1757 17.9126 27.0876 20.2079 25.206 20.5254C24.6935 20.6119 24.1327 20.5327 23.6447 20.3049C23.1767 20.0864 22.3792 19.4258 21.8111 18.786L21.3012 18.2117L21.3006 15.6471L21.2999 13.0825L21.5971 12.715C22.0717 12.1281 22.9417 11.3393 23.3701 11.1074C23.7399 10.9072 24.1791 10.7443 24.5225 10.68C24.8148 10.6253 25.5709 10.709 25.9118 10.8339ZM9.86866 18.0616V19.3776L9.48863 19.7545C8.40479 20.8294 7.54745 21.219 6.40286 21.157C5.7221 21.1201 5.38767 21.0148 4.97499 20.7077C4.51221 20.3632 4.31082 19.93 4.28407 19.2212C4.25999 18.5844 4.35278 18.2252 4.64075 17.8399C5.01853 17.3343 5.8752 16.9338 6.82843 16.817C7.07925 16.7862 7.86594 16.7576 8.57656 16.7534L9.86866 16.7457V18.0616ZM85.8743 18.0548V19.3639L85.2779 19.9247C84.249 20.8923 83.6755 21.1438 82.4982 21.1438C81.7946 21.1438 81.7519 21.1365 81.3613 20.9471C80.6642 20.6093 80.3191 20.0989 80.2398 19.2887C80.136 18.227 80.7833 17.3658 81.9509 17.0122C82.6266 16.8076 83.0903 16.762 84.5822 16.7532L85.8743 16.7457V18.0548ZM95.4206 18.7243C94.0996 18.9186 93.6892 19.5413 93.6883 21.3533C93.6877 22.3927 93.8229 22.9375 94.1771 23.3234C94.5816 23.7639 95.3929 23.9668 96.5151 23.908C97.6084 23.8507 98.2034 23.5885 98.485 23.04C98.869 22.2921 98.9178 20.6037 98.5811 19.718C98.4524 19.3793 98.1921 19.0958 97.8577 18.9297C97.4009 18.7029 96.2344 18.6046 95.4206 18.7243Z"/>
</mask>
<path fill-rule="evenodd" clip-rule="evenodd" d="M62.5558 0.0506783C62.0331 0.12799 61.7626 0.223193 61.6093 0.383801L61.4613 0.538905V11.9984V23.458L61.6264 23.5977C61.889 23.8201 62.3786 23.893 63.6198 23.8946C64.8744 23.8961 65.3403 23.825 65.6266 23.5879L65.8079 23.4377L65.8236 19.3048L65.8392 15.1719L68.5366 19.3676C71.6133 24.1531 71.2713 23.7484 72.3445 23.8727C73.102 23.9604 74.8269 23.9096 75.2924 23.7861C75.873 23.6318 75.9839 23.2926 75.6673 22.6398C75.5715 22.4423 74.3115 20.4801 72.8673 18.2794C71.423 16.0787 70.2496 14.2448 70.2596 14.204C70.2697 14.1632 71.2756 13.0153 72.495 11.653C73.7143 10.2906 74.8213 9.02067 74.9548 8.8308C75.161 8.53747 75.2011 8.42958 75.2216 8.11255C75.2423 7.79241 75.2277 7.72336 75.1188 7.62636C74.9069 7.43763 74.3999 7.34524 73.379 7.30933C71.7649 7.25255 70.8637 7.44403 70.5351 7.91365C70.4605 8.02016 69.3735 9.46228 68.1194 11.1183L65.8392 14.1293L65.8088 7.3143C65.792 3.55689 65.7544 0.462729 65.7249 0.41779C65.6335 0.278185 65.1908 0.122364 64.6947 0.0551651C64.1666 -0.0164024 63.025 -0.0187949 62.5558 0.0506783ZM35.9661 3.3453C35.5805 3.41243 35.3113 3.54055 35.226 3.69745C35.187 3.76908 35.1633 4.49217 35.1633 5.61164V7.41076H34.1379C32.9296 7.41076 32.8594 7.43817 32.7221 7.96385C32.5922 8.46136 32.6108 9.99928 32.7512 10.3572C32.9458 10.8538 33.0205 10.8814 34.1683 10.8814H35.1633L35.1645 15.1749C35.1655 18.5462 35.1843 19.6059 35.2523 20.109C35.5385 22.2242 36.4992 23.4409 38.2629 23.9219C40.0349 24.4052 42.7902 24.0859 43.2924 23.3392C43.5058 23.0219 43.5697 22.5639 43.5395 21.5683C43.4958 20.134 43.4248 20.0477 42.5326 20.3457C42.029 20.514 41.8588 20.5427 41.3654 20.5426C40.3287 20.5424 39.8899 20.2064 39.6108 19.1991C39.5352 18.9262 39.5157 18.1876 39.4965 14.8757L39.4734 10.8814H41.2059C42.209 10.8814 43.0055 10.8564 43.0976 10.8218C43.398 10.7094 43.5154 10.3134 43.5429 9.32046C43.5707 8.31882 43.498 7.8553 43.2717 7.59058L43.1194 7.41256L41.3152 7.3967L39.5108 7.38084L39.4804 5.5354C39.45 3.6917 39.4499 3.68991 39.3084 3.57717C39.2304 3.51512 39.0662 3.43368 38.9435 3.39616C38.6596 3.30933 36.3947 3.27062 35.9661 3.3453ZM114.16 6.87245C113.691 6.93743 113.354 7.09218 113.25 7.29108C113.187 7.41088 113.176 8.51952 113.195 12.8561C113.215 17.5216 113.233 18.3586 113.319 18.8999C113.665 21.0584 114.563 22.4211 116.143 23.1807C116.707 23.4522 117.325 23.6073 118.176 23.691C120.128 23.8831 121.851 23.2179 123.66 21.5742L124.234 21.0533L124.253 22.0164L124.272 22.9796L124.44 23.121C124.532 23.1989 124.709 23.2914 124.835 23.3267C125.223 23.4361 126.414 23.4709 126.994 23.3899C127.613 23.3033 127.888 23.1554 127.963 22.8674C127.991 22.7622 128.006 19.2119 127.997 14.9779L127.981 7.27971L127.802 7.13885C127.496 6.89872 127.111 6.84217 125.792 6.84355C124.822 6.8445 124.508 6.86539 124.237 6.94683C123.606 7.13694 123.667 6.57044 123.648 12.4917L123.632 17.6797L123.192 18.1593C121.866 19.6055 120.868 20.1339 119.756 19.9789C118.743 19.8377 118.058 19.1788 117.688 17.9884C117.603 17.7127 117.586 17.0225 117.557 12.4883C117.518 6.59396 117.575 7.137 116.981 6.95658C116.613 6.84492 114.759 6.78957 114.16 6.87245ZM108.872 6.93893C108.396 7.0084 107.967 7.17284 107.527 7.45432C107.09 7.73419 106.133 8.6806 105.665 9.29569L105.301 9.7744L105.271 8.67689C105.241 7.61517 105.236 7.57574 105.098 7.46593C104.841 7.26158 104.492 7.20707 103.447 7.20838C102.364 7.20976 102.033 7.26637 101.76 7.49741L101.592 7.63976V15.489V23.3383L101.757 23.478C102.028 23.7073 102.507 23.7768 103.812 23.776C105.15 23.7753 105.585 23.6955 105.814 23.4091C105.939 23.2533 105.94 23.2125 105.94 18.4244V13.5968L106.32 13.0493C107.041 12.0105 107.858 11.2516 108.494 11.0309C108.933 10.8785 109.604 10.9149 110.32 11.13C110.891 11.3017 110.962 11.3109 111.104 11.2326C111.327 11.1097 111.409 10.8997 111.483 10.2687C111.544 9.74299 111.513 8.10453 111.434 7.66669C111.379 7.36367 111.159 7.19761 110.635 7.06256C110.055 6.91338 109.375 6.86563 108.872 6.93893ZM6.4028 7.02617C4.56809 7.23364 3.26553 7.57574 2.08027 8.16144C1.41665 8.48942 1.19149 8.67779 1.01352 9.05388C0.888687 9.31765 0.870689 9.44619 0.870202 10.0777C0.869473 10.9158 0.973388 11.3518 1.23509 11.6094C1.4822 11.8526 1.71095 11.8318 2.39415 11.504C3.71366 10.871 4.75275 10.5 5.63873 10.3458C6.18579 10.2506 7.61512 10.2672 8.09359 10.3742C8.92698 10.5608 9.42272 10.9969 9.69044 11.779C9.79679 12.0898 9.82968 12.3557 9.85388 13.1018L9.88416 14.0355L8.18912 14.0697C6.32905 14.1071 5.45462 14.1972 4.30128 14.47C1.91148 15.0355 0.578585 16.1592 0.131611 17.9852C-0.0338989 18.6612 -0.044783 19.7881 0.10735 20.4852C0.522097 22.3851 1.98293 23.6964 4.10002 24.0692C6.49255 24.4905 8.59225 23.9155 10.1575 22.4103L10.5375 22.0449V22.7135C10.5375 23.0895 10.5681 23.4482 10.6074 23.533C10.7411 23.822 11.101 23.8965 12.3616 23.8961C13.3874 23.8958 13.5118 23.8843 13.7731 23.7658C13.9622 23.68 14.0716 23.5886 14.0948 23.4969C14.1142 23.4204 14.1202 20.692 14.1082 17.4338C14.0844 10.9638 14.1044 11.3417 13.726 10.2156C13.1559 8.5185 11.7003 7.49172 9.3714 7.14388C8.76524 7.05334 6.83835 6.97693 6.4028 7.02617ZM25.5258 7.02695C24.6265 7.15273 24.0433 7.31969 23.3977 7.63629C22.7207 7.96822 21.9449 8.52263 21.2697 9.15698C20.9259 9.48011 20.6278 9.74448 20.6074 9.74448C20.587 9.74448 20.5702 9.28869 20.5702 8.73159V7.71863L20.4103 7.59482C20.1291 7.37713 19.802 7.32387 18.7461 7.32387C17.6528 7.32387 17.3073 7.38515 17.067 7.62163L16.922 7.76435V18.6198V29.4752L17.0476 29.6324C17.2791 29.922 17.7103 30 19.0805 30C20.4329 30 20.8444 29.927 21.1203 29.638L21.2695 29.4818L21.2865 25.8017L21.3035 22.1215L21.6573 22.4439C22.5508 23.258 23.6493 23.8873 24.4921 24.0679C25.461 24.2756 26.5689 24.2446 27.6056 23.9808C28.8877 23.6545 30.1279 22.7821 30.8992 21.6636C31.4641 20.8444 31.9974 19.5169 32.2379 18.3314C32.6057 16.5182 32.5808 14.0446 32.1763 12.207C31.5641 9.42632 29.9392 7.60667 27.654 7.1425C27.179 7.04604 25.8897 6.97603 25.5258 7.02695ZM51.0669 7.05352C47.1117 7.4992 44.7174 10.1471 44.2779 14.5615C44.1926 15.4187 44.2396 17.0501 44.3744 17.9119C44.9164 21.3781 46.7728 23.3618 50.0616 23.9893C52.2491 24.4066 55.1789 24.1915 57.3799 23.4519C58.5929 23.0444 58.657 22.9468 58.682 21.4729C58.6974 20.5618 58.6855 20.3986 58.5908 20.217C58.3999 19.8511 58.2835 19.8526 57.1005 20.2358C55.7421 20.6758 54.9308 20.8522 53.8692 20.9383C50.559 21.207 48.9034 20.0162 48.6852 17.2094L48.6445 16.6858L53.5024 16.6855C56.8606 16.6853 58.4353 16.6647 58.6035 16.619C58.9078 16.5363 59.2524 16.1894 59.3506 15.8669C59.3968 15.7149 59.4243 15.2117 59.4243 14.5156C59.4243 12.0314 58.8249 10.2533 57.5467 8.94605C57.0354 8.42318 56.5635 8.09107 55.8373 7.74329C55.175 7.42602 54.6946 7.27516 53.9215 7.14148C53.2556 7.02635 51.7262 6.97926 51.0669 7.05352ZM82.074 7.05496C81.2366 7.14041 80.3333 7.33584 79.4325 7.6266C77.9205 8.11459 77.1778 8.56607 76.9558 9.13221C76.8707 9.34931 76.8454 9.57586 76.8474 10.1035C76.8504 10.8967 76.9667 11.374 77.2169 11.6203C77.4685 11.8679 77.7153 11.8345 78.5231 11.4439C79.492 10.9753 80.095 10.7368 80.8637 10.5182C81.454 10.3504 81.6386 10.3263 82.5458 10.2987C83.9676 10.2555 84.6332 10.4076 85.1349 10.8903C85.6292 11.3659 85.8041 11.9188 85.8561 13.1703L85.8928 14.0529H84.6762C79.5257 14.0529 76.8646 15.2403 76.1338 17.8646C75.9402 18.5596 75.9414 19.9821 76.1361 20.6932C76.3589 21.5067 76.6946 22.0797 77.2973 22.6752C78.0513 23.42 78.9184 23.8541 80.0779 24.0673C82.4295 24.4998 84.5519 23.9214 86.1631 22.4091L86.5431 22.0524V22.7826C86.5431 23.4715 86.5513 23.521 86.6875 23.655C86.8836 23.848 87.235 23.897 88.3977 23.8935C89.4453 23.8903 89.8067 23.827 90.0115 23.6107C90.1356 23.4796 90.1359 23.4588 90.1134 17.5543C90.089 11.1511 90.0999 11.373 89.7587 10.3446C89.5125 9.60242 89.2306 9.15082 88.6682 8.59773C88.2126 8.14965 88.0553 8.03859 87.5093 7.77919C86.7927 7.43877 86.2299 7.27223 85.3552 7.14184C84.5965 7.02875 82.7979 6.98111 82.074 7.05496ZM52.965 10.1339C54.3315 10.4509 55.1029 11.5456 55.2101 13.3199L55.2471 13.9332H51.9485H48.65L48.6909 13.5592C48.894 11.7056 49.7979 10.4576 51.1753 10.1288C51.6094 10.0252 52.5076 10.0278 52.965 10.1339ZM25.9118 10.8339C26.1701 10.9286 26.3627 11.0653 26.6872 11.3844C27.4418 12.1264 27.8024 13.1088 27.9319 14.7753C28.1757 17.9126 27.0876 20.2079 25.206 20.5254C24.6935 20.6119 24.1327 20.5327 23.6447 20.3049C23.1767 20.0864 22.3792 19.4258 21.8111 18.786L21.3012 18.2117L21.3006 15.6471L21.2999 13.0825L21.5971 12.715C22.0717 12.1281 22.9417 11.3393 23.3701 11.1074C23.7399 10.9072 24.1791 10.7443 24.5225 10.68C24.8148 10.6253 25.5709 10.709 25.9118 10.8339ZM9.86866 18.0616V19.3776L9.48863 19.7545C8.40479 20.8294 7.54745 21.219 6.40286 21.157C5.7221 21.1201 5.38767 21.0148 4.97499 20.7077C4.51221 20.3632 4.31082 19.93 4.28407 19.2212C4.25999 18.5844 4.35278 18.2252 4.64075 17.8399C5.01853 17.3343 5.8752 16.9338 6.82843 16.817C7.07925 16.7862 7.86594 16.7576 8.57656 16.7534L9.86866 16.7457V18.0616ZM85.8743 18.0548V19.3639L85.2779 19.9247C84.249 20.8923 83.6755 21.1438 82.4982 21.1438C81.7946 21.1438 81.7519 21.1365 81.3613 20.9471C80.6642 20.6093 80.3191 20.0989 80.2398 19.2887C80.136 18.227 80.7833 17.3658 81.9509 17.0122C82.6266 16.8076 83.0903 16.762 84.5822 16.7532L85.8743 16.7457V18.0548ZM95.4206 18.7243C94.0996 18.9186 93.6892 19.5413 93.6883 21.3533C93.6877 22.3927 93.8229 22.9375 94.1771 23.3234C94.5816 23.7639 95.3929 23.9668 96.5151 23.908C97.6084 23.8507 98.2034 23.5885 98.485 23.04C98.869 22.2921 98.9178 20.6037 98.5811 19.718C98.4524 19.3793 98.1921 19.0958 97.8577 18.9297C97.4009 18.7029 96.2344 18.6046 95.4206 18.7243Z" stroke="#3E3921" stroke-width="2" mask="url(#path-1-inside-1_59_3442)"/>
</svg>
