<svg width="223" height="53" viewBox="0 0 223 53" fill="none" xmlns="http://www.w3.org/2000/svg">
<mask id="path-1-inside-1_59_4078" fill="white">
<path fill-rule="evenodd" clip-rule="evenodd" d="M108.984 0.0895316C108.073 0.226116 107.602 0.394308 107.335 0.678049L107.077 0.952065V21.1972V41.4424L107.365 41.6893C107.822 42.0821 108.675 42.211 110.838 42.2137C113.023 42.2165 113.835 42.0908 114.334 41.6719L114.65 41.4066L114.677 34.1052L114.704 26.8038L119.404 34.216C124.764 42.6704 124.168 41.9556 126.038 42.175C127.357 42.33 130.362 42.2404 131.173 42.0221C132.185 41.7495 132.378 41.1503 131.827 39.997C131.66 39.6481 129.465 36.1816 126.948 32.2937C124.432 28.4057 122.388 25.1658 122.405 25.0938C122.423 25.0217 124.175 22.9937 126.3 20.5869C128.424 18.1801 130.353 15.9365 130.585 15.6011C130.945 15.0829 131.014 14.8923 131.05 14.3322C131.086 13.7666 131.061 13.6446 130.871 13.4732C130.502 13.1398 129.619 12.9766 127.84 12.9132C125.028 12.8128 123.458 13.1511 122.885 13.9808C122.755 14.169 120.862 16.7167 118.677 19.6424L114.704 24.9618L114.651 12.9219C114.622 6.28383 114.557 0.817487 114.505 0.738095C114.346 0.49146 113.575 0.216177 112.71 0.0974584C111.79 -0.0289776 109.801 -0.0332043 108.984 0.0895316ZM62.6597 5.91002C61.9879 6.02864 61.5188 6.25497 61.3702 6.53216C61.3023 6.6587 61.2611 7.93617 61.2611 9.9139V13.0923H59.4746C57.3695 13.0923 57.2473 13.1408 57.008 14.0695C56.7816 14.9484 56.8142 17.6654 57.0587 18.2977C57.3978 19.1751 57.5278 19.2239 59.5275 19.2239H61.2611L61.2632 26.8089C61.2648 32.765 61.2977 34.6371 61.4162 35.5259C61.9147 39.2627 63.5885 41.4123 66.6611 42.262C69.7482 43.1158 74.5485 42.5518 75.4235 41.2326C75.7953 40.672 75.9066 39.8629 75.8539 38.104C75.7778 35.57 75.6541 35.4176 74.0997 35.9442C73.2224 36.2414 72.9259 36.2921 72.0663 36.292C70.2602 36.2916 69.4957 35.6979 69.0094 33.9183C68.8777 33.4363 68.8437 32.1314 68.8103 26.2804L68.7701 19.2239H71.7884C73.5361 19.2239 74.9236 19.1796 75.0842 19.1186C75.6074 18.92 75.812 18.2204 75.8599 16.4662C75.9083 14.6966 75.7816 13.8777 75.3874 13.41L75.1221 13.0955L71.9788 13.0675L68.8353 13.0395L68.7823 9.77921C68.7294 6.52201 68.7292 6.51884 68.4826 6.31967C68.3467 6.21004 68.0607 6.06616 67.847 5.99988C67.3524 5.84649 63.4065 5.77809 62.6597 5.91002ZM198.888 12.1413C198.07 12.2561 197.484 12.5295 197.303 12.8809C197.194 13.0926 197.175 15.0511 197.207 22.7125C197.243 30.9548 197.273 32.4334 197.423 33.3897C198.025 37.2031 199.591 39.6106 202.342 40.9525C203.325 41.4322 204.402 41.7063 205.885 41.8542C209.285 42.1934 212.287 41.0183 215.439 38.1144L216.438 37.1941L216.472 38.8956L216.506 40.5972L216.797 40.8471C216.957 40.9847 217.267 41.1482 217.486 41.2106C218.162 41.4037 220.237 41.4653 221.247 41.3221C222.326 41.1691 222.804 40.9079 222.936 40.399C222.984 40.2132 223.011 33.9409 222.996 26.4609L222.968 12.8608L222.655 12.612C222.122 12.1877 221.451 12.0878 219.154 12.0903C217.463 12.092 216.916 12.1289 216.445 12.2727C215.345 12.6086 215.45 11.6078 215.418 22.0687L215.39 31.2342L214.624 32.0815C212.313 34.6363 210.574 35.5698 208.637 35.296C206.872 35.0465 205.68 33.8826 205.035 31.7795C204.886 31.2925 204.857 30.073 204.806 22.0627C204.739 11.6493 204.838 12.6087 203.803 12.29C203.162 12.0927 199.931 11.9949 198.888 12.1413ZM189.676 12.2588C188.847 12.3815 188.099 12.672 187.332 13.1693C186.57 13.6637 184.903 15.3357 184.088 16.4224L183.455 17.2681L183.402 15.3292C183.35 13.4535 183.341 13.3838 183.1 13.1898C182.653 12.8288 182.044 12.7325 180.224 12.7348C178.336 12.7372 177.761 12.8373 177.286 13.2454L176.993 13.4969V27.364V41.231L177.28 41.4778C177.752 41.8829 178.587 42.0057 180.859 42.0043C183.191 42.003 183.949 41.8621 184.348 41.3561C184.565 41.0808 184.567 41.0087 184.567 32.5497V24.021L185.229 23.0538C186.485 21.2185 187.909 19.8778 189.017 19.4879C189.781 19.2187 190.95 19.2831 192.197 19.663C193.193 19.9663 193.316 19.9827 193.564 19.8442C193.952 19.6272 194.096 19.2561 194.224 18.1414C194.331 17.2126 194.277 14.318 194.139 13.5445C194.043 13.0091 193.66 12.7158 192.746 12.4772C191.737 12.2136 190.551 12.1293 189.676 12.2588ZM11.1549 12.4129C7.95847 12.7794 5.68917 13.3838 3.62422 14.4185C2.46807 14.998 2.07581 15.3308 1.76574 15.9952C1.54826 16.4612 1.5169 16.6883 1.51606 17.8039C1.51478 19.2846 1.69582 20.0548 2.15176 20.5099C2.58227 20.9395 2.98079 20.9028 4.17105 20.3237C6.4699 19.2053 8.28019 18.55 9.82373 18.2776C10.7768 18.1094 13.267 18.1387 14.1006 18.3278C15.5525 18.6574 16.4161 19.4279 16.8826 20.8096C17.0678 21.3586 17.1252 21.8285 17.1673 23.1464L17.2201 24.7961L14.267 24.8564C11.0264 24.9226 9.50297 25.0817 7.49363 25.5637C3.33016 26.5626 1.008 28.5479 0.229291 31.7739C-0.0590582 32.9682 -0.0780204 34.959 0.187024 36.1905C0.909591 39.5471 3.45463 41.8637 7.143 42.5223C11.3112 43.2666 14.9693 42.2507 17.6962 39.5916L18.3583 38.9459V40.1272C18.3583 40.7915 18.4116 41.4251 18.48 41.575C18.7131 42.0855 19.34 42.2171 21.5363 42.2165C23.3234 42.2159 23.54 42.1957 23.9953 41.9863C24.3248 41.8347 24.5153 41.6732 24.5558 41.5111C24.5895 41.376 24.6 36.5559 24.5791 30.7997C24.5376 19.3693 24.5724 20.037 23.9133 18.0476C22.9201 15.0493 20.3842 13.2354 16.3267 12.6209C15.2707 12.4609 11.9137 12.3259 11.1549 12.4129ZM44.4708 12.4143C42.904 12.6365 41.8879 12.9314 40.7631 13.4908C39.5837 14.0772 38.2321 15.0566 37.0559 16.1773C36.4568 16.7482 35.9374 17.2153 35.902 17.2153C35.8664 17.2153 35.8372 16.41 35.8372 15.4258V13.6362L35.5585 13.4175C35.0687 13.0329 34.4988 12.9388 32.6592 12.9388C30.7546 12.9388 30.1526 13.0471 29.7339 13.4649L29.4813 13.717V32.895V52.0729L29.7001 52.3505C30.1034 52.8623 30.8547 53 33.2419 53C35.5979 53 36.3149 52.871 36.7955 52.3605L37.0555 52.0845L37.0851 45.583L37.1147 39.0814L37.7311 39.6509C39.2877 41.0891 41.2015 42.2008 42.6699 42.52C44.3578 42.8868 46.288 42.8321 48.0941 42.3661C50.3278 41.7897 52.4884 40.2484 53.8321 38.2724C54.8164 36.8252 55.7455 34.4799 56.1645 32.3855C56.8053 29.1822 56.7618 24.8122 56.0571 21.5658C54.9905 16.6532 52.1598 13.4385 48.1784 12.6184C47.351 12.448 45.1048 12.3243 44.4708 12.4143ZM88.9681 12.4612C82.0773 13.2486 77.906 17.9265 77.1404 25.7254C76.9918 27.2396 77.0736 30.1218 77.3085 31.6444C78.2527 37.768 81.487 41.2725 87.2168 42.3811C91.0278 43.1183 96.1321 42.7383 99.9665 41.4318C102.08 40.7117 102.192 40.5393 102.235 37.9355C102.262 36.3259 102.241 36.0376 102.076 35.7167C101.744 35.0703 101.541 35.0728 99.4798 35.7499C97.1131 36.5272 95.6998 36.8388 93.8503 36.9911C88.0832 37.4657 85.199 35.3619 84.8188 30.4033L84.7478 29.4783L93.2112 29.4776C99.0618 29.4773 101.805 29.4411 102.098 29.3603C102.628 29.2141 103.229 28.6013 103.4 28.0316C103.48 27.763 103.528 26.874 103.528 25.6443C103.528 21.2555 102.484 18.1142 100.257 15.8047C99.3664 14.8809 98.5442 14.2942 97.279 13.6798C96.1252 13.1193 95.2883 12.8528 93.9414 12.6166C92.7813 12.4132 90.1168 12.33 88.9681 12.4612ZM142.988 12.4638C141.529 12.6147 139.956 12.96 138.386 13.4737C135.752 14.3358 134.458 15.1334 134.072 16.1336C133.923 16.5171 133.879 16.9173 133.883 17.8495C133.888 19.2509 134.09 20.0941 134.526 20.5291C134.965 20.9666 135.395 20.9076 136.802 20.2175C138.49 19.3896 139.541 18.9683 140.88 18.5822C141.908 18.2857 142.23 18.2431 143.81 18.1944C146.287 18.118 147.447 18.3867 148.321 19.2395C149.182 20.0797 149.487 21.0565 149.577 23.2675L149.641 24.8268H147.522C138.549 24.8268 133.913 26.9245 132.639 31.5609C132.302 32.7887 132.304 35.3017 132.643 36.558C133.032 37.9952 133.616 39.0075 134.666 40.0595C135.98 41.3753 137.491 42.1423 139.511 42.5189C143.608 43.2829 147.305 42.2612 150.112 39.5893L150.774 38.9592V40.2493C150.774 41.4663 150.789 41.5537 151.026 41.7904C151.368 42.1315 151.98 42.2181 154.005 42.2118C155.83 42.2062 156.46 42.0944 156.817 41.7123C157.033 41.4806 157.034 41.4439 156.995 31.0125C156.952 19.7003 156.971 20.0923 156.377 18.2755C155.947 16.9643 155.456 16.1664 154.477 15.1893C153.683 14.3977 153.409 14.2015 152.458 13.7432C151.209 13.1418 150.229 12.8476 148.705 12.6173C147.383 12.4175 144.249 12.3333 142.988 12.4638ZM92.275 17.9032C94.6557 18.4633 95.9996 20.3973 96.1863 23.5318L96.2508 24.6153H90.5041H84.7574L84.8287 23.9546C85.1825 20.6799 86.7572 18.4751 89.1569 17.8943C89.9132 17.7112 91.478 17.7157 92.275 17.9032ZM45.1432 19.1399C45.5932 19.3072 45.9287 19.5486 46.4941 20.1124C47.8087 21.4234 48.437 23.1589 48.6626 26.103C49.0874 31.6455 47.1917 35.7006 43.9135 36.2616C43.0207 36.4144 42.0437 36.2744 41.1935 35.872C40.3781 35.486 38.9888 34.3189 37.9991 33.1886L37.1108 32.174L37.1096 27.6433L37.1084 23.1125L37.6262 22.4632C38.453 21.4263 39.9687 20.0327 40.715 19.623C41.3594 19.2693 42.1246 18.9817 42.7229 18.868C43.2321 18.7713 44.5494 18.9193 45.1432 19.1399ZM17.1931 31.9088V34.2337L16.531 34.8996C14.6427 36.7985 13.1491 37.487 11.155 37.3773C9.96897 37.3121 9.38634 37.1262 8.66737 36.5835C7.86112 35.975 7.51027 35.2096 7.46365 33.9574C7.42171 32.8325 7.58336 32.1979 8.08506 31.5171C8.74322 30.6239 10.2357 29.9164 11.8964 29.71C12.3334 29.6557 13.7039 29.6051 14.942 29.5976L17.1931 29.584V31.9088ZM149.609 31.8967V34.2096L148.57 35.2003C146.778 36.9097 145.778 37.3541 143.727 37.3541C142.502 37.3541 142.427 37.3411 141.747 37.0066C140.532 36.4098 139.931 35.508 139.793 34.0767C139.612 32.2011 140.74 30.6796 142.774 30.055C143.951 29.6934 144.759 29.6128 147.358 29.5973L149.609 29.584V31.8967ZM166.241 33.0796C163.939 33.4228 163.224 34.523 163.223 37.7241C163.222 39.5605 163.457 40.5229 164.074 41.2047C164.779 41.983 166.192 42.3413 168.147 42.2374C170.052 42.1362 171.089 41.6731 171.579 40.704C172.248 39.3827 172.333 36.3998 171.747 34.8352C171.522 34.2368 171.069 33.7359 170.487 33.4425C169.691 33.0418 167.658 32.8681 166.241 33.0796Z"/>
</mask>
<path fill-rule="evenodd" clip-rule="evenodd" d="M108.984 0.0895316C108.073 0.226116 107.602 0.394308 107.335 0.678049L107.077 0.952065V21.1972V41.4424L107.365 41.6893C107.822 42.0821 108.675 42.211 110.838 42.2137C113.023 42.2165 113.835 42.0908 114.334 41.6719L114.65 41.4066L114.677 34.1052L114.704 26.8038L119.404 34.216C124.764 42.6704 124.168 41.9556 126.038 42.175C127.357 42.33 130.362 42.2404 131.173 42.0221C132.185 41.7495 132.378 41.1503 131.827 39.997C131.66 39.6481 129.465 36.1816 126.948 32.2937C124.432 28.4057 122.388 25.1658 122.405 25.0938C122.423 25.0217 124.175 22.9937 126.3 20.5869C128.424 18.1801 130.353 15.9365 130.585 15.6011C130.945 15.0829 131.014 14.8923 131.05 14.3322C131.086 13.7666 131.061 13.6446 130.871 13.4732C130.502 13.1398 129.619 12.9766 127.84 12.9132C125.028 12.8128 123.458 13.1511 122.885 13.9808C122.755 14.169 120.862 16.7167 118.677 19.6424L114.704 24.9618L114.651 12.9219C114.622 6.28383 114.557 0.817487 114.505 0.738095C114.346 0.49146 113.575 0.216177 112.71 0.0974584C111.79 -0.0289776 109.801 -0.0332043 108.984 0.0895316ZM62.6597 5.91002C61.9879 6.02864 61.5188 6.25497 61.3702 6.53216C61.3023 6.6587 61.2611 7.93617 61.2611 9.9139V13.0923H59.4746C57.3695 13.0923 57.2473 13.1408 57.008 14.0695C56.7816 14.9484 56.8142 17.6654 57.0587 18.2977C57.3978 19.1751 57.5278 19.2239 59.5275 19.2239H61.2611L61.2632 26.8089C61.2648 32.765 61.2977 34.6371 61.4162 35.5259C61.9147 39.2627 63.5885 41.4123 66.6611 42.262C69.7482 43.1158 74.5485 42.5518 75.4235 41.2326C75.7953 40.672 75.9066 39.8629 75.8539 38.104C75.7778 35.57 75.6541 35.4176 74.0997 35.9442C73.2224 36.2414 72.9259 36.2921 72.0663 36.292C70.2602 36.2916 69.4957 35.6979 69.0094 33.9183C68.8777 33.4363 68.8437 32.1314 68.8103 26.2804L68.7701 19.2239H71.7884C73.5361 19.2239 74.9236 19.1796 75.0842 19.1186C75.6074 18.92 75.812 18.2204 75.8599 16.4662C75.9083 14.6966 75.7816 13.8777 75.3874 13.41L75.1221 13.0955L71.9788 13.0675L68.8353 13.0395L68.7823 9.77921C68.7294 6.52201 68.7292 6.51884 68.4826 6.31967C68.3467 6.21004 68.0607 6.06616 67.847 5.99988C67.3524 5.84649 63.4065 5.77809 62.6597 5.91002ZM198.888 12.1413C198.07 12.2561 197.484 12.5295 197.303 12.8809C197.194 13.0926 197.175 15.0511 197.207 22.7125C197.243 30.9548 197.273 32.4334 197.423 33.3897C198.025 37.2031 199.591 39.6106 202.342 40.9525C203.325 41.4322 204.402 41.7063 205.885 41.8542C209.285 42.1934 212.287 41.0183 215.439 38.1144L216.438 37.1941L216.472 38.8956L216.506 40.5972L216.797 40.8471C216.957 40.9847 217.267 41.1482 217.486 41.2106C218.162 41.4037 220.237 41.4653 221.247 41.3221C222.326 41.1691 222.804 40.9079 222.936 40.399C222.984 40.2132 223.011 33.9409 222.996 26.4609L222.968 12.8608L222.655 12.612C222.122 12.1877 221.451 12.0878 219.154 12.0903C217.463 12.092 216.916 12.1289 216.445 12.2727C215.345 12.6086 215.45 11.6078 215.418 22.0687L215.39 31.2342L214.624 32.0815C212.313 34.6363 210.574 35.5698 208.637 35.296C206.872 35.0465 205.68 33.8826 205.035 31.7795C204.886 31.2925 204.857 30.073 204.806 22.0627C204.739 11.6493 204.838 12.6087 203.803 12.29C203.162 12.0927 199.931 11.9949 198.888 12.1413ZM189.676 12.2588C188.847 12.3815 188.099 12.672 187.332 13.1693C186.57 13.6637 184.903 15.3357 184.088 16.4224L183.455 17.2681L183.402 15.3292C183.35 13.4535 183.341 13.3838 183.1 13.1898C182.653 12.8288 182.044 12.7325 180.224 12.7348C178.336 12.7372 177.761 12.8373 177.286 13.2454L176.993 13.4969V27.364V41.231L177.28 41.4778C177.752 41.8829 178.587 42.0057 180.859 42.0043C183.191 42.003 183.949 41.8621 184.348 41.3561C184.565 41.0808 184.567 41.0087 184.567 32.5497V24.021L185.229 23.0538C186.485 21.2185 187.909 19.8778 189.017 19.4879C189.781 19.2187 190.95 19.2831 192.197 19.663C193.193 19.9663 193.316 19.9827 193.564 19.8442C193.952 19.6272 194.096 19.2561 194.224 18.1414C194.331 17.2126 194.277 14.318 194.139 13.5445C194.043 13.0091 193.66 12.7158 192.746 12.4772C191.737 12.2136 190.551 12.1293 189.676 12.2588ZM11.1549 12.4129C7.95847 12.7794 5.68917 13.3838 3.62422 14.4185C2.46807 14.998 2.07581 15.3308 1.76574 15.9952C1.54826 16.4612 1.5169 16.6883 1.51606 17.8039C1.51478 19.2846 1.69582 20.0548 2.15176 20.5099C2.58227 20.9395 2.98079 20.9028 4.17105 20.3237C6.4699 19.2053 8.28019 18.55 9.82373 18.2776C10.7768 18.1094 13.267 18.1387 14.1006 18.3278C15.5525 18.6574 16.4161 19.4279 16.8826 20.8096C17.0678 21.3586 17.1252 21.8285 17.1673 23.1464L17.2201 24.7961L14.267 24.8564C11.0264 24.9226 9.50297 25.0817 7.49363 25.5637C3.33016 26.5626 1.008 28.5479 0.229291 31.7739C-0.0590582 32.9682 -0.0780204 34.959 0.187024 36.1905C0.909591 39.5471 3.45463 41.8637 7.143 42.5223C11.3112 43.2666 14.9693 42.2507 17.6962 39.5916L18.3583 38.9459V40.1272C18.3583 40.7915 18.4116 41.4251 18.48 41.575C18.7131 42.0855 19.34 42.2171 21.5363 42.2165C23.3234 42.2159 23.54 42.1957 23.9953 41.9863C24.3248 41.8347 24.5153 41.6732 24.5558 41.5111C24.5895 41.376 24.6 36.5559 24.5791 30.7997C24.5376 19.3693 24.5724 20.037 23.9133 18.0476C22.9201 15.0493 20.3842 13.2354 16.3267 12.6209C15.2707 12.4609 11.9137 12.3259 11.1549 12.4129ZM44.4708 12.4143C42.904 12.6365 41.8879 12.9314 40.7631 13.4908C39.5837 14.0772 38.2321 15.0566 37.0559 16.1773C36.4568 16.7482 35.9374 17.2153 35.902 17.2153C35.8664 17.2153 35.8372 16.41 35.8372 15.4258V13.6362L35.5585 13.4175C35.0687 13.0329 34.4988 12.9388 32.6592 12.9388C30.7546 12.9388 30.1526 13.0471 29.7339 13.4649L29.4813 13.717V32.895V52.0729L29.7001 52.3505C30.1034 52.8623 30.8547 53 33.2419 53C35.5979 53 36.3149 52.871 36.7955 52.3605L37.0555 52.0845L37.0851 45.583L37.1147 39.0814L37.7311 39.6509C39.2877 41.0891 41.2015 42.2008 42.6699 42.52C44.3578 42.8868 46.288 42.8321 48.0941 42.3661C50.3278 41.7897 52.4884 40.2484 53.8321 38.2724C54.8164 36.8252 55.7455 34.4799 56.1645 32.3855C56.8053 29.1822 56.7618 24.8122 56.0571 21.5658C54.9905 16.6532 52.1598 13.4385 48.1784 12.6184C47.351 12.448 45.1048 12.3243 44.4708 12.4143ZM88.9681 12.4612C82.0773 13.2486 77.906 17.9265 77.1404 25.7254C76.9918 27.2396 77.0736 30.1218 77.3085 31.6444C78.2527 37.768 81.487 41.2725 87.2168 42.3811C91.0278 43.1183 96.1321 42.7383 99.9665 41.4318C102.08 40.7117 102.192 40.5393 102.235 37.9355C102.262 36.3259 102.241 36.0376 102.076 35.7167C101.744 35.0703 101.541 35.0728 99.4798 35.7499C97.1131 36.5272 95.6998 36.8388 93.8503 36.9911C88.0832 37.4657 85.199 35.3619 84.8188 30.4033L84.7478 29.4783L93.2112 29.4776C99.0618 29.4773 101.805 29.4411 102.098 29.3603C102.628 29.2141 103.229 28.6013 103.4 28.0316C103.48 27.763 103.528 26.874 103.528 25.6443C103.528 21.2555 102.484 18.1142 100.257 15.8047C99.3664 14.8809 98.5442 14.2942 97.279 13.6798C96.1252 13.1193 95.2883 12.8528 93.9414 12.6166C92.7813 12.4132 90.1168 12.33 88.9681 12.4612ZM142.988 12.4638C141.529 12.6147 139.956 12.96 138.386 13.4737C135.752 14.3358 134.458 15.1334 134.072 16.1336C133.923 16.5171 133.879 16.9173 133.883 17.8495C133.888 19.2509 134.09 20.0941 134.526 20.5291C134.965 20.9666 135.395 20.9076 136.802 20.2175C138.49 19.3896 139.541 18.9683 140.88 18.5822C141.908 18.2857 142.23 18.2431 143.81 18.1944C146.287 18.118 147.447 18.3867 148.321 19.2395C149.182 20.0797 149.487 21.0565 149.577 23.2675L149.641 24.8268H147.522C138.549 24.8268 133.913 26.9245 132.639 31.5609C132.302 32.7887 132.304 35.3017 132.643 36.558C133.032 37.9952 133.616 39.0075 134.666 40.0595C135.98 41.3753 137.491 42.1423 139.511 42.5189C143.608 43.2829 147.305 42.2612 150.112 39.5893L150.774 38.9592V40.2493C150.774 41.4663 150.789 41.5537 151.026 41.7904C151.368 42.1315 151.98 42.2181 154.005 42.2118C155.83 42.2062 156.46 42.0944 156.817 41.7123C157.033 41.4806 157.034 41.4439 156.995 31.0125C156.952 19.7003 156.971 20.0923 156.377 18.2755C155.947 16.9643 155.456 16.1664 154.477 15.1893C153.683 14.3977 153.409 14.2015 152.458 13.7432C151.209 13.1418 150.229 12.8476 148.705 12.6173C147.383 12.4175 144.249 12.3333 142.988 12.4638ZM92.275 17.9032C94.6557 18.4633 95.9996 20.3973 96.1863 23.5318L96.2508 24.6153H90.5041H84.7574L84.8287 23.9546C85.1825 20.6799 86.7572 18.4751 89.1569 17.8943C89.9132 17.7112 91.478 17.7157 92.275 17.9032ZM45.1432 19.1399C45.5932 19.3072 45.9287 19.5486 46.4941 20.1124C47.8087 21.4234 48.437 23.1589 48.6626 26.103C49.0874 31.6455 47.1917 35.7006 43.9135 36.2616C43.0207 36.4144 42.0437 36.2744 41.1935 35.872C40.3781 35.486 38.9888 34.3189 37.9991 33.1886L37.1108 32.174L37.1096 27.6433L37.1084 23.1125L37.6262 22.4632C38.453 21.4263 39.9687 20.0327 40.715 19.623C41.3594 19.2693 42.1246 18.9817 42.7229 18.868C43.2321 18.7713 44.5494 18.9193 45.1432 19.1399ZM17.1931 31.9088V34.2337L16.531 34.8996C14.6427 36.7985 13.1491 37.487 11.155 37.3773C9.96897 37.3121 9.38634 37.1262 8.66737 36.5835C7.86112 35.975 7.51027 35.2096 7.46365 33.9574C7.42171 32.8325 7.58336 32.1979 8.08506 31.5171C8.74322 30.6239 10.2357 29.9164 11.8964 29.71C12.3334 29.6557 13.7039 29.6051 14.942 29.5976L17.1931 29.584V31.9088ZM149.609 31.8967V34.2096L148.57 35.2003C146.778 36.9097 145.778 37.3541 143.727 37.3541C142.502 37.3541 142.427 37.3411 141.747 37.0066C140.532 36.4098 139.931 35.508 139.793 34.0767C139.612 32.2011 140.74 30.6796 142.774 30.055C143.951 29.6934 144.759 29.6128 147.358 29.5973L149.609 29.584V31.8967ZM166.241 33.0796C163.939 33.4228 163.224 34.523 163.223 37.7241C163.222 39.5605 163.457 40.5229 164.074 41.2047C164.779 41.983 166.192 42.3413 168.147 42.2374C170.052 42.1362 171.089 41.6731 171.579 40.704C172.248 39.3827 172.333 36.3998 171.747 34.8352C171.522 34.2368 171.069 33.7359 170.487 33.4425C169.691 33.0418 167.658 32.8681 166.241 33.0796Z" stroke="#3E3921" stroke-width="2" mask="url(#path-1-inside-1_59_4078)"/>
</svg>
