<svg width="68" height="68" viewBox="0 0 68 68" fill="none" xmlns="http://www.w3.org/2000/svg">
<path d="M21.0262 39.8916L20.7317 38.9799C20.7086 38.9002 20.6932 38.8184 20.6858 38.7358C20.6789 38.8164 20.6622 38.8958 20.636 38.9723L20.3415 39.8954L21.0262 39.8916ZM22.0323 40.9672H21.3552L21.1601 40.3646H20.1885L19.9972 40.9672H19.3316L20.3262 38.2476H21.053L22.0323 40.9672Z" fill="#3E3921"/>
<path d="M24.4689 40.8721C24.227 40.9731 23.9661 41.0213 23.7039 41.0133C23.5218 41.0215 23.34 40.9919 23.1701 40.9262C23.0002 40.8605 22.8459 40.7603 22.7169 40.6318C22.4757 40.3747 22.344 40.0341 22.3497 39.682C22.3422 39.4877 22.3742 39.2939 22.4439 39.1123C22.5136 38.9307 22.6195 38.7651 22.7552 38.6255C22.8925 38.4894 23.0564 38.3829 23.2367 38.3127C23.417 38.2425 23.6099 38.21 23.8033 38.2173C24.0319 38.21 24.2599 38.2436 24.4766 38.3165V38.9077C24.2879 38.7967 24.0721 38.7399 23.8531 38.7437C23.7387 38.7385 23.6245 38.7572 23.5178 38.7986C23.4111 38.84 23.3142 38.9031 23.2334 38.984C23.1517 39.0719 23.0886 39.1753 23.0479 39.288C23.0071 39.4007 22.9895 39.5205 22.9962 39.6401C22.9898 39.7544 23.0061 39.8688 23.0442 39.9768C23.0823 40.0848 23.1414 40.1843 23.2181 40.2695C23.2962 40.3484 23.3899 40.4101 23.4933 40.4509C23.5967 40.4916 23.7075 40.5103 23.8186 40.506C24.0489 40.5 24.2734 40.4329 24.4689 40.3114V40.8721Z" fill="#3E3921"/>
<path d="M27.0242 40.8722C26.7822 40.9732 26.5213 41.0213 26.2591 41.0134C26.0765 41.0217 25.8941 40.9921 25.7236 40.9264C25.553 40.8607 25.398 40.7605 25.2684 40.6319C25.024 40.3762 24.8894 40.0354 24.8935 39.6821C24.8859 39.4878 24.918 39.294 24.9877 39.1124C25.0574 38.9308 25.1633 38.7652 25.299 38.6255C25.4369 38.4892 25.6014 38.3826 25.7824 38.3124C25.9634 38.2421 26.1569 38.2098 26.351 38.2174C26.5795 38.2105 26.8074 38.2441 27.0242 38.3166V38.9078C26.8315 38.7881 26.6085 38.7259 26.3816 38.7285C26.2673 38.7241 26.1533 38.7431 26.0466 38.7844C25.94 38.8258 25.8431 38.8885 25.7619 38.9688C25.6805 39.057 25.6177 39.1604 25.577 39.273C25.5362 39.3857 25.5185 39.5053 25.5247 39.6249C25.5137 39.8562 25.5948 40.0824 25.7504 40.2543C25.8279 40.3329 25.921 40.3945 26.0238 40.4352C26.1265 40.4759 26.2366 40.4949 26.3471 40.4908C26.5795 40.4925 26.8081 40.4319 27.0089 40.3153L27.0242 40.8722Z" fill="#3E3921"/>
<path d="M28.7916 38.7286C28.6925 38.7248 28.594 38.7447 28.5042 38.7865C28.4144 38.8283 28.3359 38.8908 28.2752 38.9689C28.142 39.1568 28.076 39.3838 28.0877 39.6135C28.0811 39.8432 28.154 40.0682 28.2943 40.2505C28.3537 40.3261 28.4299 40.3867 28.5168 40.4278C28.6038 40.4688 28.6992 40.4891 28.7954 40.487C28.892 40.4908 28.9881 40.4717 29.0759 40.4312C29.1637 40.3908 29.2406 40.3302 29.3003 40.2544C29.4349 40.0715 29.5012 39.8476 29.4878 39.6212C29.502 39.3869 29.4374 39.1547 29.3042 38.9613C29.2475 38.8847 29.1729 38.8232 29.0869 38.7819C29.0009 38.7407 28.9061 38.7211 28.8107 38.7248L28.7916 38.7286ZM28.7839 41.0134C28.6066 41.0202 28.4299 40.9898 28.2651 40.9241C28.1004 40.8583 27.9513 40.7588 27.8276 40.632C27.7002 40.5008 27.6007 40.3454 27.535 40.175C27.4693 40.0046 27.4387 39.8227 27.4451 39.6402C27.4291 39.2563 27.5667 38.8817 27.8276 38.5989C27.9567 38.4685 28.1121 38.367 28.2836 38.3013C28.4551 38.2355 28.6387 38.2069 28.8222 38.2175C28.9978 38.2109 29.1727 38.2414 29.3356 38.3072C29.4985 38.3729 29.6455 38.4724 29.767 38.5989C30.0147 38.8746 30.1438 39.2362 30.1266 39.6059C30.1414 39.9874 30.0038 40.3591 29.7441 40.6396C29.6175 40.7679 29.4652 40.8682 29.2971 40.934C29.129 40.9997 28.949 41.0294 28.7686 41.0211" fill="#3E3921"/>
<path d="M33.512 41.7111H32.9726V40.9672H30.7616V38.2476H31.3774V40.4447H32.5059V38.2476H33.1218V40.4447H33.512V41.7111Z" fill="#3E3921"/>
<path d="M36.6144 40.9672H36.0329V39.472C36.0329 39.3003 36.0329 39.1554 36.052 39.0333C36.0253 39.0867 35.9794 39.1592 35.9143 39.2584L34.7897 40.9672H34.1585V38.2476H34.7361V39.7504C34.7446 39.8774 34.7446 40.0049 34.7361 40.1319C34.7361 40.1319 34.7897 40.0403 34.8777 39.9106L35.9449 38.2476H36.6029L36.6144 40.9672Z" fill="#3E3921"/>
<path d="M38.8291 39.8916L38.5384 38.9799C38.5152 38.9002 38.4998 38.8185 38.4925 38.7358C38.4856 38.816 38.4702 38.8953 38.4466 38.9723L38.1482 39.8954L38.8291 39.8916ZM39.8313 40.9672H39.1619L38.9668 40.3646H37.999L37.8078 40.9672H37.1422L38.1367 38.2476H38.8635L39.8313 40.9672Z" fill="#3E3921"/>
<path d="M43.1212 41.7111H42.5818V40.9672H40.3708V38.2476H40.9828V40.4447H42.1151V38.2476H42.731V40.4447H43.1212V41.7111Z" fill="#3E3921"/>
<path d="M46.2235 40.9672H45.6382V39.472C45.6353 39.3255 45.6417 39.179 45.6573 39.0333C45.6305 39.0867 45.5846 39.1592 45.5196 39.2584L44.3911 40.9672H43.7638V38.2476H44.3605V39.7504C44.3694 39.8774 44.3694 40.0049 44.3605 40.1319C44.4022 40.0556 44.4481 39.9817 44.4983 39.9106L45.5846 38.2514H46.2426L46.2235 40.9672Z" fill="#3E3921"/>
<path d="M48.2968 39.4532V38.7132H48.0405C47.7523 38.7132 47.6082 38.8327 47.6082 39.0718C47.6065 39.1231 47.6159 39.1742 47.6357 39.2215C47.6555 39.2689 47.6852 39.3115 47.723 39.3464C47.8126 39.4183 47.9256 39.4549 48.0405 39.4494L48.2968 39.4532ZM48.9088 40.979H48.2968V39.911H48.1323C47.9818 39.911 47.8543 40.0254 47.7497 40.2543L47.4514 40.9676H46.7437L47.1262 40.1551C47.1627 40.0584 47.2194 39.9706 47.2926 39.8976C47.3658 39.8246 47.4539 39.768 47.5508 39.7317C47.3801 39.7134 47.2227 39.6312 47.1105 39.5016C46.9983 39.372 46.9396 39.2047 46.9464 39.0336C46.9414 38.9242 46.9628 38.8151 47.0087 38.7156C47.0546 38.6161 47.1238 38.5289 47.2104 38.4615C47.4348 38.3088 47.7044 38.2362 47.9754 38.2555H48.9165L48.9088 40.979Z" fill="#3E3921"/>
<path d="M10.7438 45.5826H10.1394V43.9539C10.1394 43.7784 10.1394 43.5724 10.1623 43.3703C10.143 43.4929 10.1148 43.614 10.0782 43.7326L9.42021 45.5826H8.9191L8.26879 43.7517C8.23195 43.6264 8.20257 43.499 8.18081 43.3703C8.18081 43.6411 8.20376 43.8738 8.20376 44.0759V45.5788H7.63762V42.8591H8.53274L9.09506 44.4726C9.13785 44.5968 9.16985 44.7244 9.19069 44.8541C9.21998 44.7252 9.25573 44.5979 9.2978 44.4726L9.85629 42.8629H10.7438V45.5826Z" fill="#3E3921"/>
<path d="M13.1959 45.5826H11.5625V42.8591H13.1347V43.3588H12.1784V43.9653H13.0697V44.465H12.1784V45.0868H13.1959V45.5826Z" fill="#3E3921"/>
<path d="M17.4342 45.5825H16.6691L15.862 44.4077C15.835 44.3634 15.8108 44.3176 15.7893 44.2704V45.5787H15.1811V44.2589C15.159 44.3065 15.1335 44.3524 15.1046 44.3963L14.2936 45.5825H13.5286L14.569 44.1636L13.6089 42.8629H14.3395L15.1046 44.0072C15.1352 44.053 15.162 44.0949 15.1811 44.1292V42.859H15.7817V44.1216L15.8543 43.9996L16.6194 42.8552H17.3539L16.3937 44.1559L17.4342 45.5825Z" fill="#3E3921"/>
<path d="M19.6835 45.0829V43.3741H19.2207C19.1994 43.6603 19.1507 43.9439 19.0753 44.2209C18.9996 44.5169 18.8971 44.8054 18.7693 45.0829H19.6835ZM20.6896 46.3264H20.1502V45.5826H18.4173V46.3264H17.8856V45.0829H18.1381C18.5067 44.3978 18.7097 43.6363 18.731 42.8591H20.2994V45.0829H20.6819L20.6896 46.3264Z" fill="#3E3921"/>
<path d="M23.7918 45.5826H23.2142V44.0874C23.2064 43.9413 23.2064 43.7948 23.2142 43.6487C23.1743 43.7264 23.1296 43.8016 23.0803 43.8738L21.9518 45.5826H21.336V42.8591H21.9174V44.3658C21.9257 44.4928 21.9257 44.6203 21.9174 44.7473C21.9174 44.7473 21.971 44.6557 22.059 44.526L23.1415 42.8668H23.7995L23.7918 45.5826Z" fill="#3E3921"/>
<path d="M26.5691 45.4836C26.3278 45.5873 26.0666 45.6368 25.804 45.6285C25.622 45.6365 25.4403 45.6068 25.2704 45.5411C25.1005 45.4755 24.9461 45.3753 24.8171 45.2471C24.6949 45.1157 24.6002 44.9613 24.5385 44.793C24.4767 44.6247 24.4492 44.4458 24.4575 44.2668C24.4502 44.0752 24.4813 43.8841 24.5489 43.7046C24.6166 43.5252 24.7194 43.361 24.8515 43.2216C24.9891 43.0863 25.1532 42.9805 25.3335 42.911C25.5138 42.8414 25.7065 42.8095 25.8996 42.8173C26.1284 42.8123 26.3562 42.8472 26.5729 42.9203V43.4963C26.3841 43.3856 26.1684 43.3288 25.9494 43.3323C25.835 43.3273 25.7209 43.3461 25.6142 43.3875C25.5075 43.4289 25.4106 43.4919 25.3297 43.5726C25.2485 43.66 25.1857 43.7627 25.1449 43.8748C25.1042 43.9868 25.0864 44.1058 25.0925 44.2248C25.0861 44.3391 25.1024 44.4536 25.1405 44.5616C25.1786 44.6696 25.2377 44.769 25.3144 44.8542C25.3924 44.933 25.4862 44.9944 25.5897 45.0345C25.6932 45.0746 25.804 45.0925 25.9149 45.0869C26.1462 45.0894 26.3738 45.0287 26.5729 44.9114L26.5691 45.4836Z" fill="#3E3921"/>
<path d="M29.9927 46.3264H29.4533V45.5826H27.2423V42.8591H27.8582V45.0601H28.9866V42.8591H29.6025V45.0601H29.9927V46.3264Z" fill="#3E3921"/>
<path d="M33.0912 45.5826H32.5021V44.0874C32.4947 43.9413 32.4947 43.7948 32.5021 43.6487C32.4605 43.7263 32.4145 43.8014 32.3644 43.8738L31.2359 45.5826H30.6392V42.8591H31.2168V44.3658C31.2254 44.4928 31.2254 44.6203 31.2168 44.7473C31.2168 44.7473 31.2704 44.6557 31.3545 44.526L32.4371 42.8668H33.095L33.0912 45.5826Z" fill="#3E3921"/>
<path d="M36.2737 45.5826H35.6579V43.397H34.5256V45.5826H33.9097V42.8591H36.2737V45.5826Z" fill="#3E3921"/>
<path d="M39.311 45.5835H38.699V43.3711H38.1482C38.0933 44.0219 37.9544 44.6629 37.735 45.2783C37.6799 45.3845 37.5955 45.4728 37.4919 45.5329C37.3882 45.593 37.2696 45.6225 37.1497 45.6178C37.038 45.6169 36.927 45.5989 36.8208 45.5644V45.08C36.8806 45.1034 36.944 45.1163 37.0082 45.1181C37.0586 45.1185 37.1075 45.1009 37.1459 45.0685C37.2089 44.9913 37.2545 44.9016 37.2798 44.8053C37.3589 44.5651 37.424 44.3206 37.4749 44.0729C37.5399 43.7258 37.6088 43.3101 37.6662 42.8638H39.311V45.5835Z" fill="#3E3921"/>
<path d="M42.5856 45.5826H42.0042V44.0874C41.9962 43.9413 41.9962 43.7948 42.0042 43.6487C41.9774 43.6983 41.9315 43.7746 41.8703 43.8738L40.7227 45.5826H40.1298V42.8591H40.7112V44.3658C40.7189 44.4929 40.7189 44.6202 40.7112 44.7473C40.7112 44.7473 40.7648 44.6557 40.8528 44.526L41.9353 42.8668H42.5971L42.5856 45.5826Z" fill="#3E3921"/>
<path d="M45.7682 45.5826H45.1523V44.4726H44.02V45.5826H43.4042V42.8591H44.02V43.9462H45.1523V42.8591H45.7682V45.5826Z" fill="#3E3921"/>
<path d="M47.9831 44.507L47.6886 43.5915C47.6644 43.512 47.649 43.4302 47.6427 43.3474C47.6363 43.4277 47.6209 43.507 47.5967 43.5839L47.2984 44.507H47.9831ZM48.9892 45.5826H48.3197L48.1246 44.9761H47.153L46.9617 45.5826H46.2961L47.2907 42.8591H48.0214L48.9892 45.5826Z" fill="#3E3921"/>
<path d="M50.1367 43.3321V44.1827H50.3739C50.7029 44.1827 50.8674 44.0416 50.8674 43.7517C50.8674 43.4618 50.7029 43.3321 50.3739 43.3321H50.1367ZM50.1367 44.6443V45.5826H49.5208V42.8591H50.481C51.1696 42.8591 51.51 43.149 51.51 43.7288C51.5144 43.8539 51.4902 43.9783 51.4391 44.0927C51.3881 44.207 51.3116 44.3082 51.2155 44.3887C50.9939 44.5688 50.7129 44.6599 50.4274 44.6443H50.1367Z" fill="#3E3921"/>
<path d="M54.4746 45.5826H53.8549V44.4726H52.7226V45.5826H52.1106V42.8591H52.7226V43.9462H53.8549V42.8591H54.4746V45.5826Z" fill="#3E3921"/>
<path d="M56.4715 43.3441C56.3722 43.3408 56.2734 43.3612 56.1836 43.4037C56.0938 43.4462 56.0154 43.5094 55.9551 43.5882C55.8216 43.7745 55.7556 44.0005 55.7677 44.2291C55.754 44.4578 55.8202 44.6843 55.9551 44.8699C56.0149 44.9447 56.0912 45.0047 56.1782 45.045C56.2652 45.0854 56.3603 45.1051 56.4562 45.1026C56.5529 45.1059 56.6491 45.0869 56.7373 45.0473C56.8256 45.0076 56.9034 44.9482 56.965 44.8737C57.0965 44.6881 57.1612 44.4636 57.1486 44.2367C57.1637 44.0029 57.1004 43.7708 56.9688 43.5768C56.9119 43.5005 56.8373 43.4391 56.7513 43.3979C56.6653 43.3567 56.5706 43.3369 56.4753 43.3403L56.4715 43.3441ZM56.4486 45.629C56.2713 45.6355 56.0946 45.6049 55.9299 45.5392C55.7652 45.4735 55.6161 45.3742 55.4922 45.2475C55.3652 45.1161 55.266 44.9606 55.2003 44.7903C55.1346 44.6199 55.1038 44.4382 55.1097 44.2558C55.0942 43.8719 55.2317 43.4975 55.4922 43.2144C55.6209 43.0845 55.7757 42.9833 55.9465 42.9176C56.1173 42.8518 56.3002 42.823 56.483 42.833C56.6592 42.8256 56.835 42.8558 56.9986 42.9216C57.1622 42.9873 57.3099 43.0872 57.4317 43.2144C57.6793 43.4901 57.8084 43.8517 57.7912 44.2214C57.7988 44.4104 57.7688 44.5989 57.7032 44.7763C57.6376 44.9536 57.5375 45.1164 57.4087 45.2551C57.2822 45.3837 57.13 45.4841 56.9619 45.5498C56.7938 45.6156 56.6136 45.6451 56.4333 45.6366" fill="#3E3921"/>
<path d="M60.5109 41.9709C60.5033 42.0646 60.4763 42.1557 60.4315 42.2384C60.3867 42.3211 60.3252 42.3937 60.2508 42.4515C60.0901 42.5716 59.8931 42.6334 59.6923 42.6269C59.4878 42.6348 59.2868 42.5729 59.1224 42.4515C59.0513 42.3931 58.9942 42.3197 58.9551 42.2366C58.9161 42.1534 58.8961 42.0627 58.8967 41.9709H59.3328C59.3359 42.0161 59.3479 42.0604 59.3683 42.1009C59.3886 42.1415 59.4169 42.1777 59.4513 42.2074C59.5236 42.2691 59.6164 42.3017 59.7115 42.2989C59.8058 42.2997 59.897 42.2657 59.9678 42.2035C60.0029 42.1745 60.0316 42.1384 60.052 42.0977C60.0724 42.057 60.0841 42.0125 60.0863 41.967L60.5109 41.9709ZM60.8935 45.5984H60.312V44.0879C60.3108 43.9414 60.3172 43.795 60.3312 43.6492C60.2896 43.7268 60.2436 43.8019 60.1934 43.8743L59.065 45.5831H58.4453V42.8596H59.0267V44.3663C59.034 44.4934 59.034 44.6207 59.0267 44.7478C59.0267 44.7478 59.0803 44.6562 59.1683 44.5265L60.2508 42.8672H60.9126L60.8935 45.5984Z" fill="#3E3921"/>
<path d="M24.6181 50.1988H24.0099V48.5701C24.0099 48.3946 24.0099 48.1886 24.0328 47.9865C24.0114 48.109 23.982 48.2301 23.9448 48.3488L23.306 50.1988H22.7896L22.1393 48.3679C22.1026 48.2426 22.0732 48.1152 22.0513 47.9865C22.0513 48.2573 22.0743 48.49 22.0743 48.696V50.1988H21.5043V47.4753H22.4032L22.9617 49.0888C23.0064 49.2127 23.0397 49.3404 23.0612 49.4703C23.0916 49.3413 23.1286 49.214 23.1721 49.0888L23.7268 47.483H24.6066L24.6181 50.1988Z" fill="#3E3921"/>
<path d="M27.0701 50.1987H25.4329V47.479H27.0051V47.9749H26.0487V48.5814H26.9362V49.0772H26.0487V49.7028H27.0701V50.1987Z" fill="#3E3921"/>
<path d="M29.3692 49.6953V47.9865H28.9025C28.8839 48.274 28.8365 48.559 28.7609 48.8371C28.686 49.1333 28.5836 49.4219 28.4549 49.6991L29.3692 49.6953ZM30.3752 50.9388H29.8244V50.1988H28.0992V50.9388H27.5674V49.6953H27.8199C28.1851 49.0108 28.3843 48.2505 28.4014 47.4753H29.9812V49.6953H30.3637L30.3752 50.9388Z" fill="#3E3921"/>
<path d="M33.4775 50.1988H32.8846V48.7036C32.8846 48.5319 32.8846 48.3832 32.8846 48.2649C32.8578 48.3145 32.8119 48.3908 32.7507 48.49L31.6223 50.2027H31.0217V47.4753H31.5993V48.9782C31.6079 49.1052 31.6079 49.2327 31.5993 49.3597C31.5993 49.3597 31.6529 49.2681 31.7409 49.1384L32.8234 47.483H33.4814L33.4775 50.1988Z" fill="#3E3921"/>
<path d="M37.0504 50.9387H36.5072V50.1987H34.2961V47.479H34.912V49.6723H36.0405V47.479H36.6564V49.6723H37.0504V50.9387Z" fill="#3E3921"/>
<path d="M40.1527 50.1988H39.5675V48.7036C39.5675 48.5571 39.5752 48.4107 39.5904 48.2649C39.5598 48.3145 39.5139 48.3908 39.4489 48.49L38.3242 50.2027H37.6931V47.4753H38.2745V48.9782C38.2836 49.1052 38.2836 49.2327 38.2745 49.3597C38.3163 49.2835 38.3623 49.2096 38.4122 49.1384L39.4948 47.483H40.1527V50.1988Z" fill="#3E3921"/>
<path d="M43.3315 50.1987H42.7157V49.0887H41.5834V50.1987H40.9713V47.479H41.5834V48.5623H42.7157V47.479H43.3315V50.1987Z" fill="#3E3921"/>
<path d="M47.0382 50.1988H46.43V47.4753H47.0382V50.1988ZM44.7774 48.9592V49.722H45.0529C45.3627 49.722 45.5157 49.5923 45.5157 49.3406C45.5157 49.0888 45.3665 48.9592 45.0605 48.9592H44.7774ZM44.1577 50.1988V47.4753H44.7774V48.4938H45.16C45.8179 48.4938 46.1469 48.7608 46.1469 49.2948C46.154 49.4179 46.1341 49.5411 46.0885 49.6558C46.0429 49.7704 45.9728 49.8737 45.883 49.9585C45.6669 50.1306 45.3937 50.2151 45.1179 50.195L44.1577 50.1988Z" fill="#3E3921"/>
<path d="M33.4393 15.9986C33.9068 16.4998 34.3079 17.0587 34.6328 17.6616C34.9578 17.0587 35.3589 16.4998 35.8263 15.9986C35.5061 15.2999 35.1056 14.6406 34.6328 14.0341C34.16 14.6406 33.7595 15.2999 33.4393 15.9986ZM34.6328 18.703L34.4148 18.2453C34.0639 17.4866 33.5867 16.7927 33.0032 16.1931L32.9038 16.0863L32.9612 15.9566C33.3436 15.0844 33.8513 14.2723 34.4683 13.5459L34.6328 13.3628L34.7973 13.5459C35.4064 14.2744 35.9075 15.0862 36.2853 15.9566L36.3427 16.0901L36.2433 16.1969C35.6598 16.7965 35.1826 17.4904 34.8317 18.2491L34.6328 18.703Z" fill="#3E3921"/>
<path d="M33.4392 32.5148C33.7606 33.214 34.161 33.8743 34.6327 34.483C35.1046 33.8746 35.5051 33.2142 35.8262 32.5148C35.3585 32.0151 34.9573 31.4574 34.6327 30.8555C34.308 31.4574 33.9069 32.0151 33.4392 32.5148ZM34.6327 35.1543L34.4682 34.9712C33.8574 34.244 33.3561 33.4319 32.9801 32.5605L32.9228 32.4347L33.0222 32.3279C33.5987 31.7238 34.0694 31.0275 34.4146 30.2681L34.6135 29.8218L34.8125 30.2681C35.1629 31.027 35.6402 31.7209 36.224 32.3202L36.3273 32.4347L36.2699 32.5643C35.8964 33.4325 35.4005 34.243 34.7972 34.9712L34.6327 35.1543Z" fill="#3E3921"/>
<path d="M30.6812 16.9059C31.2911 17.2143 31.8593 17.5989 32.372 18.0502C32.4712 17.3759 32.6563 16.7171 32.9228 16.0896C32.3819 15.5419 31.7785 15.0592 31.1249 14.6515C30.891 15.3836 30.7421 16.14 30.6812 16.9059ZM32.7239 19.0305L32.3834 18.6796C31.793 18.0858 31.1063 17.5958 30.3522 17.2301L30.2068 17.1767V17.0317C30.2616 16.0844 30.4549 15.1502 30.7806 14.2587L30.8725 14.0298L31.0905 14.1442C31.9121 14.6226 32.6617 15.2146 33.3168 15.9027L33.4163 16.0057L33.3589 16.1392C33.0144 16.9013 32.8035 17.7167 32.7354 18.5499L32.7239 19.0305Z" fill="#3E3921"/>
<path d="M32.7698 18.4473C32.854 18.5351 32.9343 18.6228 33.0108 18.7182C33.3562 19.1323 33.6515 19.5855 33.8906 20.0685C33.9577 19.5318 34.086 19.0045 34.2732 18.4969C34.3191 18.3787 34.365 18.2681 34.4109 18.1574C34.1125 17.5347 33.7261 16.9579 33.2633 16.4448C33.0082 17.0861 32.8459 17.7604 32.7813 18.4473H32.7698ZM34.2923 22.2618L33.8677 21.0907C33.6002 20.3308 33.2015 19.6233 32.6895 19.0004C32.5977 18.8898 32.4982 18.783 32.3988 18.6838L32.3299 18.6114V18.5122C32.4037 17.6307 32.6262 16.768 32.9879 15.9603L33.1103 15.6514L33.336 15.8879C33.9545 16.5228 34.4603 17.258 34.8317 18.0621L34.8699 18.1536L34.8317 18.2414C34.7743 18.371 34.7169 18.5046 34.6672 18.6457C34.4017 19.4056 34.2722 20.2061 34.2847 21.0106L34.2923 22.2618Z" fill="#3E3921"/>
<path d="M36.3274 32.4349C36.8691 32.9828 37.4724 33.4666 38.1252 33.8767C38.3601 33.1448 38.5103 32.3884 38.5728 31.6224C37.9617 31.3139 37.3923 30.9294 36.8782 30.4781C36.7782 31.1509 36.5931 31.8084 36.3274 32.4349ZM38.3548 34.5099L38.1367 34.3917C37.325 33.9092 36.5869 33.3132 35.9448 32.6218L35.8454 32.515L35.9027 32.3815C36.2462 31.6192 36.4558 30.8038 36.5224 29.9708L36.5607 29.4863L36.9012 29.8373C37.4854 30.4307 38.1656 30.922 38.9133 31.2905L39.0433 31.3554V31.5003C38.9887 32.4489 38.7954 33.3844 38.4695 34.2772L38.3548 34.5099Z" fill="#3E3921"/>
<path d="M34.87 30.356C35.1692 30.9794 35.5556 31.5573 36.0175 32.0725C36.273 31.4312 36.4353 30.7569 36.4995 30.0699C36.4192 29.9822 36.3389 29.8944 36.2585 29.7991C35.9132 29.3849 35.6179 28.9317 35.3787 28.4488C35.3128 28.9856 35.1845 29.513 34.9962 30.0203C34.9541 30.1347 34.9082 30.2453 34.8585 30.356H34.87ZM36.14 32.862L35.9104 32.6255C35.2916 31.9894 34.7858 31.2529 34.4147 30.4475L34.3765 30.3598L34.4147 30.272C34.476 30.1424 34.5295 30.0089 34.5754 29.8906C34.8409 29.1307 34.9704 28.3302 34.9579 27.5257V26.2593L35.3864 27.4303C35.6531 28.1906 36.0519 28.8981 36.5646 29.5206C36.6602 29.6312 36.7558 29.738 36.8553 29.841L36.9241 29.9097V30.005C36.8506 30.8878 36.6281 31.7518 36.2662 32.5607L36.14 32.862Z" fill="#3E3921"/>
<path d="M28.3937 18.7028C29.0745 18.7867 29.7417 18.9572 30.3791 19.2101C30.2346 18.5426 30.1768 17.8593 30.2069 17.1771C29.5174 16.8397 28.7908 16.5837 28.0418 16.4142C28.0706 17.188 28.1887 17.956 28.3937 18.7028ZM31.0447 19.9997L30.5895 19.7823C29.8295 19.4261 29.0148 19.2005 28.1795 19.1148H28.038L27.9959 18.9737C27.7243 18.0637 27.5852 17.1195 27.5828 16.1701V15.9221L27.8276 15.9603C28.7584 16.1264 29.6603 16.4258 30.5053 16.849L30.6354 16.9139V17.0588C30.5746 17.8919 30.6574 18.7292 30.8802 19.5344L31.0447 19.9997Z" fill="#3E3921"/>
<path d="M30.8878 19.4353L31.2053 19.607C31.675 19.8768 32.1104 20.2021 32.5021 20.5759C32.3741 20.0513 32.3086 19.5136 32.307 18.9738C32.307 18.8517 32.307 18.7297 32.307 18.5924C31.8129 18.1092 31.2527 17.6982 30.643 17.3717C30.6235 18.0608 30.7021 18.7492 30.8763 19.4163L30.8878 19.4353ZM33.6038 22.4678L32.8004 21.5104C32.2843 20.8999 31.6656 20.3836 30.972 19.9846C30.8457 19.9122 30.7157 19.8435 30.5894 19.7825L30.5014 19.7367L30.4708 19.6413C30.2388 18.787 30.1521 17.8999 30.2145 17.017L30.2337 16.689L30.5282 16.8339C31.3258 17.2182 32.0527 17.734 32.678 18.3597L32.7469 18.4283V18.5275C32.7469 18.6686 32.7469 18.8136 32.7469 18.9585C32.7566 19.7631 32.9081 20.5598 33.1945 21.312L33.6038 22.4678Z" fill="#3E3921"/>
<path d="M39.0395 31.3476C39.7355 31.6776 40.4671 31.9272 41.2199 32.0914C41.1926 31.3174 41.0745 30.5493 40.868 29.8028C40.1876 29.7167 39.5207 29.5463 38.8827 29.2954C39.0237 29.9647 39.0764 30.6495 39.0395 31.3323V31.3476ZM41.6522 32.5911L41.4074 32.5568C40.4766 32.3885 39.5748 32.088 38.7297 31.6642L38.5996 31.5994V31.4544C38.6596 30.6201 38.5768 29.7817 38.3548 28.975L38.2209 28.5059L38.6608 28.7195C39.4196 29.075 40.233 29.3007 41.0669 29.387H41.2123L41.2505 29.5243C41.5242 30.4339 41.6633 31.3783 41.6637 32.3279L41.6522 32.5911Z" fill="#3E3921"/>
<path d="M36.9471 29.9059C37.4444 30.3914 38.0086 30.8037 38.6226 31.1304C38.6456 30.4401 38.5683 29.7502 38.3931 29.082C38.286 29.0286 38.1789 28.9714 38.0718 28.9142C37.6041 28.6415 37.1701 28.3151 36.7788 27.9415C36.904 28.4664 36.9682 29.004 36.9701 29.5436C36.9701 29.6656 36.9701 29.7877 36.9701 29.925L36.9471 29.9059ZM39.0319 31.8322L38.7144 31.672C37.9166 31.288 37.1898 30.7721 36.5646 30.1462L36.4957 30.0776V29.9784C36.4957 29.8335 36.4957 29.6923 36.4957 29.5474C36.4861 28.7415 36.3346 27.9437 36.0482 27.1901L35.6198 26.019L36.4231 26.9726C36.937 27.5958 37.5557 28.125 38.2516 28.5366C38.3778 28.609 38.504 28.6739 38.6341 28.7387L38.7221 28.7807L38.7489 28.876C38.984 29.7298 39.0707 30.6174 39.0051 31.5004L39.0319 31.8322Z" fill="#3E3921"/>
<path d="M35.4247 27.476C35.6788 28.1874 36.0484 28.8524 36.5187 29.4442C36.4965 28.6873 36.3519 27.939 36.0903 27.2281C35.8105 26.8944 35.5548 26.5413 35.3252 26.1715C35.3887 26.6035 35.4219 27.0394 35.4247 27.476ZM36.9051 30.5046L36.5684 30.1461C36.4613 30.0355 36.3581 29.9249 36.2586 29.8028C35.7118 29.1413 35.2869 28.3884 35.0039 27.579V27.5065C34.9946 26.4763 34.8216 25.4541 34.4913 24.4779L34.9044 24.3291C35.2807 25.2884 35.8075 26.182 36.4652 26.9763L36.4919 27.0068V27.0412C36.7956 27.8424 36.9549 28.6908 36.9625 29.5472C36.9625 29.7036 36.9625 29.8562 36.9625 30.0088L36.9051 30.5046Z" fill="#3E3921"/>
<path d="M25.7543 19.1456C26.0454 19.8571 26.4177 20.5329 26.8637 21.1596C27.5319 21.0057 28.2171 20.9377 28.9026 20.9574C28.5395 20.3729 28.2552 19.7431 28.0572 19.0845C27.7473 19.054 27.4298 19.0388 27.1085 19.0388C26.6543 19.0385 26.2006 19.0691 25.7505 19.1303L25.7543 19.1456ZM26.6801 21.6364L26.5921 21.5219C26.0222 20.7649 25.5648 19.9299 25.2341 19.0426L25.1576 18.8099L25.3986 18.7641C25.9603 18.6633 26.5301 18.6148 27.1008 18.6192C27.4842 18.6179 27.8674 18.6383 28.2484 18.6802H28.3938L28.4359 18.8175C28.6664 19.6203 29.0311 20.3786 29.5146 21.0604L29.8015 21.4418L29.3157 21.3923C28.4808 21.3152 27.6388 21.3797 26.8254 21.583L26.6801 21.6364Z" fill="#3E3921"/>
<path d="M29.4418 20.9913C29.5604 20.9913 29.679 21.0218 29.8014 21.0409C30.3282 21.1383 30.8418 21.297 31.3315 21.5139C31.0304 21.0639 30.7838 20.5799 30.597 20.072C30.555 19.9576 30.5167 19.847 30.4861 19.7249C29.8563 19.4395 29.1892 19.2444 28.5046 19.1451C28.7278 19.8016 29.0433 20.4232 29.4418 20.9913ZM33.0567 22.9443L31.9742 22.3187C31.2794 21.9083 30.5183 21.6217 29.7249 21.4719C29.5833 21.4452 29.4418 21.4299 29.2964 21.4147H29.2008L29.1434 21.3346C28.6283 20.6132 28.2403 19.8096 27.9958 18.9582L27.9117 18.6416L28.2407 18.6797C29.1227 18.7711 29.9829 19.011 30.7845 19.3892L30.8725 19.4312L30.8992 19.5265C30.9375 19.6639 30.9796 19.8012 31.0293 19.9347C31.3136 20.6904 31.7292 21.3903 32.2572 22.0021L33.0567 22.9443Z" fill="#3E3921"/>
<path d="M32.2458 21.9718C32.6219 22.1941 32.9835 22.44 33.3284 22.708C33.1208 22.3244 32.9406 21.9267 32.789 21.5179C32.3053 20.936 31.7289 20.4373 31.0829 20.0417C31.3577 20.7442 31.7453 21.3974 32.2305 21.9757L32.2458 21.9718ZM34.3497 24.291C33.6677 23.5165 32.8657 22.8559 31.9742 22.3342L31.9168 22.2884C31.356 21.6382 30.9144 20.8944 30.6124 20.0913C30.5588 19.9464 30.5129 19.7976 30.4709 19.6489L30.337 19.1797L30.7807 19.3933C30.9184 19.462 31.0561 19.5306 31.19 19.6107C31.9305 20.0457 32.5872 20.6089 33.1294 21.2738L33.1715 21.3386C33.5369 22.3037 34.0533 23.2049 34.7016 24.0087L34.3497 24.291Z" fill="#3E3921"/>
<path d="M41.2047 29.4177C41.5146 29.4482 41.8359 29.4635 42.1534 29.4635C42.6074 29.4683 43.0611 29.4415 43.5114 29.3834C43.2198 28.672 42.8476 27.9963 42.402 27.3694C41.7336 27.522 41.0486 27.5899 40.3631 27.5715C40.7249 28.1513 41.0091 28.7758 41.2085 29.4291L41.2047 29.4177ZM42.1572 29.9098C41.7738 29.9108 41.3907 29.8904 41.0096 29.8487H40.8681L40.826 29.7076C40.6052 28.897 40.2482 28.1296 39.7702 27.438L39.4872 27.0566L39.973 27.1062C40.8066 27.1822 41.6472 27.1177 42.4594 26.9154L42.6009 26.8811L42.6889 26.9994C43.2559 27.7611 43.7107 28.5999 44.0393 29.4902L44.1158 29.7228L43.8748 29.7724C43.3131 29.8736 42.7432 29.9222 42.1725 29.9174" fill="#3E3921"/>
<path d="M38.7449 28.7727C39.3731 29.0597 40.0389 29.2562 40.7226 29.3563C40.5069 28.7014 40.1977 28.0809 39.8045 27.514C39.6859 27.514 39.5635 27.4834 39.4449 27.4606C38.9183 27.364 38.4048 27.2066 37.9148 26.9914C38.2068 27.4412 38.4443 27.9239 38.6225 28.4294C38.6645 28.5439 38.7028 28.6621 38.7372 28.7765L38.7449 28.7727ZM41.3346 29.8751L41.0056 29.8408C40.1225 29.7487 39.2612 29.5088 38.458 29.1313L38.37 29.0893L38.3509 29.0016C38.3126 28.8643 38.2705 28.7269 38.2208 28.5896C37.9359 27.8373 37.5217 27.1403 36.9967 26.5298L36.1896 25.5686L37.2721 26.1942C37.9663 26.6058 38.7277 26.8924 39.5214 27.041C39.6629 27.0677 39.8083 27.0829 39.9537 27.0982H40.0493L40.1067 27.1783C40.6226 27.8992 41.0108 28.703 41.2543 29.5547L41.3346 29.8751Z" fill="#3E3921"/>
<path d="M24.534 22.4826C25.0511 23.0556 25.6325 23.5676 26.2668 24.0083C26.8419 23.6352 27.4629 23.3377 28.1145 23.1234C27.5761 22.7005 27.0941 22.2108 26.68 21.6663C25.9333 21.8571 25.2117 22.1349 24.5302 22.494L24.534 22.4826ZM26.263 24.5309L26.1483 24.4241C25.3524 23.9024 24.6361 23.269 24.0214 22.5436L23.8684 22.3491L24.0788 22.2194C24.9029 21.7449 25.7921 21.3928 26.7182 21.1742L26.8598 21.1399L26.9477 21.2543C27.4391 21.9326 28.0417 22.5232 28.7303 23.0013L29.1358 23.2722L28.6768 23.4095C27.8597 23.6158 27.0836 23.9589 26.3816 24.4241L26.263 24.5309Z" fill="#3E3921"/>
<path d="M27.1467 21.5447C27.575 22.0863 28.0786 22.5641 28.6424 22.9637C28.7648 22.9332 28.8834 22.9103 28.9981 22.8912C29.5308 22.7981 30.0727 22.7687 30.6124 22.8035C30.1811 22.4835 29.7883 22.1148 29.4419 21.7049C29.3615 21.6096 29.2888 21.5142 29.2162 21.4189C28.5275 21.3652 27.8346 21.4088 27.1581 21.5486L27.1467 21.5447ZM32.7201 23.5702L31.4884 23.3528C30.694 23.2043 29.8798 23.1953 29.0823 23.3261C28.9369 23.3528 28.7992 23.3871 28.6615 23.4176L28.5659 23.4405L28.4855 23.3871C27.7562 22.8834 27.1173 22.2605 26.5958 21.5447L26.3969 21.2777L26.7182 21.1976C27.5802 20.9815 28.4727 20.9131 29.3577 20.9955L29.4419 20.9916L29.4992 21.0717C29.5834 21.1862 29.6714 21.2968 29.7632 21.4074C30.2882 22.0209 30.9175 22.5374 31.6223 22.9332L32.7201 23.5702Z" fill="#3E3921"/>
<path d="M34.4683 24.4019L34.3612 24.2798L34.6978 23.9976L34.8011 24.1196L34.4683 24.4019Z" fill="#3E3921"/>
<path d="M41.1473 25.4051C41.6858 25.8293 42.1678 26.3203 42.5818 26.866C43.3323 26.6737 44.0576 26.3946 44.7431 26.0345C44.2254 25.4606 43.6426 24.9486 43.0064 24.5087C42.4309 24.8801 41.81 25.1762 41.1588 25.3898L41.1473 25.4051ZM42.4135 27.3466L42.3255 27.2284C41.8303 26.5562 41.2251 25.9721 40.5353 25.5004L40.1298 25.2258L40.608 25.1076C41.4183 24.8949 42.1867 24.5467 42.8802 24.0777L42.9988 23.9976L43.1174 24.0777C43.9111 24.5977 44.626 25.2284 45.2404 25.9505L45.3934 26.1451L45.183 26.2748C44.3584 26.7483 43.4693 27.1003 42.5436 27.3199L42.4135 27.3466Z" fill="#3E3921"/>
<path d="M40.0495 27.0945C40.738 27.1492 41.4308 27.1069 42.1075 26.9687C41.6772 26.4344 41.1737 25.9631 40.6118 25.5688C40.4856 25.5993 40.367 25.6222 40.2522 25.6451C39.7194 25.7368 39.1775 25.765 38.638 25.729C39.0746 26.0495 39.4726 26.4194 39.8238 26.8313L40.0495 27.1174V27.0945ZM40.6156 27.579C40.3793 27.5799 40.1431 27.5684 39.908 27.5446H39.8123L39.7702 27.4378C39.6861 27.3196 39.5981 27.2052 39.5063 27.0945C38.9817 26.4821 38.3538 25.9657 37.651 25.5688L36.5646 24.947L37.7964 25.1644C38.5895 25.3125 39.4024 25.3215 40.1987 25.1911C40.344 25.1683 40.4856 25.1339 40.6233 25.0996L40.7189 25.0767L40.7992 25.1301C41.5293 25.6345 42.1683 26.2588 42.6889 26.9763L42.8879 27.2395L42.5665 27.3158C41.9402 27.4677 41.2984 27.5471 40.6539 27.5523" fill="#3E3921"/>
<path d="M37.3066 26.2059C37.9598 26.5893 38.6719 26.8626 39.4144 27.0146C38.9107 26.4492 38.3176 25.9698 37.6586 25.5956C37.2287 25.5164 36.8045 25.4093 36.3886 25.2752C36.7149 25.5662 37.0216 25.8784 37.3066 26.2097V26.2059ZM40.3936 27.5791L39.904 27.5257C39.751 27.5257 39.598 27.4914 39.445 27.4647C38.6012 27.309 37.7918 27.0055 37.0542 26.5683L36.993 26.5187C36.3203 25.736 35.5292 25.0629 34.648 24.5238L34.8661 24.1423C35.7748 24.6422 36.7574 24.995 37.7771 25.1875H37.8575C38.6066 25.6069 39.276 26.1543 39.8352 26.8048C39.9346 26.923 40.0264 27.0489 40.1182 27.1862L40.3936 27.5791Z" fill="#3E3921"/>
<path d="M34.564 24.5161L34.4569 24.3903L34.7935 24.1118L34.8968 24.2377L34.564 24.5161Z" fill="#3E3921"/>
<path d="M24.534 26.0341C25.2162 26.3917 25.9376 26.6695 26.6838 26.8619C27.0979 26.3162 27.5799 25.8253 28.1183 25.4009C27.4674 25.1866 26.8466 24.8905 26.2707 24.5198C25.636 24.9601 25.0546 25.4721 24.5378 26.0456L24.534 26.0341ZM26.8674 27.3692L26.7259 27.3348C25.7996 27.1114 24.9106 26.7555 24.0864 26.2782L23.876 26.1486L24.029 25.954C24.6441 25.2289 25.3603 24.5956 26.1559 24.0735L26.2745 23.9934L26.3931 24.0735C27.0907 24.5435 27.8628 24.893 28.6768 25.1072L29.155 25.2255L28.7495 25.5001C28.0614 25.9773 27.4588 26.5666 26.9669 27.2433L26.8674 27.3692Z" fill="#3E3921"/>
<path d="M26.6761 24.2563C27.2654 24.6183 27.9028 24.8956 28.5697 25.0803C28.6691 25.0116 28.7724 24.9506 28.8795 24.8895C29.3486 24.6203 29.8481 24.4078 30.3676 24.2563C29.8491 24.1039 29.3498 23.8927 28.8795 23.627C28.7724 23.5659 28.6691 23.5011 28.5697 23.4324C27.9024 23.6158 27.2648 23.8932 26.6761 24.2563ZM28.65 25.5685L28.5544 25.5456C27.6943 25.3108 26.8806 24.9316 26.1483 24.4242L25.8728 24.2411L26.1483 24.058C26.883 23.5628 27.6965 23.1952 28.5544 22.9709L28.65 22.948L28.7303 23.0052C28.8489 23.0815 28.9675 23.1616 29.1129 23.2341C29.8075 23.631 30.566 23.9047 31.3545 24.0427L32.5862 24.2563L31.3545 24.4738C30.5579 24.605 29.7903 24.8735 29.0861 25.2672C28.9599 25.3396 28.8374 25.4159 28.7036 25.496L28.65 25.5685Z" fill="#3E3921"/>
<path d="M29.1933 23.3033C29.8602 23.6659 30.5828 23.9159 31.3316 24.0433C31.7615 23.9694 32.1961 23.9261 32.6322 23.9136C32.2263 23.7512 31.8315 23.5626 31.4502 23.3491C30.705 23.2137 29.9426 23.2008 29.1933 23.3109V23.3033ZM31.3278 24.4858H31.2895C30.4419 24.3468 29.6251 24.0616 28.8758 23.6428C28.738 23.5627 28.608 23.4787 28.4932 23.3948L28.0877 23.1202L28.5583 22.9981C28.7227 22.9562 28.8681 22.9257 29.0135 22.899C29.8603 22.759 30.7251 22.768 31.5688 22.9257L31.6376 22.9485C32.5365 23.4558 33.5098 23.8188 34.5219 24.0242L34.4454 24.4552C33.9593 24.3808 33.4682 24.3439 32.9765 24.3446C32.4367 24.3433 31.8978 24.3892 31.366 24.4819L31.3278 24.4858Z" fill="#3E3921"/>
<path d="M34.5295 24.4513C34.4809 24.4272 34.4337 24.4004 34.388 24.3712L34.606 23.9897L34.7437 24.0698L34.5295 24.4513Z" fill="#3E3921"/>
<path d="M41.1473 23.1124C41.7985 23.3275 42.4195 23.6249 42.9949 23.9974C43.631 23.5574 44.2138 23.0454 44.7316 22.4716C44.0498 22.113 43.3283 21.8352 42.5818 21.6439C42.1684 22.189 41.6863 22.6787 41.1473 23.101V23.1124ZM42.9949 24.5085L42.8763 24.4246C42.1829 23.9555 41.4145 23.6072 40.6041 23.3947L40.1259 23.2802L40.5353 23.0209C41.2243 22.5433 41.827 21.9525 42.3178 21.2739L42.4058 21.1594L42.5474 21.1938C43.4731 21.4136 44.362 21.7656 45.1868 22.2389L45.3972 22.3686L45.2442 22.5631C44.6282 23.2819 43.912 23.9088 43.1173 24.4246L42.9949 24.5085Z" fill="#3E3921"/>
<path d="M38.8942 24.2567C39.4139 24.4073 39.9135 24.6199 40.3822 24.8899C40.4893 24.9509 40.5888 25.0158 40.692 25.0806C41.3592 24.8968 41.9967 24.6194 42.5856 24.2567C41.9972 23.8931 41.3595 23.6157 40.692 23.4328C40.5888 23.4976 40.4893 23.5663 40.3822 23.6273C39.9123 23.8939 39.4129 24.1051 38.8942 24.2567ZM40.6117 25.5689L40.5352 25.5002C40.4166 25.4201 40.2942 25.3438 40.1527 25.2713C39.449 24.8763 38.6812 24.6077 37.8843 24.4779L36.6525 24.2643L37.8996 24.0431C38.691 23.9108 39.4534 23.6424 40.1527 23.2497C40.2789 23.1772 40.4013 23.0971 40.5352 23.0208L40.6155 22.9636L40.7112 22.9865C41.5693 23.2101 42.3829 23.5777 43.1173 24.0736L43.3927 24.2567L43.1173 24.4398C42.3834 24.9365 41.5696 25.3042 40.7112 25.5269L40.6117 25.5689Z" fill="#3E3921"/>
<path d="M34.6596 24.5238L34.518 24.4437L34.7399 24.0623L34.8776 24.1424L34.6596 24.5238Z" fill="#3E3921"/>
<path d="M25.7542 29.3832C26.2041 29.4471 26.6579 29.479 27.1122 29.4785C27.4278 29.4785 27.7432 29.462 28.0571 29.429C28.258 28.775 28.5421 28.1495 28.9025 27.5675C28.2171 27.5884 27.5319 27.5218 26.8636 27.3692C26.4179 27.9961 26.0457 28.6718 25.7542 29.3832ZM27.1122 29.9134C26.5414 29.917 25.9715 29.8672 25.41 29.7646L25.169 29.715L25.2455 29.4824C25.5738 28.592 26.0285 27.7531 26.5958 26.9915L26.6838 26.8733L26.8253 26.9076C27.6388 27.1099 28.4807 27.1744 29.3156 27.0983L29.8014 27.0488L29.5145 27.4302C29.0307 28.1118 28.666 28.8702 28.4358 29.6731L28.3975 29.8142H28.2522C27.8711 29.856 27.488 29.8764 27.1046 29.8752" fill="#3E3921"/>
<path d="M27.1467 26.9728C27.6379 27.0714 28.1375 27.1225 28.6385 27.1254C28.8298 27.1254 29.0211 27.1254 29.2047 27.0987C29.2761 27.002 29.3513 26.9067 29.4304 26.8126C29.7789 26.4008 30.1743 26.0309 30.6086 25.7102C30.069 25.7463 29.5271 25.7182 28.9943 25.6263C28.8757 25.6034 28.7533 25.5805 28.6385 25.55C28.0761 25.9514 27.5738 26.4304 27.1467 26.9728ZM28.6385 27.5602C27.994 27.5549 27.3522 27.4755 26.7259 27.3237L26.3816 27.2474L26.5805 26.9842C27.1015 26.267 27.7404 25.6428 28.4702 25.138L28.5505 25.0846L28.6462 25.1075C28.7839 25.1419 28.9254 25.1724 29.067 25.1991C29.8685 25.3366 30.6881 25.3328 31.4884 25.1876L32.7201 24.9702L31.6376 25.5691C30.9328 25.9648 30.3035 26.4813 29.7785 27.0948C29.6867 27.2055 29.5987 27.3199 29.5145 27.4343L29.4418 27.5144H29.3424C29.1073 27.5384 28.871 27.5498 28.6347 27.5488" fill="#3E3921"/>
<path d="M34.6022 24.4739L34.4415 24.4472L34.5142 24.02L34.671 24.0467L34.6022 24.4739Z" fill="#3E3921"/>
<path d="M40.6194 20.9574C41.2193 20.9604 41.8172 21.0295 42.402 21.1634C42.8482 20.5368 43.2204 19.861 43.5113 19.1493C43.0612 19.0883 42.6075 19.0577 42.1533 19.0578C41.832 19.0578 41.5183 19.0578 41.2046 19.1036C41.0051 19.7568 40.7209 20.3813 40.3592 20.9612H40.6155L40.6194 20.9574ZM42.5779 21.6554L42.4479 21.6173C41.6345 21.414 40.7925 21.3495 39.9576 21.4266L39.4718 21.4761L39.7548 21.0947C40.2381 20.4114 40.6028 19.6519 40.8336 18.848L40.8757 18.7107H41.021C41.4021 18.6692 41.7852 18.6489 42.1686 18.6497C42.7393 18.6455 43.3091 18.6941 43.8709 18.7946L44.1119 18.8442L44.0315 19.0769C43.7064 19.9691 43.2529 20.8095 42.685 21.5715L42.5779 21.6554Z" fill="#3E3921"/>
<path d="M39.0892 22.7879C39.4739 22.7882 39.8578 22.8214 40.2368 22.8871C40.3516 22.9061 40.4663 22.9328 40.5926 22.9595C41.1571 22.5595 41.6619 22.0818 42.0921 21.5406C41.4144 21.4002 40.7202 21.3565 40.0302 21.4109C39.9576 21.5101 39.8849 21.6054 39.8084 21.697C39.4571 22.11 39.0592 22.4812 38.6225 22.8032C38.7755 22.8032 38.9247 22.8032 39.0739 22.8032L39.0892 22.7879ZM36.5301 23.566L37.6127 22.9405C38.3185 22.5447 38.9491 22.0282 39.4756 21.4147C39.5674 21.3041 39.6554 21.1897 39.7395 21.0752L39.8007 20.9989H39.8964C40.78 20.9165 41.6713 20.9849 42.532 21.2011L42.8571 21.2812L42.6582 21.5444C42.1369 22.2614 41.4981 22.8855 40.7685 23.3906L40.6882 23.444L40.5926 23.4211C40.4549 23.3868 40.3133 23.3562 40.1718 23.3295C39.3743 23.1983 38.56 23.2074 37.7657 23.3562L36.5301 23.566Z" fill="#3E3921"/>
<path d="M36.6334 23.9056C37.0696 23.9209 37.5042 23.9668 37.934 24.0429C38.6806 23.9159 39.4016 23.6685 40.0685 23.3105C39.318 23.1989 38.5541 23.2118 37.8077 23.3487C37.4266 23.5625 37.0317 23.751 36.6257 23.9132L36.6334 23.9056ZM37.9302 24.4854H37.8919C37.3602 24.3925 36.8213 24.3465 36.2814 24.348C35.7897 24.3474 35.2986 24.3844 34.8125 24.4587L34.736 24.0314C35.7494 23.8262 36.724 23.4632 37.6241 22.9558L37.693 22.9329C38.5385 22.7701 39.4063 22.7585 40.2559 22.8986C40.3975 22.9253 40.5467 22.9558 40.7111 22.9977L41.1855 23.1198L40.78 23.3944C40.6538 23.4783 40.5237 23.5623 40.3975 23.6424C39.6491 24.0603 38.8337 24.3456 37.9875 24.4854H37.9302Z" fill="#3E3921"/>
<path d="M34.7475 24.5005L34.5868 24.4738L34.6633 24.0427L34.8202 24.0694L34.7475 24.5005Z" fill="#3E3921"/>
<path d="M28.3936 29.8181C28.1878 30.5648 28.0697 31.3328 28.0417 32.1067C28.7898 31.9359 29.5161 31.6813 30.2068 31.3476C30.1711 30.6635 30.2238 29.9776 30.3636 29.3069C29.7264 29.561 29.0592 29.7327 28.3783 29.8181H28.3936ZM27.5903 32.6064V32.3623C27.5931 31.4129 27.7322 30.4687 28.0034 29.5587L28.0455 29.4175H28.187C29.0209 29.3252 29.8331 29.0931 30.5893 28.7309L31.0293 28.5173L30.9107 29.0018C30.6877 29.8082 30.6049 30.6468 30.6658 31.4811V31.6261L30.532 31.6909C29.6866 32.1142 28.7849 32.4148 27.8542 32.5835L27.5903 32.6064Z" fill="#3E3921"/>
<path d="M29.4418 27.514C29.0507 28.0821 28.7416 28.7023 28.5237 29.3563C29.2086 29.2564 29.8758 29.0599 30.5052 28.7727C30.5397 28.6583 30.5741 28.5439 30.6162 28.4256C30.804 27.9199 31.0518 27.4384 31.3545 26.9914C30.8649 27.2114 30.3515 27.3739 29.8243 27.4758L29.4418 27.514ZM27.9117 29.8713L28.0073 29.5585C28.2519 28.706 28.6399 27.9011 29.1549 27.1783L29.2123 27.102H29.3117C29.4533 27.102 29.5986 27.0715 29.7402 27.0448C30.5337 26.8955 31.295 26.6089 31.9895 26.198L33.0758 25.5686L32.2725 26.5222C31.7449 27.1329 31.3293 27.8314 31.0446 28.5858C30.9949 28.7231 30.9528 28.8604 30.9145 28.994L30.8878 29.0855L30.7998 29.1275C29.9971 29.5063 29.1356 29.7462 28.2521 29.8369L27.9117 29.8713Z" fill="#3E3921"/>
<path d="M31.6069 25.5916C30.9476 25.9655 30.3544 26.4449 29.8511 27.0106C30.5936 26.859 31.3058 26.5857 31.9588 26.2019C32.2465 25.8717 32.5557 25.5608 32.8845 25.2712C32.4701 25.4061 32.0471 25.5132 31.6184 25.5916H31.6069ZM28.8833 27.5751L29.1702 27.1937C29.2581 27.0716 29.3538 26.9457 29.4532 26.8122C30.0062 26.1595 30.6705 25.6094 31.4156 25.1873L31.4921 25.1606C32.5084 24.9743 33.4884 24.6279 34.3955 24.1345L34.6136 24.516C33.7333 25.0546 32.9433 25.7278 32.2725 26.5109L32.2113 26.5605C31.4759 27.0035 30.6678 27.3134 29.8243 27.476C29.6713 27.5027 29.5183 27.5217 29.3653 27.5408L28.8833 27.5751Z" fill="#3E3921"/>
<path d="M34.5142 24.5005L34.4415 24.0694L34.5984 24.0427L34.6749 24.4738L34.5142 24.5005Z" fill="#3E3921"/>
<path d="M39.0434 17.1771C39.0779 17.8602 39.0239 18.5448 38.8827 19.214C39.5217 18.9614 40.19 18.7897 40.8719 18.7029C41.0772 17.9561 41.1953 17.1881 41.2238 16.4142C40.4694 16.582 39.7375 16.8381 39.0434 17.1771ZM38.2171 20.0036L38.351 19.5344C38.5744 18.7281 38.6572 17.8894 38.5958 17.0551V16.9101L38.7259 16.8453C39.5708 16.4211 40.4727 16.1205 41.4036 15.9527L41.6484 15.9146V16.1625C41.6482 17.1121 41.509 18.0566 41.2353 18.9661L41.1932 19.1072H41.0516C40.2174 19.1919 39.4038 19.4177 38.6455 19.7747L38.2171 20.0036Z" fill="#3E3921"/>
<path d="M38.745 19.7405C38.7106 19.8587 38.6762 19.9732 38.6341 20.0876C38.4454 20.5934 38.1989 21.076 37.8996 21.5256C38.3895 21.3102 38.9031 21.1527 39.4298 21.0565C39.5483 21.0336 39.6707 21.0183 39.7893 21.0069C40.1807 20.4388 40.4897 19.8186 40.7074 19.1645C40.0228 19.2636 39.3556 19.4588 38.7259 19.7443L38.745 19.7405ZM36.1706 22.9599L36.9739 22.0024C37.4998 21.3926 37.9141 20.6954 38.198 19.9427C38.2477 19.8053 38.2898 19.668 38.3281 19.5307L38.3548 19.4353L38.4467 19.3934C39.248 19.0144 40.1083 18.7745 40.9905 18.6839L41.3195 18.6458L41.2238 18.9623C40.9802 19.814 40.592 20.6178 40.0762 21.3387L40.0189 21.4188H39.9232C39.7817 21.4188 39.6363 21.4532 39.491 21.4761C38.6977 21.6244 37.9365 21.9097 37.2417 22.319L36.1706 22.9599Z" fill="#3E3921"/>
<path d="M34.6633 24.4743L34.5906 24.0433L34.7474 24.0166L34.8201 24.4476L34.6594 24.4743" fill="#3E3921"/>
<path d="M30.6813 31.6105C30.7424 32.3764 30.8913 33.1328 31.125 33.8649C31.7767 33.4574 32.3798 32.9775 32.9229 32.4344C32.6554 31.8046 32.4703 31.1431 32.3721 30.4662C31.8587 30.9167 31.2907 31.3011 30.6813 31.6105ZM30.8955 34.498L30.8037 34.2692C30.4786 33.3761 30.2853 32.4407 30.2299 31.4923V31.3473L30.36 31.2825C31.1139 30.9165 31.8006 30.4265 32.3912 29.833L32.7317 29.4783L32.7661 29.9665C32.8352 30.7996 33.046 31.6148 33.3896 32.3772L33.447 32.5107L33.3475 32.6175C32.6943 33.3076 31.9444 33.8999 31.1212 34.376L30.8955 34.498Z" fill="#3E3921"/>
<path d="M32.7698 30.0701C32.8411 30.7513 33.0085 31.4191 33.2671 32.0536C33.7306 31.5395 34.1171 30.9614 34.4147 30.3371C34.3688 30.2265 34.3229 30.1159 34.277 30.0014C34.0901 29.4938 33.9617 28.9665 33.8945 28.4299C33.6551 28.9139 33.3598 29.3684 33.0146 29.784C32.9343 29.8794 32.854 29.9671 32.7737 30.0548L32.7698 30.0701ZM33.1141 32.847L32.9802 32.5457C32.6172 31.7371 32.3947 30.8729 32.3223 29.99V29.8946L32.3911 29.826C32.4906 29.723 32.59 29.62 32.6818 29.5094C33.1932 28.886 33.5919 28.1787 33.86 27.4191L34.2846 26.248V27.4915C34.2715 28.2962 34.401 29.0968 34.6672 29.8565C34.7169 29.9938 34.7743 30.1273 34.8317 30.2379L34.8699 30.3295L34.8317 30.4172C34.4613 31.223 33.9555 31.9596 33.336 32.5952L33.1141 32.847Z" fill="#3E3921"/>
<path d="M34.4798 24.4779C34.4415 24.3788 34.4262 24.3292 34.4262 24.3292L34.8394 24.1804C34.8394 24.1804 34.8623 24.2338 34.8929 24.333L34.4798 24.4779Z" fill="#3E3921"/>
<path d="M30.8878 29.082C30.7138 29.7492 30.6353 30.4375 30.6545 31.1266C31.2646 30.7993 31.8249 30.387 32.3185 29.9021C32.3185 29.7839 32.3185 29.6618 32.3185 29.5398C32.3217 28.9998 32.3885 28.4621 32.5174 27.9377C32.1255 28.3106 31.6917 28.637 31.2244 28.9104L30.9031 29.0782L30.8878 29.082ZM30.2528 31.8246L30.2299 31.4965C30.1679 30.6136 30.2545 29.7266 30.4862 28.8722L30.5168 28.7807L30.6047 28.7387C30.731 28.6777 30.861 28.6128 30.9873 28.5404C31.6823 28.1291 32.2998 27.5998 32.8119 26.9765L33.6153 26.019L33.1868 27.1939C32.9005 27.9462 32.749 28.7428 32.7393 29.5474C32.7393 29.6923 32.7393 29.8335 32.7393 29.9784V30.0776L32.6704 30.1462C32.0451 30.772 31.3183 31.2878 30.5206 31.672L30.2528 31.8246Z" fill="#3E3921"/>
<path d="M33.1754 27.2206C32.9121 27.931 32.7674 28.6797 32.7469 29.4368C33.217 28.8475 33.5866 28.1851 33.841 27.4762C33.8432 27.0409 33.8752 26.6064 33.9366 26.1755C33.7065 26.5449 33.4508 26.898 33.1716 27.2321L33.1754 27.2206ZM32.3529 30.5048L32.3185 30.0166C32.3185 29.864 32.3185 29.7114 32.3185 29.555C32.3262 28.6986 32.4855 27.8502 32.789 27.049L32.8273 26.9841C33.4842 26.1886 34.0121 25.2953 34.3918 24.3369L34.805 24.4857C34.4771 25.4624 34.3054 26.4844 34.2962 27.5143V27.5868C34.0105 28.3958 33.5845 29.1485 33.0377 29.8106C32.9382 29.9327 32.8349 30.0433 32.7278 30.1539L32.3529 30.5048Z" fill="#3E3921"/>
<path d="M34.8508 24.4243H34.4147C34.4147 24.3213 34.4147 24.2603 34.4147 24.2603H34.8508V24.4243Z" fill="#3E3921"/>
<path d="M34.7973 24.4779L34.3842 24.3292C34.4148 24.2338 34.4377 24.1804 34.4377 24.1804L34.8508 24.3292L34.7973 24.4818" fill="#3E3921"/>
<path d="M34.7016 24.5161L34.365 24.2377C34.4301 24.1576 34.4683 24.1118 34.4683 24.1118L34.8049 24.3903C34.8049 24.3903 34.7705 24.436 34.7016 24.5161Z" fill="#3E3921"/>
<path d="M34.606 24.5238L34.388 24.1424L34.5257 24.0623L34.7437 24.4437L34.606 24.5238Z" fill="#3E3921"/>
<path d="M36.3274 16.0937C36.5953 16.7233 36.7805 17.3849 36.8782 18.0619C37.392 17.6102 37.9615 17.2256 38.5728 16.9176C38.5115 16.1514 38.3613 15.3949 38.1253 14.6633C37.4725 15.0691 36.8692 15.5491 36.3274 16.0937ZM36.5263 19.0308L36.4881 18.5425C36.4209 17.7096 36.2113 16.8942 35.8684 16.1318L35.811 15.9983L35.9449 15.8953C36.5917 15.2013 37.3365 14.6051 38.1559 14.1254L38.3701 14.011L38.4619 14.2399C38.7845 15.1323 38.9778 16.0661 39.0357 17.0129V17.1579L38.9056 17.2227C38.1515 17.5883 37.4647 18.0784 36.8744 18.6722L36.5263 19.0308Z" fill="#3E3921"/>
<path d="M34.8699 18.1613C34.9235 18.2834 34.9694 18.394 35.0076 18.5008C35.1953 19.0083 35.3236 19.5356 35.3901 20.0724C35.6222 19.583 35.9125 19.1232 36.2547 18.703C36.335 18.6076 36.4153 18.5199 36.4995 18.4322C36.4336 17.7451 36.27 17.0708 36.0137 16.4296C35.5516 16.9434 35.1653 17.52 34.8661 18.1423L34.8699 18.1613ZM34.9808 22.239V21.0145C34.9933 20.21 34.8638 19.4095 34.5983 18.6496C34.5486 18.5123 34.495 18.3788 34.4376 18.2491L34.3956 18.1613L34.4376 18.0698C34.8124 17.2649 35.3221 16.5296 35.9448 15.8956L36.1743 15.6553L36.3082 15.9604C36.6707 16.7678 36.8932 17.6307 36.9662 18.5123V18.6114L36.8973 18.6801C36.7979 18.7831 36.7022 18.8899 36.6066 18.9967C36.0939 19.6192 35.6951 20.3267 35.4284 21.087L34.9808 22.239Z" fill="#3E3921"/>
<path d="M34.2809 20.9911C34.4257 21.4012 34.5433 21.8204 34.6328 22.246C34.7233 21.8203 34.8422 21.401 34.9885 20.9911C34.9929 20.2354 34.8727 19.4841 34.6328 18.7673C34.3941 19.4843 34.2752 20.2356 34.2809 20.9911ZM34.8546 24.1265H34.4147C34.3887 23.0965 34.2002 22.077 33.8562 21.1055V21.033C33.8476 20.1773 33.9887 19.3267 34.2732 18.5193C34.3268 18.3706 34.388 18.2294 34.4492 18.0883L34.6481 17.6382L34.8508 18.0883C34.9197 18.2447 34.9809 18.3858 35.0268 18.5193C35.3113 19.3267 35.4524 20.1773 35.4437 21.033V21.1093C35.0975 22.0804 34.9077 23.1 34.8814 24.1303" fill="#3E3921"/>
<path d="M34.4148 24.3364C34.4148 24.3364 34.3918 24.283 34.3612 24.1839L34.7973 24.0427L34.8508 24.1953L34.4148 24.3364Z" fill="#3E3921"/>
<path d="M36.947 18.6113C36.947 18.7295 36.947 18.8516 36.947 18.9927C36.9464 19.5324 36.8822 20.0701 36.7558 20.5948C37.1454 20.222 37.5782 19.8968 38.0449 19.6259L38.3662 19.4543C38.5511 18.7823 38.6374 18.0873 38.6225 17.3907C38.0136 17.7165 37.4545 18.1275 36.9623 18.6113H36.947ZM35.6503 22.5172L36.0787 21.3462C36.3643 20.5938 36.5145 19.7971 36.5224 18.9927C36.5224 18.8478 36.5224 18.7028 36.5224 18.5617V18.4625L36.5913 18.3939C37.2168 17.7684 37.9436 17.2526 38.7411 16.8681L39.0051 16.6926L39.0242 17.0207C39.0897 17.9036 39.003 18.7912 38.7679 19.645L38.7411 19.7403L38.6531 19.7861C38.5269 19.8472 38.3968 19.912 38.2706 19.9845C37.5747 20.3961 36.956 20.9253 36.4421 21.5484L35.6503 22.5172Z" fill="#3E3921"/>
<path d="M34.8508 24.2642H34.4147C34.4147 24.2642 34.4147 24.207 34.4147 24.104H34.8508V24.2642Z" fill="#3E3921"/>
<path d="M36.4766 21.518C36.3243 21.9241 36.1467 22.3203 35.9448 22.7043C36.2876 22.4334 36.6494 22.1874 37.0274 21.9681C37.5129 21.3914 37.9006 20.7395 38.175 20.038C37.5287 20.433 36.9522 20.9318 36.4689 21.5142L36.4766 21.518ZM34.8891 24.2796L34.5524 23.9974C35.2008 23.1936 35.7173 22.2924 36.0826 21.3273L36.1208 21.2624C36.6657 20.6012 37.322 20.0397 38.0602 19.6031C38.1941 19.523 38.3357 19.4544 38.4695 19.3857L38.9094 19.1721L38.7794 19.6413C38.7373 19.7901 38.6914 19.935 38.6379 20.0838C38.3376 20.8857 37.8973 21.6283 37.3372 22.2771L37.2799 22.3266C36.3898 22.8504 35.5882 23.5108 34.9044 24.2834" fill="#3E3921"/>
<path d="M34.8355 24.3366L34.4147 24.1878C34.4147 24.1878 34.4147 24.1344 34.4683 24.0391L34.8814 24.184L34.8279 24.3366" fill="#3E3921"/>
<path d="M34.7973 24.4057L34.4606 24.1234L34.5677 23.9976L34.9044 24.276C34.8355 24.3599 34.7973 24.4019 34.7973 24.4019" fill="#3E3921"/>
<path d="M34.7361 24.4513L34.518 24.0698L34.6596 23.9897L34.8776 24.3712C34.7858 24.4284 34.7361 24.4513 34.7361 24.4513Z" fill="#3E3921"/>
<circle cx="34.2418" cy="33.7582" r="33.2582" stroke="#3E3921"/>
</svg>
