<svg width="88" height="62" viewBox="0 0 88 62" fill="none" xmlns="http://www.w3.org/2000/svg">
<path d="M22.6678 43.1098L22.1892 41.6283C22.1517 41.4988 22.1267 41.3659 22.1146 41.2316C22.1034 41.3625 22.0763 41.4916 22.0338 41.6159L21.5551 43.116L22.6678 43.1098ZM24.3026 44.8577H23.2024L22.8854 43.8784H21.3065L20.9957 44.8577H19.9141L21.5303 40.4382H22.7113L24.3026 44.8577Z" fill="#3E3921"/>
<path d="M28.2619 44.7032C27.8687 44.8673 27.4448 44.9455 27.0187 44.9325C26.7228 44.9459 26.4275 44.8977 26.1513 44.791C25.8752 44.6843 25.6244 44.5214 25.4149 44.3127C25.0228 43.8948 24.8089 43.3414 24.8182 42.7693C24.8059 42.4535 24.8579 42.1386 24.9712 41.8435C25.0844 41.5484 25.2565 41.2792 25.4771 41.0523C25.7002 40.8312 25.9665 40.6582 26.2595 40.5441C26.5526 40.43 26.866 40.3773 27.1803 40.3891C27.5517 40.3771 27.9222 40.4317 28.2743 40.5502V41.511C27.9678 41.3305 27.6171 41.2383 27.2611 41.2445C27.0752 41.2361 26.8897 41.2665 26.7163 41.3337C26.5429 41.401 26.3854 41.5036 26.2541 41.635C26.1214 41.7778 26.0189 41.9458 25.9526 42.1289C25.8864 42.3121 25.8579 42.5067 25.8687 42.7011C25.8583 42.8868 25.8848 43.0728 25.9467 43.2483C26.0086 43.4238 26.1046 43.5854 26.2292 43.7238C26.3562 43.852 26.5085 43.9524 26.6766 44.0186C26.8446 44.0848 27.0246 44.1153 27.2052 44.1081C27.5794 44.0985 27.9442 43.9894 28.2619 43.792V44.7032Z" fill="#3E3921"/>
<path d="M32.4143 44.7031C32.0211 44.8672 31.5972 44.9454 31.1711 44.9324C30.8743 44.9459 30.578 44.8978 30.3008 44.7911C30.0237 44.6844 29.7718 44.5214 29.5611 44.3126C29.164 43.897 28.9453 43.3432 28.952 42.7692C28.9397 42.4534 28.9917 42.1385 29.105 41.8433C29.2182 41.5482 29.3903 41.2791 29.6109 41.0522C29.8349 40.8306 30.1023 40.6574 30.3964 40.5433C30.6905 40.4292 31.005 40.3767 31.3203 40.389C31.6917 40.3778 32.0621 40.4324 32.4143 40.5501V41.5109C32.1012 41.3164 31.7389 41.2153 31.37 41.2195C31.1843 41.2123 30.999 41.2432 30.8258 41.3104C30.6526 41.3776 30.495 41.4796 30.363 41.61C30.2309 41.7533 30.1288 41.9213 30.0626 42.1044C29.9964 42.2875 29.9675 42.4818 29.9776 42.6762C29.9597 43.052 30.0916 43.4196 30.3444 43.6989C30.4704 43.8266 30.6217 43.9268 30.7886 43.993C30.9556 44.0591 31.1345 44.0899 31.3141 44.0832C31.6917 44.086 32.0631 43.9875 32.3895 43.7981L32.4143 44.7031Z" fill="#3E3921"/>
<path d="M35.2863 41.2196C35.1254 41.2135 34.9653 41.2457 34.8194 41.3136C34.6734 41.3815 34.5458 41.4831 34.4471 41.6101C34.2307 41.9153 34.1234 42.2842 34.1425 42.6576C34.1317 43.0309 34.2503 43.3964 34.4782 43.6927C34.5747 43.8154 34.6985 43.914 34.8399 43.9807C34.9812 44.0475 35.1362 44.0804 35.2925 44.077C35.4495 44.0831 35.6057 44.052 35.7483 43.9863C35.891 43.9206 36.0159 43.8221 36.113 43.6989C36.3318 43.4018 36.4395 43.0379 36.4176 42.67C36.4408 42.2894 36.3358 41.912 36.1193 41.5977C36.0271 41.4733 35.9059 41.3732 35.7662 41.3062C35.6264 41.2393 35.4723 41.2074 35.3174 41.2134L35.2863 41.2196ZM35.2739 44.9324C34.9857 44.9434 34.6985 44.894 34.4308 44.7872C34.1631 44.6804 33.9208 44.5187 33.7198 44.3126C33.5129 44.0994 33.3512 43.8468 33.2444 43.5699C33.1376 43.293 33.0879 42.9975 33.0982 42.701C33.0723 42.0771 33.2959 41.4684 33.7198 41.0088C33.9296 40.7969 34.1822 40.632 34.4609 40.5251C34.7396 40.4183 35.0379 40.3718 35.336 40.389C35.6213 40.3782 35.9057 40.4279 36.1704 40.5348C36.435 40.6416 36.6739 40.8032 36.8714 41.0088C37.2738 41.4568 37.4837 42.0444 37.4557 42.6452C37.4797 43.2651 37.2562 43.8692 36.8341 44.325C36.6284 44.5335 36.3809 44.6965 36.1078 44.8033C35.8347 44.9101 35.542 44.9583 35.249 44.9448" fill="#3E3921"/>
<path d="M42.9567 46.0664H42.0802V44.8577H38.4873V40.4382H39.4881V44.0085H41.3219V40.4382H42.3227V44.0085H42.9567V46.0664Z" fill="#3E3921"/>
<path d="M47.9986 44.8577H47.0537V42.4279C47.0537 42.149 47.0537 41.9135 47.0848 41.7151C47.0413 41.8019 46.9667 41.9197 46.861 42.0808L45.0335 44.8577H44.0078V40.4382H44.9464V42.8804C44.9603 43.0868 44.9603 43.2939 44.9464 43.5003C44.9464 43.5003 45.0335 43.3515 45.1764 43.1408L46.9107 40.4382H47.9799L47.9986 44.8577Z" fill="#3E3921"/>
<path d="M51.5973 43.1098L51.1248 41.6283C51.0872 41.4988 51.0622 41.366 51.0503 41.2316C51.039 41.362 51.014 41.4908 50.9757 41.6159L50.4908 43.116L51.5973 43.1098ZM53.2259 44.8577H52.1381L51.821 43.8784H50.2484L49.9376 44.8577H48.856L50.4722 40.4382H51.6532L53.2259 44.8577Z" fill="#3E3921"/>
<path d="M58.5719 46.0664H57.6955V44.8577H54.1025V40.4382H55.0971V44.0085H56.9371V40.4382H57.9379V44.0085H58.5719V46.0664Z" fill="#3E3921"/>
<path d="M63.6132 44.8577H62.6621V42.4279C62.6575 42.1899 62.6679 41.9518 62.6932 41.7151C62.6497 41.8019 62.5751 41.9197 62.4694 42.0808L60.6357 44.8577H59.6162V40.4382H60.5859V42.8804C60.6003 43.0868 60.6003 43.2939 60.5859 43.5003C60.6535 43.3762 60.7283 43.2562 60.8097 43.1408L62.5751 40.4444H63.6443L63.6132 44.8577Z" fill="#3E3921"/>
<path d="M66.9822 42.3971V41.1946H66.5658C66.0975 41.1946 65.8633 41.3888 65.8633 41.7772C65.8606 41.8606 65.8758 41.9436 65.908 42.0206C65.9401 42.0976 65.9885 42.1668 66.0498 42.2235C66.1955 42.3403 66.379 42.3999 66.5658 42.3909L66.9822 42.3971ZM67.9768 44.8765H66.9822V43.1409H66.7149C66.4704 43.1409 66.2632 43.3268 66.0933 43.6988L65.6085 44.8579H64.4585L65.0801 43.5376C65.1393 43.3805 65.2315 43.2379 65.3505 43.1192C65.4695 43.0005 65.6126 42.9086 65.7701 42.8496C65.4927 42.8199 65.2369 42.6863 65.0545 42.4757C64.8722 42.2651 64.7769 41.9933 64.7879 41.7153C64.7799 41.5374 64.8146 41.3602 64.8892 41.1984C64.9638 41.0367 65.0762 40.8951 65.2169 40.7855C65.5816 40.5373 66.0197 40.4194 66.4601 40.4508H67.9892L67.9768 44.8765Z" fill="#3E3921"/>
<path d="M5.95862 52.3578H4.97647V49.7111C4.97647 49.4259 4.97647 49.0912 5.01377 48.7627C4.98233 48.962 4.93663 49.1588 4.87702 49.3516L3.80784 52.3578H2.99353L1.93679 49.3826C1.87692 49.1789 1.82918 48.972 1.79382 48.7627C1.79382 49.2028 1.83112 49.5809 1.83112 49.9094V52.3516H0.911133V47.9321H2.3657L3.27947 50.5541C3.34901 50.7559 3.401 50.9632 3.43488 51.1739C3.48248 50.9645 3.54057 50.7577 3.60893 50.5541L4.51648 47.9383H5.95862V52.3578Z" fill="#3E3921"/>
<path d="M9.94334 52.3578H7.28906V47.9321H9.84389V48.7441H8.28986V49.7297H9.73821V50.5417H8.28986V51.552H9.94334V52.3578Z" fill="#3E3921"/>
<path d="M16.8305 52.3579H15.5873L14.2757 50.4488C14.2319 50.3768 14.1925 50.3023 14.1576 50.2256V52.3517H13.1692V50.207C13.1334 50.2844 13.0919 50.359 13.0449 50.4302L11.7271 52.3579H10.4839L12.1747 50.0521L10.6144 47.9384H11.8017L13.0449 49.798C13.0947 49.8723 13.1382 49.9405 13.1692 49.9963V47.9322H14.1452V49.9839L14.2633 49.7856L15.5065 47.926H16.7L15.1398 50.0397L16.8305 52.3579Z" fill="#3E3921"/>
<path d="M20.4855 51.5458V48.7689H19.7334C19.6988 49.2341 19.6197 49.6948 19.4972 50.145C19.3741 50.6259 19.2077 51.0948 18.9999 51.5458H20.4855ZM22.1204 53.5665H21.2439V52.3578H18.428V53.5665H17.564V51.5458H17.9742C18.5732 50.4325 18.9031 49.1951 18.9377 47.9321H21.4863V51.5458H22.1079L22.1204 53.5665Z" fill="#3E3921"/>
<path d="M27.1616 52.3578H26.223V49.928C26.2103 49.6906 26.2103 49.4526 26.223 49.2152C26.1582 49.3415 26.0855 49.4636 26.0054 49.5809L24.1717 52.3578H23.1709V47.9321H24.1157V50.3805C24.1292 50.5869 24.1292 50.794 24.1157 51.0004C24.1157 51.0004 24.2028 50.8516 24.3457 50.6408L26.1049 47.9445H27.1741L27.1616 52.3578Z" fill="#3E3921"/>
<path d="M31.6749 52.1966C31.2828 52.3651 30.8584 52.4456 30.4316 52.4322C30.1358 52.4452 29.8406 52.3968 29.5645 52.2901C29.2884 52.1834 29.0376 52.0207 28.8279 51.8123C28.6293 51.5987 28.4754 51.3479 28.3751 51.0744C28.2748 50.8009 28.2301 50.5102 28.2436 50.2193C28.2317 49.908 28.2822 49.5974 28.3921 49.3058C28.5021 49.0142 28.6692 48.7474 28.8838 48.521C29.1075 48.301 29.374 48.1291 29.667 48.0161C29.96 47.9031 30.2732 47.8513 30.587 47.8639C30.9587 47.8558 31.3289 47.9124 31.6811 48.0313V48.9672C31.3743 48.7874 31.0237 48.6952 30.6678 48.7007C30.482 48.6927 30.2966 48.7233 30.1232 48.7905C29.9499 48.8577 29.7924 48.9601 29.6608 49.0912C29.5289 49.2333 29.4268 49.4003 29.3606 49.5823C29.2944 49.7643 29.2655 49.9578 29.2754 50.1511C29.2651 50.3369 29.2916 50.5228 29.3534 50.6984C29.4153 50.8739 29.5113 51.0355 29.636 51.1739C29.7627 51.3019 29.9152 51.4018 30.0834 51.4669C30.2516 51.5321 30.4317 51.5611 30.6119 51.552C30.9877 51.5561 31.3575 51.4575 31.6811 51.2669L31.6749 52.1966Z" fill="#3E3921"/>
<path d="M37.2379 53.5665H36.3615V52.3578H32.7686V47.9321H33.7693V51.5086H35.6031V47.9321H36.6039V51.5086H37.2379V53.5665Z" fill="#3E3921"/>
<path d="M42.2731 52.3578H41.3158V49.928C41.3037 49.6906 41.3037 49.4527 41.3158 49.2152C41.2482 49.3412 41.1735 49.4633 41.092 49.5809L39.2583 52.3578H38.2886V47.9321H39.2272V50.3805C39.2411 50.5869 39.2411 50.794 39.2272 51.0004C39.2272 51.0004 39.3142 50.8516 39.451 50.6408L41.2102 47.9445H42.2793L42.2731 52.3578Z" fill="#3E3921"/>
<path d="M47.4451 52.3578H46.4443V48.8061H44.6043V52.3578H43.6035V47.9321H47.4451V52.3578Z" fill="#3E3921"/>
<path d="M52.3807 52.3585H51.3861V48.7634H50.491C50.4018 49.8209 50.1762 50.8626 49.8196 51.8626C49.73 52.0351 49.593 52.1786 49.4246 52.2763C49.2561 52.374 49.0633 52.4219 48.8686 52.4142C48.687 52.4128 48.5067 52.3835 48.334 52.3275V51.5403C48.4311 51.5784 48.5342 51.5993 48.6386 51.6022C48.7204 51.603 48.7998 51.5744 48.8624 51.5217C48.9646 51.3962 49.0388 51.2504 49.0799 51.094C49.2084 50.7037 49.3143 50.3063 49.3969 49.9039C49.5026 49.3398 49.6145 48.6642 49.7077 47.939H52.3807V52.3585Z" fill="#3E3921"/>
<path d="M57.7017 52.3578H56.7568V49.928C56.7439 49.6906 56.7439 49.4526 56.7568 49.2152C56.7133 49.2958 56.6387 49.4198 56.5393 49.5809L54.6744 52.3578H53.7109V47.9321H54.6558V50.3805C54.6683 50.5869 54.6683 50.7939 54.6558 51.0004C54.6558 51.0004 54.7428 50.8516 54.8858 50.6408L56.6449 47.9445H57.7203L57.7017 52.3578Z" fill="#3E3921"/>
<path d="M62.8733 52.3578H61.8725V50.5541H60.0325V52.3578H59.0317V47.9321H60.0325V49.6987H61.8725V47.9321H62.8733V52.3578Z" fill="#3E3921"/>
<path d="M66.4728 50.6099L65.9941 49.1222C65.9549 48.9931 65.9299 48.8601 65.9195 48.7255C65.9092 48.856 65.8842 48.9849 65.8449 49.1098L65.3601 50.6099H66.4728ZM68.1076 52.3578H67.0198L66.7028 51.3723H65.1239L64.8131 52.3578H63.7314L65.3476 47.9321H66.5349L68.1076 52.3578Z" fill="#3E3921"/>
<path d="M69.972 48.7007V50.083H70.3574C70.892 50.083 71.1593 49.8536 71.1593 49.3826C71.1593 48.9115 70.892 48.7007 70.3574 48.7007H69.972ZM69.972 50.833V52.3578H68.9712V47.9321H70.5314C71.6504 47.9321 72.2036 48.4032 72.2036 49.3454C72.2107 49.5486 72.1713 49.7508 72.0884 49.9366C72.0055 50.1224 71.8812 50.2869 71.7249 50.4177C71.3649 50.7103 70.9082 50.8584 70.4444 50.833H69.972Z" fill="#3E3921"/>
<path d="M77.0213 52.3578H76.0142V50.5541H74.1743V52.3578H73.1797V47.9321H74.1743V49.6987H76.0142V47.9321H77.0213V52.3578Z" fill="#3E3921"/>
<path d="M80.2661 48.7197C80.1047 48.7143 79.9443 48.7475 79.7983 48.8165C79.6523 48.8856 79.525 48.9884 79.427 49.1164C79.2101 49.4191 79.1027 49.7863 79.1224 50.1577C79.1002 50.5295 79.2078 50.8975 79.427 51.1991C79.5241 51.3207 79.6482 51.4181 79.7895 51.4837C79.9308 51.5493 80.0855 51.5813 80.2413 51.5772C80.3984 51.5826 80.5547 51.5518 80.6981 51.4873C80.8415 51.4228 80.968 51.3263 81.068 51.2053C81.2818 50.9037 81.3869 50.5389 81.3664 50.1701C81.3909 49.7903 81.2881 49.4131 81.0742 49.0978C80.9818 48.9738 80.8605 48.8741 80.7208 48.8071C80.5811 48.7402 80.4272 48.7081 80.2723 48.7135L80.2661 48.7197ZM80.2288 52.4326C79.9408 52.4432 79.6536 52.3936 79.386 52.2868C79.1183 52.18 78.8761 52.0185 78.6748 51.8127C78.4685 51.5992 78.3071 51.3465 78.2004 51.0697C78.0936 50.7929 78.0436 50.4976 78.0532 50.2011C78.0279 49.5773 78.2514 48.9689 78.6748 48.509C78.8839 48.2979 79.1355 48.1335 79.413 48.0266C79.6906 47.9197 79.9877 47.8729 80.2848 47.8891C80.5712 47.8771 80.8569 47.9262 81.1227 48.0331C81.3886 48.14 81.6285 48.3022 81.8264 48.509C82.2288 48.9569 82.4386 49.5446 82.4107 50.1454C82.4229 50.4523 82.3743 50.7587 82.2676 51.047C82.161 51.3352 81.9983 51.5996 81.7891 51.8251C81.5836 52.034 81.3361 52.1972 81.063 52.304C80.7898 52.4108 80.4971 52.4588 80.204 52.445" fill="#3E3921"/>
<path d="M86.8303 46.4886C86.8179 46.6409 86.774 46.7889 86.7012 46.9234C86.6284 47.0578 86.5285 47.1757 86.4076 47.2696C86.1464 47.4648 85.8263 47.5653 85.5001 47.5548C85.1678 47.5676 84.8411 47.467 84.5739 47.2696C84.4584 47.1748 84.3656 47.0555 84.3021 46.9204C84.2387 46.7853 84.2062 46.6378 84.2071 46.4886H84.9158C84.9208 46.5622 84.9404 46.634 84.9735 46.7C85.0066 46.766 85.0525 46.8248 85.1085 46.8729C85.2259 46.9732 85.3766 47.0262 85.5312 47.0217C85.6844 47.023 85.8327 46.9678 85.9476 46.8667C86.0047 46.8195 86.0514 46.761 86.0845 46.6948C86.1177 46.6286 86.1367 46.5563 86.1403 46.4824L86.8303 46.4886ZM87.4519 52.3833H86.5071V49.9288C86.5051 49.6908 86.5154 49.4528 86.5382 49.2159C86.4706 49.342 86.3959 49.4641 86.3144 49.5816L84.4806 52.3585H83.4736V47.9329H84.4185V50.3812C84.4302 50.5877 84.4302 50.7946 84.4185 51.0011C84.4185 51.0011 84.5055 50.8523 84.6485 50.6416L86.4076 47.9453H87.483L87.4519 52.3833Z" fill="#3E3921"/>
<path d="M28.5043 59.8585H27.5159V57.2118C27.5159 56.9267 27.5159 56.592 27.5532 56.2634C27.5184 56.4626 27.4707 56.6593 27.4102 56.8523L26.3721 59.8585H25.533L24.4762 56.8833C24.4166 56.6796 24.3688 56.4726 24.3332 56.2634C24.3332 56.7035 24.3705 57.0816 24.3705 57.4164V59.8585H23.4443V55.4329H24.9051L25.8127 58.0548C25.8852 58.2561 25.9393 58.4636 25.9743 58.6746C26.0236 58.4651 26.0838 58.2582 26.1546 58.0548L27.0559 55.4453H28.4856L28.5043 59.8585Z" fill="#3E3921"/>
<path d="M32.4886 59.8584H29.8281V55.439H32.383V56.2448H30.8289V57.2303H32.2711V58.0361H30.8289V59.0527H32.4886V59.8584Z" fill="#3E3921"/>
<path d="M36.2247 59.0403V56.2634H35.4663C35.4361 56.7307 35.359 57.1938 35.2363 57.6457C35.1146 58.1271 34.9481 58.596 34.739 59.0465L36.2247 59.0403ZM37.8595 61.061H36.9644V59.8585H34.1609V61.061H33.2969V59.0403H33.7071C34.3006 57.928 34.6242 56.6925 34.652 55.4329H37.2192V59.0403H37.8409L37.8595 61.061Z" fill="#3E3921"/>
<path d="M42.9009 59.8585H41.9374V57.4288C41.9374 57.1498 41.9374 56.9081 41.9374 56.7159C41.8939 56.7965 41.8193 56.9205 41.7198 57.0816L39.8861 59.8647H38.9102V55.4329H39.8488V57.875C39.8627 58.0814 39.8627 58.2885 39.8488 58.4949C39.8488 58.4949 39.9358 58.3461 40.0788 58.1354L41.8379 55.4453H42.9071L42.9009 59.8585Z" fill="#3E3921"/>
<path d="M48.707 61.0609H47.8244V59.8584H44.2314V55.439H45.2322V59.0031H47.066V55.439H48.0668V59.0031H48.707V61.0609Z" fill="#3E3921"/>
<path d="M53.7479 59.8585H52.7969V57.4288C52.797 57.1907 52.8094 56.9527 52.8342 56.7159C52.7844 56.7965 52.7099 56.9205 52.6042 57.0816L50.7766 59.8647H49.751V55.4329H50.6958V57.875C50.7106 58.0814 50.7106 58.2885 50.6958 58.4949C50.7638 58.3711 50.8385 58.251 50.9196 58.1354L52.6788 55.4453H53.7479V59.8585Z" fill="#3E3921"/>
<path d="M58.9135 59.8584H57.9127V58.0547H56.0727V59.8584H55.0781V55.439H56.0727V57.1993H57.9127V55.439H58.9135V59.8584Z" fill="#3E3921"/>
<path d="M64.9371 59.8585H63.9487V55.4329H64.9371V59.8585ZM61.2634 57.8441V59.0837H61.7109C62.2144 59.0837 62.4631 58.873 62.4631 58.4639C62.4631 58.0548 62.2206 57.8441 61.7234 57.8441H61.2634ZM60.2563 59.8585V55.4329H61.2634V57.0878H61.885C62.9541 57.0878 63.4887 57.5217 63.4887 58.3895C63.5003 58.5896 63.4679 58.7898 63.3938 58.9761C63.3198 59.1624 63.2058 59.3303 63.0598 59.468C62.7087 59.7477 62.2648 59.8849 61.8166 59.8523L60.2563 59.8585Z" fill="#3E3921"/>
<path d="M42.839 4.28312C43.5986 5.09763 44.2504 6.00587 44.7784 6.98563C45.3065 6.00587 45.9582 5.09763 46.7179 4.28312C46.1976 3.14775 45.5467 2.0765 44.7784 1.09092C44.0102 2.0765 43.3593 3.14775 42.839 4.28312ZM44.7784 8.6778L44.4241 7.93399C43.854 6.70115 43.0784 5.57359 42.1304 4.59924L41.9688 4.42568L42.062 4.21493C42.6834 2.79756 43.5085 1.47793 44.5111 0.297525L44.7784 0L45.0457 0.297525C46.0355 1.48132 46.8498 2.80055 47.4638 4.21493L47.557 4.43188L47.3954 4.60543C46.4474 5.57979 45.6718 6.70735 45.1017 7.94019L44.7784 8.6778Z" fill="#3E3921"/>
<path d="M42.8387 31.1219C43.361 32.2582 44.0117 33.3313 44.7781 34.3203C45.5451 33.3316 46.1958 32.2585 46.7175 31.1219C45.9576 30.31 45.3057 29.4038 44.7781 28.4256C44.2505 29.4038 43.5987 30.31 42.8387 31.1219ZM44.7781 35.4113L44.5108 35.1137C43.5183 33.9319 42.7038 32.6123 42.0928 31.1963L41.9995 30.9918L42.1611 30.8182C43.0979 29.8366 43.8628 28.7052 44.4238 27.4711L44.747 26.7458L45.0703 27.4711C45.6398 28.7043 46.4154 29.8319 47.364 30.8058L47.5319 30.9918L47.4386 31.2025C46.8318 32.6133 46.0259 33.9303 45.0454 35.1137L44.7781 35.4113Z" fill="#3E3921"/>
<path d="M38.3567 5.75785C39.3479 6.25912 40.2711 6.88397 41.1043 7.61738C41.2655 6.52174 41.5663 5.45109 41.9994 4.43138C41.1204 3.54138 40.1398 2.7571 39.0778 2.09457C38.6977 3.28414 38.4558 4.51327 38.3567 5.75785ZM41.6761 9.21037L41.1229 8.64012C40.1635 7.6753 39.0475 6.87897 37.8222 6.28471L37.5859 6.19794V5.9624C37.6749 4.42303 37.989 2.9049 38.5184 1.45613L38.6675 1.08423L39.0219 1.27018C40.357 2.04757 41.5751 3.00962 42.6396 4.12766L42.8013 4.29502L42.708 4.51196C42.1482 5.75041 41.8055 7.07542 41.6948 8.42937L41.6761 9.21037Z" fill="#3E3921"/>
<path d="M41.751 8.26269C41.8877 8.40525 42.0183 8.54782 42.1426 8.70278C42.7038 9.37574 43.1837 10.1122 43.5723 10.897C43.6813 10.0249 43.8898 9.16813 44.1939 8.34327C44.2685 8.15112 44.3431 7.97136 44.4177 7.79161C43.9329 6.77969 43.3049 5.84242 42.5529 5.00851C42.1383 6.05071 41.8746 7.14641 41.7696 8.26269H41.751ZM44.225 14.4611L43.535 12.5582C43.1004 11.3233 42.4524 10.1737 41.6204 9.16146C41.4713 8.98171 41.3096 8.80815 41.148 8.64699L41.0361 8.52922V8.36806C41.156 6.93568 41.5175 5.53374 42.1053 4.22131L42.3042 3.71924L42.671 4.10354C43.6761 5.13535 44.498 6.33008 45.1015 7.63665L45.1636 7.78541L45.1015 7.92797C45.0082 8.13872 44.915 8.35567 44.8342 8.58501C44.4027 9.8198 44.1923 11.1206 44.2126 12.428L44.225 14.4611Z" fill="#3E3921"/>
<path d="M47.5318 30.9923C48.4121 31.8827 49.3924 32.6689 50.4533 33.3353C50.835 32.1459 51.079 30.9168 51.1806 29.6721C50.1876 29.1708 49.2623 28.5459 48.4269 27.8125C48.2643 28.9059 47.9636 29.9743 47.5318 30.9923ZM50.8263 34.3643L50.472 34.1721C49.153 33.3881 47.9535 32.4195 46.9102 31.296L46.7485 31.1225L46.8418 30.9055C47.3999 29.6669 47.7406 28.3418 47.8488 26.9881L47.9109 26.2009L48.4642 26.7712C49.4136 27.7356 50.5189 28.5339 51.7339 29.1328L51.9452 29.2382V29.4737C51.8565 31.0151 51.5423 32.5353 51.0128 33.9862L50.8263 34.3643Z" fill="#3E3921"/>
<path d="M45.1637 27.6139C45.6499 28.6269 46.2778 29.566 47.0285 30.4032C47.4436 29.3612 47.7074 28.2654 47.8118 27.149C47.6812 27.0065 47.5507 26.8639 47.4201 26.7089C46.8589 26.036 46.379 25.2995 45.9904 24.5147C45.8834 25.3871 45.6748 26.2441 45.3688 27.0684C45.3004 27.2544 45.2259 27.4341 45.145 27.6139H45.1637ZM47.2274 31.6863L46.8545 31.302C45.8488 30.2682 45.0269 29.0714 44.424 27.7627L44.3618 27.6201L44.424 27.4775C44.5234 27.2668 44.6105 27.0498 44.6851 26.8577C45.1165 25.6229 45.3269 24.3221 45.3067 23.0147V20.9568L46.0029 22.8597C46.4363 24.0952 47.0844 25.2449 47.9174 26.2564C48.0728 26.4362 48.2282 26.6098 48.3899 26.7771L48.5017 26.8887V27.0436C48.3822 28.4781 48.0207 29.8821 47.4326 31.1966L47.2274 31.6863Z" fill="#3E3921"/>
<path d="M34.6396 8.67784C35.7459 8.81416 36.8301 9.09121 37.8658 9.50223C37.6311 8.41746 37.5371 7.30712 37.586 6.19846C36.4656 5.65029 35.2848 5.23425 34.0677 4.95878C34.1145 6.21625 34.3064 7.46417 34.6396 8.67784ZM38.9474 10.7853L38.2076 10.432C36.9728 9.85321 35.6488 9.48648 34.2915 9.34727H34.0615L33.9931 9.11793C33.5518 7.63918 33.3257 6.10491 33.3218 4.56208V4.15918L33.7196 4.22116C35.2322 4.49115 36.6978 4.97758 38.0709 5.6654L38.2822 5.77077V6.00631C38.1836 7.36005 38.3181 8.72065 38.6801 10.0291L38.9474 10.7853Z" fill="#3E3921"/>
<path d="M38.6928 9.8679L39.2088 10.1468C39.9721 10.5853 40.6796 11.1139 41.316 11.7212C41.1081 10.8689 41.0017 9.99508 40.999 9.11789C40.999 8.91954 40.999 8.72119 40.999 8.49805C40.1961 7.71284 39.2858 7.04503 38.295 6.51455C38.2634 7.6343 38.391 8.75288 38.6742 9.83691L38.6928 9.8679ZM43.1063 14.7957L41.8009 13.2398C40.9621 12.2478 39.9567 11.4089 38.8296 10.7605C38.6244 10.6427 38.4131 10.5311 38.208 10.432L38.065 10.3576L38.0153 10.2026C37.6382 8.81435 37.4974 7.37282 37.5988 5.93809L37.6299 5.40503L38.1085 5.64057C39.4047 6.26505 40.5857 7.10329 41.602 8.11994L41.7139 8.23151V8.39267C41.7139 8.62202 41.7139 8.85756 41.7139 9.0931C41.7297 10.4006 41.9758 11.6951 42.4411 12.9175L43.1063 14.7957Z" fill="#3E3921"/>
<path d="M51.9391 29.2257C53.0701 29.762 54.2589 30.1676 55.4823 30.4344C55.438 29.1767 55.246 27.9285 54.9104 26.7154C53.8048 26.5755 52.7211 26.2986 51.6843 25.891C51.9135 26.9785 51.9991 28.0913 51.9391 29.201V29.2257ZM56.1847 31.2464L55.7869 31.1906C54.2744 30.9173 52.809 30.4288 51.4356 29.7402L51.2243 29.6348V29.3993C51.3218 28.0435 51.1873 26.6811 50.8265 25.3703L50.6089 24.6079L51.3237 24.955C52.5568 25.5328 53.8786 25.8995 55.2337 26.0397H55.4699L55.5321 26.2629C55.9767 27.7409 56.2029 29.2757 56.2034 30.8187L56.1847 31.2464Z" fill="#3E3921"/>
<path d="M48.5388 26.8826C49.3469 27.6716 50.2637 28.3415 51.2615 28.8723C51.2988 27.7507 51.1732 26.6295 50.8885 25.5437C50.7145 25.457 50.5404 25.364 50.3664 25.271C49.6064 24.828 48.9012 24.2975 48.2653 23.6904C48.4688 24.5434 48.5731 25.417 48.5761 26.2938C48.5761 26.4921 48.5761 26.6905 48.5761 26.9136L48.5388 26.8826ZM51.9266 30.0128L51.4107 29.7525C50.1143 29.1284 48.9331 28.2901 47.9172 27.2731L47.8053 27.1615V27.0004C47.8053 26.7648 47.8053 26.5355 47.8053 26.3C47.7896 24.9905 47.5434 23.6939 47.078 22.4693L46.3818 20.5664L47.6872 22.116C48.5223 23.1286 49.5277 23.9885 50.6585 24.6574C50.8637 24.7751 51.0688 24.8805 51.2801 24.9859L51.4231 25.0541L51.4666 25.209C51.8488 26.5964 51.9897 28.0388 51.8831 29.4736L51.9266 30.0128Z" fill="#3E3921"/>
<path d="M46.0651 22.934C46.478 24.0901 47.0786 25.1706 47.8429 26.1324C47.8068 24.9024 47.5717 23.6863 47.1467 22.5311C46.692 21.9889 46.2765 21.4151 45.9035 20.8142C46.0066 21.5162 46.0606 22.2245 46.0651 22.934ZM48.4707 27.8556L47.9237 27.2729C47.7496 27.0932 47.5818 26.9134 47.4202 26.7151C46.5316 25.6402 45.8413 24.4167 45.3813 23.1014V22.9836C45.3662 21.3095 45.085 19.6484 44.5483 18.0621L45.2197 17.8203C45.831 19.3792 46.6871 20.8313 47.7559 22.122L47.7994 22.1716V22.2274C48.2928 23.5293 48.5517 24.908 48.564 26.2998C48.564 26.5539 48.564 26.8018 48.564 27.0498L48.4707 27.8556Z" fill="#3E3921"/>
<path d="M30.3506 9.39733C30.8236 10.5536 31.4285 11.6517 32.1532 12.6701C33.2391 12.42 34.3525 12.3096 35.4664 12.3416C34.8764 11.3917 34.4146 10.3684 34.0927 9.29816C33.5892 9.24857 33.0732 9.22378 32.5511 9.22378C31.813 9.22341 31.0757 9.27311 30.3444 9.37254L30.3506 9.39733ZM31.8549 13.4449L31.7119 13.259C30.7858 12.0288 30.0426 10.6718 29.5052 9.22998L29.3809 8.85187L29.7725 8.77749C30.6852 8.61366 31.6113 8.53481 32.5386 8.54195C33.1616 8.53992 33.7842 8.57303 34.4035 8.64112H34.6397L34.7081 8.86427C35.0826 10.1688 35.6753 11.401 36.461 12.5089L36.9272 13.1288L36.1378 13.0482C34.781 12.923 33.4128 13.0278 32.0911 13.3581L31.8549 13.4449Z" fill="#3E3921"/>
<path d="M36.3429 12.3964C36.5356 12.3964 36.7283 12.4459 36.9272 12.4769C37.7833 12.6352 38.6179 12.8932 39.4137 13.2455C38.9243 12.5144 38.5237 11.7279 38.2202 10.9025C38.1518 10.7166 38.0896 10.5368 38.0399 10.3385C37.0164 9.87478 35.9324 9.55759 34.8199 9.39632C35.1826 10.4632 35.6953 11.4733 36.3429 12.3964ZM42.2171 15.57L40.458 14.5534C39.329 13.8865 38.0922 13.4208 36.8029 13.1774C36.5729 13.134 36.3429 13.1092 36.1067 13.0844H35.9513L35.858 12.9542C35.021 11.782 34.3904 10.4761 33.9932 9.09259L33.8564 8.57812L34.391 8.64011C35.8244 8.78858 37.2221 9.17841 38.5247 9.79302L38.6677 9.8612L38.7112 10.0162C38.7734 10.2393 38.8418 10.4624 38.9226 10.6794C39.3845 11.9075 40.06 13.0448 40.918 14.0389L42.2171 15.57Z" fill="#3E3921"/>
<path d="M40.8992 13.9899C41.5104 14.3511 42.098 14.7507 42.6584 15.1862C42.3211 14.5628 42.0283 13.9166 41.7819 13.2523C40.9958 12.3066 40.0592 11.4962 39.0095 10.8535C39.456 11.995 40.0859 13.0564 40.8743 13.9961L40.8992 13.9899ZM44.3181 17.7585C43.2097 16.5 41.9065 15.4265 40.4579 14.5787L40.3646 14.5044C39.4532 13.4477 38.7357 12.2391 38.2449 10.9341C38.1579 10.6985 38.0833 10.4568 38.0149 10.215L37.7974 9.45264L38.5184 9.79975C38.7422 9.91132 38.966 10.0229 39.1836 10.1531C40.3868 10.86 41.454 11.7751 42.3351 12.8556L42.4035 12.961C42.9972 14.5292 43.8364 15.9936 44.89 17.2999L44.3181 17.7585Z" fill="#3E3921"/>
<path d="M55.4575 26.0895C55.961 26.1391 56.4832 26.1639 56.9991 26.1639C57.7369 26.1717 58.4742 26.1282 59.2059 26.0337C58.7321 24.8778 58.1273 23.7797 57.4032 22.7609C56.317 23.009 55.2039 23.1193 54.09 23.0894C54.6779 24.0317 55.1397 25.0465 55.4638 26.1081L55.4575 26.0895ZM57.0054 26.8891C56.3824 26.8908 55.7598 26.8576 55.1405 26.7899H54.9105L54.8421 26.5606C54.4833 25.2434 53.9032 23.9964 53.1265 22.8725L52.6665 22.2527L53.4559 22.3332C54.8107 22.4567 56.1766 22.352 57.4964 22.0233L57.7264 21.9675L57.8694 22.1597C58.7908 23.3976 59.5297 24.7606 60.0637 26.2073L60.188 26.5854L59.7964 26.6659C58.8837 26.8304 57.9576 26.9093 57.0302 26.9015" fill="#3E3921"/>
<path d="M51.4605 25.0414C52.4813 25.5077 53.5633 25.827 54.6742 25.9898C54.3237 24.9255 53.8213 23.9172 53.1823 22.9959C52.9896 22.9959 52.7907 22.9463 52.598 22.9091C51.7423 22.7523 50.9078 22.4964 50.1116 22.1467C50.5861 22.8777 50.9721 23.6621 51.2616 24.4835C51.3299 24.6695 51.3921 24.8616 51.448 25.0476L51.4605 25.0414ZM55.6688 26.8327L55.1342 26.777C53.6991 26.6273 52.2995 26.2375 50.9943 25.6241L50.8513 25.5559L50.8202 25.4133C50.758 25.1902 50.6897 24.967 50.6089 24.7439C50.1459 23.5214 49.4728 22.3887 48.6197 21.3967L47.3081 19.8347L49.0673 20.8513C50.1953 21.5201 51.4325 21.9859 52.7223 22.2273C52.9523 22.2707 53.1886 22.2955 53.4248 22.3203H53.5802L53.6734 22.4505C54.5118 23.6219 55.1426 24.928 55.5382 26.3121L55.6688 26.8327Z" fill="#3E3921"/>
<path d="M28.3677 14.8205C29.2081 15.7518 30.1529 16.5837 31.1836 17.2999C32.1181 16.6935 33.1272 16.2101 34.186 15.8619C33.3112 15.1746 32.5279 14.3789 31.855 13.4941C30.6416 13.8041 29.469 14.2555 28.3615 14.8391L28.3677 14.8205ZM31.1774 18.1491L30.9909 17.9755C29.6977 17.1277 28.5337 16.0985 27.5348 14.9197L27.2861 14.6036L27.628 14.3928C28.9673 13.6217 30.4122 13.0496 31.9171 12.6945L32.1471 12.6387L32.2901 12.8246C33.0885 13.9268 34.0678 14.8866 35.1868 15.6635L35.8457 16.1036L35.0998 16.3267C33.772 16.662 32.5109 17.2195 31.3701 17.9755L31.1774 18.1491Z" fill="#3E3921"/>
<path d="M32.6134 13.2956C33.3094 14.1756 34.1278 14.9521 35.0439 15.6014C35.2428 15.5519 35.4355 15.5147 35.622 15.4837C36.4876 15.3324 37.3682 15.2845 38.2452 15.3411C37.5443 14.8211 36.906 14.2221 36.3431 13.556C36.2125 13.401 36.0944 13.246 35.9763 13.0911C34.8572 13.0038 33.7313 13.0748 32.632 13.3018L32.6134 13.2956ZM41.6703 16.587L39.6687 16.2337C38.3778 15.9924 37.0546 15.9777 35.7587 16.1903C35.5225 16.2337 35.2987 16.2895 35.075 16.3391L34.9196 16.3763L34.789 16.2895C33.6038 15.4709 32.5656 14.4588 31.7183 13.2956L31.395 12.8617L31.9172 12.7316C33.3179 12.3804 34.7682 12.2693 36.2063 12.4031L36.3431 12.3969L36.4363 12.527C36.573 12.713 36.716 12.8927 36.8652 13.0725C37.7184 14.0695 38.741 14.9087 39.8862 15.5519L41.6703 16.587Z" fill="#3E3921"/>
<path d="M44.511 17.9388L44.3369 17.7404L44.8839 17.2817L45.0518 17.4801L44.511 17.9388Z" fill="#3E3921"/>
<path d="M55.3644 19.569C56.2394 20.2584 57.0227 21.0561 57.6955 21.943C58.915 21.6305 60.0937 21.177 61.2076 20.5917C60.3662 19.6591 59.4192 18.8271 58.3855 18.1123C57.4503 18.7158 56.4412 19.197 55.3831 19.5442L55.3644 19.569ZM57.422 22.724L57.279 22.5318C56.4743 21.4396 55.4908 20.4904 54.3698 19.7239L53.7109 19.2776L54.488 19.0855C55.8048 18.7399 57.0533 18.1741 58.1803 17.4119L58.373 17.2817L58.5657 17.4119C59.8555 18.2569 61.0173 19.2818 62.0157 20.4553L62.2643 20.7715L61.9224 20.9822C60.5824 21.7517 59.1377 22.3238 57.6333 22.6806L57.422 22.724Z" fill="#3E3921"/>
<path d="M53.5804 22.3147C54.6992 22.4035 55.8251 22.3347 56.9246 22.1101C56.2255 21.2419 55.4073 20.4761 54.4941 19.8353C54.289 19.8849 54.0963 19.9221 53.9098 19.9593C53.0439 20.1084 52.1633 20.1541 51.2866 20.0956C51.9962 20.6165 52.6429 21.2176 53.2136 21.887L53.5804 22.3519V22.3147ZM54.5003 23.1019C54.1163 23.1034 53.7324 23.0848 53.3504 23.0461H53.195L53.1266 22.8725C52.9898 22.6804 52.8469 22.4944 52.6977 22.3147C51.8452 21.3195 50.8249 20.4804 49.6829 19.8353L47.9175 18.825L49.9191 19.1783C51.2079 19.4188 52.5289 19.4335 53.8228 19.2217C54.059 19.1845 54.289 19.1287 54.5128 19.0729L54.6682 19.0357L54.7987 19.1225C55.9851 19.9421 57.0234 20.9565 57.8695 22.1225L58.1927 22.5502L57.6706 22.6742C56.6528 22.9211 55.6099 23.05 54.5625 23.0585" fill="#3E3921"/>
<path d="M49.1234 20.87C50.1848 21.493 51.3421 21.937 52.5485 22.184C51.7301 21.2652 50.7663 20.4863 49.6953 19.8782C48.9968 19.7494 48.3074 19.5755 47.6316 19.3575C48.1618 19.8304 48.6602 20.3378 49.1234 20.8762V20.87ZM54.1398 23.1014L53.3442 23.0146C53.0955 23.0146 52.8469 22.9588 52.5982 22.9154C51.2271 22.6624 49.9118 22.1692 48.7132 21.4588L48.6137 21.3782C47.5207 20.1062 46.235 19.0124 44.8032 18.1364L45.1575 17.5166C46.6342 18.3289 48.231 18.9022 49.888 19.215H50.0185C51.2359 19.8965 52.3237 20.7861 53.2323 21.8431C53.3939 22.0353 53.5431 22.2398 53.6923 22.463L54.1398 23.1014Z" fill="#3E3921"/>
<path d="M44.6662 18.1241L44.4922 17.9195L45.0392 17.467L45.207 17.6716L44.6662 18.1241Z" fill="#3E3921"/>
<path d="M28.368 20.5911C29.4766 21.1722 30.6489 21.6235 31.8615 21.9361C32.5344 21.0494 33.3177 20.2517 34.1925 19.5621C33.1348 19.2138 32.1259 18.7327 31.1901 18.1303C30.1588 18.8458 29.2139 19.6778 28.3742 20.6097L28.368 20.5911ZM32.1598 22.7605L31.9298 22.7047C30.4246 22.3416 28.9799 21.7633 27.6407 20.9878L27.2988 20.777L27.5475 20.4609C28.5469 19.2825 29.7108 18.2534 31.0036 17.4051L31.1963 17.2749L31.389 17.4051C32.5227 18.1688 33.7772 18.7367 35.1001 19.0848L35.8771 19.277L35.2182 19.7233C34.1001 20.4988 33.1208 21.4564 32.3215 22.556L32.1598 22.7605Z" fill="#3E3921"/>
<path d="M31.8488 17.7027C32.8064 18.2908 33.8422 18.7415 34.9258 19.0416C35.0874 18.93 35.2553 18.8308 35.4293 18.7317C36.1915 18.2942 37.0033 17.9488 37.8474 17.7027C37.0048 17.455 36.1935 17.1119 35.4293 16.68C35.2553 16.5808 35.0874 16.4754 34.9258 16.3639C33.8415 16.6618 32.8053 17.1126 31.8488 17.7027ZM35.0564 19.835L34.901 19.7978C33.5033 19.4162 32.1811 18.8 30.991 17.9755L30.5435 17.6779L30.991 17.3804C32.185 16.5756 33.507 15.9783 34.901 15.6139L35.0564 15.5767L35.1869 15.6696C35.3796 15.7936 35.5723 15.9238 35.8085 16.0415C36.9372 16.6866 38.1698 17.1312 39.4512 17.3556L41.4527 17.7027L39.4512 18.056C38.1567 18.2693 36.9094 18.7056 35.765 19.3453C35.5599 19.4631 35.3609 19.587 35.1434 19.7172L35.0564 19.835Z" fill="#3E3921"/>
<path d="M35.939 16.1531C37.0229 16.7423 38.197 17.1486 39.4138 17.3556C40.1125 17.2355 40.8187 17.1651 41.5273 17.1448C40.8678 16.8809 40.2262 16.5745 39.6065 16.2274C38.3956 16.0075 37.1568 15.9866 35.939 16.1655V16.1531ZM39.4076 18.0746H39.3455C37.9681 17.8488 36.6407 17.3853 35.4231 16.7047C35.1993 16.5745 34.988 16.4382 34.8015 16.3018L34.1426 15.8555L34.9072 15.6572C35.1745 15.589 35.4107 15.5394 35.6469 15.496C37.0229 15.2685 38.4283 15.2832 39.7992 15.5394L39.9111 15.5766C41.3718 16.4009 42.9535 16.9907 44.5981 17.3246L44.4738 18.025C43.6839 17.9041 42.8859 17.844 42.0868 17.8452C41.2096 17.843 40.3339 17.9177 39.4698 18.0684L39.4076 18.0746Z" fill="#3E3921"/>
<path d="M44.6104 18.0188C44.5314 17.9796 44.4546 17.9361 44.3804 17.8886L44.7347 17.2688L44.9585 17.399L44.6104 18.0188Z" fill="#3E3921"/>
<path d="M55.3643 15.8433C56.4226 16.1928 57.4316 16.6761 58.3667 17.2813C59.4003 16.5663 60.3473 15.7343 61.1888 14.8019C60.0809 14.2192 58.9085 13.7678 57.6953 13.4569C57.0236 14.3427 56.2401 15.1386 55.3643 15.8247V15.8433ZM58.3667 18.1119L58.174 17.9755C57.0471 17.2133 55.7985 16.6474 54.4816 16.302L53.7046 16.116L54.3697 15.6945C55.4894 14.9184 56.4689 13.9585 57.2664 12.8556L57.4094 12.6697L57.6394 12.7255C59.1436 13.0828 60.5883 13.6548 61.9285 14.4238L62.2704 14.6346L62.0218 14.9507C61.0208 16.1187 59.8569 17.1374 58.5656 17.9755L58.3667 18.1119Z" fill="#3E3921"/>
<path d="M51.7032 17.7031C52.5478 17.9478 53.3597 18.2933 54.1213 18.732C54.2953 18.8312 54.4569 18.9366 54.6248 19.0419C55.7088 18.7432 56.7449 18.2924 57.7017 17.7031C56.7456 17.1123 55.7094 16.6614 54.6248 16.3642C54.4569 16.4696 54.2953 16.5812 54.1213 16.6803C53.3577 17.1135 52.5462 17.4567 51.7032 17.7031ZM54.4942 19.8353L54.3699 19.7238C54.1772 19.5936 53.9783 19.4696 53.7483 19.3519C52.6049 18.7099 51.3572 18.2735 50.0621 18.0626L48.0605 17.7155L50.087 17.356C51.3731 17.141 52.612 16.7048 53.7483 16.0667C53.9534 15.9489 54.1523 15.8188 54.3699 15.6948L54.5004 15.6018L54.6558 15.639C56.0502 16.0024 57.3724 16.5997 58.5658 17.4056L59.0133 17.7031L58.5658 18.0006C57.3731 18.8077 56.0507 19.4052 54.6558 19.7672L54.4942 19.8353Z" fill="#3E3921"/>
<path d="M44.8218 18.1365L44.5918 18.0063L44.9523 17.3865L45.1761 17.5166L44.8218 18.1365Z" fill="#3E3921"/>
<path d="M30.3505 26.0332C31.0814 26.137 31.8189 26.1888 32.5572 26.1881C33.0701 26.1881 33.5826 26.1612 34.0926 26.1075C34.4191 25.0449 34.8808 24.0284 35.4663 23.0827C34.3527 23.1167 33.2392 23.0084 32.1532 22.7604C31.4289 23.7791 30.8241 24.8772 30.3505 26.0332ZM32.5572 26.8947C31.6296 26.9006 30.7035 26.8197 29.791 26.653L29.3994 26.5724L29.5237 26.1943C30.0573 24.7474 30.7962 23.3843 31.718 22.1467L31.861 21.9546L32.091 22.0104C33.4129 22.3391 34.7809 22.4439 36.1377 22.3203L36.9271 22.2397L36.4609 22.8596C35.6748 23.9672 35.0821 25.1995 34.708 26.5042L34.6458 26.7336H34.4096C33.7903 26.8015 33.1678 26.8346 32.5448 26.8328" fill="#3E3921"/>
<path d="M32.6133 22.1162C33.4116 22.2765 34.2234 22.3595 35.0376 22.3642C35.3484 22.3642 35.6592 22.3642 35.9576 22.3208C36.0736 22.1638 36.1959 22.0088 36.3244 21.8559C36.8908 21.1868 37.5333 20.5856 38.2389 20.0646C37.3622 20.1232 36.4816 20.0775 35.6157 19.9282C35.423 19.891 35.2241 19.8538 35.0376 19.8042C34.1237 20.4564 33.3074 21.2349 32.6133 22.1162ZM35.0376 23.0708C33.9902 23.0621 32.9474 22.9332 31.9296 22.6865L31.3701 22.5625L31.6934 22.1348C32.54 20.9693 33.5782 19.955 34.7641 19.1348L34.8947 19.048L35.0501 19.0852C35.2738 19.141 35.5038 19.1906 35.7338 19.234C37.0364 19.4575 38.3682 19.4512 39.6686 19.2154L41.6702 18.8621L39.9111 19.8352C38.7658 20.4783 37.7432 21.3176 36.89 22.3146C36.7408 22.4943 36.5979 22.6803 36.4611 22.8662L36.343 22.9964H36.1814C35.7993 23.0353 35.4155 23.0539 35.0314 23.0522" fill="#3E3921"/>
<path d="M44.7284 18.056L44.4673 18.0126L44.5854 17.3184L44.8403 17.3617L44.7284 18.056Z" fill="#3E3921"/>
<path d="M54.5064 12.3413C55.4814 12.3462 56.4529 12.4585 57.4031 12.676C58.1282 11.6578 58.7331 10.5596 59.2058 9.40321C58.4745 9.30396 57.7372 9.25426 56.9991 9.25444C56.4769 9.25444 55.9672 9.25444 55.4575 9.32883C55.1333 10.3904 54.6714 11.4051 54.0837 12.3475H54.5002L54.5064 12.3413ZM57.6891 13.4756L57.4777 13.4136C56.156 13.0833 54.7878 12.9785 53.431 13.1037L52.6416 13.1842L53.1016 12.5644C53.8869 11.454 54.4795 10.2198 54.8545 8.91353L54.9229 8.69039H55.1591C55.7784 8.62303 56.401 8.58992 57.024 8.59121C57.9513 8.58453 58.8773 8.66338 59.7901 8.82675L60.1817 8.90733L60.0512 9.28544C59.5229 10.7354 58.7859 12.101 57.8631 13.3392L57.6891 13.4756Z" fill="#3E3921"/>
<path d="M52.0199 15.3161C52.645 15.3165 53.2689 15.3704 53.8847 15.4772C54.0712 15.5082 54.2577 15.5516 54.4628 15.595C55.3802 14.945 56.2006 14.1687 56.8996 13.2892C55.7984 13.061 54.6703 12.9901 53.5491 13.0784C53.431 13.2396 53.3129 13.3945 53.1885 13.5433C52.6178 14.2145 51.9712 14.8177 51.2615 15.3409C51.5102 15.3409 51.7526 15.3409 51.995 15.3409L52.0199 15.3161ZM47.8613 16.5805L49.6205 15.564C50.7675 14.9208 51.7922 14.0816 52.6477 13.0846C52.7969 12.9049 52.9399 12.7189 53.0766 12.533L53.1761 12.409H53.3315C54.7675 12.2751 56.2159 12.3862 57.6144 12.7375L58.1428 12.8677L57.8195 13.2954C56.9725 14.4605 55.9343 15.4747 54.7488 16.2954L54.6182 16.3822L54.4628 16.345C54.2391 16.2892 54.0091 16.2396 53.7791 16.1962C52.4832 15.983 51.1599 15.9977 49.8691 16.2396L47.8613 16.5805Z" fill="#3E3921"/>
<path d="M48.0295 17.1325C48.7383 17.1574 49.4446 17.232 50.143 17.3556C51.3563 17.1493 52.5278 16.7473 53.6116 16.1655C52.3919 15.9842 51.1506 16.0051 49.9378 16.2275C49.3184 16.5749 48.6768 16.8814 48.0171 17.1449L48.0295 17.1325ZM50.1368 18.0746H50.0746C49.2105 17.9237 48.3348 17.849 47.4576 17.8515C46.6585 17.8504 45.8605 17.9105 45.0706 18.0312L44.9463 17.337C46.593 17.0035 48.1767 16.4136 49.6395 15.589L49.7514 15.5519C51.1253 15.2874 52.5355 15.2685 53.9161 15.4961C54.1461 15.5395 54.3886 15.589 54.6559 15.6572L55.4267 15.8556L54.7678 16.3019C54.5626 16.4382 54.3513 16.5746 54.1461 16.7048C52.9301 17.384 51.605 17.8475 50.23 18.0746H50.1368Z" fill="#3E3921"/>
<path d="M44.9647 18.0993L44.7036 18.0559L44.8279 17.3555L45.0828 17.3989L44.9647 18.0993Z" fill="#3E3921"/>
<path d="M34.6394 26.7396C34.3049 27.953 34.113 29.2011 34.0675 30.4587C35.2832 30.1812 36.4635 29.7674 37.5858 29.2252C37.5278 28.1135 37.6135 26.999 37.8407 25.9091C36.8052 26.3219 35.721 26.601 34.6145 26.7396H34.6394ZM33.334 31.2707V30.874C33.3385 29.3312 33.5646 27.797 34.0053 26.3181L34.0737 26.0888H34.3037C35.6587 25.9388 36.9785 25.5616 38.2074 24.9731L38.9223 24.626L38.7296 25.4132C38.3673 26.7237 38.2327 28.0864 38.3317 29.4422V29.6777L38.1142 29.7831C36.7405 30.4709 35.2752 30.9593 33.7629 31.2335L33.334 31.2707Z" fill="#3E3921"/>
<path d="M36.3429 22.9959C35.7073 23.9192 35.2051 24.927 34.851 25.9898C35.964 25.8274 37.0482 25.5081 38.071 25.0414C38.1269 24.8554 38.1829 24.6695 38.2512 24.4773C38.5564 23.6555 38.9592 22.8731 39.4509 22.1467C38.6555 22.5042 37.8211 22.7684 36.9645 22.9339L36.3429 22.9959ZM33.8564 26.8265L34.0118 26.3183C34.4093 24.933 35.0399 23.6251 35.8767 22.4505L35.9699 22.3265H36.1315C36.3615 22.3265 36.5978 22.2769 36.8277 22.2335C38.1173 21.9909 39.3543 21.5252 40.4828 20.8575L42.2482 19.8347L40.9428 21.3843C40.0854 22.3767 39.41 23.5118 38.9474 24.7377C38.8666 24.9608 38.7983 25.184 38.7361 25.4009L38.6926 25.5497L38.5496 25.6179C37.2452 26.2335 35.8452 26.6233 34.4097 26.7708L33.8564 26.8265Z" fill="#3E3921"/>
<path d="M39.8614 19.8722C38.7901 20.4797 37.8261 21.2587 37.0082 22.178C38.2149 21.9316 39.3722 21.4876 40.4333 20.8639C40.9007 20.3273 41.4033 19.822 41.9376 19.3515C41.2642 19.5707 40.5768 19.7447 39.8801 19.8722H39.8614ZM35.4355 23.0954L35.9018 22.4755C36.0447 22.2772 36.2001 22.0726 36.3617 21.8557C37.2603 20.7949 38.3399 19.901 39.5506 19.2152L39.6749 19.1718C41.3263 18.869 42.9189 18.3061 44.393 17.5044L44.7473 18.1242C43.3168 18.9995 42.033 20.0934 40.943 21.366L40.8436 21.4466C39.6486 22.1665 38.3355 22.6701 36.9647 22.9342C36.7161 22.9776 36.4674 23.0086 36.2188 23.0396L35.4355 23.0954Z" fill="#3E3921"/>
<path d="M44.5854 18.0993L44.4673 17.3989L44.7222 17.3555L44.8465 18.0559L44.5854 18.0993Z" fill="#3E3921"/>
<path d="M51.9452 6.19865C52.0013 7.30858 51.9135 8.42108 51.6841 9.50862C52.7226 9.09814 53.8085 8.8191 54.9165 8.67803C55.2501 7.46444 55.442 6.21648 55.4884 4.95897C54.2625 5.23159 53.0732 5.64771 51.9452 6.19865ZM50.6025 10.7917L50.8201 10.0293C51.1831 8.71892 51.3177 7.35611 51.2179 6.0003V5.76476L51.4293 5.65939C52.8023 4.97007 54.2678 4.48157 55.7806 4.20896L56.1784 4.14697V4.54987C56.178 6.09297 55.9519 7.62775 55.5071 9.10572L55.4387 9.33506H55.2087C53.8531 9.47272 52.5309 9.83954 51.2987 10.4198L50.6025 10.7917Z" fill="#3E3921"/>
<path d="M51.4608 10.3639C51.4048 10.5561 51.3489 10.742 51.2805 10.928C50.9739 11.75 50.5734 12.5341 50.087 13.2648C50.8831 12.9146 51.7176 12.6587 52.5735 12.5024C52.7662 12.4652 52.9651 12.4404 53.1578 12.4218C53.7937 11.4987 54.296 10.4909 54.6497 9.42795C53.5371 9.5889 52.4531 9.9061 51.4297 10.3701L51.4608 10.3639ZM47.2773 15.5954L48.5827 14.0396C49.4373 13.0486 50.1105 11.9157 50.5719 10.6924C50.6527 10.4693 50.7211 10.2461 50.7832 10.023L50.8268 9.86804L50.9759 9.79985C52.2781 9.184 53.676 8.79411 55.1097 8.64694L55.6442 8.58496L55.4888 9.09943C55.0929 10.4834 54.4622 11.7895 53.624 12.9611L53.5308 13.0912H53.3754C53.1454 13.0912 52.9091 13.147 52.6729 13.1842C51.3839 13.4253 50.147 13.8888 49.0179 14.5541L47.2773 15.5954Z" fill="#3E3921"/>
<path d="M44.8281 18.0561L44.71 17.3556L44.9648 17.3123L45.0829 18.0127L44.8219 18.0561" fill="#3E3921"/>
<path d="M38.357 29.6532C38.4563 30.8977 38.6982 32.1268 39.0781 33.3164C40.137 32.6543 41.1172 31.8746 41.9997 30.992C41.5649 29.9686 41.2641 28.8936 41.1046 27.7936C40.2704 28.5257 39.3473 29.1504 38.357 29.6532ZM38.7051 34.3454L38.556 33.9735C38.0277 32.5223 37.7136 31.0022 37.6235 29.461V29.2255L37.8349 29.1201C39.06 28.5253 40.1758 27.7291 41.1356 26.7647L41.6889 26.1882L41.7448 26.9816C41.8571 28.3353 42.1997 29.6601 42.758 30.899L42.8513 31.116L42.6897 31.2895C41.6281 32.4109 40.4096 33.3734 39.0719 34.147L38.7051 34.3454Z" fill="#3E3921"/>
<path d="M41.7507 27.1493C41.8665 28.2563 42.1385 29.3414 42.5588 30.3725C43.3119 29.5372 43.94 28.5977 44.4237 27.5832C44.3491 27.4034 44.2745 27.2237 44.1999 27.0377C43.8961 26.2128 43.6876 25.356 43.5783 24.484C43.1893 25.2705 42.7095 26.009 42.1486 26.6844C42.018 26.8394 41.8875 26.9819 41.7569 27.1245L41.7507 27.1493ZM42.3102 31.6618L42.0926 31.1721C41.5027 29.8582 41.1411 28.4539 41.0234 27.0191V26.8642L41.1353 26.7526C41.2969 26.5852 41.4586 26.4179 41.6078 26.2381C42.4387 25.2252 43.0865 24.0758 43.5223 22.8414L44.2123 20.9385V22.9592C44.1909 24.2667 44.4013 25.5677 44.8339 26.8022C44.9147 27.0253 45.008 27.2423 45.1012 27.422L45.1634 27.5708L45.1012 27.7134C44.4994 29.0227 43.6774 30.2198 42.6707 31.2527L42.3102 31.6618Z" fill="#3E3921"/>
<path d="M44.5294 18.0621C44.4672 17.9009 44.4424 17.8204 44.4424 17.8204L45.1137 17.5786C45.1137 17.5786 45.151 17.6654 45.2007 17.8266L44.5294 18.0621Z" fill="#3E3921"/>
<path d="M38.6925 25.5437C38.4098 26.6279 38.2821 27.7464 38.3133 28.8661C39.3048 28.3343 40.2153 27.6643 41.0173 26.8764C41.0173 26.6843 41.0173 26.4859 41.0173 26.2876C41.0226 25.4102 41.1311 24.5364 41.3406 23.6842C40.7038 24.2902 39.9988 24.8206 39.2395 25.2648L38.7174 25.5375L38.6925 25.5437ZM37.6606 30.0004L37.6233 29.4674C37.5227 28.0326 37.6634 26.5912 38.0398 25.2028L38.0895 25.0541L38.2325 24.9859C38.4376 24.8867 38.649 24.7813 38.8541 24.6636C39.9835 23.9953 40.987 23.1352 41.8192 22.1222L43.1246 20.5664L42.4284 22.4755C41.9631 23.698 41.7169 24.9925 41.7011 26.3C41.7011 26.5355 41.7011 26.7648 41.7011 27.0004V27.1615L41.5892 27.2731C40.5732 28.2899 39.392 29.1282 38.0958 29.7525L37.6606 30.0004Z" fill="#3E3921"/>
<path d="M42.41 22.5193C41.9822 23.6737 41.747 24.8903 41.7138 26.1206C42.4776 25.1629 43.0782 24.0866 43.4916 22.9346C43.4952 22.2273 43.5472 21.5211 43.647 20.8209C43.273 21.4213 42.8576 21.995 42.4038 22.5379L42.41 22.5193ZM41.0735 27.8561L41.0176 27.0627C41.0176 26.8148 41.0176 26.5668 41.0176 26.3127C41.0301 24.921 41.289 23.5424 41.7822 22.2403L41.8443 22.135C42.9118 20.8422 43.7696 19.3907 44.3867 17.8333L45.0581 18.075C44.5253 19.6621 44.2463 21.3229 44.2313 22.9965V23.1143C43.7671 24.429 43.0749 25.6521 42.1862 26.728C42.0246 26.9263 41.8568 27.1061 41.6827 27.2859L41.0735 27.8561Z" fill="#3E3921"/>
<path d="M45.1325 17.9753H44.4238C44.4238 17.8079 44.4238 17.7087 44.4238 17.7087H45.1325V17.9753Z" fill="#3E3921"/>
<path d="M45.0454 18.0621L44.374 17.8204C44.4238 17.6654 44.461 17.5786 44.461 17.5786L45.1324 17.8204L45.0454 18.0683" fill="#3E3921"/>
<path d="M44.8903 18.1241L44.3433 17.6716C44.4489 17.5414 44.5111 17.467 44.5111 17.467L45.0581 17.9195C45.0581 17.9195 45.0022 17.9939 44.8903 18.1241Z" fill="#3E3921"/>
<path d="M44.7347 18.1365L44.3804 17.5166L44.6042 17.3865L44.9585 18.0063L44.7347 18.1365Z" fill="#3E3921"/>
<path d="M47.532 4.43806C47.9674 5.46125 48.2683 6.5363 48.4272 7.63645C49.2621 6.90239 50.1874 6.2775 51.1809 5.77692C51.0812 4.53192 50.8371 3.30263 50.4536 2.11364C49.3929 2.77318 48.4125 3.55319 47.532 4.43806ZM47.8553 9.21085L47.7931 8.41745C47.684 7.06392 47.3434 5.73899 46.7861 4.50004L46.6929 4.28309L46.9104 4.11574C47.9615 2.988 49.1719 2.01912 50.5033 1.23966L50.8514 1.05371L51.0006 1.42562C51.5249 2.8758 51.8389 4.3932 51.9331 5.93188V6.16742L51.7217 6.27279C50.4962 6.86684 49.3802 7.6632 48.421 8.6282L47.8553 9.21085Z" fill="#3E3921"/>
<path d="M45.1639 7.79771C45.2509 7.99606 45.3255 8.17582 45.3876 8.34937C45.6926 9.17398 45.9012 10.0309 46.0093 10.9031C46.3864 10.1079 46.858 9.36079 47.4141 8.67789C47.5446 8.52293 47.6752 8.38036 47.8119 8.2378C47.7049 7.12123 47.4391 6.02553 47.0225 4.98362C46.2717 5.81847 45.6438 6.75555 45.1577 7.76672L45.1639 7.79771ZM45.3441 14.4238V12.4341C45.3644 11.1267 45.154 9.8259 44.7225 8.59111C44.6417 8.36797 44.5547 8.15102 44.4614 7.94028L44.3931 7.79771L44.4614 7.64895C45.0704 6.34096 45.8987 5.14613 46.9106 4.11584L47.2836 3.72534L47.5011 4.22122C48.0902 5.53321 48.4517 6.93536 48.5703 8.36797V8.52913L48.4584 8.6407C48.2968 8.80806 48.1414 8.98161 47.986 9.15517C47.1529 10.1667 46.5049 11.3164 46.0714 12.5519L45.3441 14.4238Z" fill="#3E3921"/>
<path d="M44.2062 12.3967C44.4416 13.0632 44.6326 13.7444 44.7781 14.4359C44.9252 13.7442 45.1183 13.0629 45.3562 12.3967C45.3633 11.1687 45.168 9.94785 44.7781 8.78298C44.3903 9.94817 44.1971 11.169 44.2062 12.3967ZM45.1386 17.4918H44.4238C44.3815 15.818 44.0752 14.1614 43.5162 12.5826V12.4648C43.5022 11.0743 43.7314 9.69202 44.1938 8.38008C44.2808 8.13834 44.3803 7.909 44.4797 7.67966L44.803 6.94824L45.1324 7.67966C45.2443 7.93379 45.3438 8.16314 45.4184 8.38008C45.8807 9.69202 46.11 11.0743 46.0959 12.4648V12.5888C45.5333 14.1668 45.2249 15.8237 45.1822 17.498" fill="#3E3921"/>
<path d="M44.4239 17.8328C44.4239 17.8328 44.3866 17.746 44.3369 17.5848L45.0456 17.3555L45.1326 17.6034L44.4239 17.8328Z" fill="#3E3921"/>
<path d="M48.5389 8.52919C48.5389 8.72134 48.5389 8.91969 48.5389 9.14903C48.5378 10.0259 48.4335 10.8997 48.2281 11.7524C48.8613 11.1466 49.5645 10.6181 50.3229 10.178L50.8451 9.89904C51.1455 8.80717 51.2858 7.67766 51.2616 6.54569C50.272 7.07517 49.3636 7.74311 48.5638 8.52919H48.5389ZM46.4316 14.8764L47.1278 12.9735C47.5919 11.7509 47.836 10.4562 47.8489 9.14903C47.8489 8.91349 47.8489 8.67795 47.8489 8.44861V8.28745L47.9608 8.17588C48.9773 7.1595 50.1583 6.32129 51.4543 5.6965L51.8832 5.41138L51.9143 5.94444C52.0207 7.37924 51.8798 8.82161 51.4978 10.209L51.4543 10.3639L51.3113 10.4383C51.1062 10.5375 50.8948 10.6429 50.6897 10.7606C49.5589 11.4295 48.5535 12.2894 47.7184 13.302L46.4316 14.8764Z" fill="#3E3921"/>
<path d="M45.1325 17.7152H44.4238C44.4238 17.7152 44.4238 17.6222 44.4238 17.4548H45.1325V17.7152Z" fill="#3E3921"/>
<path d="M47.7747 13.2525C47.5273 13.9124 47.2387 14.5562 46.9106 15.1802C47.4676 14.74 48.0555 14.3402 48.6698 13.9839C49.4587 13.0468 50.0887 11.9873 50.5346 10.8475C49.4844 11.4894 48.5476 12.2999 47.7622 13.2463L47.7747 13.2525ZM45.195 17.7401L44.6479 17.2814C45.7016 15.9753 46.5408 14.5108 47.1344 12.9425L47.1966 12.8372C48.082 11.7626 49.1485 10.8502 50.3481 10.1409C50.5657 10.0107 50.7957 9.89911 51.0133 9.78754L51.7281 9.44043L51.5168 10.2028C51.4484 10.4446 51.3738 10.6801 51.2868 10.9219C50.7989 12.225 50.0833 13.4317 49.1733 14.486L49.08 14.5665C47.6338 15.4176 46.331 16.4907 45.2198 17.7463" fill="#3E3921"/>
<path d="M45.1076 17.8328L44.4238 17.5911C44.4238 17.5911 44.4238 17.5043 44.5109 17.3494L45.1822 17.5849L45.0952 17.8328" fill="#3E3921"/>
<path d="M45.0456 17.945L44.4985 17.4863L44.6726 17.2817L45.2196 17.7342C45.1077 17.8706 45.0456 17.9388 45.0456 17.9388" fill="#3E3921"/>
<path d="M44.9461 18.0188L44.5918 17.399L44.8218 17.2688L45.1761 17.8886C45.0269 17.9816 44.9461 18.0188 44.9461 18.0188Z" fill="#3E3921"/>
</svg>
