<svg width="247" height="47" viewBox="0 0 247 47" fill="none" xmlns="http://www.w3.org/2000/svg">
<path d="M23.4151 22.7014C22.0059 21.3364 20.8831 19.7043 20.1122 17.9005C19.3412 16.0967 18.9377 14.1573 18.9251 12.1958C18.9374 10.2322 19.3407 8.2907 20.1116 6.48461C20.8825 4.67851 22.0055 3.04399 23.4151 1.67643C24.8222 3.04587 25.9436 4.68075 26.7143 6.48642C27.485 8.2921 27.8898 10.2327 27.9051 12.1958C27.8895 14.1568 27.4845 16.0953 26.7138 17.8987C25.943 19.7021 24.8218 21.3345 23.4151 22.7014ZM24.2552 0.87784C23.9798 0.602464 23.6906 0.340856 23.4151 0.0930176C23.1121 0.340856 22.8366 0.602464 22.5474 0.87784C21.0435 2.35676 19.846 4.11764 19.0236 6.05971C18.2011 8.00178 17.7698 10.0869 17.7544 12.1958C17.7856 16.4482 19.5047 20.5142 22.5336 23.5C22.8229 23.7616 23.0983 24.037 23.4013 24.2848C23.6906 24.037 23.9798 23.7616 24.2552 23.5C25.7606 22.025 26.9591 20.2668 27.7817 18.3267C28.6043 16.3866 29.0348 14.303 29.0483 12.1958C29.0358 10.0864 28.6059 8.00041 27.7833 6.05793C26.9607 4.11544 25.7616 2.35492 24.2552 0.87784Z" fill="#3E3921"/>
<path d="M23.414 45.2822C21.9945 43.9236 20.8649 42.2918 20.0932 40.4851C19.3214 38.6784 18.9236 36.7342 18.9236 34.7697C18.9236 32.8052 19.3214 30.861 20.0932 29.0543C20.8649 27.2476 21.9945 25.6158 23.414 24.2572C24.8335 25.6158 25.9631 27.2476 26.7348 29.0543C27.5066 30.861 27.9044 32.8052 27.9044 34.7697C27.9044 36.7342 27.5066 38.6784 26.7348 40.4851C25.9631 42.2918 24.8335 43.9236 23.414 45.2822ZM24.2542 23.4999C23.9787 23.2245 23.6895 22.9629 23.4002 22.7151C23.0972 22.9629 22.8218 23.2245 22.5325 23.4999C21.0155 24.9662 19.8092 26.7227 18.9853 28.6647C18.1614 30.6067 17.7368 32.6946 17.7368 34.8041C17.7368 36.9136 18.1614 39.0015 18.9853 40.9435C19.8092 42.8856 21.0155 44.642 22.5325 46.1083C22.8218 46.3974 23.0972 46.6453 23.4002 46.9069C23.6895 46.6453 23.9787 46.3974 24.2542 46.1083C25.7712 44.642 26.9775 42.8856 27.8014 40.9435C28.6253 39.0015 29.0499 36.9136 29.0499 34.8041C29.0499 32.6946 28.6253 30.6067 27.8014 28.6647C26.9775 26.7227 25.7712 24.9662 24.2542 23.4999Z" fill="#3E3921"/>
<path d="M22.629 23.5001C21.2592 24.9068 19.6238 26.0279 17.8176 26.7983C16.0114 27.5688 14.0702 27.9734 12.1065 27.9888C10.1427 27.9734 8.20157 27.5688 6.39535 26.7983C4.58913 26.0279 2.95375 24.9068 1.58389 23.5001C2.95119 22.0891 4.58578 20.9643 6.39237 20.1913C8.19896 19.4183 10.1414 19.0126 12.1065 18.9977C14.0715 19.0126 16.014 19.4183 17.8206 20.1913C19.6271 20.9643 21.2617 22.0891 22.629 23.5001ZM0.798834 22.6327C0.523374 22.8943 0.261687 23.1835 0 23.4864C0.261687 23.7755 0.523374 24.0509 0.798834 24.3263C2.27127 25.8361 4.02913 27.0384 5.97029 27.8633C7.91145 28.6882 9.99723 29.1193 12.1065 29.1316C14.2156 29.1186 16.3011 28.6871 18.2422 27.8622C20.1832 27.0374 21.9412 25.8355 23.4141 24.3263C23.6896 24.0509 23.9512 23.7755 24.2129 23.4864C23.9512 23.1835 23.6896 22.8943 23.4141 22.6327C21.9412 21.1235 20.1832 19.9216 18.2422 19.0967C16.3011 18.2719 14.2156 17.8404 12.1065 17.8274C9.99723 17.8396 7.91145 18.2708 5.97029 19.0957C4.02913 19.9206 2.27127 21.1229 0.798834 22.6327Z" fill="#3E3921"/>
<path d="M45.2025 23.5001C43.8435 24.9192 42.2112 26.0485 40.4039 26.82C38.5967 27.5915 36.6519 27.9892 34.6868 27.9892C32.7217 27.9892 30.7769 27.5915 28.9696 26.82C27.1624 26.0485 25.5301 24.9192 24.1711 23.5001C25.528 22.0776 27.1597 20.9452 28.9672 20.1714C30.7747 19.3977 32.7205 18.9988 34.6868 18.9988C36.653 18.9988 38.5988 19.3977 40.4064 20.1714C42.2139 20.9452 43.8455 22.0776 45.2025 23.5001ZM23.4136 22.6327C23.1299 22.9005 22.8631 23.1856 22.6147 23.4864C22.8627 23.7755 23.1381 24.0509 23.4136 24.3263C24.8771 25.8459 26.6323 27.0547 28.5741 27.8803C30.5158 28.706 32.6042 29.1316 34.7143 29.1316C36.8244 29.1316 38.9128 28.706 40.8546 27.8803C42.7963 27.0547 44.5515 25.8459 46.0151 24.3263C46.3043 24.0509 46.5522 23.7755 46.8139 23.4864C46.5655 23.1856 46.2987 22.9005 46.0151 22.6327C44.5515 21.1131 42.7963 19.9043 40.8546 19.0786C38.9128 18.253 36.8244 17.8274 34.7143 17.8274C32.6042 17.8274 30.5158 18.253 28.5741 19.0786C26.6323 19.9043 24.8771 21.1131 23.4136 22.6327Z" fill="#3E3921"/>
<path d="M22.849 22.9357C20.8873 22.9658 18.9392 22.6051 17.1184 21.8747C15.2976 21.1442 13.6406 20.0586 12.2438 18.6812C10.8606 17.2853 9.77034 15.6272 9.03713 13.8042C8.30392 11.9811 7.94254 10.03 7.9742 8.06543C9.93602 8.03458 11.8843 8.39493 13.7052 9.12544C15.5261 9.85595 17.1831 10.942 18.5794 12.32C19.9608 13.7172 21.0498 15.3756 21.7829 17.1983C22.5159 19.021 22.8784 20.9715 22.849 22.9357ZM8.01552 6.89508L6.88614 6.97769C6.88614 7.37699 6.88614 7.76251 6.88614 8.14804C6.85844 10.2472 7.25114 12.3307 8.04112 14.2759C8.8311 16.221 10.0024 17.9885 11.486 19.4743C12.9697 20.96 14.7357 22.134 16.68 22.9271C18.6244 23.7202 20.7079 24.1164 22.8077 24.0923C23.1934 24.0923 23.579 24.0923 23.9646 24.0923C23.9646 23.7068 23.9646 23.3213 23.9646 22.922C23.9893 20.8162 23.5954 18.7265 22.8057 16.7742C22.016 14.8218 20.8463 13.0457 19.3645 11.5489C17.8746 10.0615 16.1044 8.88436 14.1563 8.08553C12.2083 7.28669 10.1211 6.88207 8.01552 6.89508Z" fill="#3E3921"/>
<path d="M38.812 38.8934C36.8473 38.9347 34.8945 38.5782 33.0711 37.8456C31.2478 37.1129 29.5915 36.0191 28.2019 34.6299C26.8124 33.2408 25.7182 31.585 24.9853 29.7622C24.2524 27.9394 23.8959 25.9872 23.9372 24.0231C25.9019 23.9818 27.8546 24.3382 29.678 25.0709C31.5014 25.8036 33.1577 26.8974 34.5472 28.2865C35.9368 29.6757 37.0309 31.3315 37.7639 33.1543C38.4968 34.9771 38.8533 36.9293 38.812 38.8934ZM23.9922 22.8665C23.5928 22.8665 23.2072 22.8665 22.8215 22.8665C22.8215 23.252 22.8215 23.6375 22.8215 24.0231C22.7825 26.1302 23.168 28.2237 23.955 30.1788C24.742 32.134 25.9144 33.9108 27.4025 35.4036C28.8906 36.8964 30.664 38.0746 32.617 38.8681C34.57 39.6616 36.6628 40.0542 38.7707 40.0224H39.9414C39.9414 39.6231 39.9414 39.2376 39.9414 38.8521C39.9747 36.7471 39.5853 34.6568 38.7961 32.705C38.0069 30.7532 36.834 28.9795 35.3469 27.489C33.8597 25.9984 32.0885 24.8213 30.1382 24.0273C28.1878 23.2333 26.0979 22.8386 23.9922 22.8665Z" fill="#3E3921"/>
<path d="M22.8493 24.0233C22.8786 25.9876 22.5162 27.938 21.7831 29.7607C21.05 31.5834 19.961 33.2418 18.5797 34.6391C17.1834 36.0171 15.5264 37.1031 13.7055 37.8336C11.8846 38.5641 9.93627 38.9245 7.97445 38.8936C7.93509 36.93 8.29295 34.9787 9.02655 33.1568C9.76015 31.3349 10.8544 29.6799 12.2435 28.2911C13.6327 26.9024 15.2882 25.8085 17.1107 25.0751C18.9332 24.3417 20.8851 23.984 22.8493 24.0233ZM6.80374 38.8523C6.80374 39.2378 6.80374 39.6234 6.80374 40.0227H7.97445C10.0827 40.0461 12.1748 39.6518 14.1298 38.8625C16.0848 38.0731 17.864 36.9044 19.3647 35.4239C20.848 33.9225 22.0184 32.1416 22.8081 30.1846C23.5977 28.2276 23.9909 26.1334 23.9649 24.0233C23.9649 23.6378 23.9649 23.2523 23.9649 22.8667H22.7942C20.6851 22.8333 18.5907 23.2239 16.6355 24.0154C14.6803 24.8069 12.9042 25.9831 11.4126 27.4742C9.92107 28.9653 8.74447 30.7409 7.95273 32.6955C7.16099 34.6501 6.77026 36.7438 6.80374 38.8523Z" fill="#3E3921"/>
<path d="M38.812 8.06522C38.8424 10.0284 38.4817 11.9781 37.7511 13.8006C37.0204 15.6231 35.9343 17.2821 34.5561 18.681C33.1559 20.0575 31.4963 21.1425 29.6734 21.8728C27.8505 22.6032 25.9007 22.9644 23.9371 22.9355C23.8958 20.9714 24.2524 19.0192 24.9853 17.1964C25.7182 15.3736 26.8123 13.7178 28.2019 12.3287C29.5915 10.9395 31.2477 9.84573 33.0711 9.11305C34.8945 8.38036 36.8472 8.02394 38.812 8.06522ZM22.7802 22.8805C22.7802 23.2798 22.7802 23.6653 22.7802 24.0508C23.1658 24.0508 23.5515 24.0508 23.9509 24.0508C26.0594 24.0758 28.1519 23.6821 30.1071 22.8927C32.0623 22.1033 33.8414 20.9338 35.3412 19.452C36.8184 17.9576 37.9854 16.1858 38.7749 14.2387C39.5644 12.2915 39.9608 10.2075 39.9413 8.10653C39.9413 7.721 39.9413 7.33547 39.9413 6.93618C39.5557 6.93618 39.1563 6.93618 38.7706 6.93618C36.665 6.90284 34.5741 7.29217 32.6217 8.08112C30.6693 8.87007 28.8951 10.0426 27.4041 11.5293C25.9131 13.016 24.7356 14.7866 23.9414 16.7364C23.1471 18.6862 22.7523 20.7754 22.7802 22.8805Z" fill="#3E3921"/>
<path d="M60.3705 5.35962H61.4677V14.1372H60.3705V7.27363L55.7988 14.1372H54.7016V5.35962H55.7988V12.211L60.3705 5.35962Z" fill="#3E3921"/>
<path d="M68.7412 9.01696L67.7172 9.45584C67.6684 9.3258 67.5993 9.21201 67.5099 9.11449C67.1686 8.63497 66.6566 8.39521 65.9739 8.39521C65.2912 8.39521 64.7791 8.63497 64.4378 9.11449C64.1289 9.5046 63.9664 10.0816 63.9501 10.8456C63.9664 11.5933 64.1289 12.1704 64.4378 12.5768C64.7873 13.0482 65.2993 13.2838 65.9739 13.2838C66.6484 13.2838 67.1605 13.0482 67.5099 12.5768C67.5831 12.4792 67.6481 12.3695 67.705 12.2476L68.7412 12.6865C68.6112 12.9141 68.4934 13.0969 68.3877 13.2351C67.7863 13.9747 66.9817 14.3363 65.9739 14.3201C64.9661 14.3363 64.1614 13.9747 63.56 13.2351C63.0724 12.6255 62.8204 11.829 62.8042 10.8456C62.8204 9.86221 63.0724 9.06166 63.56 8.44397C64.1371 7.72876 64.9417 7.37115 65.9739 7.37115C66.9979 7.37115 67.8025 7.72876 68.3877 8.44397C68.5421 8.65529 68.66 8.84628 68.7412 9.01696Z" fill="#3E3921"/>
<path d="M75.5873 9.01696L74.5633 9.45584C74.5145 9.3258 74.4454 9.21201 74.356 9.11449C74.0147 8.63497 73.5026 8.39521 72.8199 8.39521C72.1372 8.39521 71.6252 8.63497 71.2839 9.11449C70.975 9.5046 70.8125 10.0816 70.7962 10.8456C70.8125 11.5933 70.975 12.1704 71.2839 12.5768C71.6333 13.0482 72.1454 13.2838 72.8199 13.2838C73.4945 13.2838 74.0065 13.0482 74.356 12.5768C74.4292 12.4792 74.4942 12.3695 74.5511 12.2476L75.5873 12.6865C75.4573 12.9141 75.3394 13.0969 75.2338 13.2351C74.6323 13.9747 73.8277 14.3363 72.8199 14.3201C71.8121 14.3363 71.0075 13.9747 70.4061 13.2351C69.9184 12.6255 69.6665 11.829 69.6502 10.8456C69.6665 9.86221 69.9184 9.06166 70.4061 8.44397C70.9831 7.72876 71.7878 7.37115 72.8199 7.37115C73.844 7.37115 74.6486 7.72876 75.2338 8.44397C75.3882 8.65529 75.506 8.84628 75.5873 9.01696Z" fill="#3E3921"/>
<path d="M77.8373 7.55402H82.1896V14.1372H81.1533V8.5415H78.7517L78.3372 11.8209C78.2396 12.6255 78.0365 13.231 77.7276 13.6374C77.4269 14.0356 76.9352 14.2022 76.2525 14.1372V13.1497C76.4638 13.1497 76.6345 13.1213 76.7645 13.0644C76.9027 12.9994 77.0083 12.8897 77.0815 12.7352C77.1628 12.5727 77.2156 12.4183 77.24 12.272C77.2725 12.1257 77.3091 11.9022 77.3497 11.6015L77.8373 7.55402Z" fill="#3E3921"/>
<path d="M84.6468 11.2114C84.6875 11.7884 84.8419 12.2557 85.1101 12.6133C85.4596 13.101 85.9879 13.3448 86.695 13.3448C87.6052 13.3448 88.3042 12.9588 88.7918 12.1866L89.6086 12.7231C88.9909 13.7877 88.036 14.3201 86.7437 14.3201C86.2561 14.3201 85.7928 14.2266 85.3539 14.0397C84.9232 13.8528 84.5656 13.5846 84.2811 13.2351C83.7772 12.593 83.5253 11.8087 83.5253 10.8822C83.5253 9.88253 83.7772 9.06978 84.2811 8.44397C84.8663 7.72876 85.6709 7.37115 86.695 7.37115C87.719 7.37115 88.5236 7.72876 89.1088 8.44397C89.6696 9.14293 89.9175 10.0654 89.8525 11.2114H84.6468ZM86.695 8.33425C85.9879 8.33425 85.4596 8.57808 85.1101 9.06572C84.8825 9.35831 84.7362 9.74436 84.6712 10.2239H88.7187C88.6537 9.75249 88.5074 9.36643 88.2798 9.06572C87.9222 8.57808 87.3939 8.33425 86.695 8.33425Z" fill="#3E3921"/>
<path d="M96.7892 7.55402V13.101H97.3622V15.015H96.3259V14.1372H91.6324V15.015H90.5961V13.101C91.3195 13.101 91.7665 12.3695 91.9371 10.9066L92.3273 7.55402H96.7892ZM95.753 13.101V8.5415H93.2294L92.949 11.0285C92.8352 11.9957 92.6076 12.6865 92.2663 13.101H95.753Z" fill="#3E3921"/>
<path d="M101.69 14.3201C100.666 14.3201 99.8614 13.9584 99.2762 13.2351C98.7723 12.593 98.5203 11.7925 98.5203 10.8334C98.5203 9.86627 98.7723 9.06978 99.2762 8.44397C99.5525 8.10262 99.902 7.83848 100.325 7.65155C100.755 7.46462 101.211 7.37115 101.69 7.37115C102.73 7.37115 103.535 7.72876 104.104 8.44397C104.616 9.06166 104.872 9.85814 104.872 10.8334C104.872 11.8006 104.616 12.6011 104.104 13.2351C103.527 13.9584 102.722 14.3201 101.69 14.3201ZM103.238 12.5768C103.555 12.1623 103.714 11.5812 103.714 10.8334C103.714 10.0776 103.555 9.50054 103.238 9.10229C102.897 8.6309 102.381 8.39521 101.69 8.39521C101.007 8.39521 100.495 8.6309 100.154 9.10229C99.837 9.50054 99.6785 10.0776 99.6785 10.8334C99.6785 11.5812 99.837 12.1623 100.154 12.5768C100.503 13.0482 101.015 13.2838 101.69 13.2838C102.373 13.2838 102.889 13.0482 103.238 12.5768Z" fill="#3E3921"/>
<path d="M106.212 7.56621L109.431 7.55402C110.024 7.55402 110.495 7.7247 110.845 8.06605C111.259 8.41553 111.467 8.8666 111.467 9.41926C111.467 9.80938 111.353 10.1548 111.125 10.4555C111.068 10.553 110.995 10.6384 110.906 10.7115C111.109 10.8416 111.276 11 111.406 11.187C111.666 11.4877 111.796 11.8453 111.796 12.2598C111.796 12.845 111.572 13.3204 111.125 13.6862C110.792 13.9869 110.373 14.1372 109.87 14.1372H106.212V7.56621ZM107.309 8.45616V10.4067H109.431C109.731 10.4067 109.971 10.293 110.15 10.0654C110.288 9.87846 110.357 9.66309 110.357 9.41926C110.341 9.18357 110.272 8.97632 110.15 8.79752C109.971 8.56995 109.731 8.45616 109.431 8.45616H107.309ZM107.309 11.2967V13.2473H109.699C110.016 13.2473 110.264 13.1457 110.442 12.9425C110.605 12.7556 110.686 12.528 110.686 12.2598C110.703 12.0078 110.621 11.7884 110.442 11.6015C110.256 11.3983 109.975 11.2967 109.601 11.2967H107.309Z" fill="#3E3921"/>
<path d="M118.417 14.1372H117.454V13.1376C116.901 13.9259 116.064 14.3201 114.943 14.3201C114.3 14.3201 113.776 14.1372 113.37 13.7715C112.972 13.4058 112.773 12.9222 112.773 12.3207C112.773 11.4836 113.159 10.87 113.931 10.4799C114.126 10.3824 114.37 10.297 114.662 10.2239C114.963 10.1426 115.211 10.0857 115.406 10.0532C115.609 10.0207 115.942 9.97193 116.405 9.90691C116.877 9.84189 117.182 9.79719 117.32 9.7728C117.304 9.3258 117.149 8.98851 116.857 8.76094C116.572 8.52525 116.194 8.4074 115.723 8.4074C114.943 8.4074 114.325 8.6756 113.87 9.21201L113.187 8.48055C113.837 7.74095 114.719 7.37115 115.832 7.37115C116.531 7.37115 117.125 7.58653 117.612 8.01728C118.149 8.46429 118.417 9.16325 118.417 10.1142V14.1372ZM117.076 12.3451C117.157 12.1988 117.218 12.0322 117.259 11.8453C117.299 11.6502 117.32 11.4796 117.32 11.3333C117.328 11.187 117.332 10.9635 117.332 10.6628C116.251 10.8334 115.544 10.9594 115.211 11.0407C114.813 11.122 114.487 11.2642 114.235 11.4674C113.984 11.6706 113.858 11.9225 113.858 12.2232C113.858 12.5646 113.979 12.8409 114.223 13.0522C114.467 13.2635 114.776 13.3692 115.15 13.3692C116.052 13.3692 116.694 13.0278 117.076 12.3451Z" fill="#3E3921"/>
<path d="M125.127 7.55402V8.5415H122.836V14.1372H121.751V8.5415H119.459V7.55402H125.127Z" fill="#3E3921"/>
<path d="M127.038 11.2114C127.078 11.7884 127.233 12.2557 127.501 12.6133C127.85 13.101 128.379 13.3448 129.086 13.3448C129.996 13.3448 130.695 12.9588 131.183 12.1866L131.999 12.7231C131.382 13.7877 130.427 14.3201 129.135 14.3201C128.647 14.3201 128.184 14.2266 127.745 14.0397C127.314 13.8528 126.956 13.5846 126.672 13.2351C126.168 12.593 125.916 11.8087 125.916 10.8822C125.916 9.88253 126.168 9.06978 126.672 8.44397C127.257 7.72876 128.062 7.37115 129.086 7.37115C130.11 7.37115 130.914 7.72876 131.5 8.44397C132.06 9.14293 132.308 10.0654 132.243 11.2114H127.038ZM129.086 8.33425C128.379 8.33425 127.85 8.57808 127.501 9.06572C127.273 9.35831 127.127 9.74436 127.062 10.2239H131.109C131.044 9.75249 130.898 9.36643 130.671 9.06572C130.313 8.57808 129.785 8.33425 129.086 8.33425Z" fill="#3E3921"/>
<path d="M134.572 7.55402H138.924V14.1372H137.888V8.5415H135.486L135.072 11.8209C134.974 12.6255 134.771 13.231 134.462 13.6374C134.161 14.0356 133.67 14.2022 132.987 14.1372V13.1497C133.198 13.1497 133.369 13.1213 133.499 13.0644C133.637 12.9994 133.743 12.8897 133.816 12.7352C133.897 12.5727 133.95 12.4183 133.974 12.272C134.007 12.1257 134.043 11.9022 134.084 11.6015L134.572 7.55402Z" fill="#3E3921"/>
<path d="M140.625 7.55402H141.735V9.93129H143.698C144.283 9.93129 144.774 10.1304 145.173 10.5287C145.579 10.935 145.782 11.4389 145.782 12.0404C145.782 12.6418 145.579 13.1376 145.173 13.5277C144.766 13.934 144.275 14.1372 143.698 14.1372H140.638L140.625 7.55402ZM141.735 10.9797V13.101H143.661C143.929 13.101 144.165 12.9872 144.368 12.7596C144.563 12.5646 144.661 12.3248 144.661 12.0404C144.661 11.764 144.567 11.5243 144.38 11.3211C144.177 11.0935 143.937 10.9797 143.661 10.9797H141.735Z" fill="#3E3921"/>
<path d="M152.7 9.01696L151.676 9.45584C151.627 9.3258 151.558 9.21201 151.469 9.11449C151.127 8.63497 150.615 8.39521 149.933 8.39521C149.25 8.39521 148.738 8.63497 148.397 9.11449C148.088 9.5046 147.925 10.0816 147.909 10.8456C147.925 11.5933 148.088 12.1704 148.397 12.5768C148.746 13.0482 149.258 13.2838 149.933 13.2838C150.607 13.2838 151.119 13.0482 151.469 12.5768C151.542 12.4792 151.607 12.3695 151.664 12.2476L152.7 12.6865C152.57 12.9141 152.452 13.0969 152.346 13.2351C151.745 13.9747 150.94 14.3363 149.933 14.3201C148.925 14.3363 148.12 13.9747 147.519 13.2351C147.031 12.6255 146.779 11.829 146.763 10.8456C146.779 9.86221 147.031 9.06166 147.519 8.44397C148.096 7.72876 148.9 7.37115 149.933 7.37115C150.957 7.37115 151.761 7.72876 152.346 8.44397C152.501 8.65529 152.619 8.84628 152.7 9.01696Z" fill="#3E3921"/>
<path d="M155.084 11.2967V14.1372H153.975L153.987 7.55402H155.084V10.3946H155.767L157.827 7.55402H159.083L156.718 10.8334L159.412 14.1372H158.12L155.779 11.2967H155.084Z" fill="#3E3921"/>
<path d="M165.539 14.1372H164.576V13.1376C164.024 13.9259 163.187 14.3201 162.065 14.3201C161.423 14.3201 160.899 14.1372 160.492 13.7715C160.094 13.4058 159.895 12.9222 159.895 12.3207C159.895 11.4836 160.281 10.87 161.053 10.4799C161.248 10.3824 161.492 10.297 161.785 10.2239C162.085 10.1426 162.333 10.0857 162.528 10.0532C162.731 10.0207 163.065 9.97193 163.528 9.90691C163.999 9.84189 164.304 9.79719 164.442 9.7728C164.426 9.3258 164.272 8.98851 163.979 8.76094C163.695 8.52525 163.317 8.4074 162.845 8.4074C162.065 8.4074 161.447 8.6756 160.992 9.21201L160.31 8.48055C160.96 7.74095 161.842 7.37115 162.955 7.37115C163.654 7.37115 164.247 7.58653 164.735 8.01728C165.271 8.46429 165.539 9.16325 165.539 10.1142V14.1372ZM164.198 12.3451C164.28 12.1988 164.341 12.0322 164.381 11.8453C164.422 11.6502 164.442 11.4796 164.442 11.3333C164.45 11.187 164.454 10.9635 164.454 10.6628C163.374 10.8334 162.666 10.9594 162.333 11.0407C161.935 11.122 161.61 11.2642 161.358 11.4674C161.106 11.6706 160.98 11.9225 160.98 12.2232C160.98 12.5646 161.102 12.8409 161.346 13.0522C161.59 13.2635 161.898 13.3692 162.272 13.3692C163.174 13.3692 163.816 13.0278 164.198 12.3451Z" fill="#3E3921"/>
<path d="M172.287 14.1372H171.177V11.7478H169.166L168.007 14.1372H166.764L168.02 11.5771C167.776 11.4796 167.56 11.3373 167.374 11.1504C166.967 10.744 166.764 10.2442 166.764 9.65089C166.764 9.05759 166.967 8.55776 167.374 8.15139C167.772 7.75314 168.263 7.55402 168.849 7.55402H172.274L172.287 14.1372ZM168.885 10.7115H171.177V8.57808H168.885C168.617 8.59433 168.381 8.70811 168.178 8.91943C167.983 9.11448 167.886 9.35831 167.886 9.65089C167.886 9.92723 167.979 10.167 168.166 10.3702C168.369 10.5977 168.609 10.7115 168.885 10.7115Z" fill="#3E3921"/>
<path d="M182.317 7.55402V14.1372H181.232V8.63903H177.769V14.1372H176.684V7.55402H182.317Z" fill="#3E3921"/>
<path d="M184.997 7.55402H189.35V14.1372H188.313V8.5415H185.912L185.497 11.8209C185.4 12.6255 185.196 13.231 184.888 13.6374C184.587 14.0356 184.095 14.2022 183.412 14.1372V13.1497C183.624 13.1497 183.794 13.1213 183.924 13.0644C184.063 12.9994 184.168 12.8897 184.241 12.7352C184.323 12.5727 184.376 12.4183 184.4 12.272C184.432 12.1257 184.469 11.9022 184.51 11.6015L184.997 7.55402Z" fill="#3E3921"/>
<path d="M196.33 14.1372H195.367V13.1376C194.814 13.9259 193.977 14.3201 192.855 14.3201C192.213 14.3201 191.689 14.1372 191.283 13.7715C190.884 13.4058 190.685 12.9222 190.685 12.3207C190.685 11.4836 191.071 10.87 191.843 10.4799C192.038 10.3824 192.282 10.297 192.575 10.2239C192.876 10.1426 193.123 10.0857 193.318 10.0532C193.522 10.0207 193.855 9.97193 194.318 9.90691C194.79 9.84189 195.094 9.79719 195.232 9.7728C195.216 9.3258 195.062 8.98851 194.769 8.76094C194.485 8.52525 194.107 8.4074 193.635 8.4074C192.855 8.4074 192.238 8.6756 191.782 9.21201L191.1 8.48055C191.75 7.74095 192.632 7.37115 193.745 7.37115C194.444 7.37115 195.037 7.58653 195.525 8.01728C196.061 8.46429 196.33 9.16325 196.33 10.1142V14.1372ZM194.989 12.3451C195.07 12.1988 195.131 12.0322 195.172 11.8453C195.212 11.6502 195.232 11.4796 195.232 11.3333C195.241 11.187 195.245 10.9635 195.245 10.6628C194.164 10.8334 193.457 10.9594 193.123 11.0407C192.725 11.122 192.4 11.2642 192.148 11.4674C191.896 11.6706 191.77 11.9225 191.77 12.2232C191.77 12.5646 191.892 12.8409 192.136 13.0522C192.38 13.2635 192.689 13.3692 193.062 13.3692C193.965 13.3692 194.607 13.0278 194.989 12.3451Z" fill="#3E3921"/>
<path d="M203.04 7.55402V8.5415H200.748V14.1372H199.663V8.5415H197.371V7.55402H203.04Z" fill="#3E3921"/>
<path d="M210.184 8.16358C210.973 8.79752 211.379 9.69153 211.403 10.8456C211.379 12.0078 210.973 12.91 210.184 13.5521C209.623 13.9909 208.892 14.251 207.99 14.3323V16.8802H207.002V14.3323C206.084 14.251 205.356 13.9909 204.82 13.5521C204.015 12.8937 203.605 11.9916 203.589 10.8456C203.605 9.69966 204.015 8.80564 204.82 8.16358C205.348 7.7247 206.076 7.46462 207.002 7.38335V5.42058H207.99V7.38335C208.916 7.45649 209.648 7.71657 210.184 8.16358ZM209.44 12.7596C209.993 12.3207 210.278 11.6827 210.294 10.8456C210.278 10.0004 209.993 9.36643 209.44 8.94381C209.107 8.66748 208.624 8.49274 207.99 8.41959V13.2838C208.607 13.2107 209.091 13.036 209.44 12.7596ZM205.552 12.7596C205.885 13.036 206.368 13.2107 207.002 13.2838V8.43178C206.385 8.48867 205.901 8.65935 205.552 8.94381C205.007 9.37456 204.727 10.0085 204.71 10.8456C204.727 11.6827 205.007 12.3207 205.552 12.7596Z" fill="#3E3921"/>
<path d="M215.547 14.3201C214.523 14.3201 213.719 13.9584 213.134 13.2351C212.63 12.593 212.378 11.7925 212.378 10.8334C212.378 9.86627 212.63 9.06978 213.134 8.44397C213.41 8.10262 213.759 7.83848 214.182 7.65155C214.613 7.46462 215.068 7.37115 215.547 7.37115C216.588 7.37115 217.392 7.72876 217.961 8.44397C218.473 9.06166 218.729 9.85814 218.729 10.8334C218.729 11.8006 218.473 12.6011 217.961 13.2351C217.384 13.9584 216.58 14.3201 215.547 14.3201ZM217.096 12.5768C217.413 12.1623 217.571 11.5812 217.571 10.8334C217.571 10.0776 217.413 9.50054 217.096 9.10229C216.754 8.6309 216.238 8.39521 215.547 8.39521C214.865 8.39521 214.353 8.6309 214.011 9.10229C213.694 9.50054 213.536 10.0776 213.536 10.8334C213.536 11.5812 213.694 12.1623 214.011 12.5768C214.361 13.0482 214.873 13.2838 215.547 13.2838C216.23 13.2838 216.746 13.0482 217.096 12.5768Z" fill="#3E3921"/>
<path d="M225.507 8.41959C225.995 9.0454 226.238 9.85002 226.238 10.8334C226.238 11.8331 225.995 12.6418 225.507 13.2595C224.938 13.9666 224.178 14.3201 223.227 14.3201C222.366 14.3201 221.679 14.0519 221.167 13.5155V17.0631H220.07V7.55402H221.045V8.29768C221.598 7.68 222.325 7.37115 223.227 7.37115C224.194 7.37115 224.954 7.72063 225.507 8.41959ZM224.629 12.589C224.93 12.1907 225.08 11.6055 225.08 10.8334C225.08 10.0776 224.926 9.49647 224.617 9.0901C224.276 8.60246 223.755 8.35864 223.056 8.35864C222.406 8.35864 221.906 8.58214 221.557 9.02915C221.216 9.4599 221.045 10.0613 221.045 10.8334C221.045 11.6218 221.216 12.2273 221.557 12.6499C221.923 13.0969 222.435 13.3204 223.093 13.3204C223.776 13.3204 224.288 13.0766 224.629 12.589Z" fill="#3E3921"/>
<path d="M233.43 7.55402H234.406L234.418 14.1372H233.321V9.68747L231.358 13.0766H230.639L228.688 9.68747V14.1372H227.579V7.55402H228.578L231.004 11.699L233.43 7.55402Z" fill="#3E3921"/>
<path d="M241.406 14.1372H240.443V13.1376C239.891 13.9259 239.053 14.3201 237.932 14.3201C237.29 14.3201 236.766 14.1372 236.359 13.7715C235.961 13.4058 235.762 12.9222 235.762 12.3207C235.762 11.4836 236.148 10.87 236.92 10.4799C237.115 10.3824 237.359 10.297 237.652 10.2239C237.952 10.1426 238.2 10.0857 238.395 10.0532C238.598 10.0207 238.932 9.97193 239.395 9.90691C239.866 9.84189 240.171 9.79719 240.309 9.7728C240.293 9.3258 240.138 8.98851 239.846 8.76094C239.561 8.52525 239.184 8.4074 238.712 8.4074C237.932 8.4074 237.314 8.6756 236.859 9.21201L236.176 8.48055C236.827 7.74095 237.708 7.37115 238.822 7.37115C239.521 7.37115 240.114 7.58653 240.602 8.01728C241.138 8.46429 241.406 9.16325 241.406 10.1142V14.1372ZM240.065 12.3451C240.147 12.1988 240.208 12.0322 240.248 11.8453C240.289 11.6502 240.309 11.4796 240.309 11.3333C240.317 11.187 240.321 10.9635 240.321 10.6628C239.24 10.8334 238.533 10.9594 238.2 11.0407C237.802 11.122 237.477 11.2642 237.225 11.4674C236.973 11.6706 236.847 11.9225 236.847 12.2232C236.847 12.5646 236.969 12.8409 237.213 13.0522C237.456 13.2635 237.765 13.3692 238.139 13.3692C239.041 13.3692 239.683 13.0278 240.065 12.3451Z" fill="#3E3921"/>
<path d="M60.3705 19.4038H61.4677V28.1814H60.3705V21.3178L55.7988 28.1814H54.7016V19.4038H55.7988V26.2552L60.3705 19.4038Z" fill="#3E3921"/>
<path d="M67.7172 21.5982H68.8022V28.1814H67.7172V25.2311H64.2549V28.1814H63.1699V21.5982H64.2549V24.1461H67.7172V21.5982Z" fill="#3E3921"/>
<path d="M76.0788 23.0611L75.0547 23.5C75.006 23.37 74.9369 23.2562 74.8475 23.1587C74.5061 22.6791 73.9941 22.4394 73.3114 22.4394C72.6287 22.4394 72.1167 22.6791 71.7753 23.1587C71.4665 23.5488 71.3039 24.1258 71.2877 24.8898C71.3039 25.6375 71.4665 26.2146 71.7753 26.6209C72.1248 27.0923 72.6368 27.328 73.3114 27.328C73.986 27.328 74.498 27.0923 74.8475 26.6209C74.9206 26.5234 74.9856 26.4137 75.0425 26.2918L76.0788 26.7307C75.9487 26.9582 75.8309 27.1411 75.7252 27.2793C75.1238 28.0189 74.3192 28.3805 73.3114 28.3643C72.3036 28.3805 71.499 28.0189 70.8975 27.2793C70.4099 26.6697 70.158 25.8732 70.1417 24.8898C70.158 23.9064 70.4099 23.1058 70.8975 22.4881C71.4746 21.7729 72.2792 21.4153 73.3114 21.4153C74.3354 21.4153 75.1401 21.7729 75.7252 22.4881C75.8797 22.6995 75.9975 22.8905 76.0788 23.0611Z" fill="#3E3921"/>
<path d="M82.4738 21.5982V22.5857H80.1818V28.1814H79.0968V22.5857H76.8049V21.5982H82.4738Z" fill="#3E3921"/>
<path d="M89.1263 21.5982V28.1814H88.0291V23.3537L84.6034 28.1814H83.6281V21.5982H84.7253V26.3527L88.151 21.5982H89.1263Z" fill="#3E3921"/>
<path d="M95.9488 21.5982V22.5857H93.6568V28.1814H92.5718V22.5857H90.2799V21.5982H95.9488Z" fill="#3E3921"/>
<path d="M101.671 21.5982H102.768L99.8057 29.3761C99.5375 30.067 99.2287 30.5383 98.8792 30.7903C98.5948 31.0016 98.1762 31.1073 97.6235 31.1073H97.465V30.0588L97.6723 30.0832C97.973 30.0995 98.1965 30.0548 98.3428 29.9491C98.546 29.8028 98.8142 29.2786 99.1474 28.3765L96.3678 21.5982H97.4772L99.6595 26.9745L101.671 21.5982Z" fill="#3E3921"/>
<path d="M108.864 21.5982V22.5857H106.572V28.1814H105.487V22.5857H103.195V21.5982H108.864Z" fill="#3E3921"/>
<path d="M114.988 28.1814H114.025V27.1817C113.472 27.9701 112.635 28.3643 111.514 28.3643C110.872 28.3643 110.348 28.1814 109.941 27.8157C109.543 27.4499 109.344 26.9664 109.344 26.3649C109.344 25.5278 109.73 24.9142 110.502 24.5241C110.697 24.4265 110.941 24.3412 111.233 24.268C111.534 24.1868 111.782 24.1299 111.977 24.0974C112.18 24.0649 112.513 24.0161 112.977 23.9511C113.448 23.8861 113.753 23.8414 113.891 23.817C113.875 23.37 113.72 23.0327 113.428 22.8051C113.143 22.5694 112.765 22.4516 112.294 22.4516C111.514 22.4516 110.896 22.7198 110.441 23.2562L109.758 22.5247C110.408 21.7851 111.29 21.4153 112.404 21.4153C113.103 21.4153 113.696 21.6307 114.184 22.0615C114.72 22.5085 114.988 23.2074 114.988 24.1583V28.1814ZM113.647 26.3893C113.729 26.243 113.789 26.0764 113.83 25.8895C113.871 25.6944 113.891 25.5237 113.891 25.3774C113.899 25.2311 113.903 25.0076 113.903 24.7069C112.822 24.8776 112.115 25.0036 111.782 25.0849C111.384 25.1661 111.059 25.3084 110.807 25.5115C110.555 25.7147 110.429 25.9667 110.429 26.2674C110.429 26.6087 110.551 26.8851 110.795 27.0964C111.038 27.3077 111.347 27.4134 111.721 27.4134C112.623 27.4134 113.265 27.072 113.647 26.3893Z" fill="#3E3921"/>
<path d="M128.005 19.4038V28.1692H126.908V21.7811L123.921 28.1814H123.348L120.361 21.7932V28.1814H119.264V19.4038H120.349L123.641 26.3893L126.908 19.4038H128.005Z" fill="#3E3921"/>
<path d="M130.466 25.2555C130.507 25.8326 130.661 26.2999 130.93 26.6575C131.279 27.1452 131.807 27.389 132.515 27.389C133.425 27.389 134.124 27.0029 134.611 26.2308L135.428 26.7672C134.811 27.8319 133.856 28.3643 132.563 28.3643C132.076 28.3643 131.612 28.2708 131.173 28.0839C130.743 27.8969 130.385 27.6287 130.101 27.2793C129.597 26.6372 129.345 25.8529 129.345 24.9264C129.345 23.9267 129.597 23.114 130.101 22.4881C130.686 21.7729 131.49 21.4153 132.515 21.4153C133.539 21.4153 134.343 21.7729 134.928 22.4881C135.489 23.1871 135.737 24.1096 135.672 25.2555H130.466ZM132.515 22.3784C131.807 22.3784 131.279 22.6222 130.93 23.1099C130.702 23.4025 130.556 23.7885 130.491 24.268H134.538C134.473 23.7967 134.327 23.4106 134.099 23.1099C133.742 22.6222 133.213 22.3784 132.515 22.3784Z" fill="#3E3921"/>
<path d="M145.075 21.5982L143.027 24.8776L145.185 28.1814L143.954 28.1692L142.174 25.3409H141.272V28.1814H140.284V25.3409H139.382L137.59 28.1692L136.359 28.1814L138.516 24.8776L136.468 21.5982H137.7L139.382 24.4387H140.284V21.5982H141.272V24.4387H142.162L143.856 21.5982H145.075Z" fill="#3E3921"/>
<path d="M151.866 21.5982V27.1452H152.439V29.0592H151.403V28.1814H146.71V29.0592H145.673V27.1452C146.397 27.1452 146.844 26.4137 147.014 24.9508L147.404 21.5982H151.866ZM150.83 27.1452V22.5857H148.307L148.026 25.0727C147.912 26.0398 147.685 26.7307 147.343 27.1452H150.83Z" fill="#3E3921"/>
<path d="M159.461 21.5982V28.1814H158.364V23.3537L154.939 28.1814H153.963V21.5982H155.06V26.3527L158.486 21.5982H159.461Z" fill="#3E3921"/>
<path d="M166.735 23.0611L165.711 23.5C165.662 23.37 165.593 23.2562 165.504 23.1587C165.162 22.6791 164.65 22.4394 163.968 22.4394C163.285 22.4394 162.773 22.6791 162.432 23.1587C162.123 23.5488 161.96 24.1258 161.944 24.8898C161.96 25.6375 162.123 26.2146 162.432 26.6209C162.781 27.0923 163.293 27.328 163.968 27.328C164.642 27.328 165.154 27.0923 165.504 26.6209C165.577 26.5234 165.642 26.4137 165.699 26.2918L166.735 26.7307C166.605 26.9582 166.487 27.1411 166.381 27.2793C165.78 28.0189 164.975 28.3805 163.968 28.3643C162.96 28.3805 162.155 28.0189 161.554 27.2793C161.066 26.6697 160.814 25.8732 160.798 24.8898C160.814 23.9064 161.066 23.1058 161.554 22.4881C162.131 21.7729 162.935 21.4153 163.968 21.4153C164.992 21.4153 165.796 21.7729 166.381 22.4881C166.536 22.6995 166.654 22.8905 166.735 23.0611Z" fill="#3E3921"/>
<path d="M173.642 27.1452H174.715V29.2176H173.63V28.1814H168.01V21.5982H169.095V27.0964H172.557V21.5982H173.642V27.1452Z" fill="#3E3921"/>
<path d="M181.554 21.5982V28.1814H180.457V23.3537L177.031 28.1814H176.056V21.5982H177.153V26.3527L180.579 21.5982H181.554Z" fill="#3E3921"/>
<path d="M188.889 21.5982V28.1814H187.804V22.6832H184.341V28.1814H183.256V21.5982H188.889Z" fill="#3E3921"/>
<path d="M191.569 21.5982H195.921V28.1814H194.885V22.5857H192.483L192.069 25.8651C191.971 26.6697 191.768 27.2752 191.459 27.6816C191.159 28.0798 190.667 28.2464 189.984 28.1814V27.1939C190.196 27.1939 190.366 27.1655 190.496 27.1086C190.634 27.0436 190.74 26.9338 190.813 26.7794C190.895 26.6169 190.947 26.4624 190.972 26.3162C191.004 26.1699 191.041 25.9464 191.081 25.6456L191.569 21.5982Z" fill="#3E3921"/>
<path d="M203.121 21.5982V28.1814H202.024V23.3537L198.598 28.1814H197.623V21.5982H198.72V26.3527L202.146 21.5982H203.121Z" fill="#3E3921"/>
<path d="M209.37 21.5982H210.455V28.1814H209.37V25.2311H205.908V28.1814H204.823V21.5982H205.908V24.1461H209.37V21.5982Z" fill="#3E3921"/>
<path d="M217.439 28.1814H216.476V27.1817C215.924 27.9701 215.087 28.3643 213.965 28.3643C213.323 28.3643 212.799 28.1814 212.392 27.8157C211.994 27.4499 211.795 26.9664 211.795 26.3649C211.795 25.5278 212.181 24.9142 212.953 24.5241C213.148 24.4265 213.392 24.3412 213.685 24.268C213.985 24.1868 214.233 24.1299 214.428 24.0974C214.631 24.0649 214.965 24.0161 215.428 23.9511C215.899 23.8861 216.204 23.8414 216.342 23.817C216.326 23.37 216.172 23.0327 215.879 22.8051C215.594 22.5694 215.217 22.4516 214.745 22.4516C213.965 22.4516 213.347 22.7198 212.892 23.2562L212.209 22.5247C212.86 21.7851 213.741 21.4153 214.855 21.4153C215.554 21.4153 216.147 21.6307 216.635 22.0615C217.171 22.5085 217.439 23.2074 217.439 24.1583V28.1814ZM216.098 26.3893C216.18 26.243 216.241 26.0764 216.281 25.8895C216.322 25.6944 216.342 25.5237 216.342 25.3774C216.35 25.2311 216.354 25.0076 216.354 24.7069C215.273 24.8776 214.566 25.0036 214.233 25.0849C213.835 25.1661 213.51 25.3084 213.258 25.5115C213.006 25.7147 212.88 25.9667 212.88 26.2674C212.88 26.6087 213.002 26.8851 213.246 27.0964C213.489 27.3077 213.798 27.4134 214.172 27.4134C215.074 27.4134 215.716 27.072 216.098 26.3893Z" fill="#3E3921"/>
<path d="M224.467 22.4638C224.954 23.0896 225.198 23.8942 225.198 24.8776C225.198 25.8773 224.954 26.686 224.467 27.3036C223.898 28.0107 223.138 28.3643 222.187 28.3643C221.326 28.3643 220.639 28.0961 220.127 27.5597V31.1073H219.03V21.5982H220.005V22.3419C220.558 21.7242 221.285 21.4153 222.187 21.4153C223.154 21.4153 223.914 21.7648 224.467 22.4638ZM223.589 26.6331C223.89 26.2349 224.04 25.6497 224.04 24.8776C224.04 24.1218 223.886 23.5406 223.577 23.1343C223.236 22.6466 222.715 22.4028 222.016 22.4028C221.366 22.4028 220.866 22.6263 220.517 23.0733C220.176 23.5041 220.005 24.1055 220.005 24.8776C220.005 25.666 220.176 26.2715 220.517 26.6941C220.883 27.1411 221.395 27.3646 222.053 27.3646C222.736 27.3646 223.248 27.1208 223.589 26.6331Z" fill="#3E3921"/>
<path d="M231.086 21.5982H232.171V28.1814H231.086V25.2311H227.624V28.1814H226.539V21.5982H227.624V24.1461H231.086V21.5982Z" fill="#3E3921"/>
<path d="M236.68 28.3643C235.656 28.3643 234.851 28.0026 234.266 27.2793C233.762 26.6372 233.51 25.8366 233.51 24.8776C233.51 23.9104 233.762 23.114 234.266 22.4881C234.543 22.1468 234.892 21.8827 235.315 21.6957C235.745 21.5088 236.201 21.4153 236.68 21.4153C237.72 21.4153 238.525 21.7729 239.094 22.4881C239.606 23.1058 239.862 23.9023 239.862 24.8776C239.862 25.8448 239.606 26.6453 239.094 27.2793C238.517 28.0026 237.712 28.3643 236.68 28.3643ZM238.228 26.6209C238.545 26.2064 238.704 25.6253 238.704 24.8776C238.704 24.1218 238.545 23.5447 238.228 23.1465C237.887 22.6751 237.371 22.4394 236.68 22.4394C235.997 22.4394 235.485 22.6751 235.144 23.1465C234.827 23.5447 234.668 24.1218 234.668 24.8776C234.668 25.6253 234.827 26.2064 235.144 26.6209C235.493 27.0923 236.005 27.328 236.68 27.328C237.363 27.328 237.879 27.0923 238.228 26.6209Z" fill="#3E3921"/>
<path d="M244.847 19.1965H245.725C245.725 19.6598 245.563 20.054 245.237 20.3791C244.912 20.7042 244.522 20.8667 244.067 20.8667C243.604 20.8667 243.21 20.7042 242.885 20.3791C242.559 20.054 242.397 19.6598 242.397 19.1965H243.275C243.275 19.416 243.352 19.6029 243.506 19.7573C243.661 19.9118 243.848 19.989 244.067 19.989C244.287 19.989 244.469 19.9118 244.616 19.7573C244.77 19.6029 244.847 19.416 244.847 19.1965ZM246.7 21.5982V28.1814H245.603V23.3537L242.177 28.1814H241.202V21.5982H242.299V26.3527L245.725 21.5982H246.7Z" fill="#3E3921"/>
<path d="M63.4305 33.448V42.2134H62.3333V35.8252L59.3465 42.2256H58.7735L55.7867 35.8374V42.2256H54.6895V33.448H55.7745L59.0661 40.4335L62.3333 33.448H63.4305Z" fill="#3E3921"/>
<path d="M65.8916 39.2997C65.9322 39.8767 66.0866 40.3441 66.3548 40.7017C66.7043 41.1893 67.2326 41.4331 67.9397 41.4331C68.8499 41.4331 69.5489 41.0471 70.0365 40.275L70.8534 40.8114C70.2357 41.8761 69.2807 42.4084 67.9884 42.4084C67.5008 42.4084 67.0375 42.315 66.5987 42.128C66.1679 41.9411 65.8103 41.6729 65.5258 41.3234C65.0219 40.6814 64.77 39.8971 64.77 38.9705C64.77 37.9709 65.0219 37.1581 65.5258 36.5323C66.111 35.8171 66.9156 35.4595 67.9397 35.4595C68.9637 35.4595 69.7683 35.8171 70.3535 36.5323C70.9143 37.2313 71.1622 38.1537 71.0972 39.2997H65.8916ZM67.9397 36.4226C67.2326 36.4226 66.7043 36.6664 66.3548 37.1541C66.1273 37.4466 65.981 37.8327 65.916 38.3122H69.9634C69.8984 37.8408 69.7521 37.4548 69.5245 37.1541C69.1669 36.6664 68.6386 36.4226 67.9397 36.4226Z" fill="#3E3921"/>
<path d="M78.0339 35.6424V41.1893H78.6069V43.1033H77.5707V42.2256H72.8771V43.1033H71.8408V41.1893C72.5642 41.1893 73.0112 40.4579 73.1819 38.9949L73.572 35.6424H78.0339ZM76.9977 41.1893V36.6298H74.4741L74.1937 39.1168C74.0799 40.084 73.8524 40.7748 73.511 41.1893H76.9977Z" fill="#3E3921"/>
<path d="M85.629 35.6424V42.2256H84.5318V37.3979L81.1061 42.2256H80.1308V35.6424H81.228V40.3969L84.6537 35.6424H85.629Z" fill="#3E3921"/>
<path d="M92.9635 41.1893H94.0363V43.2618H92.9513V42.2256H87.3312V35.6424H88.4162V41.1406H91.8785V35.6424H92.9635V41.1893Z" fill="#3E3921"/>
<path d="M100.876 35.6424V42.2256H99.7783V37.3979L96.3526 42.2256H95.3773V35.6424H96.4745V40.3969L99.9002 35.6424H100.876Z" fill="#3E3921"/>
<path d="M107.125 35.6424H108.21V42.2256H107.125V39.2753H103.663V42.2256H102.578V35.6424H103.663V38.1903H107.125V35.6424Z" fill="#3E3921"/>
<path d="M109.915 35.6424H111.025V38.0196H112.744C113.329 38.0196 113.82 38.2188 114.219 38.617C114.625 39.0234 114.828 39.5273 114.828 40.1287C114.828 40.7301 114.625 41.2259 114.219 41.616C113.812 42.0224 113.321 42.2256 112.744 42.2256H109.927L109.915 35.6424ZM115.584 35.6424H116.669V42.2256H115.584V35.6424ZM111.025 39.0681V41.1893H112.707C112.975 41.1893 113.211 41.0755 113.414 40.848C113.609 40.6529 113.707 40.4132 113.707 40.1287C113.707 39.8524 113.613 39.6126 113.426 39.4094C113.223 39.1819 112.983 39.0681 112.707 39.0681H111.025Z" fill="#3E3921"/>
</svg>
