<svg width="109" height="109" viewBox="0 0 109 109" fill="none" xmlns="http://www.w3.org/2000/svg">
<path d="M32.6678 64.1098L32.1892 62.6283C32.1517 62.4988 32.1267 62.3659 32.1146 62.2316C32.1034 62.3625 32.0763 62.4916 32.0338 62.6159L31.5551 64.116L32.6678 64.1098ZM34.3026 65.8577H33.2024L32.8854 64.8784H31.3065L30.9957 65.8577H29.9141L31.5303 61.4382H32.7113L34.3026 65.8577Z" fill="#3E3921"/>
<path d="M38.2619 65.7032C37.8687 65.8673 37.4448 65.9455 37.0187 65.9325C36.7228 65.9459 36.4275 65.8977 36.1513 65.791C35.8752 65.6843 35.6244 65.5214 35.4149 65.3127C35.0228 64.8948 34.8089 64.3414 34.8182 63.7693C34.8059 63.4535 34.8579 63.1386 34.9712 62.8435C35.0844 62.5484 35.2565 62.2792 35.4771 62.0523C35.7002 61.8312 35.9665 61.6582 36.2595 61.5441C36.5526 61.43 36.866 61.3773 37.1803 61.3891C37.5517 61.3771 37.9222 61.4317 38.2743 61.5502V62.511C37.9678 62.3305 37.6171 62.2383 37.2611 62.2445C37.0752 62.2361 36.8897 62.2665 36.7163 62.3337C36.5429 62.401 36.3854 62.5036 36.2541 62.635C36.1214 62.7778 36.0189 62.9458 35.9526 63.1289C35.8864 63.3121 35.8579 63.5067 35.8687 63.7011C35.8583 63.8868 35.8848 64.0728 35.9467 64.2483C36.0086 64.4238 36.1046 64.5854 36.2292 64.7238C36.3562 64.852 36.5085 64.9524 36.6766 65.0186C36.8446 65.0848 37.0246 65.1153 37.2052 65.1081C37.5794 65.0985 37.9442 64.9894 38.2619 64.792V65.7032Z" fill="#3E3921"/>
<path d="M42.4143 65.7031C42.0211 65.8672 41.5972 65.9454 41.1711 65.9324C40.8743 65.9459 40.578 65.8978 40.3008 65.7911C40.0237 65.6844 39.7718 65.5214 39.5611 65.3126C39.164 64.897 38.9453 64.3432 38.952 63.7692C38.9397 63.4534 38.9917 63.1385 39.105 62.8433C39.2182 62.5482 39.3903 62.2791 39.6109 62.0522C39.8349 61.8306 40.1023 61.6574 40.3964 61.5433C40.6905 61.4292 41.005 61.3767 41.3203 61.389C41.6917 61.3778 42.0621 61.4324 42.4143 61.5501V62.5109C42.1012 62.3164 41.7389 62.2153 41.37 62.2195C41.1843 62.2123 40.999 62.2432 40.8258 62.3104C40.6526 62.3776 40.495 62.4796 40.363 62.61C40.2309 62.7533 40.1288 62.9213 40.0626 63.1044C39.9964 63.2875 39.9675 63.4818 39.9776 63.6762C39.9597 64.052 40.0916 64.4196 40.3444 64.6989C40.4704 64.8266 40.6217 64.9268 40.7886 64.993C40.9556 65.0591 41.1345 65.0899 41.3141 65.0832C41.6917 65.086 42.0631 64.9875 42.3895 64.7981L42.4143 65.7031Z" fill="#3E3921"/>
<path d="M45.2863 62.2196C45.1254 62.2135 44.9653 62.2457 44.8194 62.3136C44.6734 62.3815 44.5458 62.4831 44.4471 62.6101C44.2307 62.9153 44.1234 63.2842 44.1425 63.6576C44.1317 64.0309 44.2503 64.3964 44.4782 64.6927C44.5747 64.8154 44.6985 64.914 44.8399 64.9807C44.9812 65.0475 45.1362 65.0804 45.2925 65.077C45.4495 65.0831 45.6057 65.052 45.7483 64.9863C45.891 64.9206 46.0159 64.8221 46.113 64.6989C46.3318 64.4018 46.4395 64.0379 46.4176 63.67C46.4408 63.2894 46.3358 62.912 46.1193 62.5977C46.0271 62.4733 45.9059 62.3732 45.7662 62.3062C45.6264 62.2393 45.4723 62.2074 45.3174 62.2134L45.2863 62.2196ZM45.2739 65.9324C44.9857 65.9434 44.6985 65.894 44.4308 65.7872C44.1631 65.6804 43.9208 65.5187 43.7198 65.3126C43.5129 65.0994 43.3512 64.8468 43.2444 64.5699C43.1376 64.293 43.0879 63.9975 43.0982 63.701C43.0723 63.0771 43.2959 62.4684 43.7198 62.0088C43.9296 61.7969 44.1822 61.632 44.4609 61.5251C44.7396 61.4183 45.0379 61.3718 45.336 61.389C45.6213 61.3782 45.9057 61.4279 46.1704 61.5348C46.435 61.6416 46.6739 61.8032 46.8714 62.0088C47.2738 62.4568 47.4837 63.0444 47.4557 63.6452C47.4797 64.2651 47.2562 64.8692 46.8341 65.325C46.6284 65.5335 46.3809 65.6965 46.1078 65.8033C45.8347 65.9101 45.542 65.9583 45.249 65.9448" fill="#3E3921"/>
<path d="M52.9567 67.0664H52.0802V65.8577H48.4873V61.4382H49.4881V65.0085H51.3219V61.4382H52.3227V65.0085H52.9567V67.0664Z" fill="#3E3921"/>
<path d="M57.9986 65.8577H57.0537V63.4279C57.0537 63.149 57.0537 62.9135 57.0848 62.7151C57.0413 62.8019 56.9667 62.9197 56.861 63.0808L55.0335 65.8577H54.0078V61.4382H54.9464V63.8804C54.9603 64.0868 54.9603 64.2939 54.9464 64.5003C54.9464 64.5003 55.0335 64.3515 55.1764 64.1408L56.9107 61.4382H57.9799L57.9986 65.8577Z" fill="#3E3921"/>
<path d="M61.5973 64.1098L61.1248 62.6283C61.0872 62.4988 61.0622 62.366 61.0503 62.2316C61.039 62.362 61.014 62.4908 60.9757 62.6159L60.4908 64.116L61.5973 64.1098ZM63.2259 65.8577H62.1381L61.821 64.8784H60.2484L59.9376 65.8577H58.856L60.4722 61.4382H61.6532L63.2259 65.8577Z" fill="#3E3921"/>
<path d="M68.5719 67.0664H67.6955V65.8577H64.1025V61.4382H65.0971V65.0085H66.9371V61.4382H67.9379V65.0085H68.5719V67.0664Z" fill="#3E3921"/>
<path d="M73.6132 65.8577H72.6621V63.4279C72.6575 63.1899 72.6679 62.9518 72.6932 62.7151C72.6497 62.8019 72.5751 62.9197 72.4694 63.0808L70.6357 65.8577H69.6162V61.4382H70.5859V63.8804C70.6003 64.0868 70.6003 64.2939 70.5859 64.5003C70.6535 64.3762 70.7283 64.2562 70.8097 64.1408L72.5751 61.4444H73.6443L73.6132 65.8577Z" fill="#3E3921"/>
<path d="M76.9822 63.3971V62.1946H76.5658C76.0975 62.1946 75.8633 62.3888 75.8633 62.7772C75.8606 62.8606 75.8758 62.9436 75.908 63.0206C75.9401 63.0976 75.9885 63.1668 76.0498 63.2235C76.1955 63.3403 76.379 63.3999 76.5658 63.3909L76.9822 63.3971ZM77.9768 65.8765H76.9822V64.1409H76.7149C76.4704 64.1409 76.2632 64.3268 76.0933 64.6988L75.6085 65.8579H74.4585L75.0801 64.5376C75.1393 64.3805 75.2315 64.2379 75.3505 64.1192C75.4695 64.0005 75.6126 63.9086 75.7701 63.8496C75.4927 63.8199 75.2369 63.6863 75.0545 63.4757C74.8722 63.2651 74.7769 62.9933 74.7879 62.7153C74.7799 62.5374 74.8146 62.3602 74.8892 62.1984C74.9638 62.0367 75.0762 61.8951 75.2169 61.7855C75.5816 61.5373 76.0197 61.4194 76.4601 61.4508H77.9892L77.9768 65.8765Z" fill="#3E3921"/>
<path d="M15.9586 73.3578H14.9765V70.7111C14.9765 70.4259 14.9765 70.0912 15.0138 69.7627C14.9823 69.962 14.9366 70.1588 14.877 70.3516L13.8078 73.3578H12.9935L11.9368 70.3826C11.8769 70.1789 11.8292 69.972 11.7938 69.7627C11.7938 70.2028 11.8311 70.5809 11.8311 70.9094V73.3516H10.9111V68.9321H12.3657L13.2795 71.5541C13.349 71.7559 13.401 71.9632 13.4349 72.1739C13.4825 71.9645 13.5406 71.7577 13.6089 71.5541L14.5165 68.9383H15.9586V73.3578Z" fill="#3E3921"/>
<path d="M19.9433 73.3578H17.2891V68.9321H19.8439V69.7441H18.2899V70.7297H19.7382V71.5417H18.2899V72.552H19.9433V73.3578Z" fill="#3E3921"/>
<path d="M26.8305 73.3579H25.5873L24.2757 71.4488C24.2319 71.3768 24.1925 71.3023 24.1576 71.2256V73.3517H23.1692V71.207C23.1334 71.2844 23.0919 71.359 23.0449 71.4302L21.7271 73.3579H20.4839L22.1747 71.0521L20.6144 68.9384H21.8017L23.0449 70.798C23.0947 70.8723 23.1382 70.9405 23.1692 70.9963V68.9322H24.1452V70.9839L24.2633 70.7856L25.5065 68.926H26.7L25.1398 71.0397L26.8305 73.3579Z" fill="#3E3921"/>
<path d="M30.4855 72.5458V69.7689H29.7334C29.6988 70.2341 29.6197 70.6948 29.4972 71.145C29.3741 71.6259 29.2077 72.0948 28.9999 72.5458H30.4855ZM32.1204 74.5665H31.2439V73.3578H28.428V74.5665H27.564V72.5458H27.9742C28.5732 71.4325 28.9031 70.1951 28.9377 68.9321H31.4863V72.5458H32.1079L32.1204 74.5665Z" fill="#3E3921"/>
<path d="M37.1616 73.3578H36.223V70.928C36.2103 70.6906 36.2103 70.4526 36.223 70.2152C36.1582 70.3415 36.0855 70.4636 36.0054 70.5809L34.1717 73.3578H33.1709V68.9321H34.1157V71.3805C34.1292 71.5869 34.1292 71.794 34.1157 72.0004C34.1157 72.0004 34.2028 71.8516 34.3457 71.6408L36.1049 68.9445H37.1741L37.1616 73.3578Z" fill="#3E3921"/>
<path d="M41.6749 73.1966C41.2828 73.3651 40.8584 73.4456 40.4316 73.4322C40.1358 73.4452 39.8406 73.3968 39.5645 73.2901C39.2884 73.1834 39.0376 73.0207 38.8279 72.8123C38.6293 72.5987 38.4754 72.3479 38.3751 72.0744C38.2748 71.8009 38.2301 71.5102 38.2436 71.2193C38.2317 70.908 38.2822 70.5974 38.3921 70.3058C38.5021 70.0142 38.6692 69.7474 38.8838 69.521C39.1075 69.301 39.374 69.1291 39.667 69.0161C39.96 68.9031 40.2732 68.8513 40.587 68.8639C40.9587 68.8558 41.3289 68.9124 41.6811 69.0313V69.9672C41.3743 69.7874 41.0237 69.6952 40.6678 69.7007C40.482 69.6927 40.2966 69.7233 40.1232 69.7905C39.9499 69.8577 39.7924 69.9601 39.6608 70.0912C39.5289 70.2333 39.4268 70.4003 39.3606 70.5823C39.2944 70.7643 39.2655 70.9578 39.2754 71.1511C39.2651 71.3369 39.2916 71.5228 39.3534 71.6984C39.4153 71.8739 39.5113 72.0355 39.636 72.1739C39.7627 72.3019 39.9152 72.4018 40.0834 72.4669C40.2516 72.5321 40.4317 72.5611 40.6119 72.552C40.9877 72.5561 41.3575 72.4575 41.6811 72.2669L41.6749 73.1966Z" fill="#3E3921"/>
<path d="M47.2379 74.5665H46.3615V73.3578H42.7686V68.9321H43.7693V72.5086H45.6031V68.9321H46.6039V72.5086H47.2379V74.5665Z" fill="#3E3921"/>
<path d="M52.2731 73.3578H51.3158V70.928C51.3037 70.6906 51.3037 70.4527 51.3158 70.2152C51.2482 70.3412 51.1735 70.4633 51.092 70.5809L49.2583 73.3578H48.2886V68.9321H49.2272V71.3805C49.2411 71.5869 49.2411 71.794 49.2272 72.0004C49.2272 72.0004 49.3142 71.8516 49.451 71.6408L51.2102 68.9445H52.2793L52.2731 73.3578Z" fill="#3E3921"/>
<path d="M57.4451 73.3578H56.4443V69.8061H54.6043V73.3578H53.6035V68.9321H57.4451V73.3578Z" fill="#3E3921"/>
<path d="M62.3807 73.3585H61.3861V69.7634H60.491C60.4018 70.8209 60.1762 71.8626 59.8196 72.8626C59.73 73.0351 59.593 73.1786 59.4246 73.2763C59.2561 73.374 59.0633 73.4219 58.8686 73.4142C58.687 73.4128 58.5067 73.3835 58.334 73.3275V72.5403C58.4311 72.5784 58.5342 72.5993 58.6386 72.6022C58.7204 72.603 58.7998 72.5744 58.8624 72.5217C58.9646 72.3962 59.0388 72.2504 59.0799 72.094C59.2084 71.7037 59.3143 71.3063 59.3969 70.9039C59.5026 70.3398 59.6145 69.6642 59.7077 68.939H62.3807V73.3585Z" fill="#3E3921"/>
<path d="M67.7017 73.3578H66.7568V70.928C66.7439 70.6906 66.7439 70.4526 66.7568 70.2152C66.7133 70.2958 66.6387 70.4198 66.5393 70.5809L64.6744 73.3578H63.7109V68.9321H64.6558V71.3805C64.6683 71.5869 64.6683 71.7939 64.6558 72.0004C64.6558 72.0004 64.7428 71.8516 64.8858 71.6408L66.6449 68.9445H67.7203L67.7017 73.3578Z" fill="#3E3921"/>
<path d="M72.8733 73.3578H71.8725V71.5541H70.0325V73.3578H69.0317V68.9321H70.0325V70.6987H71.8725V68.9321H72.8733V73.3578Z" fill="#3E3921"/>
<path d="M76.4728 71.6099L75.9941 70.1222C75.9549 69.9931 75.9299 69.8601 75.9195 69.7255C75.9092 69.856 75.8842 69.9849 75.8449 70.1098L75.3601 71.6099H76.4728ZM78.1076 73.3578H77.0198L76.7028 72.3723H75.1239L74.8131 73.3578H73.7314L75.3476 68.9321H76.5349L78.1076 73.3578Z" fill="#3E3921"/>
<path d="M79.972 69.7007V71.083H80.3574C80.892 71.083 81.1593 70.8536 81.1593 70.3826C81.1593 69.9115 80.892 69.7007 80.3574 69.7007H79.972ZM79.972 71.833V73.3578H78.9712V68.9321H80.5314C81.6504 68.9321 82.2036 69.4032 82.2036 70.3454C82.2107 70.5486 82.1713 70.7508 82.0884 70.9366C82.0055 71.1224 81.8812 71.2869 81.7249 71.4177C81.3649 71.7103 80.9082 71.8584 80.4444 71.833H79.972Z" fill="#3E3921"/>
<path d="M87.0213 73.3578H86.0142V71.5541H84.1743V73.3578H83.1797V68.9321H84.1743V70.6987H86.0142V68.9321H87.0213V73.3578Z" fill="#3E3921"/>
<path d="M90.2661 69.7197C90.1047 69.7143 89.9443 69.7475 89.7983 69.8165C89.6523 69.8856 89.525 69.9884 89.427 70.1164C89.2101 70.4191 89.1027 70.7863 89.1224 71.1577C89.1002 71.5295 89.2078 71.8975 89.427 72.1991C89.5241 72.3207 89.6482 72.4181 89.7895 72.4837C89.9308 72.5493 90.0855 72.5813 90.2413 72.5772C90.3984 72.5826 90.5547 72.5518 90.6981 72.4873C90.8415 72.4228 90.968 72.3263 91.068 72.2053C91.2818 71.9037 91.3869 71.5389 91.3664 71.1701C91.3909 70.7903 91.2881 70.4131 91.0742 70.0978C90.9818 69.9738 90.8605 69.8741 90.7208 69.8071C90.5811 69.7402 90.4272 69.7081 90.2723 69.7135L90.2661 69.7197ZM90.2288 73.4326C89.9408 73.4432 89.6536 73.3936 89.386 73.2868C89.1183 73.18 88.8761 73.0185 88.6748 72.8127C88.4685 72.5992 88.3071 72.3465 88.2004 72.0697C88.0936 71.7929 88.0436 71.4976 88.0532 71.2011C88.0279 70.5773 88.2514 69.9689 88.6748 69.509C88.8839 69.2979 89.1355 69.1335 89.413 69.0266C89.6906 68.9197 89.9877 68.8729 90.2848 68.8891C90.5712 68.8771 90.8569 68.9262 91.1227 69.0331C91.3886 69.14 91.6285 69.3022 91.8264 69.509C92.2288 69.9569 92.4386 70.5446 92.4107 71.1454C92.4229 71.4523 92.3743 71.7587 92.2676 72.047C92.161 72.3352 91.9983 72.5996 91.7891 72.8251C91.5836 73.034 91.3361 73.1972 91.063 73.304C90.7898 73.4108 90.4971 73.4588 90.204 73.445" fill="#3E3921"/>
<path d="M96.8303 67.4886C96.8179 67.6409 96.774 67.7889 96.7012 67.9234C96.6284 68.0578 96.5285 68.1757 96.4076 68.2696C96.1464 68.4648 95.8263 68.5653 95.5001 68.5548C95.1678 68.5676 94.8411 68.467 94.5739 68.2696C94.4584 68.1748 94.3656 68.0555 94.3021 67.9204C94.2387 67.7853 94.2062 67.6378 94.2071 67.4886H94.9158C94.9208 67.5622 94.9404 67.634 94.9735 67.7C95.0066 67.766 95.0525 67.8248 95.1085 67.8729C95.2259 67.9732 95.3766 68.0262 95.5312 68.0217C95.6844 68.023 95.8327 67.9678 95.9476 67.8667C96.0047 67.8195 96.0514 67.761 96.0845 67.6948C96.1177 67.6286 96.1367 67.5563 96.1403 67.4824L96.8303 67.4886ZM97.4519 73.3833H96.5071V70.9288C96.5051 70.6908 96.5154 70.4528 96.5382 70.2159C96.4706 70.342 96.3959 70.4641 96.3144 70.5816L94.4806 73.3585H93.4736V68.9329H94.4185V71.3812C94.4302 71.5877 94.4302 71.7946 94.4185 72.0011C94.4185 72.0011 94.5055 71.8523 94.6485 71.6416L96.4076 68.9453H97.483L97.4519 73.3833Z" fill="#3E3921"/>
<path d="M38.5043 80.8585H37.5159V78.2118C37.5159 77.9267 37.5159 77.592 37.5532 77.2634C37.5184 77.4626 37.4707 77.6593 37.4102 77.8523L36.3721 80.8585H35.533L34.4762 77.8833C34.4166 77.6796 34.3688 77.4726 34.3332 77.2634C34.3332 77.7035 34.3705 78.0816 34.3705 78.4164V80.8585H33.4443V76.4329H34.9051L35.8127 79.0548C35.8852 79.2561 35.9393 79.4636 35.9743 79.6746C36.0236 79.4651 36.0838 79.2582 36.1546 79.0548L37.0559 76.4453H38.4856L38.5043 80.8585Z" fill="#3E3921"/>
<path d="M42.4886 80.8584H39.8281V76.439H42.383V77.2448H40.8289V78.2303H42.2711V79.0361H40.8289V80.0527H42.4886V80.8584Z" fill="#3E3921"/>
<path d="M46.2247 80.0403V77.2634H45.4663C45.4361 77.7307 45.359 78.1938 45.2363 78.6457C45.1146 79.1271 44.9481 79.596 44.739 80.0465L46.2247 80.0403ZM47.8595 82.061H46.9644V80.8585H44.1609V82.061H43.2969V80.0403H43.7071C44.3006 78.928 44.6242 77.6925 44.652 76.4329H47.2192V80.0403H47.8409L47.8595 82.061Z" fill="#3E3921"/>
<path d="M52.9009 80.8585H51.9374V78.4288C51.9374 78.1498 51.9374 77.9081 51.9374 77.7159C51.8939 77.7965 51.8193 77.9205 51.7198 78.0816L49.8861 80.8647H48.9102V76.4329H49.8488V78.875C49.8627 79.0814 49.8627 79.2885 49.8488 79.4949C49.8488 79.4949 49.9358 79.3461 50.0788 79.1354L51.8379 76.4453H52.9071L52.9009 80.8585Z" fill="#3E3921"/>
<path d="M58.707 82.0609H57.8244V80.8584H54.2314V76.439H55.2322V80.0031H57.066V76.439H58.0668V80.0031H58.707V82.0609Z" fill="#3E3921"/>
<path d="M63.7479 80.8585H62.7969V78.4288C62.797 78.1907 62.8094 77.9527 62.8342 77.7159C62.7844 77.7965 62.7099 77.9205 62.6042 78.0816L60.7766 80.8647H59.751V76.4329H60.6958V78.875C60.7106 79.0814 60.7106 79.2885 60.6958 79.4949C60.7638 79.3711 60.8385 79.251 60.9196 79.1354L62.6788 76.4453H63.7479V80.8585Z" fill="#3E3921"/>
<path d="M68.9135 80.8584H67.9127V79.0547H66.0727V80.8584H65.0781V76.439H66.0727V78.1993H67.9127V76.439H68.9135V80.8584Z" fill="#3E3921"/>
<path d="M74.9371 80.8585H73.9487V76.4329H74.9371V80.8585ZM71.2634 78.8441V80.0837H71.7109C72.2144 80.0837 72.4631 79.873 72.4631 79.4639C72.4631 79.0548 72.2206 78.8441 71.7234 78.8441H71.2634ZM70.2563 80.8585V76.4329H71.2634V78.0878H71.885C72.9541 78.0878 73.4887 78.5217 73.4887 79.3895C73.5003 79.5896 73.4679 79.7898 73.3938 79.9761C73.3198 80.1624 73.2058 80.3303 73.0598 80.468C72.7087 80.7477 72.2648 80.8849 71.8166 80.8523L70.2563 80.8585Z" fill="#3E3921"/>
<path d="M52.839 25.2831C53.5986 26.0976 54.2504 27.0059 54.7784 27.9856C55.3065 27.0059 55.9582 26.0976 56.7179 25.2831C56.1976 24.1477 55.5467 23.0765 54.7784 22.0909C54.0102 23.0765 53.3593 24.1477 52.839 25.2831ZM54.7784 29.6778L54.4241 28.934C53.854 27.7011 53.0784 26.5736 52.1304 25.5992L51.9688 25.4257L52.062 25.2149C52.6834 23.7976 53.5085 22.4779 54.5111 21.2975L54.7784 21L55.0457 21.2975C56.0355 22.4813 56.8498 23.8006 57.4638 25.2149L57.557 25.4319L57.3954 25.6054C56.4474 26.5798 55.6718 27.7073 55.1017 28.9402L54.7784 29.6778Z" fill="#3E3921"/>
<path d="M52.8387 52.1219C53.361 53.2582 54.0117 54.3313 54.7781 55.3203C55.5451 54.3316 56.1958 53.2585 56.7175 52.1219C55.9576 51.31 55.3057 50.4038 54.7781 49.4256C54.2505 50.4038 53.5987 51.31 52.8387 52.1219ZM54.7781 56.4113L54.5108 56.1137C53.5183 54.9319 52.7038 53.6123 52.0928 52.1963L51.9995 51.9918L52.1611 51.8182C53.0979 50.8366 53.8628 49.7052 54.4238 48.4711L54.747 47.7458L55.0703 48.4711C55.6398 49.7043 56.4154 50.8319 57.364 51.8058L57.5319 51.9918L57.4386 52.2025C56.8318 53.6133 56.0259 54.9303 55.0454 56.1137L54.7781 56.4113Z" fill="#3E3921"/>
<path d="M48.3567 26.7578C49.3479 27.2591 50.2711 27.884 51.1043 28.6174C51.2655 27.5217 51.5663 26.4511 51.9994 25.4314C51.1204 24.5414 50.1398 23.7571 49.0778 23.0946C48.6977 24.2841 48.4558 25.5133 48.3567 26.7578ZM51.6761 30.2104L51.1229 29.6401C50.1635 28.6753 49.0475 27.879 47.8222 27.2847L47.5859 27.1979V26.9624C47.6749 25.423 47.989 23.9049 48.5184 22.4561L48.6675 22.0842L49.0219 22.2702C50.357 23.0476 51.5751 24.0096 52.6396 25.1277L52.8013 25.295L52.708 25.512C52.1482 26.7504 51.8055 28.0754 51.6948 29.4294L51.6761 30.2104Z" fill="#3E3921"/>
<path d="M51.751 29.2627C51.8877 29.4053 52.0183 29.5478 52.1426 29.7028C52.7038 30.3757 53.1837 31.1122 53.5723 31.897C53.6813 31.0249 53.8898 30.1681 54.1939 29.3433C54.2685 29.1511 54.3431 28.9714 54.4177 28.7916C53.9329 27.7797 53.3049 26.8424 52.5529 26.0085C52.1383 27.0507 51.8746 28.1464 51.7696 29.2627H51.751ZM54.225 35.4611L53.535 33.5582C53.1004 32.3233 52.4524 31.1737 51.6204 30.1615C51.4713 29.9817 51.3096 29.8082 51.148 29.647L51.0361 29.5292V29.3681C51.156 27.9357 51.5175 26.5337 52.1053 25.2213L52.3042 24.7192L52.671 25.1035C53.6761 26.1353 54.498 27.3301 55.1015 28.6366L55.1636 28.7854L55.1015 28.928C55.0082 29.1387 54.915 29.3557 54.8342 29.585C54.4027 30.8198 54.1923 32.1206 54.2126 33.428L54.225 35.4611Z" fill="#3E3921"/>
<path d="M57.5318 51.9923C58.4121 52.8827 59.3924 53.6689 60.4533 54.3353C60.835 53.1459 61.079 51.9168 61.1806 50.6721C60.1876 50.1708 59.2623 49.5459 58.4269 48.8125C58.2643 49.9059 57.9636 50.9743 57.5318 51.9923ZM60.8263 55.3643L60.472 55.1721C59.153 54.3881 57.9535 53.4195 56.9102 52.296L56.7485 52.1225L56.8418 51.9055C57.3999 50.6669 57.7406 49.3418 57.8488 47.9881L57.9109 47.2009L58.4642 47.7712C59.4136 48.7356 60.5189 49.5339 61.7339 50.1328L61.9452 50.2382V50.4737C61.8565 52.0151 61.5423 53.5353 61.0128 54.9862L60.8263 55.3643Z" fill="#3E3921"/>
<path d="M55.1637 48.6139C55.6499 49.6269 56.2778 50.566 57.0285 51.4032C57.4436 50.3612 57.7074 49.2654 57.8118 48.149C57.6812 48.0065 57.5507 47.8639 57.4201 47.7089C56.8589 47.036 56.379 46.2995 55.9904 45.5147C55.8834 46.3871 55.6748 47.2441 55.3688 48.0684C55.3004 48.2544 55.2259 48.4341 55.145 48.6139H55.1637ZM57.2274 52.6863L56.8545 52.302C55.8488 51.2682 55.0269 50.0714 54.424 48.7627L54.3618 48.6201L54.424 48.4775C54.5234 48.2668 54.6105 48.0498 54.6851 47.8577C55.1165 46.6229 55.3269 45.3221 55.3067 44.0147V41.9568L56.0029 43.8597C56.4363 45.0952 57.0844 46.2449 57.9174 47.2564C58.0728 47.4362 58.2282 47.6098 58.3899 47.7771L58.5017 47.8887V48.0436C58.3822 49.4781 58.0207 50.8821 57.4326 52.1966L57.2274 52.6863Z" fill="#3E3921"/>
<path d="M44.6396 29.6778C45.7459 29.8142 46.8301 30.0912 47.8658 30.5022C47.6311 29.4175 47.5371 28.3071 47.586 27.1985C46.4656 26.6503 45.2848 26.2342 44.0677 25.9588C44.1145 27.2163 44.3064 28.4642 44.6396 29.6778ZM48.9474 31.7853L48.2076 31.432C46.9728 30.8532 45.6488 30.4865 44.2915 30.3473H44.0615L43.9931 30.1179C43.5518 28.6392 43.3257 27.1049 43.3218 25.5621V25.1592L43.7196 25.2212C45.2322 25.4911 46.6978 25.9776 48.0709 26.6654L48.2822 26.7708V27.0063C48.1836 28.3601 48.3181 29.7206 48.6801 31.0291L48.9474 31.7853Z" fill="#3E3921"/>
<path d="M48.6928 30.8679L49.2088 31.1468C49.9721 31.5853 50.6796 32.1139 51.316 32.7212C51.1081 31.8689 51.0017 30.9951 50.999 30.1179C50.999 29.9195 50.999 29.7212 50.999 29.498C50.1961 28.7128 49.2858 28.045 48.295 27.5145C48.2634 28.6343 48.391 29.7529 48.6742 30.8369L48.6928 30.8679ZM53.1063 35.7957L51.8009 34.2398C50.9621 33.2478 49.9567 32.4089 48.8296 31.7605C48.6244 31.6427 48.4131 31.5311 48.208 31.432L48.065 31.3576L48.0153 31.2026C47.6382 29.8143 47.4974 28.3728 47.5988 26.9381L47.6299 26.405L48.1085 26.6406C49.4047 27.265 50.5857 28.1033 51.602 29.1199L51.7139 29.2315V29.3927C51.7139 29.622 51.7139 29.8576 51.7139 30.0931C51.7297 31.4006 51.9758 32.6951 52.4411 33.9175L53.1063 35.7957Z" fill="#3E3921"/>
<path d="M61.9391 50.2257C63.0701 50.762 64.2589 51.1676 65.4823 51.4344C65.438 50.1767 65.246 48.9285 64.9104 47.7154C63.8048 47.5755 62.7211 47.2986 61.6843 46.891C61.9135 47.9785 61.9991 49.0913 61.9391 50.201V50.2257ZM66.1847 52.2464L65.7869 52.1906C64.2744 51.9173 62.809 51.4288 61.4356 50.7402L61.2243 50.6348V50.3993C61.3218 49.0435 61.1873 47.6811 60.8265 46.3703L60.6089 45.6079L61.3237 45.955C62.5568 46.5328 63.8786 46.8995 65.2337 47.0397H65.4699L65.5321 47.2629C65.9767 48.7409 66.2029 50.2757 66.2034 51.8187L66.1847 52.2464Z" fill="#3E3921"/>
<path d="M58.5388 47.8826C59.3469 48.6716 60.2637 49.3415 61.2615 49.8723C61.2988 48.7507 61.1732 47.6295 60.8885 46.5437C60.7145 46.457 60.5404 46.364 60.3664 46.271C59.6064 45.828 58.9012 45.2975 58.2653 44.6904C58.4688 45.5434 58.5731 46.417 58.5761 47.2938C58.5761 47.4921 58.5761 47.6905 58.5761 47.9136L58.5388 47.8826ZM61.9266 51.0128L61.4107 50.7525C60.1143 50.1284 58.9331 49.2901 57.9172 48.2731L57.8053 48.1615V48.0004C57.8053 47.7648 57.8053 47.5355 57.8053 47.3C57.7896 45.9905 57.5434 44.6939 57.078 43.4693L56.3818 41.5664L57.6872 43.116C58.5223 44.1286 59.5277 44.9885 60.6585 45.6574C60.8637 45.7751 61.0688 45.8805 61.2801 45.9859L61.4231 46.0541L61.4666 46.209C61.8488 47.5964 61.9897 49.0388 61.8831 50.4736L61.9266 51.0128Z" fill="#3E3921"/>
<path d="M56.0651 43.934C56.478 45.0901 57.0786 46.1706 57.8429 47.1324C57.8068 45.9024 57.5717 44.6863 57.1467 43.5311C56.692 42.9889 56.2765 42.4151 55.9035 41.8142C56.0066 42.5162 56.0606 43.2245 56.0651 43.934ZM58.4707 48.8556L57.9237 48.2729C57.7496 48.0932 57.5818 47.9134 57.4202 47.7151C56.5316 46.6402 55.8413 45.4167 55.3813 44.1014V43.9836C55.3662 42.3095 55.085 40.6484 54.5483 39.0621L55.2197 38.8203C55.831 40.3792 56.6871 41.8313 57.7559 43.122L57.7994 43.1716V43.2274C58.2928 44.5293 58.5517 45.908 58.564 47.2998C58.564 47.5539 58.564 47.8018 58.564 48.0498L58.4707 48.8556Z" fill="#3E3921"/>
<path d="M40.3506 30.3973C40.8236 31.5536 41.4285 32.6517 42.1532 33.6701C43.2391 33.42 44.3525 33.3096 45.4664 33.3416C44.8764 32.3917 44.4146 31.3684 44.0927 30.2982C43.5892 30.2486 43.0732 30.2238 42.5511 30.2238C41.813 30.2234 41.0757 30.2731 40.3444 30.3725L40.3506 30.3973ZM41.8549 34.4449L41.7119 34.259C40.7858 33.0288 40.0426 31.6718 39.5052 30.23L39.3809 29.8519L39.7725 29.7775C40.6852 29.6137 41.6113 29.5348 42.5386 29.5419C43.1616 29.5399 43.7842 29.573 44.4035 29.6411H44.6397L44.7081 29.8643C45.0826 31.1688 45.6753 32.401 46.461 33.5089L46.9272 34.1288L46.1378 34.0482C44.781 33.923 43.4128 34.0278 42.0911 34.3581L41.8549 34.4449Z" fill="#3E3921"/>
<path d="M46.3429 33.3964C46.5356 33.3964 46.7283 33.4459 46.9272 33.4769C47.7833 33.6352 48.6179 33.8932 49.4137 34.2455C48.9243 33.5144 48.5237 32.7279 48.2202 31.9025C48.1518 31.7166 48.0896 31.5368 48.0399 31.3385C47.0164 30.8748 45.9324 30.5576 44.8199 30.3963C45.1826 31.4632 45.6953 32.4733 46.3429 33.3964ZM52.2171 36.57L50.458 35.5534C49.329 34.8865 48.0922 34.4208 46.8029 34.1774C46.5729 34.134 46.3429 34.1092 46.1067 34.0844H45.9513L45.858 33.9542C45.021 32.782 44.3904 31.4761 43.9932 30.0926L43.8564 29.5781L44.391 29.6401C45.8244 29.7886 47.2221 30.1784 48.5247 30.793L48.6677 30.8612L48.7112 31.0162C48.7734 31.2393 48.8418 31.4624 48.9226 31.6794C49.3845 32.9075 50.06 34.0448 50.918 35.0389L52.2171 36.57Z" fill="#3E3921"/>
<path d="M50.8992 34.9899C51.5104 35.3511 52.098 35.7507 52.6584 36.1862C52.3211 35.5628 52.0283 34.9166 51.7819 34.2523C50.9958 33.3066 50.0592 32.4962 49.0095 31.8535C49.456 32.995 50.0859 34.0564 50.8743 34.9961L50.8992 34.9899ZM54.3181 38.7585C53.2097 37.5 51.9065 36.4265 50.4579 35.5787L50.3646 35.5044C49.4532 34.4477 48.7357 33.2391 48.2449 31.9341C48.1579 31.6985 48.0833 31.4568 48.0149 31.215L47.7974 30.4526L48.5184 30.7997C48.7422 30.9113 48.966 31.0229 49.1836 31.1531C50.3868 31.86 51.454 32.7751 52.3351 33.8556L52.4035 33.961C52.9972 35.5292 53.8364 36.9936 54.89 38.2999L54.3181 38.7585Z" fill="#3E3921"/>
<path d="M65.4575 47.0895C65.961 47.1391 66.4832 47.1639 66.9991 47.1639C67.7369 47.1717 68.4742 47.1282 69.2059 47.0337C68.7321 45.8778 68.1273 44.7797 67.4032 43.7609C66.317 44.009 65.2039 44.1193 64.09 44.0894C64.6779 45.0317 65.1397 46.0465 65.4638 47.1081L65.4575 47.0895ZM67.0054 47.8891C66.3824 47.8908 65.7598 47.8576 65.1405 47.7899H64.9105L64.8421 47.5606C64.4833 46.2434 63.9032 44.9964 63.1265 43.8725L62.6665 43.2527L63.4559 43.3332C64.8107 43.4567 66.1766 43.352 67.4964 43.0233L67.7264 42.9675L67.8694 43.1597C68.7908 44.3976 69.5297 45.7606 70.0637 47.2073L70.188 47.5854L69.7964 47.6659C68.8837 47.8304 67.9576 47.9093 67.0302 47.9015" fill="#3E3921"/>
<path d="M61.4605 46.0414C62.4813 46.5077 63.5633 46.827 64.6742 46.9898C64.3237 45.9255 63.8213 44.9172 63.1823 43.9959C62.9896 43.9959 62.7907 43.9463 62.598 43.9091C61.7423 43.7523 60.9078 43.4964 60.1116 43.1467C60.5861 43.8777 60.9721 44.6621 61.2616 45.4835C61.3299 45.6695 61.3921 45.8616 61.448 46.0476L61.4605 46.0414ZM65.6688 47.8327L65.1342 47.777C63.6991 47.6273 62.2995 47.2375 60.9943 46.6241L60.8513 46.5559L60.8202 46.4133C60.758 46.1902 60.6897 45.967 60.6089 45.7439C60.1459 44.5214 59.4728 43.3887 58.6197 42.3967L57.3081 40.8347L59.0673 41.8513C60.1953 42.5201 61.4325 42.9859 62.7223 43.2273C62.9523 43.2707 63.1886 43.2955 63.4248 43.3203H63.5802L63.6734 43.4505C64.5118 44.6219 65.1426 45.928 65.5382 47.3121L65.6688 47.8327Z" fill="#3E3921"/>
<path d="M38.3677 35.8205C39.2081 36.7518 40.1529 37.5837 41.1836 38.2999C42.1181 37.6935 43.1272 37.2101 44.186 36.8619C43.3112 36.1746 42.5279 35.3789 41.855 34.4941C40.6416 34.8041 39.469 35.2555 38.3615 35.8391L38.3677 35.8205ZM41.1774 39.1491L40.9909 38.9755C39.6977 38.1277 38.5337 37.0985 37.5348 35.9197L37.2861 35.6036L37.628 35.3928C38.9673 34.6217 40.4122 34.0496 41.9171 33.6945L42.1471 33.6387L42.2901 33.8246C43.0885 34.9268 44.0678 35.8866 45.1868 36.6635L45.8457 37.1036L45.0998 37.3267C43.772 37.662 42.5109 38.2195 41.3701 38.9755L41.1774 39.1491Z" fill="#3E3921"/>
<path d="M42.6134 34.2956C43.3094 35.1756 44.1278 35.9521 45.0439 36.6014C45.2428 36.5519 45.4355 36.5147 45.622 36.4837C46.4876 36.3324 47.3682 36.2845 48.2452 36.3411C47.5443 35.8211 46.906 35.2221 46.3431 34.556C46.2125 34.401 46.0944 34.246 45.9763 34.0911C44.8572 34.0038 43.7313 34.0748 42.632 34.3018L42.6134 34.2956ZM51.6703 37.587L49.6687 37.2337C48.3778 36.9924 47.0546 36.9777 45.7587 37.1903C45.5225 37.2337 45.2987 37.2895 45.075 37.3391L44.9196 37.3763L44.789 37.2895C43.6038 36.4709 42.5656 35.4588 41.7183 34.2956L41.395 33.8617L41.9172 33.7316C43.3179 33.3804 44.7682 33.2693 46.2063 33.4031L46.3431 33.3969L46.4363 33.527C46.573 33.713 46.716 33.8927 46.8652 34.0725C47.7184 35.0695 48.741 35.9087 49.8862 36.5519L51.6703 37.587Z" fill="#3E3921"/>
<path d="M54.511 38.9388L54.3369 38.7404L54.8839 38.2817L55.0518 38.4801L54.511 38.9388Z" fill="#3E3921"/>
<path d="M65.3644 40.569C66.2394 41.2584 67.0227 42.0561 67.6955 42.943C68.915 42.6305 70.0937 42.177 71.2076 41.5917C70.3662 40.6591 69.4192 39.8271 68.3855 39.1123C67.4503 39.7158 66.4412 40.197 65.3831 40.5442L65.3644 40.569ZM67.422 43.724L67.279 43.5318C66.4743 42.4396 65.4908 41.4904 64.3698 40.7239L63.7109 40.2776L64.488 40.0855C65.8048 39.7399 67.0533 39.1741 68.1803 38.4119L68.373 38.2817L68.5657 38.4119C69.8555 39.2569 71.0173 40.2818 72.0157 41.4553L72.2643 41.7715L71.9224 41.9822C70.5824 42.7517 69.1377 43.3238 67.6333 43.6806L67.422 43.724Z" fill="#3E3921"/>
<path d="M63.5804 43.3147C64.6992 43.4035 65.8251 43.3347 66.9246 43.1101C66.2255 42.2419 65.4073 41.4761 64.4941 40.8353C64.289 40.8849 64.0963 40.9221 63.9098 40.9593C63.0439 41.1084 62.1633 41.1541 61.2866 41.0956C61.9962 41.6165 62.6429 42.2176 63.2136 42.887L63.5804 43.3519V43.3147ZM64.5003 44.1019C64.1163 44.1034 63.7324 44.0848 63.3504 44.0461H63.195L63.1266 43.8725C62.9898 43.6804 62.8469 43.4944 62.6977 43.3147C61.8452 42.3195 60.8249 41.4804 59.6829 40.8353L57.9175 39.825L59.9191 40.1783C61.2079 40.4188 62.5289 40.4335 63.8228 40.2217C64.059 40.1845 64.289 40.1287 64.5128 40.0729L64.6682 40.0357L64.7987 40.1225C65.9851 40.9421 67.0234 41.9565 67.8695 43.1225L68.1927 43.5502L67.6706 43.6742C66.6528 43.9211 65.6099 44.05 64.5625 44.0585" fill="#3E3921"/>
<path d="M59.1234 41.87C60.1848 42.493 61.3421 42.937 62.5485 43.184C61.7301 42.2652 60.7663 41.4863 59.6953 40.8782C58.9968 40.7494 58.3074 40.5755 57.6316 40.3575C58.1618 40.8304 58.6602 41.3378 59.1234 41.8762V41.87ZM64.1398 44.1014L63.3442 44.0146C63.0955 44.0146 62.8469 43.9588 62.5982 43.9154C61.2271 43.6624 59.9118 43.1692 58.7132 42.4588L58.6137 42.3782C57.5207 41.1062 56.235 40.0124 54.8032 39.1364L55.1575 38.5166C56.6342 39.3289 58.231 39.9022 59.888 40.215H60.0185C61.2359 40.8965 62.3237 41.7861 63.2323 42.8431C63.3939 43.0353 63.5431 43.2398 63.6923 43.463L64.1398 44.1014Z" fill="#3E3921"/>
<path d="M54.6662 39.1241L54.4922 38.9195L55.0392 38.467L55.207 38.6716L54.6662 39.1241Z" fill="#3E3921"/>
<path d="M38.368 41.5911C39.4766 42.1722 40.6489 42.6235 41.8615 42.9361C42.5344 42.0494 43.3177 41.2517 44.1925 40.5621C43.1348 40.2138 42.1259 39.7327 41.1901 39.1303C40.1588 39.8458 39.2139 40.6778 38.3742 41.6097L38.368 41.5911ZM42.1598 43.7605L41.9298 43.7047C40.4246 43.3416 38.9799 42.7633 37.6407 41.9878L37.2988 41.777L37.5475 41.4609C38.5469 40.2825 39.7108 39.2534 41.0036 38.4051L41.1963 38.2749L41.389 38.4051C42.5227 39.1688 43.7772 39.7367 45.1001 40.0848L45.8771 40.277L45.2182 40.7233C44.1001 41.4988 43.1208 42.4564 42.3215 43.556L42.1598 43.7605Z" fill="#3E3921"/>
<path d="M41.8488 38.7027C42.8064 39.2908 43.8422 39.7415 44.9258 40.0416C45.0874 39.93 45.2553 39.8308 45.4293 39.7317C46.1915 39.2942 47.0033 38.9488 47.8474 38.7027C47.0048 38.455 46.1935 38.1119 45.4293 37.68C45.2553 37.5808 45.0874 37.4754 44.9258 37.3639C43.8415 37.6618 42.8053 38.1126 41.8488 38.7027ZM45.0564 40.835L44.901 40.7978C43.5033 40.4162 42.1811 39.8 40.991 38.9755L40.5435 38.6779L40.991 38.3804C42.185 37.5756 43.507 36.9783 44.901 36.6139L45.0564 36.5767L45.1869 36.6696C45.3796 36.7936 45.5723 36.9238 45.8085 37.0415C46.9372 37.6866 48.1698 38.1312 49.4512 38.3556L51.4527 38.7027L49.4512 39.056C48.1567 39.2693 46.9094 39.7056 45.765 40.3453C45.5599 40.4631 45.3609 40.587 45.1434 40.7172L45.0564 40.835Z" fill="#3E3921"/>
<path d="M45.939 37.1531C47.0229 37.7423 48.197 38.1486 49.4138 38.3556C50.1125 38.2355 50.8187 38.1651 51.5273 38.1448C50.8678 37.8809 50.2262 37.5745 49.6065 37.2274C48.3956 37.0075 47.1568 36.9866 45.939 37.1655V37.1531ZM49.4076 39.0746H49.3455C47.9681 38.8488 46.6407 38.3853 45.4231 37.7047C45.1993 37.5745 44.988 37.4382 44.8015 37.3018L44.1426 36.8555L44.9072 36.6572C45.1745 36.589 45.4107 36.5394 45.6469 36.496C47.0229 36.2685 48.4283 36.2832 49.7992 36.5394L49.9111 36.5766C51.3718 37.4009 52.9535 37.9907 54.5981 38.3246L54.4738 39.025C53.6839 38.9041 52.8859 38.844 52.0868 38.8452C51.2096 38.843 50.3339 38.9177 49.4698 39.0684L49.4076 39.0746Z" fill="#3E3921"/>
<path d="M54.6104 39.0188C54.5314 38.9796 54.4546 38.9361 54.3804 38.8886L54.7347 38.2688L54.9585 38.399L54.6104 39.0188Z" fill="#3E3921"/>
<path d="M65.3643 36.8433C66.4226 37.1928 67.4316 37.6761 68.3667 38.2813C69.4003 37.5663 70.3473 36.7343 71.1888 35.8019C70.0809 35.2192 68.9085 34.7678 67.6953 34.4569C67.0236 35.3427 66.2401 36.1386 65.3643 36.8247V36.8433ZM68.3667 39.1119L68.174 38.9755C67.0471 38.2133 65.7985 37.6474 64.4816 37.302L63.7046 37.116L64.3697 36.6945C65.4894 35.9184 66.4689 34.9585 67.2664 33.8556L67.4094 33.6697L67.6394 33.7255C69.1436 34.0828 70.5883 34.6548 71.9285 35.4238L72.2704 35.6346L72.0218 35.9507C71.0208 37.1187 69.8569 38.1374 68.5656 38.9755L68.3667 39.1119Z" fill="#3E3921"/>
<path d="M61.7032 38.7031C62.5478 38.9478 63.3597 39.2933 64.1213 39.732C64.2953 39.8312 64.4569 39.9366 64.6248 40.0419C65.7088 39.7432 66.7449 39.2924 67.7017 38.7031C66.7456 38.1123 65.7094 37.6614 64.6248 37.3642C64.4569 37.4696 64.2953 37.5812 64.1213 37.6803C63.3577 38.1135 62.5462 38.4567 61.7032 38.7031ZM64.4942 40.8353L64.3699 40.7238C64.1772 40.5936 63.9783 40.4696 63.7483 40.3519C62.6049 39.7099 61.3572 39.2735 60.0621 39.0626L58.0605 38.7155L60.087 38.356C61.3731 38.141 62.612 37.7048 63.7483 37.0667C63.9534 36.9489 64.1523 36.8188 64.3699 36.6948L64.5004 36.6018L64.6558 36.639C66.0502 37.0024 67.3724 37.5997 68.5658 38.4056L69.0133 38.7031L68.5658 39.0006C67.3731 39.8077 66.0507 40.4052 64.6558 40.7672L64.4942 40.8353Z" fill="#3E3921"/>
<path d="M54.8218 39.1365L54.5918 39.0063L54.9523 38.3865L55.1761 38.5166L54.8218 39.1365Z" fill="#3E3921"/>
<path d="M40.3505 47.0332C41.0814 47.137 41.8189 47.1888 42.5572 47.1881C43.0701 47.1881 43.5826 47.1612 44.0926 47.1075C44.4191 46.0449 44.8808 45.0284 45.4663 44.0827C44.3527 44.1167 43.2392 44.0084 42.1532 43.7604C41.4289 44.7791 40.8241 45.8772 40.3505 47.0332ZM42.5572 47.8947C41.6296 47.9006 40.7035 47.8197 39.791 47.653L39.3994 47.5724L39.5237 47.1943C40.0573 45.7474 40.7962 44.3843 41.718 43.1467L41.861 42.9546L42.091 43.0104C43.4129 43.3391 44.7809 43.4439 46.1377 43.3203L46.9271 43.2397L46.4609 43.8596C45.6748 44.9672 45.0821 46.1995 44.708 47.5042L44.6458 47.7336H44.4096C43.7903 47.8015 43.1678 47.8346 42.5448 47.8328" fill="#3E3921"/>
<path d="M42.6133 43.1162C43.4116 43.2765 44.2234 43.3595 45.0376 43.3642C45.3484 43.3642 45.6592 43.3642 45.9576 43.3208C46.0736 43.1638 46.1959 43.0088 46.3244 42.8559C46.8908 42.1868 47.5333 41.5856 48.2389 41.0646C47.3622 41.1232 46.4816 41.0775 45.6157 40.9282C45.423 40.891 45.2241 40.8538 45.0376 40.8042C44.1237 41.4564 43.3074 42.2349 42.6133 43.1162ZM45.0376 44.0708C43.9902 44.0621 42.9474 43.9332 41.9296 43.6865L41.3701 43.5625L41.6934 43.1348C42.54 41.9693 43.5782 40.955 44.7641 40.1348L44.8947 40.048L45.0501 40.0852C45.2738 40.141 45.5038 40.1906 45.7338 40.234C47.0364 40.4575 48.3682 40.4512 49.6686 40.2154L51.6702 39.8621L49.9111 40.8352C48.7658 41.4783 47.7432 42.3176 46.89 43.3146C46.7408 43.4943 46.5979 43.6803 46.4611 43.8662L46.343 43.9964H46.1814C45.7993 44.0353 45.4155 44.0539 45.0314 44.0522" fill="#3E3921"/>
<path d="M54.7284 39.056L54.4673 39.0126L54.5854 38.3184L54.8403 38.3617L54.7284 39.056Z" fill="#3E3921"/>
<path d="M64.5064 33.3413C65.4814 33.3462 66.4529 33.4585 67.4031 33.676C68.1282 32.6578 68.7331 31.5596 69.2058 30.4032C68.4745 30.304 67.7372 30.2543 66.9991 30.2544C66.4769 30.2544 65.9672 30.2544 65.4575 30.3288C65.1333 31.3904 64.6714 32.4051 64.0837 33.3475H64.5002L64.5064 33.3413ZM67.6891 34.4756L67.4777 34.4136C66.156 34.0833 64.7878 33.9785 63.431 34.1037L62.6416 34.1842L63.1016 33.5644C63.8869 32.454 64.4795 31.2198 64.8545 29.9135L64.9229 29.6904H65.1591C65.7784 29.623 66.401 29.5899 67.024 29.5912C67.9513 29.5845 68.8773 29.6634 69.7901 29.8268L70.1817 29.9073L70.0512 30.2854C69.5229 31.7354 68.7859 33.101 67.8631 34.3392L67.6891 34.4756Z" fill="#3E3921"/>
<path d="M62.0199 36.3161C62.645 36.3165 63.2689 36.3704 63.8847 36.4772C64.0712 36.5082 64.2577 36.5516 64.4628 36.595C65.3802 35.945 66.2006 35.1687 66.8996 34.2892C65.7984 34.061 64.6703 33.9901 63.5491 34.0784C63.431 34.2396 63.3129 34.3945 63.1885 34.5433C62.6178 35.2145 61.9712 35.8177 61.2615 36.3409C61.5102 36.3409 61.7526 36.3409 61.995 36.3409L62.0199 36.3161ZM57.8613 37.5805L59.6205 36.564C60.7675 35.9208 61.7922 35.0816 62.6477 34.0846C62.7969 33.9049 62.9399 33.7189 63.0766 33.533L63.1761 33.409H63.3315C64.7675 33.2751 66.2159 33.3862 67.6144 33.7375L68.1428 33.8677L67.8195 34.2954C66.9725 35.4605 65.9343 36.4747 64.7488 37.2954L64.6182 37.3822L64.4628 37.345C64.2391 37.2892 64.0091 37.2396 63.7791 37.1962C62.4832 36.983 61.1599 36.9977 59.8691 37.2396L57.8613 37.5805Z" fill="#3E3921"/>
<path d="M58.0295 38.1325C58.7383 38.1574 59.4446 38.232 60.143 38.3556C61.3563 38.1493 62.5278 37.7473 63.6116 37.1655C62.3919 36.9842 61.1506 37.0051 59.9378 37.2275C59.3184 37.5749 58.6768 37.8814 58.0171 38.1449L58.0295 38.1325ZM60.1368 39.0746H60.0746C59.2105 38.9237 58.3348 38.849 57.4576 38.8515C56.6585 38.8504 55.8605 38.9105 55.0706 39.0312L54.9463 38.337C56.593 38.0035 58.1767 37.4136 59.6395 36.589L59.7514 36.5519C61.1253 36.2874 62.5355 36.2685 63.9161 36.4961C64.1461 36.5395 64.3886 36.589 64.6559 36.6572L65.4267 36.8556L64.7678 37.3019C64.5626 37.4382 64.3513 37.5746 64.1461 37.7048C62.9301 38.384 61.605 38.8475 60.23 39.0746H60.1368Z" fill="#3E3921"/>
<path d="M54.9647 39.0993L54.7036 39.0559L54.8279 38.3555L55.0828 38.3989L54.9647 39.0993Z" fill="#3E3921"/>
<path d="M44.6394 47.7396C44.3049 48.953 44.113 50.2011 44.0675 51.4587C45.2832 51.1812 46.4635 50.7674 47.5858 50.2252C47.5278 49.1135 47.6135 47.999 47.8407 46.9091C46.8052 47.3219 45.721 47.601 44.6145 47.7396H44.6394ZM43.334 52.2707V51.874C43.3385 50.3312 43.5646 48.797 44.0053 47.3181L44.0737 47.0888H44.3037C45.6587 46.9388 46.9785 46.5616 48.2074 45.9731L48.9223 45.626L48.7296 46.4132C48.3673 47.7237 48.2327 49.0864 48.3317 50.4422V50.6777L48.1142 50.7831C46.7405 51.4709 45.2752 51.9593 43.7629 52.2335L43.334 52.2707Z" fill="#3E3921"/>
<path d="M46.3429 43.9959C45.7073 44.9192 45.2051 45.927 44.851 46.9898C45.964 46.8274 47.0482 46.5081 48.071 46.0414C48.1269 45.8554 48.1829 45.6695 48.2512 45.4773C48.5564 44.6555 48.9592 43.8731 49.4509 43.1467C48.6555 43.5042 47.8211 43.7684 46.9645 43.9339L46.3429 43.9959ZM43.8564 47.8265L44.0118 47.3183C44.4093 45.933 45.0399 44.6251 45.8767 43.4505L45.9699 43.3265H46.1315C46.3615 43.3265 46.5978 43.2769 46.8277 43.2335C48.1173 42.9909 49.3543 42.5252 50.4828 41.8575L52.2482 40.8347L50.9428 42.3843C50.0854 43.3767 49.41 44.5118 48.9474 45.7377C48.8666 45.9608 48.7983 46.184 48.7361 46.4009L48.6926 46.5497L48.5496 46.6179C47.2452 47.2335 45.8452 47.6233 44.4097 47.7708L43.8564 47.8265Z" fill="#3E3921"/>
<path d="M49.8614 40.8722C48.7901 41.4797 47.8261 42.2587 47.0082 43.178C48.2149 42.9316 49.3722 42.4876 50.4333 41.8639C50.9007 41.3273 51.4033 40.822 51.9376 40.3515C51.2642 40.5707 50.5768 40.7447 49.8801 40.8722H49.8614ZM45.4355 44.0954L45.9018 43.4755C46.0447 43.2772 46.2001 43.0726 46.3617 42.8557C47.2603 41.7949 48.3399 40.901 49.5506 40.2152L49.6749 40.1718C51.3263 39.869 52.9189 39.3061 54.393 38.5044L54.7473 39.1242C53.3168 39.9995 52.033 41.0934 50.943 42.366L50.8436 42.4466C49.6486 43.1665 48.3355 43.6701 46.9647 43.9342C46.7161 43.9776 46.4674 44.0086 46.2188 44.0396L45.4355 44.0954Z" fill="#3E3921"/>
<path d="M54.5854 39.0993L54.4673 38.3989L54.7222 38.3555L54.8465 39.0559L54.5854 39.0993Z" fill="#3E3921"/>
<path d="M61.9452 27.1987C62.0013 28.3086 61.9135 29.4211 61.6841 30.5086C62.7226 30.0981 63.8085 29.8191 64.9165 29.678C65.2501 28.4644 65.442 27.2165 65.4884 25.959C64.2625 26.2316 63.0732 26.6477 61.9452 27.1987ZM60.6025 31.7917L60.8201 31.0293C61.1831 29.7189 61.3177 28.3561 61.2179 27.0003V26.7648L61.4293 26.6594C62.8023 25.9701 64.2678 25.4816 65.7806 25.209L66.1784 25.147V25.5499C66.178 27.093 65.9519 28.6277 65.5071 30.1057L65.4387 30.3351H65.2087C63.8531 30.4727 62.5309 30.8395 61.2987 31.4198L60.6025 31.7917Z" fill="#3E3921"/>
<path d="M61.4608 31.3639C61.4048 31.5561 61.3489 31.742 61.2805 31.928C60.9739 32.75 60.5734 33.5341 60.087 34.2648C60.8831 33.9146 61.7176 33.6587 62.5735 33.5024C62.7662 33.4652 62.9651 33.4404 63.1578 33.4218C63.7937 32.4987 64.296 31.4909 64.6497 30.4279C63.5371 30.5889 62.4531 30.9061 61.4297 31.3701L61.4608 31.3639ZM57.2773 36.5954L58.5827 35.0396C59.4373 34.0486 60.1105 32.9157 60.5719 31.6924C60.6527 31.4693 60.7211 31.2461 60.7832 31.023L60.8268 30.868L60.9759 30.7999C62.2781 30.184 63.676 29.7941 65.1097 29.6469L65.6442 29.585L65.4888 30.0994C65.0929 31.4834 64.4622 32.7895 63.624 33.9611L63.5308 34.0912H63.3754C63.1454 34.0912 62.9091 34.147 62.6729 34.1842C61.3839 34.4253 60.147 34.8888 59.0179 35.5541L57.2773 36.5954Z" fill="#3E3921"/>
<path d="M54.8281 39.0561L54.71 38.3556L54.9648 38.3123L55.0829 39.0127L54.8219 39.0561" fill="#3E3921"/>
<path d="M48.357 50.6532C48.4563 51.8977 48.6982 53.1268 49.0781 54.3164C50.137 53.6543 51.1172 52.8746 51.9997 51.992C51.5649 50.9686 51.2641 49.8936 51.1046 48.7936C50.2704 49.5257 49.3473 50.1504 48.357 50.6532ZM48.7051 55.3454L48.556 54.9735C48.0277 53.5223 47.7136 52.0022 47.6235 50.461V50.2255L47.8349 50.1201C49.06 49.5253 50.1758 48.7291 51.1356 47.7647L51.6889 47.1882L51.7448 47.9816C51.8571 49.3353 52.1997 50.6601 52.758 51.899L52.8513 52.116L52.6897 52.2895C51.6281 53.4109 50.4096 54.3734 49.0719 55.147L48.7051 55.3454Z" fill="#3E3921"/>
<path d="M51.7507 48.1493C51.8665 49.2563 52.1385 50.3414 52.5588 51.3725C53.3119 50.5372 53.94 49.5977 54.4237 48.5832C54.3491 48.4034 54.2745 48.2237 54.1999 48.0377C53.8961 47.2128 53.6876 46.356 53.5783 45.484C53.1893 46.2705 52.7095 47.009 52.1486 47.6844C52.018 47.8394 51.8875 47.9819 51.7569 48.1245L51.7507 48.1493ZM52.3102 52.6618L52.0926 52.1721C51.5027 50.8582 51.1411 49.4539 51.0234 48.0191V47.8642L51.1353 47.7526C51.2969 47.5852 51.4586 47.4179 51.6078 47.2381C52.4387 46.2252 53.0865 45.0758 53.5223 43.8414L54.2123 41.9385V43.9592C54.1909 45.2667 54.4013 46.5677 54.8339 47.8022C54.9147 48.0253 55.008 48.2423 55.1012 48.422L55.1634 48.5708L55.1012 48.7134C54.4994 50.0227 53.6774 51.2198 52.6707 52.2527L52.3102 52.6618Z" fill="#3E3921"/>
<path d="M54.5294 39.0621C54.4672 38.9009 54.4424 38.8204 54.4424 38.8204L55.1137 38.5786C55.1137 38.5786 55.151 38.6654 55.2007 38.8266L54.5294 39.0621Z" fill="#3E3921"/>
<path d="M48.6925 46.5437C48.4098 47.6279 48.2821 48.7464 48.3133 49.8661C49.3048 49.3343 50.2153 48.6643 51.0173 47.8764C51.0173 47.6843 51.0173 47.4859 51.0173 47.2876C51.0226 46.4102 51.1311 45.5364 51.3406 44.6842C50.7038 45.2902 49.9988 45.8206 49.2395 46.2648L48.7174 46.5375L48.6925 46.5437ZM47.6606 51.0004L47.6233 50.4674C47.5227 49.0326 47.6634 47.5912 48.0398 46.2028L48.0895 46.0541L48.2325 45.9859C48.4376 45.8867 48.649 45.7813 48.8541 45.6636C49.9835 44.9953 50.987 44.1352 51.8192 43.1222L53.1246 41.5664L52.4284 43.4755C51.9631 44.698 51.7169 45.9925 51.7011 47.3C51.7011 47.5355 51.7011 47.7648 51.7011 48.0004V48.1615L51.5892 48.2731C50.5732 49.2899 49.392 50.1282 48.0958 50.7525L47.6606 51.0004Z" fill="#3E3921"/>
<path d="M52.41 43.5193C51.9822 44.6737 51.747 45.8903 51.7138 47.1206C52.4776 46.1629 53.0782 45.0866 53.4916 43.9346C53.4952 43.2273 53.5472 42.5211 53.647 41.8209C53.273 42.4213 52.8576 42.995 52.4038 43.5379L52.41 43.5193ZM51.0735 48.8561L51.0176 48.0627C51.0176 47.8148 51.0176 47.5668 51.0176 47.3127C51.0301 45.921 51.289 44.5424 51.7822 43.2403L51.8443 43.135C52.9118 41.8422 53.7696 40.3907 54.3867 38.8333L55.0581 39.075C54.5253 40.6621 54.2463 42.3229 54.2313 43.9965V44.1143C53.7671 45.429 53.0749 46.6521 52.1862 47.728C52.0246 47.9263 51.8568 48.1061 51.6827 48.2859L51.0735 48.8561Z" fill="#3E3921"/>
<path d="M55.1325 38.9753H54.4238C54.4238 38.8079 54.4238 38.7087 54.4238 38.7087H55.1325V38.9753Z" fill="#3E3921"/>
<path d="M55.0454 39.0621L54.374 38.8204C54.4238 38.6654 54.461 38.5786 54.461 38.5786L55.1324 38.8204L55.0454 39.0683" fill="#3E3921"/>
<path d="M54.8903 39.1241L54.3433 38.6716C54.4489 38.5414 54.5111 38.467 54.5111 38.467L55.0581 38.9195C55.0581 38.9195 55.0022 38.9939 54.8903 39.1241Z" fill="#3E3921"/>
<path d="M54.7347 39.1365L54.3804 38.5166L54.6042 38.3865L54.9585 39.0063L54.7347 39.1365Z" fill="#3E3921"/>
<path d="M57.532 25.4381C57.9674 26.4613 58.2683 27.5363 58.4272 28.6364C59.2621 27.9024 60.1874 27.2775 61.1809 26.7769C61.0812 25.5319 60.8371 24.3026 60.4536 23.1136C59.3929 23.7732 58.4125 24.5532 57.532 25.4381ZM57.8553 30.2108L57.7931 29.4174C57.684 28.0639 57.3434 26.739 56.7861 25.5L56.6929 25.2831L56.9104 25.1157C57.9615 23.988 59.1719 23.0191 60.5033 22.2397L60.8514 22.0537L61.0006 22.4256C61.5249 23.8758 61.8389 25.3932 61.9331 26.9319V27.1674L61.7217 27.2728C60.4962 27.8668 59.3802 28.6632 58.421 29.6282L57.8553 30.2108Z" fill="#3E3921"/>
<path d="M55.1639 28.7977C55.2509 28.9961 55.3255 29.1758 55.3876 29.3494C55.6926 30.174 55.9012 31.0309 56.0093 31.9031C56.3864 31.1079 56.858 30.3608 57.4141 29.6779C57.5446 29.5229 57.6752 29.3804 57.8119 29.2378C57.7049 28.1212 57.4391 27.0255 57.0225 25.9836C56.2717 26.8185 55.6438 27.7556 55.1577 28.7667L55.1639 28.7977ZM55.3441 35.4238V33.4341C55.3644 32.1267 55.154 30.8259 54.7225 29.5911C54.6417 29.368 54.5547 29.151 54.4614 28.9403L54.3931 28.7977L54.4614 28.6489C55.0704 27.341 55.8987 26.1461 56.9106 25.1158L57.2836 24.7253L57.5011 25.2212C58.0902 26.5332 58.4517 27.9354 58.5703 29.368V29.5291L58.4584 29.6407C58.2968 29.8081 58.1414 29.9816 57.986 30.1552C57.1529 31.1667 56.5049 32.3164 56.0714 33.5519L55.3441 35.4238Z" fill="#3E3921"/>
<path d="M54.2062 33.3967C54.4416 34.0632 54.6326 34.7444 54.7781 35.4359C54.9252 34.7442 55.1183 34.0629 55.3562 33.3967C55.3633 32.1687 55.168 30.9478 54.7781 29.783C54.3903 30.9482 54.1971 32.169 54.2062 33.3967ZM55.1386 38.4918H54.4238C54.3815 36.818 54.0752 35.1614 53.5162 33.5826V33.4648C53.5022 32.0743 53.7314 30.692 54.1938 29.3801C54.2808 29.1383 54.3803 28.909 54.4797 28.6797L54.803 27.9482L55.1324 28.6797C55.2443 28.9338 55.3438 29.1631 55.4184 29.3801C55.8807 30.692 56.11 32.0743 56.0959 33.4648V33.5888C55.5333 35.1668 55.2249 36.8237 55.1822 38.498" fill="#3E3921"/>
<path d="M54.4239 38.8328C54.4239 38.8328 54.3866 38.746 54.3369 38.5848L55.0456 38.3555L55.1326 38.6034L54.4239 38.8328Z" fill="#3E3921"/>
<path d="M58.5389 29.5292C58.5389 29.7213 58.5389 29.9197 58.5389 30.149C58.5378 31.0259 58.4335 31.8997 58.2281 32.7524C58.8613 32.1466 59.5645 31.6181 60.3229 31.178L60.8451 30.899C61.1455 29.8072 61.2858 28.6777 61.2616 27.5457C60.272 28.0752 59.3636 28.7431 58.5638 29.5292H58.5389ZM56.4316 35.8764L57.1278 33.9735C57.5919 32.7509 57.836 31.4562 57.8489 30.149C57.8489 29.9135 57.8489 29.678 57.8489 29.4486V29.2875L57.9608 29.1759C58.9773 28.1595 60.1583 27.3213 61.4543 26.6965L61.8832 26.4114L61.9143 26.9444C62.0207 28.3792 61.8798 29.8216 61.4978 31.209L61.4543 31.3639L61.3113 31.4383C61.1062 31.5375 60.8948 31.6429 60.6897 31.7606C59.5589 32.4295 58.5535 33.2894 57.7184 34.302L56.4316 35.8764Z" fill="#3E3921"/>
<path d="M55.1325 38.7152H54.4238C54.4238 38.7152 54.4238 38.6222 54.4238 38.4548H55.1325V38.7152Z" fill="#3E3921"/>
<path d="M57.7747 34.2525C57.5273 34.9124 57.2387 35.5562 56.9106 36.1802C57.4676 35.74 58.0555 35.3402 58.6698 34.9839C59.4587 34.0468 60.0887 32.9873 60.5346 31.8475C59.4844 32.4894 58.5476 33.2999 57.7622 34.2463L57.7747 34.2525ZM55.195 38.7401L54.6479 38.2814C55.7016 36.9753 56.5408 35.5108 57.1344 33.9425L57.1966 33.8372C58.082 32.7626 59.1485 31.8502 60.3481 31.1409C60.5657 31.0107 60.7957 30.8991 61.0133 30.7875L61.7281 30.4404L61.5168 31.2028C61.4484 31.4446 61.3738 31.6801 61.2868 31.9219C60.7989 33.225 60.0833 34.4317 59.1733 35.486L59.08 35.5665C57.6338 36.4176 56.331 37.4907 55.2198 38.7463" fill="#3E3921"/>
<path d="M55.1076 38.8328L54.4238 38.5911C54.4238 38.5911 54.4238 38.5043 54.5109 38.3494L55.1822 38.5849L55.0952 38.8328" fill="#3E3921"/>
<path d="M55.0456 38.945L54.4985 38.4863L54.6726 38.2817L55.2196 38.7342C55.1077 38.8706 55.0456 38.9388 55.0456 38.9388" fill="#3E3921"/>
<path d="M54.9461 39.0188L54.5918 38.399L54.8218 38.2688L55.1761 38.8886C55.0269 38.9816 54.9461 39.0188 54.9461 39.0188Z" fill="#3E3921"/>
<circle cx="54.5" cy="54.5" r="54" stroke="#3E3921"/>
</svg>
