<svg width="84" height="84" viewBox="0 0 84 84" fill="none" xmlns="http://www.w3.org/2000/svg">
<path d="M68.1073 46.8714L73.7015 48.6367L72.3066 53.0569L66.7124 51.2916L66.9933 50.4012L71.8075 51.9204L72.6429 49.2731L67.8288 47.7538L68.1073 46.8714Z" fill="#F3D70D"/>
<path d="M64.6544 55.2646C64.8332 54.9672 65.0615 54.7477 65.3393 54.6063C65.6172 54.4649 65.9092 54.3962 66.2152 54.4002L64.0131 53.0762L64.4814 52.2973L69.6929 55.4307L69.2799 56.1175L68.6143 55.7173C68.751 55.9923 68.8174 56.2829 68.8133 56.5889C68.8093 56.895 68.7235 57.1873 68.556 57.4658C68.4028 57.7207 68.2104 57.9232 67.9788 58.0731C67.7519 58.226 67.502 58.3263 67.229 58.3743C66.9559 58.4222 66.6782 58.4191 66.3958 58.365C66.1153 58.3185 65.8476 58.2186 65.5927 58.0653C65.2386 57.8524 64.9578 57.5872 64.7503 57.2696C64.5399 56.9568 64.4226 56.6227 64.3984 56.2675C64.376 55.9199 64.4614 55.5856 64.6544 55.2646ZM65.4732 55.4098C65.3739 55.575 65.3199 55.745 65.3112 55.9198C65.2997 56.0993 65.3246 56.2717 65.3859 56.437C65.4443 56.6071 65.5334 56.7635 65.6532 56.9063C65.7731 57.049 65.9132 57.1687 66.0737 57.2652C66.2437 57.3673 66.4212 57.4355 66.6063 57.4697C66.7914 57.5039 66.9733 57.5007 67.1519 57.4603C67.3276 57.4245 67.4911 57.3557 67.6423 57.2538C67.7907 57.1567 67.9146 57.0255 68.0139 56.8603C68.0735 56.7611 68.1171 56.6459 68.1446 56.5147C68.1721 56.3834 68.1812 56.2507 68.1719 56.1165C68.1625 55.9824 68.1343 55.8529 68.0872 55.7282C68.0401 55.6035 67.9755 55.4971 67.8934 55.4092L66.9233 54.8259C66.7325 54.8012 66.5431 54.8062 66.3551 54.841C66.1718 54.8786 65.9998 54.9455 65.8391 55.0418C65.6832 55.1408 65.5612 55.2635 65.4732 55.4098Z" fill="#F3D70D"/>
<path d="M61.4806 59.5856C61.7168 59.3389 61.97 59.1581 62.2402 59.0431C62.5144 58.932 62.7956 58.8772 63.0839 58.8787C63.3685 58.8843 63.6424 58.9406 63.9057 59.0479C64.173 59.159 64.4161 59.3193 64.6349 59.5288C64.8537 59.7383 65.0244 59.9742 65.147 60.2364C65.2696 60.4987 65.3378 60.7699 65.3516 61.0501C65.3657 61.3381 65.3212 61.6195 65.218 61.8945C65.1151 62.1772 64.9474 62.4399 64.7151 62.6826C64.4827 62.9253 64.2294 63.1022 63.9552 63.2133C63.6812 63.3322 63.402 63.3889 63.1174 63.3834C62.8331 63.3857 62.5573 63.3313 62.29 63.2202C62.0226 63.1092 61.7796 62.9489 61.5608 62.7394C61.3419 62.5299 61.1713 62.294 61.0487 62.0317C60.9301 61.7733 60.8638 61.5001 60.8497 61.2121C60.8319 60.9281 60.8744 60.6447 60.9774 60.362C61.0805 60.0871 61.2482 59.8282 61.4806 59.5856ZM63.9833 60.1974C63.7843 60.0069 63.5653 59.8773 63.3262 59.8085C63.0871 59.7396 62.8551 59.731 62.6302 59.7827C62.4054 59.8343 62.2092 59.9476 62.0416 60.1227C61.8778 60.2938 61.7749 60.4927 61.7331 60.7196C61.6915 60.9542 61.7102 61.1895 61.7894 61.4254C61.8725 61.6652 62.0115 61.8784 62.2064 62.065C62.4054 62.2555 62.6244 62.3851 62.8635 62.454C63.1027 62.5228 63.3365 62.5294 63.5652 62.4738C63.794 62.426 63.9903 62.3165 64.1541 62.1455C64.3217 61.9704 64.4245 61.7676 64.4623 61.5369C64.5001 61.3062 64.4795 61.0729 64.4004 60.837C64.3252 60.6049 64.1862 60.3917 63.9833 60.1974Z" fill="#F3D70D"/>
<path d="M58.6665 62.4267L61.1942 65.9313L58.956 67.5456L58.4872 66.8956L59.9882 65.813L57.9293 62.9583L58.6665 62.4267Z" fill="#F3D70D"/>
<path d="M53.1862 65.7526C53.5003 65.605 53.8121 65.5498 54.1217 65.5869C54.4312 65.6241 54.712 65.7295 54.964 65.9032L53.8714 63.5776L54.6939 63.1911L57.2798 68.6949L56.5544 69.0356L56.2242 68.3327C56.1847 68.6373 56.0781 68.9156 55.9044 69.1676C55.7307 69.4196 55.4967 69.6147 55.2026 69.7529C54.9334 69.8794 54.6609 69.9405 54.385 69.9362C54.1115 69.9369 53.848 69.8812 53.5944 69.7691C53.3409 69.6569 53.1119 69.4998 52.9074 69.2977C52.7002 69.1029 52.5334 68.8709 52.407 68.6017C52.2313 68.2278 52.1456 67.8511 52.15 67.4718C52.1493 67.0948 52.2378 66.752 52.4153 66.4434C52.5902 66.1421 52.8472 65.9118 53.1862 65.7526ZM53.7857 66.329C53.6112 66.411 53.4717 66.5222 53.3673 66.6625C53.2578 66.8052 53.1825 66.9623 53.1414 67.1338C53.0952 67.3076 53.0822 67.4872 53.1023 67.6725C53.1224 67.8578 53.1723 68.0352 53.252 68.2047C53.3363 68.3841 53.4458 68.5396 53.5806 68.671C53.7154 68.8024 53.8682 68.901 54.0391 68.9668C54.205 69.0349 54.3791 69.0687 54.5614 69.0683C54.7388 69.0701 54.9147 69.0301 55.0892 68.9481C55.1939 68.8989 55.2942 68.8274 55.3901 68.7337C55.4861 68.6399 55.5675 68.5347 55.6344 68.4181C55.7013 68.3015 55.7499 68.1782 55.7802 68.0484C55.8105 67.9185 55.816 67.7942 55.7967 67.6755L55.3154 66.651C55.1706 66.5243 55.0105 66.423 54.8349 66.3473C54.6617 66.2765 54.4816 66.2364 54.2945 66.2269C54.1098 66.2224 53.9402 66.2564 53.7857 66.329Z" fill="#F3D70D"/>
<path d="M50.6604 68.3667C50.7229 68.6349 50.7022 68.8857 50.5983 69.1192C50.4902 69.3593 50.3146 69.5643 50.0714 69.7341C49.8294 69.9092 49.5314 70.0381 49.1774 70.1206C48.9896 70.1644 48.796 70.1953 48.5967 70.2135C48.3919 70.233 48.2076 70.2307 48.0436 70.2067L48.1055 70.4722C48.1743 70.7672 48.3166 70.9773 48.5323 71.1023C48.7481 71.2274 49.0223 71.2511 49.3549 71.1736C49.5909 71.1186 49.8035 71.0238 49.9928 70.8892C50.1832 70.76 50.379 70.5928 50.58 70.3876L51.0165 70.9136C50.7813 71.1664 50.5348 71.3709 50.2772 71.5271C50.0141 71.6845 49.727 71.7995 49.4159 71.872C48.8526 72.0033 48.3751 71.9562 47.9832 71.7308C47.5872 71.5121 47.3254 71.1291 47.1979 70.5819L46.8322 69.0129C46.8085 68.9109 46.7755 68.8423 46.7333 68.8069C46.6857 68.7727 46.6184 68.7629 46.5314 68.7776L46.3663 68.0695C46.443 68.0346 46.513 68.007 46.5761 67.9867C46.6392 67.9663 46.6922 67.9511 46.7351 67.9411C46.9229 67.8974 47.0757 67.9098 47.1935 67.9785C47.3113 68.0472 47.3926 68.1414 47.4375 68.261L47.5179 68.4968C47.6452 68.2182 47.8361 67.9814 48.0904 67.7864C48.3447 67.5914 48.6167 67.4602 48.9064 67.3927C49.1853 67.3276 49.4479 67.3258 49.6941 67.3872C49.9415 67.454 50.1501 67.5722 50.3197 67.742C50.4893 67.9117 50.6029 68.1199 50.6604 68.3667ZM47.9209 68.7337C47.8728 68.8184 47.8381 68.9 47.8168 68.9785C47.7955 69.057 47.7911 69.1231 47.8036 69.1767L47.9161 69.6595C48.0801 69.6835 48.2483 69.6895 48.4209 69.6776C48.5947 69.671 48.762 69.649 48.923 69.6115C49.2448 69.5365 49.4927 69.4108 49.6665 69.2346C49.835 69.0596 49.893 68.8594 49.8405 68.6341C49.8117 68.5108 49.752 68.4002 49.6614 68.3026C49.5654 68.2062 49.4476 68.1375 49.3079 68.0965C49.1629 68.0568 48.9966 68.0588 48.8088 68.1026C48.6157 68.1476 48.4394 68.2283 48.2799 68.3446C48.1203 68.461 48.0007 68.5907 47.9209 68.7337Z" fill="#F3D70D"/>
<path d="M44.8508 68.4411L44.8442 72.7622L43.9023 72.7607L42.4192 70.0898L40.9197 72.7561L39.9943 72.7547L40.0009 68.4336L40.8685 68.4349L40.8638 71.4754L42.1397 69.2053L42.7097 69.2062L43.9869 71.4802L43.9916 68.4397L44.8508 68.4411Z" fill="#F3D70D"/>
<path d="M37.9553 68.3492L36.8625 72.5299L35.9513 72.2917L35.1873 69.3337L33.0656 71.5374L32.1703 71.3034L33.263 67.1228L34.1023 67.3421L33.3335 70.2838L35.1391 68.4073L35.6906 68.5515L36.3551 71.0736L37.1239 68.1319L37.9553 68.3492Z" fill="#F3D70D"/>
<path d="M31.0716 67.7469C30.9432 67.9905 30.7633 68.1666 30.5319 68.275C30.293 68.3858 30.0261 68.4257 29.731 68.3948C29.4335 68.3688 29.1239 68.271 28.8022 68.1016C28.6317 68.0117 28.4651 67.9084 28.3025 67.7916C28.135 67.6723 27.9972 67.5499 27.889 67.4244L27.7619 67.6656C27.6207 67.9336 27.5907 68.1855 27.6719 68.4213C27.7532 68.6571 27.9449 68.8546 28.247 69.0138C28.4614 69.1267 28.6842 69.1943 28.9153 69.2164C29.1439 69.2434 29.4013 69.2452 29.6876 69.2217L29.6731 69.9051C29.3299 69.9422 29.0097 69.9354 28.7127 69.8848C28.4107 69.8315 28.1185 69.7305 27.8358 69.5816C27.3241 69.312 26.994 68.9638 26.8453 68.5368C26.6893 68.1122 26.7421 67.6514 27.004 67.1543L27.7549 65.7289C27.8037 65.6363 27.8237 65.5628 27.815 65.5084C27.8015 65.4514 27.757 65.4 27.6816 65.354L28.0204 64.7108C28.1012 64.7346 28.1722 64.7596 28.2332 64.7855C28.2943 64.8114 28.3443 64.8347 28.3833 64.8552C28.5538 64.945 28.6611 65.0545 28.7052 65.1836C28.7493 65.3126 28.7491 65.437 28.7047 65.5568L28.6111 65.7877C28.8897 65.6605 29.189 65.6065 29.5089 65.6256C29.8288 65.6447 30.1203 65.7236 30.3835 65.8622C30.6369 65.9957 30.8365 66.1663 30.9824 66.3739C31.1258 66.5863 31.206 66.8122 31.2231 67.0516C31.2402 67.291 31.1897 67.5227 31.0716 67.7469ZM28.7606 66.2306C28.6688 66.2632 28.5891 66.3021 28.5216 66.3475C28.4541 66.3929 28.4075 66.44 28.3819 66.4887L28.1508 66.9273C28.259 67.0528 28.3822 67.1675 28.5205 67.2715C28.6562 67.3803 28.7971 67.4732 28.9433 67.5502C29.2357 67.7042 29.5053 67.7716 29.7521 67.7522C29.994 67.7302 30.1689 67.6169 30.2767 67.4122C30.3357 67.3001 30.363 67.1775 30.3584 67.0443C30.349 66.9086 30.3049 66.7796 30.2262 66.6572C30.1426 66.5322 30.0155 66.4248 29.845 66.3349C29.6695 66.2425 29.4834 66.1881 29.2867 66.1716C29.0899 66.1551 28.9146 66.1748 28.7606 66.2306Z" fill="#F3D70D"/>
<path d="M23.495 61.1668C23.7382 61.4066 23.9153 61.6624 24.0263 61.9342C24.1334 62.21 24.184 62.4921 24.1783 62.7803C24.1686 63.0647 24.1082 63.3378 23.9971 63.5995C23.8821 63.8652 23.7183 64.1059 23.5056 64.3216C23.2929 64.5373 23.0545 64.7045 22.7905 64.8233C22.5265 64.942 22.2543 65.0062 21.9739 65.016C21.6858 65.0258 21.405 64.9771 21.1316 64.87C20.8504 64.7629 20.5902 64.5914 20.3509 64.3555C20.1117 64.1196 19.9385 63.8638 19.8314 63.588C19.7165 63.3123 19.6639 63.0322 19.6736 62.7478C19.6755 62.4635 19.7339 62.1885 19.8489 61.9228C19.9638 61.6571 20.1277 61.4164 20.3404 61.2007C20.5531 60.985 20.7914 60.8178 21.0555 60.6991C21.3156 60.5843 21.5898 60.522 21.8779 60.5122C22.1621 60.4985 22.4449 60.5452 22.726 60.6522C22.9994 60.7594 23.2558 60.9309 23.495 61.1668ZM22.8466 63.6602C23.0399 63.4641 23.1728 63.247 23.2451 63.0089C23.3174 62.7708 23.3294 62.539 23.2811 62.3134C23.2328 62.0878 23.1223 61.89 22.9497 61.7198C22.7811 61.5535 22.5837 61.4478 22.3574 61.4027C22.1234 61.3576 21.8879 61.3729 21.6508 61.4486C21.4099 61.5281 21.1947 61.664 21.0052 61.8562C20.8118 62.0523 20.679 62.2694 20.6067 62.5075C20.5343 62.7456 20.5243 62.9794 20.5766 63.2088C20.621 63.4383 20.7276 63.6362 20.8962 63.8025C21.0688 63.9727 21.2701 64.0784 21.5002 64.1196C21.7303 64.1608 21.9639 64.1436 22.2009 64.0679C22.4341 63.9961 22.6493 63.8603 22.8466 63.6602Z" fill="#F3D70D"/>
<path d="M19.4291 56.3175C19.6175 56.6089 19.7141 56.9104 19.7189 57.2222C19.7237 57.5339 19.6569 57.8263 19.5187 58.0994L21.6764 56.7042L22.1699 57.4674L17.0634 60.7692L16.6282 60.0962L17.2804 59.6745C16.9733 59.6763 16.6832 59.608 16.4102 59.4698C16.1371 59.3315 15.9123 59.1259 15.7359 58.853C15.5744 58.6032 15.4772 58.3414 15.4444 58.0674C15.4069 57.7965 15.4268 57.5278 15.5038 57.2616C15.5809 56.9953 15.7059 56.7472 15.8787 56.5174C16.0439 56.286 16.2514 56.0895 16.5011 55.928C16.848 55.7037 17.2097 55.5682 17.5862 55.5216C17.9597 55.4703 18.3113 55.5119 18.641 55.6464C18.963 55.7792 19.2257 56.0029 19.4291 56.3175ZM18.9384 56.9889C18.8337 56.827 18.7048 56.7038 18.5517 56.6191C18.3956 56.5298 18.2298 56.4763 18.0544 56.4586C17.8759 56.4362 17.6962 56.4474 17.5153 56.4923C17.3344 56.5371 17.1653 56.6103 17.0081 56.712C16.8415 56.8197 16.7022 56.9491 16.5901 57.1003C16.478 57.2515 16.4008 57.4162 16.3586 57.5944C16.3133 57.7679 16.3032 57.945 16.3282 58.1257C16.3502 58.3017 16.4135 58.4706 16.5182 58.6325C16.581 58.7296 16.6653 58.8194 16.7711 58.9019C16.8768 58.9844 16.992 59.0509 17.1166 59.1015C17.2412 59.1522 17.3698 59.1838 17.5026 59.1963C17.6353 59.2089 17.7592 59.1976 17.8743 59.1626L18.8248 58.548C18.931 58.3875 19.0098 58.2152 19.0613 58.0311C19.1081 57.8499 19.1237 57.6661 19.108 57.4794C19.0876 57.2958 19.0311 57.1323 18.9384 56.9889Z" fill="#F3D70D"/>
<path d="M17.5875 53.3393L13.5875 54.974L12.5436 52.4195L13.2854 52.1163L13.9856 53.8295L17.2437 52.498L17.5875 53.3393Z" fill="#F3D70D"/>
<path d="M14.8971 50.2184C14.6277 50.2759 14.3773 50.2505 14.1458 50.1422C13.9078 50.0297 13.7061 49.8502 13.5409 49.6039C13.3703 49.3587 13.247 49.0584 13.1711 48.7028C13.1309 48.5143 13.1035 48.3202 13.0891 48.1205C13.0735 47.9155 13.0792 47.7312 13.1062 47.5677L12.8396 47.6246C12.5433 47.6879 12.3307 47.8262 12.2016 48.0396C12.0726 48.253 12.0437 48.5267 12.115 48.8607C12.1656 49.0977 12.2564 49.3121 12.3874 49.5037C12.5131 49.6966 12.6766 49.8954 12.878 50.1002L12.3439 50.5268C12.0956 50.287 11.8957 50.0367 11.7444 49.7762C11.5919 49.5102 11.4823 49.221 11.4156 48.9086C11.2948 48.343 11.3508 47.8664 11.5835 47.4788C11.8096 47.087 12.1974 46.8324 12.7468 46.7151L14.3224 46.3788C14.4248 46.3569 14.4941 46.3252 14.5303 46.2837C14.5653 46.2368 14.5763 46.1697 14.5633 46.0824L15.2744 45.9306C15.3078 46.0079 15.3341 46.0783 15.3532 46.1418C15.3724 46.2053 15.3866 46.2586 15.3958 46.3017C15.4361 46.4903 15.4208 46.6428 15.3499 46.7593C15.279 46.8758 15.1833 46.9554 15.0629 46.998L14.8257 47.0739C15.1018 47.2065 15.3349 47.4017 15.5252 47.6596C15.7154 47.9175 15.8416 48.1919 15.9037 48.4828C15.9634 48.7629 15.9604 49.0255 15.8944 49.2705C15.823 49.5166 15.7009 49.7229 15.528 49.8894C15.3552 50.0558 15.1449 50.1655 14.8971 50.2184ZM14.5813 47.4725C14.4974 47.4228 14.4165 47.3866 14.3384 47.3638C14.2603 47.3411 14.1944 47.3354 14.1405 47.3469L13.6557 47.4504C13.6286 47.6139 13.6195 47.782 13.6282 47.9547C13.6315 48.1286 13.6504 48.2964 13.6849 48.458C13.7539 48.7812 13.8749 49.0313 14.0479 49.2084C14.2197 49.3802 14.4187 49.4419 14.645 49.3936C14.7689 49.3671 14.8805 49.3095 14.9798 49.2207C15.078 49.1265 15.1488 49.01 15.1924 48.8712C15.2348 48.727 15.2359 48.5606 15.1957 48.372C15.1543 48.1781 15.0769 48.0003 14.9636 47.8387C14.8502 47.677 14.7228 47.5549 14.5813 47.4725Z" fill="#F3D70D"/>
<path d="M14.9924 44.336L10.6714 44.3624L10.6658 43.4536L12.3843 43.4431L12.3721 41.4354L10.6536 41.4459L10.648 40.5371L14.969 40.5107L14.9746 41.4195L13.157 41.4306L13.1692 43.4383L14.9869 43.4272L14.9924 44.336Z" fill="#F3D70D"/>
<path d="M14.9986 38.8688L10.7765 37.9886L10.962 37.0989L13.9951 37.7312L11.4007 34.9539L11.5693 34.145L15.7995 35.0269L15.614 35.9166L12.6456 35.2978L15.1722 38.0357L14.9986 38.8688Z" fill="#F3D70D"/>
<path d="M16.9335 31.8283C16.7629 32.2346 16.5453 32.5465 16.2808 32.7639C16.0133 32.9742 15.7165 33.0975 15.3906 33.1339L15.3706 32.328C15.5541 32.3035 15.7221 32.2306 15.8746 32.1095C16.0219 31.9861 16.1425 31.8128 16.2364 31.5893C16.3494 31.3201 16.381 31.0885 16.3311 30.8943C16.2812 30.7001 16.1648 30.5646 15.982 30.4878C15.8144 30.4174 15.6542 30.4219 15.5015 30.5011C15.3437 30.5782 15.2153 30.7274 15.1164 30.9487L14.9436 31.3601L14.4104 31.1362L14.5895 30.7096C14.6322 30.608 14.6466 30.5095 14.6329 30.4142C14.6192 30.3188 14.5828 30.2348 14.5237 30.1622C14.4616 30.0824 14.3798 30.0211 14.2782 29.9785C14.1259 29.9145 13.9795 29.9217 13.839 30.0001C13.6956 30.0713 13.5759 30.2212 13.4799 30.4497C13.3968 30.6478 13.3666 30.8263 13.3895 30.9853C13.4073 31.1421 13.4702 31.291 13.5783 31.432L12.9776 31.9235C12.7893 31.6891 12.6799 31.4161 12.6494 31.1046C12.6189 30.7931 12.6751 30.4672 12.818 30.127C12.931 29.8578 13.0744 29.6372 13.2481 29.4653C13.419 29.2861 13.6102 29.1722 13.8217 29.1237C14.0303 29.0679 14.2515 29.089 14.4851 29.1871C14.6679 29.2639 14.8224 29.3796 14.9487 29.5342C15.0699 29.6866 15.1302 29.8702 15.1296 30.0851C15.303 29.8711 15.5042 29.7406 15.7332 29.6933C15.9591 29.6389 16.1915 29.6618 16.4302 29.762C16.6739 29.8644 16.8559 30.0214 16.9761 30.2332C17.0933 30.4377 17.1475 30.6785 17.1387 30.9556C17.1299 31.2327 17.0615 31.5236 16.9335 31.8283Z" fill="#F3D70D"/>
<path d="M19.1782 27.4463C18.9871 27.7294 18.7682 27.9504 18.5213 28.1094C18.2699 28.2653 18.0019 28.3669 17.7175 28.4142C17.4362 28.4569 17.1567 28.4477 16.879 28.3865C16.5967 28.3223 16.33 28.2054 16.0789 28.0359C15.8278 27.8664 15.6197 27.6628 15.4545 27.4251C15.2894 27.1874 15.1762 26.9316 15.1152 26.6578C15.0526 26.3763 15.0489 26.0914 15.104 25.803C15.1576 25.5069 15.2784 25.2196 15.4664 24.9411C15.6544 24.6626 15.8741 24.4454 16.1255 24.2895C16.3754 24.1259 16.6411 24.0228 16.9224 23.9801C17.2023 23.9298 17.4833 23.9367 17.7656 24.001C18.0479 24.0652 18.3145 24.1821 18.5656 24.3515C18.8167 24.521 19.0249 24.7246 19.19 24.9624C19.3506 25.197 19.4622 25.4551 19.5248 25.7365C19.5904 26.0134 19.5964 26.2999 19.5428 26.596C19.4877 26.8844 19.3661 27.1678 19.1782 27.4463ZM16.6081 27.2667C16.8364 27.4208 17.0742 27.5115 17.3215 27.5389C17.5688 27.5662 17.7989 27.5355 18.0118 27.4466C18.2246 27.3576 18.3988 27.2127 18.5344 27.0119C18.6669 26.8155 18.7346 26.602 18.7374 26.3714C18.7388 26.1331 18.6805 25.9043 18.5626 25.6852C18.4401 25.463 18.2671 25.2764 18.0433 25.1254C17.8151 24.9713 17.5773 24.8806 17.3299 24.8532C17.0826 24.8258 16.851 24.8589 16.635 24.9524C16.4176 25.0382 16.2426 25.1793 16.1101 25.3756C15.9746 25.5765 15.9076 25.7938 15.9093 26.0276C15.9111 26.2613 15.9709 26.4877 16.0888 26.7069C16.2021 26.9229 16.3752 27.1095 16.6081 27.2667Z" fill="#F3D70D"/>
<path d="M21.353 24.2002L18.3548 21.0886L20.0207 19.4834C20.219 19.2923 20.4179 19.1733 20.6174 19.1263C20.8171 19.0716 21.0041 19.0712 21.1784 19.125C21.3489 19.175 21.4991 19.2673 21.629 19.4022C21.7934 19.5728 21.899 19.7617 21.9458 19.969C21.9925 20.1764 21.9711 20.3883 21.8814 20.6047C22.1095 20.4843 22.3422 20.436 22.5794 20.4599C22.8167 20.476 23.0328 20.5852 23.2278 20.7875C23.4036 20.9699 23.509 21.1667 23.544 21.3777C23.5753 21.5847 23.5401 21.7983 23.4387 22.0185C23.3373 22.2309 23.1796 22.4402 22.9654 22.6466L21.353 24.2002ZM21.5361 23.1518L22.5118 22.2116C22.5951 22.1314 22.6514 22.0389 22.6806 21.9343C22.71 21.8219 22.712 21.7128 22.6867 21.6072C22.6575 21.4976 22.6048 21.4031 22.5283 21.3238C22.4442 21.2365 22.3499 21.1783 22.2452 21.1491C22.1446 21.116 22.0414 21.1122 21.9358 21.1375C21.8341 21.159 21.7396 21.2118 21.6523 21.2958L20.6647 22.2475L21.5361 23.1518ZM20.2577 21.8251L21.1382 20.9766C21.2215 20.8963 21.2758 20.8058 21.301 20.705C21.3224 20.6002 21.3166 20.4949 21.2835 20.3891C21.2504 20.2833 21.1957 20.1908 21.1192 20.1115C21.0084 19.9964 20.8752 19.9336 20.7195 19.9229C20.5639 19.9122 20.4246 19.9661 20.3017 20.0846L19.4092 20.9445L20.2577 21.8251Z" fill="#F3D70D"/>
<path d="M24.4427 19.5023C24.2957 19.2694 24.233 19.0256 24.2546 18.7709C24.278 18.5087 24.3767 18.2575 24.5508 18.0173C24.7219 17.7725 24.9612 17.5531 25.2686 17.359C25.4316 17.2561 25.6043 17.1634 25.7867 17.0808C25.9738 16.9953 26.1487 16.937 26.3114 16.906L26.1659 16.6754C26.0042 16.4192 25.8009 16.2674 25.556 16.2201C25.3112 16.1727 25.0444 16.2402 24.7556 16.4225C24.5506 16.5518 24.3809 16.7111 24.2463 16.9003C24.1087 17.0848 23.9786 17.307 23.856 17.5668L23.2711 17.2129C23.4104 16.897 23.5762 16.623 23.7684 16.391C23.9653 16.1559 24.1988 15.9532 24.469 15.7827C24.958 15.4739 25.4246 15.3618 25.8687 15.4462C26.3146 15.5231 26.6874 15.799 26.9873 16.2741L27.8473 17.6365C27.9032 17.725 27.9568 17.7791 28.0083 17.7987C28.0644 17.8154 28.1312 17.8025 28.2087 17.7601L28.5968 18.375C28.5357 18.433 28.4787 18.4821 28.4258 18.522C28.3728 18.5619 28.3277 18.5937 28.2905 18.6172C28.1274 18.7201 27.979 18.7584 27.8452 18.7321C27.7114 18.7059 27.6037 18.6436 27.5221 18.5453L27.3688 18.3489C27.3398 18.6538 27.2372 18.9401 27.0609 19.2077C26.8846 19.4753 26.6706 19.6885 26.4191 19.8473C26.1769 20.0002 25.9295 20.088 25.6768 20.1107C25.4211 20.1288 25.1853 20.0855 24.9694 19.9807C24.7535 19.876 24.5779 19.7165 24.4427 19.5023ZM26.9104 18.2573C26.928 18.1614 26.9341 18.0729 26.9284 17.9918C26.9228 17.9107 26.9053 17.8468 26.8759 17.8003L26.6113 17.381C26.4485 17.4121 26.2876 17.4616 26.1285 17.5295C25.9665 17.5927 25.8156 17.6684 25.6759 17.7566C25.3964 17.933 25.2035 18.1329 25.097 18.3564C24.9952 18.577 25.0061 18.7851 25.1296 18.9807C25.1972 19.0879 25.2898 19.1727 25.4075 19.2352C25.5298 19.2948 25.6636 19.3211 25.8089 19.314C25.959 19.304 26.1155 19.2475 26.2785 19.1446C26.4462 19.0388 26.5863 18.9048 26.6988 18.7425C26.8114 18.5803 26.8819 18.4185 26.9104 18.2573Z" fill="#F3D70D"/>
<path d="M29.9603 17.5706L28.429 13.5299L29.2788 13.2078L29.8879 14.8148L31.7653 14.1033L31.1562 12.4963L32.0061 12.1742L33.5374 16.2149L32.6876 16.537L32.0434 14.8373L30.166 15.5488L30.8102 17.2485L29.9603 17.5706Z" fill="#F3D70D"/>
<path d="M34.3981 14.5275C34.3538 14.2557 34.3913 14.0068 34.5108 13.7808C34.6348 13.5485 34.8238 13.3559 35.0779 13.2028C35.3311 13.0444 35.6371 12.9359 35.9959 12.8774C36.1862 12.8464 36.3814 12.8285 36.5815 12.8238C36.7871 12.8182 36.9709 12.8329 37.1328 12.8679L37.089 12.5988C37.0402 12.2998 36.9124 12.0806 36.7056 11.9414C36.4987 11.8021 36.2267 11.7599 35.8897 11.8148C35.6505 11.8538 35.432 11.9341 35.2341 12.0556C35.0354 12.1717 34.8288 12.3254 34.6145 12.5166L34.2144 11.9623C34.466 11.726 34.7257 11.5386 34.9933 11.4001C35.2664 11.2607 35.5606 11.1653 35.8759 11.1139C36.4467 11.0209 36.92 11.1 37.2958 11.3513C37.6762 11.5962 37.9115 11.9959 38.0019 12.5504L38.2611 14.1406C38.278 14.2439 38.3062 14.3146 38.3459 14.3528C38.3911 14.3901 38.4576 14.4043 38.5455 14.3956L38.6624 15.1132C38.5835 15.1428 38.5119 15.1656 38.4476 15.1817C38.3832 15.1978 38.3293 15.2093 38.2858 15.2164C38.0955 15.2474 37.9439 15.2247 37.831 15.1483C37.7181 15.0718 37.6433 14.9724 37.6066 14.85L37.5423 14.6093C37.3964 14.8787 37.1901 15.102 36.9232 15.2795C36.6563 15.4569 36.3761 15.5696 36.0826 15.6174C35.7999 15.6635 35.5378 15.6476 35.2963 15.5698C35.0539 15.4865 34.8538 15.3545 34.696 15.1737C34.5381 14.993 34.4389 14.7775 34.3981 14.5275ZM37.1561 14.3458C37.2098 14.2645 37.2499 14.1854 37.2765 14.1085C37.303 14.0317 37.3118 13.966 37.303 13.9117L37.2232 13.4224C37.0613 13.3874 36.8938 13.3701 36.7208 13.3703C36.547 13.3652 36.3785 13.3759 36.2154 13.4025C35.8893 13.4557 35.6335 13.5643 35.4482 13.7285C35.2683 13.8917 35.197 14.0875 35.2342 14.3158C35.2546 14.4409 35.3067 14.5552 35.3905 14.6587C35.4798 14.7613 35.5927 14.8378 35.7293 14.8881C35.8713 14.9375 36.0374 14.9467 36.2277 14.9157C36.4234 14.8838 36.6048 14.8152 36.7717 14.7098C36.9387 14.6045 37.0669 14.4831 37.1561 14.3458Z" fill="#F3D70D"/>
<path d="M44.966 15.1999C44.5472 15.1327 44.1823 14.9904 43.8713 14.7731C43.5603 14.5558 43.3048 14.2888 43.1046 13.9722C42.9052 13.6501 42.7655 13.3041 42.6855 12.9342C42.6117 12.5597 42.6045 12.1876 42.6639 11.8178C42.7259 11.4317 42.8555 11.0759 43.0528 10.7506C43.251 10.4198 43.497 10.1385 43.7908 9.90673C44.0855 9.66954 44.4141 9.49916 44.7766 9.39558C45.1454 9.28744 45.5283 9.26524 45.9253 9.32899C46.3387 9.39535 46.7004 9.5399 47.0105 9.76264C47.3261 9.98624 47.5808 10.2587 47.7747 10.5799C47.974 10.902 48.111 11.2475 48.1856 11.6165C48.2657 11.9864 48.2765 12.3536 48.2179 12.7179C48.156 13.1041 48.0259 13.4625 47.8277 13.7933C47.6359 14.1196 47.3926 14.4013 47.0979 14.6385C46.8041 14.8702 46.4732 15.0374 46.1052 15.1402C45.7427 15.2437 45.363 15.2636 44.966 15.1999ZM43.5939 11.9671C43.5502 12.239 43.5514 12.5098 43.5973 12.7794C43.6433 13.0489 43.729 13.297 43.8544 13.5235C43.9861 13.7455 44.157 13.932 44.3671 14.0828C44.5772 14.2337 44.8236 14.3319 45.1064 14.3773C45.4001 14.4244 45.6707 14.4065 45.9184 14.3236C46.166 14.2406 46.3821 14.1107 46.5667 13.9339C46.7576 13.7526 46.9139 13.5434 47.0356 13.3063C47.1583 13.0638 47.2401 12.8148 47.2811 12.5592C47.3248 12.2872 47.3232 12.0192 47.2763 11.7551C47.2358 11.4864 47.1497 11.241 47.018 11.019C46.8871 10.7916 46.7167 10.6025 46.5066 10.4516C46.3019 10.3016 46.0609 10.2043 45.7836 10.1598C45.4899 10.1126 45.2193 10.1305 44.9716 10.2135C44.724 10.2965 44.5052 10.4259 44.3152 10.6018C44.1251 10.7777 43.9665 10.9837 43.8393 11.2199C43.7176 11.457 43.6358 11.7061 43.5939 11.9671Z" fill="#F3D70D"/>
<path d="M52.902 17.4236L53.8615 15.2552C53.7726 15.252 53.6576 15.2463 53.5167 15.2381C53.378 15.225 53.2188 15.1967 53.0392 15.1534C52.8647 15.1123 52.6716 15.0449 52.46 14.9513C51.8506 14.6816 51.4574 14.345 51.2806 13.9415C51.1038 13.538 51.1469 13.039 51.4099 12.4447L52.1856 10.6918L53.0091 11.0562L52.2736 12.7184C52.1175 13.071 52.0909 13.3694 52.1936 13.6137C52.2964 13.8579 52.5568 14.0725 52.9748 14.2575C53.1713 14.3444 53.3803 14.4098 53.6018 14.4536C53.8284 14.4997 54.0253 14.5176 54.1925 14.5072L55.2757 12.0592L56.1068 12.427L53.7331 17.7914L52.902 17.4236Z" fill="#F3D70D"/>
<path d="M56.1585 19.1608L56.6259 18.5406L56.9624 18.7942C57.0724 18.877 57.1759 18.9136 57.2729 18.9039C57.3698 18.8942 57.4845 18.8565 57.6168 18.7907L57.9841 18.5916L58.6925 13.6838L59.5108 14.3004L58.8924 18.0863L62.1436 16.2843L62.9288 16.876L57.9208 19.568C57.6528 19.704 57.4218 19.7679 57.228 19.7598C57.0385 19.755 56.836 19.6713 56.6204 19.5089L56.1585 19.1608Z" fill="#F3D70D"/>
<path d="M60.7212 24.1466L62.3244 23.0512L62.4828 23.2831C62.5698 23.4105 62.6944 23.4855 62.8566 23.5081C63.0219 23.5352 63.2355 23.506 63.4973 23.4205C63.7622 23.3396 64.0845 23.1961 64.4641 22.9901C64.8513 22.7856 65.3104 22.5153 65.8413 22.1792L67.229 21.2811L69.3591 24.3987L65.1909 27.2466L65.6104 27.8606L64.0073 28.956L63.5458 28.2806L64.4736 27.6467L62.1104 24.188L61.1827 24.8219L60.7212 24.1466ZM63.1447 24.2519L64.6642 26.4758L68.157 24.0893L67.0383 22.4521L66.233 22.9723C65.7007 23.316 65.2386 23.5917 64.8468 23.7993C64.4596 24.0039 64.1281 24.1436 63.8524 24.2186C63.5768 24.2935 63.3409 24.3046 63.1447 24.2519Z" fill="#F3D70D"/>
<path d="M65.9374 30.0078L71.4746 28.071L73.005 32.4461L67.4678 34.3829L67.1595 33.5017L71.9246 31.8349L71.008 29.2145L66.2429 30.8813L65.9374 30.0078Z" fill="#F3D70D"/>
<path d="M68.2591 38.8046C68.2274 38.3816 68.2813 37.9937 68.4206 37.6408C68.5599 37.288 68.7603 36.9774 69.022 36.7093C69.2891 36.4408 69.5933 36.2247 69.9346 36.0611C70.2817 35.9025 70.6421 35.8093 71.0156 35.7813C71.4055 35.7522 71.7817 35.7958 72.1439 35.9123C72.5116 36.0284 72.8422 36.2025 73.1358 36.4346C73.4348 36.6664 73.6767 36.9465 73.8615 37.2752C74.0521 37.6089 74.1625 37.9762 74.1925 38.3772C74.2237 38.7946 74.1669 39.18 74.0221 39.5333C73.8778 39.8921 73.6718 40.203 73.4043 40.466C73.1371 40.7346 72.8327 40.9479 72.4911 41.1061C72.1498 41.2697 71.7952 41.3653 71.4271 41.3928C71.0372 41.422 70.6583 41.3785 70.2906 41.2624C69.9288 41.1514 69.5984 40.98 69.2993 40.7483C69.0058 40.5162 68.7664 40.2331 68.5812 39.899C68.3965 39.5703 68.2891 39.2055 68.2591 38.8046ZM71.0858 36.7206C70.8112 36.7411 70.5481 36.805 70.2965 36.9122C70.0449 37.0194 69.8235 37.1603 69.6322 37.3348C69.4468 37.5143 69.305 37.7238 69.2069 37.9631C69.1088 38.2024 69.0705 38.4649 69.0918 38.7505C69.114 39.0471 69.1942 39.3063 69.3323 39.5279C69.4704 39.7496 69.6468 39.9297 69.8615 40.0683C70.0822 40.212 70.3219 40.3156 70.5808 40.379C70.8451 40.4421 71.1063 40.464 71.3645 40.4447C71.6391 40.4241 71.8995 40.3605 72.1456 40.2537C72.3976 40.152 72.6163 40.0113 72.8017 39.8317C72.9926 39.6518 73.1371 39.4421 73.2352 39.2028C73.3337 38.9689 73.3724 38.712 73.3515 38.4318C73.3293 38.1352 73.2491 37.8761 73.111 37.6544C72.9729 37.4328 72.7963 37.2499 72.5812 37.1058C72.366 36.9617 72.1288 36.8552 71.8696 36.7862C71.6107 36.7227 71.3495 36.7009 71.0858 36.7206Z" fill="#F3D70D"/>
<path d="M32.9582 44.5569L33.1944 44.6004L32.9721 45.8058C32.9314 46.0266 32.894 46.229 32.8375 46.4152L34.3974 44.835L34.6734 44.8859L34.2764 47.0389L34.0402 46.9953L34.2608 45.7992C34.2976 45.5999 34.336 45.3913 34.3985 45.1904L32.8369 46.7798L32.5608 46.7289L32.9582 44.5569Z" fill="#F3D70D"/>
<path d="M36.5061 47.4503L36.2577 47.4045L36.4455 46.3862L35.3046 46.1758L35.1168 47.1941L34.8653 47.1477L35.2646 44.9824L35.5161 45.0288L35.3459 45.952L36.4868 46.1624L36.657 45.2392L36.9054 45.285L36.5061 47.4503Z" fill="#F3D70D"/>
<path d="M38.3904 45.7616C38.2861 45.7376 38.1777 45.737 38.0731 45.7599C37.9685 45.7829 37.8703 45.8287 37.7856 45.8942C37.6039 46.0502 37.4868 46.2683 37.4571 46.506C37.3985 46.7388 37.4263 46.9851 37.5355 47.199C37.5916 47.2913 37.668 47.3697 37.7588 47.4282C37.8497 47.4867 37.9526 47.5238 38.0599 47.5368C38.2334 47.5638 38.4097 47.5675 38.5842 47.5479L38.5435 47.7687C38.3538 47.798 38.1603 47.7924 37.9726 47.7522C37.8332 47.733 37.6998 47.6834 37.5819 47.6068C37.4639 47.5302 37.3642 47.4286 37.29 47.3092C37.1575 47.0449 37.1256 46.7415 37.2001 46.4554C37.2337 46.2524 37.3137 46.0598 37.4339 45.8928C37.543 45.7453 37.6939 45.6339 37.867 45.5731C38.0538 45.5092 38.2544 45.4969 38.4476 45.5374C38.6537 45.5711 38.8493 45.6516 39.0194 45.7729L38.8725 45.9678C38.7331 45.8655 38.5726 45.7958 38.4027 45.7638" fill="#F3D70D"/>
<path d="M39.754 48.049L39.5026 48.0026L39.86 46.0643L39.1761 45.9381L39.2179 45.7112L40.8403 46.0104L40.7985 46.2373L40.1115 46.1106L39.754 48.049Z" fill="#F3D70D"/>
<path d="M41.1685 46.071L41.4047 46.1146L41.1824 47.3199C41.1417 47.5407 41.1043 47.7432 41.0478 47.9293L42.6077 46.3491L42.8837 46.4L42.4867 48.553L42.2505 48.5095L42.4711 47.3134C42.5079 47.114 42.5463 46.9055 42.6088 46.7045L41.0472 48.2939L40.7711 48.243L41.1685 46.071Z" fill="#F3D70D"/>
<path d="M43.8944 48.8125L43.6429 48.7661L44.0003 46.8278L43.3133 46.7011L43.3552 46.4741L44.9776 46.7733L44.9358 47.0003L44.2518 46.8741L43.8944 48.8125Z" fill="#F3D70D"/>
<path d="M45.1861 49.0826C45.0877 49.0664 44.9929 49.0329 44.9063 48.9834L44.9515 48.7381C45.0309 48.7961 45.1222 48.8357 45.2188 48.854C45.3105 48.8757 45.4069 48.8668 45.493 48.8284C45.5935 48.7665 45.6785 48.6824 45.7413 48.5825L45.1985 46.8143L45.4745 46.8652L45.8893 48.2102C45.904 48.2605 45.9136 48.3122 45.9179 48.3645C45.9608 48.2868 45.9919 48.2386 46.005 48.2188L46.7618 47.0899L47.0287 47.1391L46.0558 48.5453C45.9698 48.677 45.8697 48.7989 45.7573 48.9089C45.6829 48.9754 45.5936 49.0231 45.4969 49.048C45.3927 49.0735 45.2839 49.0752 45.1789 49.0527" fill="#F3D70D"/>
<path d="M47.7556 49.5246L47.5042 49.4782L47.8616 47.5399L47.1746 47.4132L47.2165 47.1863L48.8389 47.4855L48.797 47.7124L48.1131 47.5863L47.7556 49.5246Z" fill="#F3D70D"/>
<path d="M21.6444 48.4706L21.2655 46.4155C21.2526 46.5716 21.2253 46.7537 21.1869 46.9623L20.9329 48.3393L20.6876 48.2941L21.0835 46.1472L21.4607 46.2168L21.8191 48.1254L22.8408 46.4713L23.2303 46.5431L22.8344 48.69L22.5768 48.6425L22.8341 47.247C22.8636 47.0875 22.8952 46.9158 22.9512 46.7327L21.8469 48.5079L21.6444 48.4706Z" fill="#F3D70D"/>
<path d="M24.7207 49.038L23.5154 48.8158L23.9141 46.6536L25.1194 46.8758L25.0787 47.0967L24.1249 46.9208L23.9959 47.62L24.8915 47.7852L24.8508 48.006L23.9552 47.8409L23.8082 48.6383L24.762 48.8142L24.7207 49.038Z" fill="#F3D70D"/>
<path d="M26.0821 48.1377L25.426 46.9322L25.7051 46.9836L26.3556 48.185L26.5485 47.1392L26.7908 47.1839L26.5979 48.2297L27.6342 47.3394L27.9164 47.3914L26.8709 48.28L27.5452 49.5587L27.2539 49.505L26.5945 48.2481L26.3921 49.3461L26.1498 49.3014L26.3522 48.2034L25.291 49.143L24.9966 49.0887L26.0821 48.1377Z" fill="#F3D70D"/>
<path d="M29.2322 49.6288L29.5467 47.9236L28.9854 47.82C28.9029 48.1075 28.79 48.3855 28.6486 48.6491C28.5071 48.9262 28.3357 49.1871 28.1373 49.4269L29.2322 49.6288ZM29.6393 50.3793L29.4001 50.3352L29.4775 49.915L27.9011 49.6243L27.8225 50.0506L27.5833 50.0065L27.7049 49.3471L27.8736 49.3782C28.3121 48.8429 28.6285 48.2184 28.8009 47.5482L29.8406 47.7399L29.4837 49.6752L29.7597 49.7261L29.6393 50.3793Z" fill="#F3D70D"/>
<path d="M30.5725 47.8813L30.8056 47.9243L30.5839 49.1266C30.5432 49.3474 30.5064 49.5468 30.4524 49.7366L32.0117 48.1594L32.2877 48.2103L31.8918 50.3572L31.6557 50.3137L31.8751 49.1237C31.9113 48.9274 31.9498 48.7188 32.0128 48.5148L30.4512 50.1042L30.1782 50.0539L30.5725 47.8813Z" fill="#F3D70D"/>
<path d="M33.8619 48.6846C33.7568 48.6606 33.6477 48.6603 33.5425 48.6837C33.4372 48.7071 33.3385 48.7536 33.2535 48.8198C33.0863 48.9879 32.9738 49.2026 32.9308 49.4358C32.8878 49.6689 32.9163 49.9096 33.0125 50.1263C33.0684 50.2189 33.1446 50.2975 33.2355 50.3561C33.3264 50.4146 33.4295 50.4515 33.5369 50.464C33.7124 50.4925 33.8909 50.4966 34.0675 50.4763L34.0267 50.6971C33.8369 50.7251 33.6437 50.7195 33.4558 50.6806C33.3166 50.6625 33.1832 50.6134 33.0656 50.5368C32.948 50.4602 32.8491 50.3581 32.7763 50.2381C32.6318 49.971 32.5931 49.6594 32.6677 49.3651C32.6999 49.1616 32.78 48.9688 32.9015 48.8025C33.0115 48.6547 33.1636 48.5435 33.3377 48.4833C33.5249 48.4221 33.7249 48.4108 33.9177 48.4508C34.124 48.4841 34.3197 48.5647 34.4895 48.6862L34.3457 48.8817C34.2065 48.7788 34.0462 48.7081 33.8764 48.6746" fill="#F3D70D"/>
<path d="M36.2299 50.9255L36.4844 50.9724L36.3639 51.6257L36.1247 51.5815L36.2033 51.1552L34.5717 50.8543L34.9705 48.6921L35.225 48.7391L34.8681 50.6743L35.9784 50.8791L36.3353 48.9438L36.5867 48.9902L36.2299 50.9255Z" fill="#F3D70D"/>
<path d="M37.2982 49.1216L37.5344 49.1652L37.3127 50.3674C37.2719 50.5883 37.2352 50.7876 37.1781 50.9769L38.7374 49.3997L39.0104 49.4501L38.6145 51.597L38.3783 51.5534L38.5978 50.3634C38.634 50.1671 38.6724 49.9586 38.7385 49.7551L38.7232 49.7523L37.1615 51.3417L36.8855 51.2908L37.2982 49.1216Z" fill="#F3D70D"/>
<path d="M40.9112 52.0237L40.6628 51.9779L41.0208 50.0365L39.9075 49.8312L39.5495 51.7726L39.298 51.7262L39.6967 49.564L41.3099 49.8615L40.9112 52.0237Z" fill="#F3D70D"/>
<path d="M43.1377 52.4342L42.8862 52.3878L43.2442 50.4464L42.5388 50.3163L42.4303 50.6642C42.2818 51.1252 42.1658 51.4621 42.0796 51.6714C42.0254 51.8313 41.9346 51.9764 41.8144 52.095C41.7683 52.1309 41.7146 52.1558 41.6575 52.1678C41.6003 52.1798 41.5411 52.1785 41.4845 52.1642C41.4171 52.1529 41.3526 52.1281 41.295 52.0912L41.334 51.8796C41.3822 51.9141 41.4375 51.9373 41.4959 51.9475C41.5215 51.9521 41.5478 51.9512 41.573 51.9449C41.5982 51.9386 41.6218 51.9271 41.6422 51.911C41.7047 51.8539 41.7543 51.7842 41.7878 51.7064C41.8736 51.513 41.9492 51.3152 42.0144 51.1139C42.1169 50.8157 42.2347 50.4695 42.3665 50.0467L43.532 50.2616L43.1377 52.4342Z" fill="#F3D70D"/>
<path d="M44.2235 50.3987L44.4596 50.4422L44.2379 51.6445C44.1972 51.8653 44.1605 52.0646 44.1034 52.2539L45.6627 50.6768L45.9265 50.7254L45.5305 52.8723L45.2913 52.8282L45.5108 51.6382C45.547 51.4419 45.5854 51.2333 45.6515 51.0299L44.0899 52.6193L43.8139 52.5684L44.2235 50.3987Z" fill="#F3D70D"/>
<path d="M47.8669 53.3064L47.6154 53.26L47.8032 52.2418L46.6623 52.0314L46.4745 53.0496L46.223 53.0033L46.6218 50.8411L46.8733 50.8874L46.7036 51.8075L47.8445 52.0179L48.0142 51.0978L48.2657 51.1442L47.8669 53.3064Z" fill="#F3D70D"/>
<path d="M49.7315 52.7051L49.6039 51.9871C49.5835 51.8795 49.5685 51.7709 49.5592 51.6617C49.5152 51.761 49.4656 51.8577 49.4106 51.9514L49.0322 52.5762L49.7315 52.7051ZM49.9084 53.6891L49.7652 52.9524L48.9003 52.7929L48.5068 53.4306L48.2522 53.3837L49.5089 51.367L49.7205 51.4061L50.1691 53.7372L49.9084 53.6891Z" fill="#F3D70D"/>
<path d="M51.0081 52.782L51.2473 52.8261C51.4136 52.8695 51.5889 52.8632 51.7517 52.8081C51.8073 52.7736 51.8538 52.7263 51.8874 52.6702C51.9209 52.614 51.9405 52.5506 51.9444 52.4853C51.9581 52.4271 51.9576 52.3665 51.9429 52.3086C51.9282 52.2506 51.8997 52.1971 51.8599 52.1526C51.7438 52.047 51.5971 51.981 51.4411 51.9643L51.162 51.9129L51.0081 52.782ZM52.2135 52.5222C52.2007 52.6191 52.1654 52.7117 52.1103 52.7924C52.0552 52.8731 51.9819 52.9398 51.8963 52.987C51.6843 53.0799 51.4475 53.0998 51.223 53.0436L50.9685 52.9966L50.8112 53.8493L50.5597 53.8029L50.9557 51.656L51.5169 51.7595C52.0567 51.8591 52.2881 52.1174 52.2135 52.5222Z" fill="#F3D70D"/>
<path d="M54.1175 54.459L53.866 54.4126L54.0538 53.3944L52.9159 53.1846L52.7281 54.2028L52.4736 54.1559L52.8723 51.9937L53.1269 52.0406L52.9572 52.9607L54.0951 53.1705L54.2647 52.2504L54.5162 52.2968L54.1175 54.459Z" fill="#F3D70D"/>
<path d="M55.155 53.5278C55.0936 53.7615 55.1164 54.0093 55.2194 54.2278C55.2769 54.313 55.3508 54.3859 55.4368 54.4422C55.5228 54.4985 55.6191 54.5371 55.7202 54.5558C55.8213 54.5744 55.9251 54.5727 56.0255 54.5508C56.1259 54.5289 56.221 54.4871 56.3051 54.428C56.4618 54.2487 56.5673 54.0304 56.6105 53.7962C56.6537 53.562 56.633 53.3204 56.5505 53.097C56.4922 53.0123 56.4178 52.9399 56.3315 52.884C56.2453 52.8281 56.1488 52.7897 56.0477 52.7711C55.9466 52.7524 55.8428 52.7539 55.7423 52.7753C55.6418 52.7968 55.5464 52.8379 55.4618 52.8962C55.2889 53.0619 55.1796 53.2831 55.1531 53.5211L55.155 53.5278ZM56.8767 53.839C56.8405 54.1378 56.6925 54.4119 56.4625 54.6061C56.3525 54.6915 56.2248 54.7513 56.0887 54.7811C55.9526 54.8109 55.8116 54.8099 55.676 54.7782C55.5368 54.7602 55.4035 54.711 55.2858 54.6344C55.1682 54.5578 55.0693 54.4558 54.9965 54.3358C54.8712 54.064 54.8331 53.7601 54.8874 53.4658C54.9417 53.1714 55.0857 52.9011 55.2996 52.6919C55.4126 52.61 55.5421 52.5537 55.679 52.5269C55.8159 52.5002 55.957 52.5035 56.0925 52.5368C56.2305 52.5556 56.3626 52.605 56.4791 52.6813C56.5956 52.7577 56.6936 52.8591 56.7659 52.9781C56.9092 53.2422 56.9485 53.5504 56.8761 53.842" fill="#F3D70D"/>
<path d="M58.5845 52.8665C58.4408 52.8508 58.3063 52.7881 58.202 52.6881C58.1284 52.5777 58.1009 52.4428 58.1254 52.3124L58.3585 52.3554C58.3417 52.4342 58.3561 52.5164 58.3986 52.5848C58.458 52.6446 58.5365 52.6815 58.6204 52.6891C58.7007 52.7101 58.7858 52.701 58.8598 52.6635C58.9253 52.6181 58.9708 52.5493 58.9872 52.4714L59.2326 52.5166C59.2206 52.5811 59.1954 52.6424 59.1587 52.6968C59.1219 52.7511 59.0743 52.7973 59.0189 52.8324C58.8868 52.8934 58.7374 52.9062 58.5968 52.8687L58.5845 52.8665ZM57.6659 52.8778L57.8898 52.9191L57.6681 54.1214C57.6274 54.3422 57.5906 54.5415 57.5335 54.7308L59.0929 53.1536L59.3658 53.204L58.9699 55.3509L58.7338 55.3073L58.9532 54.1173C58.9894 53.921 59.0279 53.7125 59.0909 53.5085L57.5293 55.0979L57.2532 55.047L57.6659 52.8778Z" fill="#F3D70D"/>
<path d="M30.9137 53.941L30.5348 51.8859C30.5188 52.0416 30.4915 52.2236 30.4531 52.4322L30.1991 53.8093L29.9691 53.7668L30.3684 51.6016L30.7456 51.6711L31.1035 53.5828L32.1258 51.9256L32.4999 51.9946L32.1006 54.1599L31.8491 54.1135L32.1065 52.7181C32.1359 52.5586 32.1681 52.3838 32.2241 52.2007L31.1315 53.9812L30.9137 53.941Z" fill="#F3D70D"/>
<path d="M34.0084 54.5119L32.8 54.2891L33.1993 52.1238L34.4077 52.3466L34.3664 52.5705L33.4095 52.394L33.2811 53.0902L34.1797 53.256L34.1384 53.4799L33.2398 53.3141L33.0933 54.1085L34.0502 54.2849L34.0084 54.5119Z" fill="#F3D70D"/>
<path d="M35.8877 54.6205L36.2028 52.9122L35.6415 52.8087C35.5589 53.0964 35.4449 53.3743 35.3016 53.6371C35.1591 53.9164 34.9842 54.1779 34.7806 54.4163L35.8877 54.6205ZM36.2948 55.371L36.0525 55.3263L36.1306 54.9031L34.5572 54.613L34.4791 55.0362L34.2399 54.9921L34.3604 54.3388L34.5291 54.3699C34.7495 54.1111 34.9373 53.8263 35.0883 53.5217C35.2485 53.2102 35.3681 52.8795 35.4442 52.5376L36.4869 52.7299L36.13 54.6652L36.4061 54.7161L36.2948 55.371Z" fill="#F3D70D"/>
<path d="M37.2445 52.8696L37.4807 52.9132L37.2584 54.1185C37.2177 54.3393 37.1809 54.5387 37.1238 54.7279L38.6837 53.1477L38.9598 53.1986L38.5605 55.3639L38.3243 55.3204L38.5466 54.115C38.5833 53.9157 38.6212 53.7102 38.6842 53.5062L37.1226 55.0956L36.8466 55.0447L37.2445 52.8696Z" fill="#F3D70D"/>
<path d="M40.9206 55.5487L41.1752 55.5957L41.0547 56.249L40.8155 56.2048L40.8935 55.7816L39.2619 55.4807L39.6612 53.3154L39.9127 53.3618L39.5558 55.2971L40.6691 55.5024L41.026 53.5671L41.2775 53.6135L40.9206 55.5487Z" fill="#F3D70D"/>
<path d="M42.0074 53.748L42.2436 53.7916L42.0213 54.9969C41.9806 55.2177 41.9438 55.4171 41.8867 55.6063L43.4466 54.0261L43.7227 54.077L43.3233 56.2423L43.0872 56.1988L43.3095 54.9935C43.3462 54.7941 43.3841 54.5886 43.4471 54.3846L41.8855 55.974L41.6095 55.9231L42.0074 53.748Z" fill="#F3D70D"/>
<path d="M45.6657 56.6615L45.4143 56.6151L45.602 55.5969L44.4642 55.387L44.2764 56.4053L44.0249 56.3589L44.4242 54.1936L44.6757 54.24L44.506 55.1601L45.6439 55.3699L45.8136 54.4498L46.065 54.4962L45.6657 56.6615Z" fill="#F3D70D"/>
<path d="M48.3585 57.1581L48.107 57.1117L48.5063 54.9464L48.7578 54.9928L48.3585 57.1581ZM46.6591 56.6227L47.0272 56.6906C47.1646 56.7262 47.3101 56.7139 47.4395 56.6556C47.4895 56.6254 47.5319 56.5841 47.5635 56.535C47.5951 56.4858 47.6151 56.4301 47.6218 56.3721C47.6391 56.3151 47.6412 56.2547 47.628 56.1966C47.6148 56.1386 47.5867 56.085 47.5465 56.0411C47.4272 55.9477 47.2842 55.8895 47.1336 55.873L46.8085 55.813L46.6591 56.6227ZM46.3681 56.791L46.7674 54.6257L47.0189 54.6721L46.8492 55.5922L47.2049 55.6578C47.415 55.6831 47.6114 55.7749 47.7655 55.9197C47.8238 55.9864 47.8651 56.0662 47.8856 56.1523C47.9062 56.2384 47.9056 56.3283 47.8837 56.4141C47.8725 56.5024 47.8419 56.5871 47.7941 56.6622C47.7462 56.7373 47.6823 56.8008 47.607 56.8482C47.4229 56.9367 47.2137 56.9576 47.0158 56.9073L46.3681 56.791Z" fill="#F3D70D"/>
<path d="M43.2333 33.3545C42.7727 32.7055 42.4457 31.9715 42.2713 31.195C42.0969 30.4185 42.0785 29.6151 42.2174 28.8315C42.3677 28.051 42.6716 27.3081 43.1113 26.6459C43.551 25.9837 44.1178 25.4153 44.7788 24.9739C45.24 25.6215 45.5675 26.3546 45.7421 27.1303C45.9167 27.9059 45.9349 28.7086 45.7957 29.4914C45.6471 30.2734 45.3439 31.0179 44.9039 31.6812C44.4639 32.3446 43.8959 32.9135 43.2333 33.3545ZM45.1613 24.7153C45.0788 24.5868 44.9899 24.4625 44.8952 24.3427C44.7617 24.4202 44.6272 24.5033 44.4972 24.5928C43.789 25.0701 43.1821 25.6829 42.7117 26.3957C42.2413 27.1086 41.9166 27.9076 41.7563 28.7465C41.6062 29.5882 41.6242 30.4513 41.8092 31.286C41.9942 32.1208 42.3426 32.9106 42.8343 33.6101C42.9249 33.7346 43.0199 33.8656 43.1169 33.9857C43.2504 33.9082 43.3914 33.8207 43.5149 33.7356C44.2244 33.2579 44.8324 32.6446 45.304 31.931C45.7755 31.2173 46.1012 30.4175 46.2623 29.5774C46.4089 28.7344 46.3871 27.8707 46.1981 27.0362C46.0092 26.2017 45.6568 25.4129 45.1613 24.7153Z" fill="#F3D70D"/>
<path d="M41.5733 42.3552C41.1075 41.7094 40.7773 40.9759 40.6026 40.199C40.4279 39.4222 40.4123 38.618 40.5567 37.8349C40.7011 37.0518 41.0026 36.3061 41.4429 35.6427C41.8832 34.9792 42.4533 34.4118 43.1188 33.9745C43.5846 34.6204 43.9148 35.3538 44.0895 36.1307C44.2642 36.9076 44.2798 37.7118 44.1354 38.4949C43.991 39.2779 43.6896 40.0237 43.2492 40.6871C42.8089 41.3506 42.2388 41.918 41.5733 42.3552ZM43.4983 33.7324C43.4105 33.6025 43.3161 33.4772 43.2157 33.3568C43.0822 33.4344 42.9478 33.5174 42.8177 33.6069C42.1055 34.0799 41.4956 34.6914 41.0246 35.4049C40.5535 36.1185 40.2308 36.9195 40.0758 37.7604C39.9207 38.6012 39.9364 39.4647 40.122 40.2993C40.3075 41.134 40.6591 41.9228 41.1558 42.6187C41.2454 42.7487 41.3414 42.8743 41.4374 42.9998C41.5719 42.9168 41.7119 42.8348 41.8364 42.7442C42.5499 42.2723 43.1609 41.6613 43.6329 40.9478C44.1048 40.2343 44.428 39.4329 44.5832 38.5916C44.7383 37.7503 44.7222 36.8864 44.5358 36.0515C44.3494 35.2166 43.9965 34.4278 43.4983 33.7324Z" fill="#F3D70D"/>
<path d="M42.8673 33.6161C42.2214 34.0818 41.488 34.412 40.7111 34.5867C39.9342 34.7615 39.13 34.7771 38.347 34.6327C37.5639 34.4883 36.8182 34.1868 36.1547 33.7465C35.4913 33.3062 34.9238 32.7361 34.4866 32.0706C35.1319 31.6032 35.8653 31.2718 36.6425 31.0962C37.4196 30.9206 38.2243 30.9046 39.0078 31.049C39.7914 31.1935 40.5374 31.4955 41.2008 31.9368C41.8642 32.378 42.4311 32.9493 42.8673 33.6161ZM34.2331 31.6606C34.1085 31.7511 33.9775 31.8462 33.8565 31.9487C33.934 32.0821 34.0235 32.2122 34.1076 32.3412C34.5795 33.0547 35.1905 33.6657 35.904 34.1376C36.6175 34.6096 37.4189 34.9328 38.2602 35.088C39.1015 35.2431 39.9654 35.227 40.8003 35.0406C41.6352 34.8542 42.424 34.5013 43.1194 34.0031C43.2494 33.9135 43.3739 33.823 43.4994 33.727C43.4174 33.587 43.3344 33.4525 43.2449 33.3225C42.7719 32.6102 42.1604 32.0004 41.4469 31.5293C40.7333 31.0583 39.9322 30.7356 39.0914 30.5805C38.2505 30.4255 37.3871 30.4412 36.5524 30.6267C35.7178 30.8123 34.929 31.1639 34.2331 31.6606Z" fill="#F3D70D"/>
<path d="M51.868 35.276C51.2223 35.7393 50.4898 36.0676 49.7143 36.241C48.9387 36.4145 48.1362 36.4296 47.3546 36.2855C46.5731 36.1414 45.8288 35.841 45.1661 35.4023C44.5035 34.9636 43.9362 34.3957 43.4983 33.7325C44.1441 33.2651 44.878 32.9336 45.6556 32.7581C46.4332 32.5825 47.2384 32.5665 48.0223 32.7111C48.8063 32.8557 49.5528 33.1578 50.2166 33.5992C50.8804 34.0406 51.4478 34.6121 51.8844 35.2791L51.868 35.276ZM43.2338 33.3206C43.1037 33.4101 42.9782 33.5061 42.8517 33.6076C42.9347 33.7421 43.0187 33.8711 43.1083 34.0011C43.5802 34.7146 44.1912 35.3256 44.9047 35.7976C45.6182 36.2695 46.4196 36.5928 47.2609 36.7479C48.1021 36.903 48.9661 36.8869 49.801 36.7005C50.6359 36.5141 51.4247 36.1612 52.1201 35.663C52.2501 35.5735 52.3746 35.4829 52.5001 35.3869C52.4181 35.2469 52.3351 35.1125 52.2456 34.9825C51.7726 34.2702 51.1611 33.6603 50.4475 33.1893C49.734 32.7182 48.9329 32.3955 48.0921 32.2405C47.2512 32.0854 46.3878 32.1011 45.5531 32.2867C44.7185 32.4722 43.9297 32.8238 43.2338 33.3206Z" fill="#F3D70D"/>
<path d="M42.9911 33.4064C42.2079 33.2718 41.4591 32.9839 40.7875 32.5591C40.116 32.1344 39.5349 31.5811 39.0778 30.9312C38.6317 30.2722 38.321 29.5311 38.1639 28.7509C38.0067 27.9708 38.0062 27.1672 38.1623 26.3869C38.9483 26.514 39.7005 26.7991 40.3733 27.2249C41.0461 27.6508 41.6257 28.2086 42.0769 28.8646C42.5282 29.5206 42.8419 30.2613 42.999 31.0419C43.1561 31.8225 43.1534 32.6268 42.9911 33.4064ZM38.2702 25.9245C38.1166 25.8961 37.9574 25.8668 37.8037 25.8384C37.7744 25.9976 37.7461 26.1513 37.7177 26.3049C37.5541 27.1434 37.5578 28.0059 37.7288 28.8428C37.8997 29.6798 38.2345 30.4747 38.7138 31.1818C39.2001 31.8846 39.821 32.4839 40.5407 32.9449C41.2603 33.4059 42.0643 33.7195 42.9061 33.8674L43.3726 33.9534C43.4009 33.7998 43.4303 33.6406 43.4586 33.4869C43.6293 32.6484 43.6296 31.7842 43.4594 30.9456C43.2892 30.107 42.952 29.3112 42.4679 28.6056C41.9838 27.9 41.3627 27.299 40.6416 26.8384C39.9204 26.3778 39.114 26.067 38.2702 25.9245Z" fill="#F3D70D"/>
<path d="M48.1901 40.9423C47.4034 40.8159 46.6506 40.5312 45.977 40.1056C45.3035 39.68 44.7233 39.1222 44.2714 38.466C43.8195 37.8098 43.5054 37.0688 43.348 36.2877C43.1907 35.5067 43.1933 34.7018 43.3558 33.9218C44.1414 34.0505 44.8929 34.3365 45.5652 34.7628C46.2375 35.189 46.8168 35.7467 47.2683 36.4024C47.7197 37.058 48.0341 37.7981 48.1925 38.5783C48.3509 39.3584 48.3501 40.1625 48.1901 40.9423ZM43.4572 33.4638L42.9907 33.3778C42.9624 33.5315 42.9341 33.6852 42.9057 33.8388C42.7376 34.6761 42.7391 35.5387 42.9103 36.3754C43.0814 37.2121 43.4187 38.006 43.9022 38.71C44.3856 39.4141 45.0054 40.0139 45.7248 40.4741C46.4443 40.9344 47.2487 41.2456 48.0906 41.3893L48.5516 41.4743C48.581 41.3152 48.6093 41.1615 48.6376 41.0078C48.8073 40.1711 48.8069 39.3088 48.6366 38.4722C48.4662 37.6356 48.1294 36.8418 47.6461 36.138C47.1628 35.4342 46.5429 34.8348 45.8233 34.3754C45.1037 33.916 44.2991 33.606 43.4572 33.4638Z" fill="#F3D70D"/>
<path d="M42.911 33.8399C42.7847 34.626 42.5003 35.3784 42.0751 36.0517C41.6498 36.7249 41.0926 37.3049 40.437 37.7568C39.7814 38.2087 39.041 38.5231 38.2605 38.6809C37.4801 38.8388 36.6757 38.8368 35.896 38.6752C36.0232 37.8894 36.308 37.1374 36.7334 36.4646C37.1589 35.7918 37.7161 35.212 38.3715 34.7603C39.0269 34.3085 39.767 33.994 40.5472 33.8359C41.3273 33.6777 42.1314 33.6791 42.911 33.8399ZM35.4381 38.5737C35.4097 38.7274 35.3814 38.881 35.352 39.0402L35.8185 39.1262C36.6566 39.2968 37.5203 39.2972 38.3585 39.1273C39.1967 38.9573 39.9921 38.6206 40.6975 38.1371C41.4029 37.6536 42.0039 37.0332 42.4648 36.3127C42.9256 35.5923 43.2368 34.7865 43.38 33.9434C43.4083 33.7897 43.4367 33.636 43.465 33.4824L42.9985 33.3963C42.1608 33.2242 41.297 33.2226 40.4587 33.3916C39.6204 33.5606 38.8247 33.8967 38.1191 34.3799C37.4135 34.8631 36.8124 35.4834 36.3518 36.204C35.8912 36.9245 35.5804 37.7304 35.4381 38.5737Z" fill="#F3D70D"/>
<path d="M50.456 28.6542C50.3224 29.4391 50.0342 30.1895 49.6082 30.8621C49.1821 31.5346 48.6268 32.1158 47.9742 32.572C47.3153 33.0161 46.5752 33.3257 45.7963 33.483C45.0174 33.6403 44.2151 33.6422 43.4355 33.4885C43.5619 32.7019 43.8466 31.949 44.2722 31.2755C44.6978 30.602 45.2556 30.0217 45.9118 29.5699C46.568 29.118 47.309 28.8039 48.0901 28.6465C48.8711 28.4891 49.676 28.4917 50.456 28.6542ZM42.995 33.3846C42.9666 33.5383 42.9373 33.6974 42.909 33.8511L43.3755 33.9371C44.2138 34.1026 45.0767 34.0998 45.9139 33.9288C46.7512 33.7578 47.5461 33.422 48.2524 32.941C48.9532 32.4523 49.5501 31.8294 50.0085 31.1083C50.4668 30.3872 50.7775 29.5823 50.9225 28.7402C50.9508 28.5866 50.9792 28.4329 51.0085 28.2737L50.5475 28.1887C49.7092 28.0204 48.8457 28.0221 48.0081 28.1938C47.1706 28.3655 46.376 28.7037 45.6716 29.1883C44.9672 29.6729 44.3673 30.294 43.9075 31.0148C43.4477 31.7357 43.1374 32.5415 42.995 33.3846Z" fill="#F3D70D"/>
</svg>
