<svg width="203" height="203" viewBox="0 0 203 203" fill="none" xmlns="http://www.w3.org/2000/svg">
<path d="M164.662 114.156L178.203 118.429L174.827 129.129L161.285 124.856L161.965 122.701L173.619 126.378L175.641 119.97L163.988 116.292L164.662 114.156Z" fill="#F3D70D"/>
<path d="M156.324 134.427C156.757 133.707 157.31 133.176 157.982 132.833C158.655 132.491 159.361 132.325 160.102 132.335L154.772 129.13L155.905 127.244L168.521 134.829L167.521 136.492L165.91 135.523C166.241 136.189 166.401 136.892 166.391 137.633C166.382 138.374 166.174 139.081 165.769 139.755C165.398 140.372 164.932 140.862 164.371 141.226C163.822 141.595 163.217 141.838 162.556 141.954C161.895 142.071 161.223 142.063 160.539 141.932C159.86 141.819 159.212 141.578 158.595 141.207C157.738 140.691 157.059 140.049 156.556 139.28C156.047 138.523 155.763 137.715 155.704 136.855C155.65 136.013 155.857 135.204 156.324 134.427ZM158.306 134.779C158.066 135.178 157.935 135.59 157.914 136.013C157.886 136.447 157.946 136.865 158.095 137.265C158.236 137.677 158.452 138.055 158.742 138.401C159.032 138.747 159.371 139.036 159.76 139.27C160.171 139.517 160.601 139.682 161.049 139.765C161.497 139.848 161.937 139.84 162.37 139.742C162.795 139.655 163.191 139.489 163.557 139.242C163.916 139.007 164.216 138.69 164.456 138.29C164.601 138.05 164.706 137.771 164.773 137.453C164.839 137.135 164.861 136.814 164.839 136.489C164.816 136.164 164.748 135.851 164.634 135.549C164.52 135.247 164.363 134.99 164.165 134.777L161.816 133.365C161.354 133.305 160.896 133.317 160.441 133.402C159.997 133.493 159.581 133.655 159.192 133.888C158.814 134.127 158.519 134.424 158.306 134.779Z" fill="#F3D70D"/>
<path d="M148.67 144.849C149.242 144.252 149.855 143.814 150.509 143.536C151.172 143.267 151.853 143.134 152.551 143.138C153.24 143.151 153.903 143.288 154.54 143.547C155.188 143.816 155.776 144.204 156.306 144.712C156.835 145.219 157.248 145.79 157.545 146.425C157.842 147.059 158.007 147.716 158.041 148.394C158.075 149.091 157.967 149.773 157.717 150.438C157.468 151.122 157.062 151.758 156.5 152.346C155.937 152.933 155.324 153.362 154.66 153.631C153.997 153.918 153.321 154.056 152.632 154.042C151.944 154.048 151.276 153.916 150.629 153.647C149.982 153.379 149.394 152.99 148.864 152.483C148.334 151.976 147.921 151.405 147.624 150.77C147.337 150.145 147.177 149.483 147.143 148.786C147.1 148.099 147.203 147.413 147.452 146.728C147.701 146.063 148.108 145.436 148.67 144.849ZM154.728 146.33C154.247 145.869 153.716 145.555 153.138 145.389C152.559 145.222 151.997 145.201 151.453 145.326C150.909 145.451 150.434 145.725 150.028 146.149C149.631 146.563 149.383 147.045 149.281 147.594C149.18 148.162 149.226 148.732 149.417 149.303C149.619 149.883 149.955 150.399 150.427 150.851C150.909 151.312 151.439 151.626 152.018 151.792C152.596 151.959 153.163 151.975 153.716 151.84C154.27 151.725 154.745 151.46 155.142 151.046C155.547 150.622 155.796 150.131 155.888 149.573C155.979 149.014 155.929 148.449 155.738 147.878C155.556 147.316 155.219 146.8 154.728 146.33Z" fill="#F3D70D"/>
<path d="M141.887 151.701L148.006 160.185L142.588 164.092L141.453 162.519L145.087 159.898L140.103 152.988L141.887 151.701Z" fill="#F3D70D"/>
<path d="M128.655 159.732C129.416 159.375 130.17 159.241 130.92 159.331C131.669 159.421 132.349 159.676 132.959 160.097L130.314 154.467L132.305 153.531L138.565 166.854L136.809 167.679L136.009 165.978C135.914 166.715 135.656 167.389 135.235 167.999C134.815 168.609 134.248 169.081 133.536 169.415C132.885 169.722 132.225 169.87 131.557 169.859C130.895 169.861 130.257 169.726 129.644 169.455C129.03 169.183 128.476 168.803 127.98 168.313C127.479 167.842 127.075 167.28 126.769 166.629C126.344 165.724 126.136 164.812 126.147 163.894C126.145 162.981 126.36 162.151 126.789 161.404C127.213 160.675 127.835 160.117 128.655 159.732ZM130.106 161.127C129.684 161.326 129.347 161.595 129.094 161.935C128.829 162.28 128.646 162.66 128.547 163.075C128.435 163.496 128.404 163.931 128.452 164.379C128.501 164.828 128.622 165.257 128.815 165.668C129.019 166.102 129.284 166.478 129.61 166.796C129.936 167.115 130.306 167.353 130.72 167.513C131.121 167.677 131.543 167.759 131.984 167.758C132.414 167.763 132.84 167.666 133.262 167.467C133.515 167.348 133.758 167.175 133.99 166.948C134.223 166.721 134.42 166.467 134.582 166.184C134.744 165.902 134.861 165.604 134.935 165.289C135.008 164.975 135.021 164.674 134.975 164.387L133.809 161.907C133.459 161.6 133.071 161.355 132.646 161.171C132.227 161 131.791 160.903 131.338 160.88C130.891 160.869 130.481 160.952 130.106 161.127Z" fill="#F3D70D"/>
<path d="M122.584 166.045C122.735 166.694 122.685 167.301 122.433 167.867C122.172 168.448 121.747 168.944 121.158 169.355C120.572 169.779 119.851 170.091 118.994 170.291C118.539 170.397 118.071 170.472 117.588 170.516C117.093 170.563 116.646 170.557 116.249 170.499L116.399 171.142C116.566 171.856 116.91 172.364 117.432 172.667C117.955 172.97 118.619 173.027 119.424 172.84C119.995 172.706 120.51 172.477 120.968 172.151C121.429 171.838 121.902 171.434 122.389 170.937L123.446 172.21C122.876 172.822 122.28 173.317 121.656 173.695C121.019 174.076 120.324 174.355 119.571 174.53C118.208 174.848 117.052 174.734 116.103 174.189C115.145 173.659 114.511 172.732 114.202 171.407L113.317 167.609C113.259 167.362 113.18 167.196 113.078 167.111C112.962 167.028 112.8 167.004 112.589 167.04L112.189 165.326C112.375 165.241 112.544 165.174 112.697 165.125C112.85 165.076 112.978 165.039 113.082 165.015C113.536 164.909 113.906 164.939 114.191 165.105C114.477 165.272 114.674 165.5 114.782 165.789L114.977 166.36C115.285 165.686 115.747 165.112 116.363 164.64C116.978 164.168 117.637 163.851 118.338 163.687C119.013 163.53 119.649 163.525 120.245 163.674C120.844 163.836 121.348 164.122 121.759 164.533C122.17 164.944 122.445 165.448 122.584 166.045ZM115.952 166.933C115.836 167.139 115.752 167.336 115.7 167.526C115.649 167.716 115.638 167.876 115.668 168.006L115.941 169.175C116.338 169.233 116.745 169.247 117.163 169.218C117.583 169.202 117.988 169.149 118.378 169.058C119.157 168.877 119.757 168.573 120.178 168.146C120.586 167.722 120.726 167.238 120.599 166.692C120.529 166.394 120.385 166.126 120.165 165.89C119.933 165.657 119.648 165.49 119.31 165.391C118.959 165.295 118.556 165.3 118.102 165.406C117.634 165.515 117.207 165.71 116.821 165.992C116.435 166.273 116.146 166.587 115.952 166.933Z" fill="#F3D70D"/>
<path d="M108.57 166.219L108.554 176.679L106.274 176.676L102.684 170.21L99.0537 176.665L96.8137 176.661L96.8298 166.201L98.9298 166.205L98.9185 173.565L102.007 168.069L103.387 168.071L106.478 173.576L106.49 166.216L108.57 166.219Z" fill="#F3D70D"/>
<path d="M91.9313 166.004L89.2862 176.124L87.0803 175.547L85.2309 168.387L80.095 173.721L77.9278 173.155L80.5729 163.035L82.6047 163.566L80.7435 170.687L85.1142 166.144L86.4493 166.493L88.0577 172.599L89.9189 165.478L91.9313 166.004Z" fill="#F3D70D"/>
<path d="M75.3141 164.564C75.0033 165.153 74.5679 165.58 74.0076 165.842C73.4294 166.11 72.7832 166.207 72.0691 166.132C71.3487 166.069 70.5993 165.832 69.8207 165.422C69.4078 165.205 69.0046 164.955 68.611 164.672C68.2056 164.383 67.8719 164.087 67.61 163.783L67.3024 164.367C66.9606 165.016 66.888 165.625 67.0846 166.196C67.2813 166.767 67.7453 167.245 68.4767 167.63C68.9957 167.904 69.535 168.067 70.0945 168.121C70.6478 168.186 71.2709 168.19 71.964 168.134L71.9289 169.788C71.098 169.878 70.323 169.861 69.6039 169.739C68.873 169.61 68.1655 169.365 67.4813 169.005C66.2427 168.352 65.4435 167.509 65.0837 166.476C64.7059 165.448 64.8339 164.332 65.4678 163.129L67.2855 159.679C67.4036 159.454 67.4521 159.277 67.431 159.145C67.3982 159.007 67.2905 158.882 67.1079 158.771L67.9282 157.214C68.1238 157.272 68.2955 157.332 68.4433 157.395C68.5911 157.458 68.7121 157.514 68.8065 157.564C69.2194 157.781 69.4792 158.046 69.5859 158.359C69.6926 158.671 69.6921 158.972 69.5846 159.262L69.358 159.821C70.0325 159.513 70.757 159.382 71.5313 159.429C72.3057 159.475 73.0114 159.666 73.6484 160.001C74.2618 160.325 74.7451 160.737 75.0983 161.24C75.4452 161.754 75.6394 162.301 75.6808 162.88C75.7222 163.46 75.5999 164.021 75.3141 164.564ZM69.72 160.893C69.4976 160.972 69.3048 161.066 69.1414 161.176C68.978 161.286 68.8653 161.4 68.8031 161.518L68.2438 162.58C68.5058 162.883 68.8041 163.161 69.1387 163.413C69.4671 163.676 69.8083 163.901 70.1622 164.087C70.8699 164.46 71.5225 164.623 72.12 164.576C72.7056 164.523 73.1289 164.249 73.3899 163.753C73.5328 163.482 73.5988 163.185 73.5877 162.863C73.5649 162.534 73.4582 162.222 73.2676 161.926C73.0653 161.623 72.7577 161.363 72.3448 161.146C71.9201 160.922 71.4697 160.79 70.9934 160.75C70.5171 160.71 70.0926 160.758 69.72 160.893Z" fill="#F3D70D"/>
<path d="M57.0241 148.673C57.6128 149.253 58.0414 149.872 58.3101 150.53C58.5693 151.198 58.692 151.881 58.6781 152.578C58.6546 153.267 58.5084 153.928 58.2395 154.561C57.9612 155.204 57.5646 155.787 57.0497 156.309C56.5348 156.832 55.9578 157.236 55.3187 157.524C54.6796 157.811 54.0207 157.966 53.3421 157.99C52.6445 158.014 51.9649 157.896 51.3031 157.637C50.6224 157.378 49.9925 156.962 49.4133 156.391C48.8342 155.82 48.415 155.201 48.1557 154.534C47.8776 153.866 47.7502 153.188 47.7737 152.5C47.7782 151.811 47.9197 151.146 48.198 150.503C48.4763 149.86 48.8729 149.277 49.3878 148.755C49.9027 148.232 50.4796 147.828 51.1187 147.54C51.7485 147.263 52.4121 147.112 53.1096 147.088C53.7977 147.055 54.482 147.168 55.1627 147.427C55.8245 147.686 56.445 148.102 57.0241 148.673ZM55.4545 154.708C55.9225 154.234 56.2441 153.708 56.4192 153.132C56.5942 152.555 56.6233 151.994 56.5063 151.448C56.3893 150.902 56.1219 150.423 55.7042 150.011C55.2959 149.609 54.818 149.353 54.2704 149.244C53.7039 149.134 53.1338 149.171 52.5599 149.355C51.9767 149.547 51.4558 149.876 50.9971 150.341C50.529 150.816 50.2074 151.342 50.0324 151.918C49.8573 152.494 49.833 153.06 49.9595 153.616C50.0671 154.171 50.325 154.65 50.7333 155.053C51.151 155.465 51.6384 155.72 52.1954 155.82C52.7524 155.92 53.3178 155.878 53.8916 155.695C54.4561 155.521 54.977 155.193 55.4545 154.708Z" fill="#F3D70D"/>
<path d="M47.2113 136.97C47.6674 137.676 47.9013 138.406 47.9129 139.16C47.9245 139.915 47.7629 140.623 47.4282 141.284L52.6514 137.906L53.846 139.754L41.4848 147.746L40.4314 146.117L42.0102 145.096C41.2667 145.101 40.5645 144.936 39.9035 144.601C39.2425 144.266 38.6984 143.768 38.2713 143.108C37.8804 142.503 37.6452 141.869 37.5657 141.206C37.4751 140.55 37.523 139.9 37.7096 139.255C37.8962 138.611 38.1986 138.01 38.6169 137.454C39.0168 136.894 39.5191 136.418 40.1237 136.027C40.9635 135.484 41.839 135.156 42.7504 135.044C43.6546 134.919 44.5056 135.02 45.3036 135.346C46.0831 135.667 46.7191 136.209 47.2113 136.97ZM46.0235 138.596C45.7702 138.204 45.4581 137.905 45.0875 137.7C44.7096 137.484 44.3083 137.355 43.8836 137.312C43.4516 137.258 43.0167 137.285 42.5788 137.393C42.1408 137.502 41.7315 137.679 41.3508 137.925C40.9477 138.186 40.6105 138.499 40.3391 138.865C40.0677 139.231 39.8808 139.63 39.7786 140.061C39.6692 140.481 39.6447 140.91 39.7051 141.347C39.7583 141.773 39.9116 142.182 40.165 142.574C40.317 142.809 40.521 143.027 40.7771 143.226C41.0332 143.426 41.312 143.587 41.6136 143.709C41.9151 143.832 42.2266 143.909 42.5479 143.939C42.8692 143.969 43.1692 143.942 43.4477 143.857L45.7487 142.37C46.0056 141.981 46.1964 141.564 46.321 141.118C46.4344 140.68 46.4721 140.235 46.434 139.783C46.3848 139.338 46.248 138.943 46.0235 138.596Z" fill="#F3D70D"/>
<path d="M42.7719 129.796L33.0892 133.753L30.5622 127.57L32.358 126.836L34.0528 130.983L41.9396 127.76L42.7719 129.796Z" fill="#F3D70D"/>
<path d="M36.27 122.278C35.6181 122.417 35.0119 122.355 34.4515 122.093C33.8752 121.821 33.3872 121.387 32.9872 120.79C32.5742 120.197 32.2758 119.47 32.0921 118.609C31.9947 118.153 31.9285 117.683 31.8935 117.199C31.8557 116.703 31.8695 116.257 31.935 115.861L31.2896 115.999C30.5724 116.152 30.0576 116.487 29.7453 117.004C29.4329 117.52 29.363 118.183 29.5356 118.991C29.658 119.565 29.8779 120.084 30.1951 120.548C30.4992 121.015 30.8951 121.496 31.3826 121.992L30.0897 123.024C29.4886 122.444 29.0048 121.838 28.6384 121.207C28.2692 120.564 28.0039 119.863 27.8425 119.107C27.5502 117.738 27.6857 116.584 28.2489 115.646C28.7963 114.698 29.735 114.081 31.065 113.797L34.8791 112.983C35.1268 112.93 35.2945 112.854 35.3821 112.753C35.467 112.64 35.4936 112.477 35.4621 112.266L37.1834 111.898C37.2642 112.086 37.3279 112.256 37.3743 112.41C37.4208 112.563 37.4551 112.692 37.4774 112.797C37.5748 113.253 37.5377 113.622 37.3662 113.904C37.1946 114.186 36.963 114.379 36.6715 114.482L36.0972 114.666C36.7656 114.987 37.33 115.46 37.7905 116.084C38.251 116.708 38.5564 117.372 38.7067 118.076C38.8514 118.755 38.8439 119.39 38.6842 119.983C38.5115 120.579 38.2159 121.078 37.7974 121.481C37.379 121.884 36.8699 122.15 36.27 122.278ZM35.5056 115.631C35.3027 115.511 35.1067 115.423 34.9177 115.368C34.7287 115.313 34.569 115.299 34.4386 115.327L33.2651 115.577C33.1996 115.973 33.1774 116.38 33.1985 116.798C33.2065 117.219 33.2523 117.625 33.3358 118.016C33.5028 118.799 33.7957 119.404 34.2144 119.833C34.6303 120.249 35.1121 120.398 35.6598 120.281C35.9597 120.217 36.2299 120.078 36.4703 119.863C36.7079 119.635 36.8795 119.353 36.985 119.017C37.0877 118.667 37.0904 118.265 36.9929 117.808C36.8927 117.339 36.7054 116.909 36.431 116.517C36.1566 116.126 35.8481 115.83 35.5056 115.631Z" fill="#F3D70D"/>
<path d="M36.5057 108.082L26.0459 108.145L26.0324 105.945L30.1924 105.92L30.1627 101.06L26.0028 101.086L25.9893 98.8856L36.4491 98.8217L36.4626 101.022L32.0626 101.049L32.0923 105.908L36.4923 105.882L36.5057 108.082Z" fill="#F3D70D"/>
<path d="M36.5163 94.8926L26.2961 92.762L26.745 90.6083L34.0872 92.1389L27.8071 85.4158L28.2152 83.4579L38.4551 85.5925L38.0061 87.7462L30.8206 86.2483L36.9367 92.876L36.5163 94.8926Z" fill="#F3D70D"/>
<path d="M41.188 77.8888C40.775 78.8723 40.2483 79.6272 39.6079 80.1537C38.9603 80.6626 38.242 80.9612 37.4531 81.0492L37.4046 79.0983C37.8489 79.039 38.2555 78.8627 38.6246 78.5694C38.9813 78.2709 39.2732 77.8512 39.5004 77.3103C39.774 76.6587 39.8504 76.0979 39.7296 75.6278C39.6089 75.1578 39.3272 74.8298 38.8847 74.6439C38.479 74.4736 38.0913 74.4843 37.7215 74.6761C37.3394 74.8627 37.0287 75.2239 36.7893 75.7597L36.3711 76.7555L35.0803 76.2134L35.5139 75.1808C35.6172 74.9349 35.6522 74.6965 35.619 74.4657C35.5858 74.2348 35.4976 74.0315 35.3545 73.8557C35.2043 73.6625 35.0062 73.5142 34.7604 73.411C34.3916 73.2561 34.0372 73.2736 33.6972 73.4634C33.35 73.6358 33.0603 73.9986 32.828 74.5518C32.6266 75.0312 32.5537 75.4633 32.609 75.8481C32.6521 76.2277 32.8044 76.5881 33.066 76.9294L31.6119 78.1192C31.1561 77.5518 30.8912 76.891 30.8174 76.137C30.7436 75.3829 30.8796 74.5941 31.2255 73.7704C31.4991 73.1189 31.8462 72.585 32.2669 72.1687C32.6804 71.735 33.1432 71.4593 33.6553 71.3418C34.1603 71.2067 34.6956 71.258 35.2611 71.4954C35.7036 71.6813 36.0777 71.9613 36.3834 72.3355C36.6767 72.7045 36.8226 73.149 36.8212 73.669C37.2411 73.1512 37.7281 72.8351 38.2823 72.7207C38.8293 72.5889 39.3917 72.6443 39.9695 72.8869C40.5596 73.1347 41.0001 73.5149 41.291 74.0275C41.5748 74.5227 41.706 75.1056 41.6846 75.7763C41.6633 76.447 41.4977 77.1512 41.188 77.8888Z" fill="#F3D70D"/>
<path d="M46.6013 67.3181C46.1388 68.0033 45.6088 68.5384 45.0112 68.9232C44.4026 69.3007 43.754 69.5466 43.0655 69.661C42.3845 69.7644 41.7079 69.742 41.0357 69.594C40.3524 69.4384 39.7069 69.1556 39.099 68.7453C38.4912 68.335 37.9874 67.8422 37.5876 67.2667C37.1878 66.6912 36.9139 66.0721 36.7661 65.4093C36.6147 64.728 36.6057 64.0382 36.7391 63.3401C36.8689 62.6234 37.1613 61.928 37.6163 61.2538C38.0713 60.5797 38.6032 60.0539 39.2118 59.6764C39.8168 59.2805 40.4599 59.0309 41.1409 58.9275C41.8183 58.8056 42.4987 58.8225 43.1819 58.978C43.8652 59.1335 44.5107 59.4164 45.1186 59.8266C45.7264 60.2369 46.2303 60.7297 46.6301 61.3052C47.0188 61.8732 47.2889 62.4979 47.4403 63.1792C47.5992 63.8495 47.6138 64.5429 47.4839 65.2596C47.3505 65.9578 47.0563 66.644 46.6013 67.3181ZM40.38 66.8832C40.9325 67.2562 41.5082 67.4758 42.1069 67.5421C42.7056 67.6084 43.2626 67.5339 43.7778 67.3186C44.2931 67.1034 44.7148 66.7526 45.043 66.2664C45.3638 65.7911 45.5276 65.2744 45.5345 64.716C45.5378 64.1391 45.3967 63.5854 45.1113 63.055C44.8148 62.5171 44.3958 62.0654 43.8543 61.6999C43.3017 61.3269 42.726 61.1073 42.1273 61.041C41.5286 60.9747 40.9679 61.0547 40.4452 61.281C39.9189 61.4888 39.4954 61.8303 39.1746 62.3056C38.8464 62.7918 38.6844 63.3179 38.6886 63.8837C38.6927 64.4495 38.8375 64.9977 39.1229 65.5281C39.3973 66.0511 39.8163 66.5028 40.38 66.8832Z" fill="#F3D70D"/>
<path d="M51.8372 59.4947L44.5793 51.9624L48.6119 48.0768C49.092 47.6142 49.5735 47.3261 50.0566 47.2125C50.5399 47.08 50.9926 47.079 51.4145 47.2094C51.8272 47.3302 52.1908 47.5538 52.5053 47.8803C52.9031 48.2931 53.1587 48.7505 53.272 49.2524C53.3852 49.7543 53.3333 50.2672 53.1161 50.7912C53.6684 50.4997 54.2317 50.3829 54.8058 50.4407C55.3803 50.4796 55.9035 50.744 56.3753 51.2336C56.8009 51.6753 57.0561 52.1515 57.1409 52.6623C57.2165 53.1635 57.1314 53.6805 56.8858 54.2135C56.6405 54.7275 56.2586 55.2344 55.7402 55.734L51.8372 59.4947ZM52.2803 56.9569L54.6423 54.681C54.8439 54.4868 54.9801 54.263 55.0508 54.0097C55.1218 53.7375 55.1267 53.4736 55.0655 53.2179C54.995 52.9525 54.8672 52.7238 54.6821 52.5318C54.4786 52.3206 54.2502 52.1796 53.9969 52.1089C53.7532 52.0289 53.5035 52.0196 53.2478 52.0808C53.0016 52.1329 52.7729 52.2606 52.5617 52.4642L50.171 54.7678L52.2803 56.9569ZM49.1857 53.7453L51.3172 51.6914C51.5188 51.4971 51.6502 51.278 51.7113 51.0339C51.7631 50.7803 51.749 50.5254 51.6689 50.2693C51.5888 50.0132 51.4562 49.7892 51.2712 49.5972C51.0029 49.3187 50.6804 49.1666 50.3037 49.1407C49.927 49.1149 49.5898 49.2454 49.2921 49.5322L47.1318 51.6138L49.1857 53.7453Z" fill="#F3D70D"/>
<path d="M59.2821 48.1496C58.9262 47.5858 58.7745 46.9957 58.8268 46.3793C58.8834 45.7444 59.1223 45.1363 59.5437 44.555C59.958 43.9624 60.5372 43.4312 61.2814 42.9614C61.676 42.7124 62.0941 42.4879 62.5356 42.288C62.9883 42.0811 63.4117 41.94 63.8057 41.8647L63.4534 41.3066C63.0619 40.6865 62.5699 40.3191 61.9772 40.2044C61.3845 40.0898 60.7386 40.2531 60.0395 40.6943C59.5434 41.0075 59.1325 41.393 58.8066 41.851C58.4736 42.2977 58.1588 42.8355 57.8619 43.4643L56.4462 42.6078C56.7834 41.8431 57.1846 41.1798 57.6499 40.6181C58.1265 40.0492 58.6918 39.5584 59.3457 39.1456C60.5296 38.3983 61.6591 38.1268 62.7341 38.3312C63.8133 38.5172 64.7159 39.1852 65.4419 40.3353L67.5236 43.6332C67.6588 43.8474 67.7887 43.9783 67.9133 44.0258C68.0492 44.0662 68.2109 44.035 68.3984 43.9324L69.3378 45.4207C69.1901 45.5613 69.0521 45.68 68.9239 45.7766C68.7957 45.8733 68.6865 45.9501 68.5963 46.0071C68.2017 46.2562 67.8424 46.3489 67.5185 46.2854C67.1945 46.2218 66.9338 46.071 66.7363 45.833L66.3653 45.3577C66.2951 46.0958 66.0466 46.7887 65.6198 47.4365C65.1931 48.0843 64.6753 48.6004 64.0664 48.9847C63.4801 49.3548 62.8811 49.5673 62.2694 49.6224C61.6505 49.6661 61.0798 49.5613 60.5571 49.3078C60.0345 49.0543 59.6094 48.6682 59.2821 48.1496ZM65.2555 45.1358C65.2983 44.9038 65.3129 44.6896 65.2993 44.4932C65.2857 44.2969 65.2433 44.1423 65.1722 44.0295L64.5316 43.0148C64.1376 43.09 63.7481 43.2098 63.363 43.374C62.9707 43.527 62.6055 43.7103 62.2673 43.9238C61.5908 44.3508 61.1237 44.8348 60.866 45.3759C60.6197 45.9098 60.646 46.4136 60.9449 46.8871C61.1086 47.1464 61.3328 47.3518 61.6175 47.5031C61.9136 47.6474 62.2375 47.711 62.5894 47.6938C62.9525 47.6696 63.3314 47.5329 63.726 47.2839C64.1319 47.0276 64.4711 46.7032 64.7435 46.3105C65.0159 45.9177 65.1866 45.5262 65.2555 45.1358Z" fill="#F3D70D"/>
<path d="M72.6001 43.4926L68.8933 33.7114L70.9505 32.9318L72.4247 36.8218L76.9693 35.0995L75.4951 31.2095L77.5523 30.4298L81.2592 40.211L79.2019 40.9906L77.6426 36.8762L73.0981 38.5985L74.6574 42.7129L72.6001 43.4926Z" fill="#F3D70D"/>
<path d="M83.3009 36.1374C83.1936 35.4794 83.2845 34.8769 83.5736 34.33C83.8738 33.7677 84.3314 33.3013 84.9465 32.9309C85.5594 32.5473 86.3001 32.2847 87.1687 32.1431C87.6293 32.0681 88.1018 32.0248 88.5863 32.0134C89.0839 31.9998 89.5287 32.0354 89.9208 32.1201L89.8146 31.4687C89.6967 30.7449 89.3873 30.2144 88.8865 29.8773C88.3858 29.5401 87.7274 29.438 86.9115 29.571C86.3325 29.6654 85.8035 29.8597 85.3246 30.1539C84.8436 30.4349 84.3436 30.8069 83.8246 31.2697L82.8561 29.9281C83.4654 29.3559 84.0939 28.9022 84.7417 28.567C85.4027 28.2296 86.1149 27.9987 86.8781 27.8743C88.2599 27.649 89.4056 27.8405 90.3153 28.4488C91.236 29.0417 91.8058 30.0093 92.0246 31.3516L92.652 35.2008C92.6928 35.4509 92.7612 35.6221 92.8573 35.7145C92.9666 35.8047 93.1276 35.8393 93.3403 35.8181L93.6234 37.5552C93.4325 37.6269 93.2591 37.6821 93.1033 37.721C92.9475 37.7599 92.817 37.788 92.7117 37.8051C92.2512 37.8802 91.8842 37.8252 91.6109 37.6401C91.3375 37.455 91.1564 37.2143 91.0676 36.9181L90.9119 36.3355C90.5588 36.9875 90.0593 37.5282 89.4133 37.9578C88.7674 38.3873 88.0891 38.6599 87.3784 38.7758C86.6941 38.8873 86.0597 38.8489 85.4751 38.6605C84.8884 38.4589 84.404 38.1393 84.0219 37.7018C83.6399 37.2642 83.3995 36.7427 83.3009 36.1374ZM89.9771 35.6976C90.1071 35.5008 90.2042 35.3094 90.2685 35.1233C90.3327 34.9372 90.3541 34.7783 90.3326 34.6467L90.1396 33.4624C89.7475 33.3777 89.3422 33.3357 88.9235 33.3364C88.5027 33.3239 88.0949 33.3498 87.7001 33.4142C86.9105 33.5429 86.2914 33.8059 85.8428 34.2033C85.4074 34.5985 85.2347 35.0724 85.3248 35.6251C85.3742 35.9278 85.5003 36.2044 85.7033 36.455C85.9194 36.7035 86.1927 36.8886 86.5233 37.0104C86.867 37.1299 87.2691 37.1522 87.7297 37.0771C88.2035 36.9999 88.6425 36.8338 89.0467 36.5788C89.451 36.3237 89.7611 36.03 89.9771 35.6976Z" fill="#F3D70D"/>
<path d="M108.814 37.7651C107.8 37.6024 106.917 37.258 106.164 36.732C105.412 36.206 104.793 35.5597 104.308 34.7932C103.826 34.0135 103.488 33.176 103.294 32.2806C103.115 31.3742 103.098 30.4734 103.242 29.5782C103.392 28.6435 103.705 27.7823 104.183 26.9947C104.663 26.194 105.258 25.5131 105.969 24.9521C106.683 24.3779 107.478 23.9655 108.356 23.7148C109.249 23.453 110.176 23.3993 111.137 23.5536C112.137 23.7142 113.013 24.0641 113.763 24.6033C114.527 25.1446 115.144 25.804 115.613 26.5816C116.096 27.3613 116.427 28.1977 116.608 29.091C116.802 29.9864 116.828 30.8751 116.686 31.7571C116.536 32.6918 116.221 33.5596 115.742 34.3603C115.277 35.15 114.688 35.8319 113.975 36.4061C113.264 36.9671 112.463 37.3719 111.572 37.6205C110.694 37.8712 109.775 37.9194 108.814 37.7651ZM105.493 29.9396C105.387 30.5978 105.39 31.2532 105.501 31.9058C105.612 32.5584 105.82 33.1589 106.123 33.7072C106.442 34.2446 106.856 34.6959 107.364 35.0611C107.873 35.4264 108.47 35.6639 109.154 35.7739C109.865 35.888 110.52 35.8446 111.12 35.6438C111.719 35.443 112.242 35.1286 112.689 34.7007C113.151 34.2617 113.529 33.7553 113.824 33.1814C114.121 32.5944 114.319 31.9915 114.418 31.3728C114.524 30.7145 114.52 30.0657 114.407 29.4263C114.309 28.7759 114.1 28.182 113.781 27.6446C113.465 27.0941 113.052 26.6362 112.544 26.271C112.048 25.9079 111.465 25.6724 110.793 25.5646C110.082 25.4505 109.427 25.4938 108.828 25.6947C108.228 25.8955 107.699 26.2088 107.239 26.6346C106.779 27.0604 106.395 27.5592 106.087 28.1309C105.792 28.7048 105.594 29.3077 105.493 29.9396Z" fill="#F3D70D"/>
<path d="M127.972 43.1324L130.294 37.8833C130.079 37.8755 129.801 37.8618 129.46 37.842C129.124 37.8101 128.739 37.7417 128.304 37.6368C127.881 37.5373 127.414 37.3742 126.902 37.1476C125.427 36.4948 124.475 35.68 124.047 34.7032C123.619 33.7265 123.723 32.5187 124.36 31.0799L126.238 26.8368L128.231 27.719L126.451 31.7426C126.073 32.5961 126.008 33.3185 126.257 33.9097C126.506 34.5009 127.136 35.0204 128.148 35.4682C128.624 35.6787 129.13 35.8369 129.666 35.943C130.214 36.0545 130.691 36.0977 131.096 36.0727L133.718 30.1469L135.73 31.0372L129.984 44.0226L127.972 43.1324Z" fill="#F3D70D"/>
<path d="M135.813 47.3128L136.944 45.8114L137.759 46.4252C138.025 46.6258 138.275 46.7144 138.51 46.6909C138.745 46.6675 139.022 46.5761 139.343 46.4168L140.232 45.9348L141.947 34.0547L143.927 35.5472L142.431 44.7118L150.301 40.3496L152.201 41.7819L140.079 48.2985C139.43 48.6277 138.871 48.7824 138.401 48.7627C137.943 48.751 137.453 48.5485 136.931 48.1554L135.813 47.3128Z" fill="#F3D70D"/>
<path d="M146.81 59.3317L150.69 56.6802L151.074 57.2417C151.285 57.5499 151.586 57.7314 151.979 57.7861C152.379 57.8518 152.896 57.7812 153.53 57.5743C154.171 57.3784 154.951 57.0311 155.87 56.5324C156.807 56.0373 157.919 55.383 159.204 54.5695L162.563 52.3955L167.719 59.9422L157.629 66.836L158.645 68.3222L154.764 70.9737L153.647 69.3389L155.893 67.8044L150.173 59.4321L147.927 60.9666L146.81 59.3317ZM152.676 59.5866L156.355 64.97L164.809 59.1931L162.102 55.2299L160.152 56.4892C158.864 57.3212 157.745 57.9885 156.797 58.4912C155.859 58.9864 155.057 59.3246 154.389 59.5061C153.722 59.6875 153.151 59.7143 152.676 59.5866Z" fill="#F3D70D"/>
<path d="M159.411 73.4697L172.815 68.7812L176.519 79.372L163.116 84.0605L162.37 81.9272L173.904 77.8925L171.685 71.5494L160.151 75.5841L159.411 73.4697Z" fill="#F3D70D"/>
<path d="M165.02 94.7091C164.943 93.6853 165.073 92.7463 165.411 91.8921C165.748 91.0379 166.233 90.2863 166.866 89.6372C167.513 88.9871 168.249 88.4641 169.076 88.068C169.916 87.6842 170.788 87.4585 171.692 87.3909C172.636 87.3202 173.547 87.4259 174.424 87.7079C175.314 87.989 176.114 88.4104 176.825 88.9723C177.548 89.5332 178.134 90.2114 178.581 91.0069C179.043 91.8147 179.31 92.7039 179.383 93.6746C179.458 94.6851 179.321 95.6179 178.97 96.4731C178.621 97.3416 178.122 98.0943 177.475 98.731C176.828 99.3811 176.091 99.8975 175.264 100.28C174.438 100.676 173.579 100.908 172.689 100.974C171.745 101.045 170.827 100.94 169.937 100.659C169.062 100.39 168.262 99.9752 167.538 99.4143C166.827 98.8525 166.248 98.1671 165.8 97.3583C165.352 96.5628 165.092 95.6797 165.02 94.7091ZM171.862 89.6645C171.198 89.7142 170.561 89.8689 169.952 90.1284C169.343 90.3879 168.807 90.7288 168.344 91.1512C167.895 91.5859 167.552 92.0929 167.314 92.6722C167.077 93.2516 166.984 93.8869 167.036 94.5783C167.089 95.2963 167.283 95.9236 167.618 96.4602C167.952 96.9967 168.379 97.4327 168.899 97.7682C169.433 98.116 170.013 98.3667 170.64 98.5204C171.28 98.6731 171.912 98.7261 172.537 98.6793C173.202 98.6296 173.832 98.4754 174.428 98.2169C175.038 97.9707 175.567 97.6303 176.016 97.1956C176.478 96.7599 176.828 96.2524 177.065 95.673C177.304 95.107 177.398 94.4849 177.347 93.8068C177.293 93.0888 177.099 92.4616 176.765 91.925C176.43 91.3885 176.003 90.9458 175.482 90.597C174.961 90.2482 174.387 89.9904 173.76 89.8234C173.133 89.6697 172.501 89.6167 171.862 89.6645Z" fill="#F3D70D"/>
<path d="M79.7812 108.617L80.3529 108.723L79.8148 111.641C79.7163 112.175 79.6259 112.665 79.4891 113.116L83.2651 109.291L83.9333 109.414L82.9722 114.626L82.4005 114.52L82.9345 111.625C83.0234 111.142 83.1165 110.637 83.2677 110.151L79.4875 113.998L78.8193 113.875L79.7812 108.617Z" fill="#F3D70D"/>
<path d="M88.3696 115.621L87.7682 115.51L88.2228 113.045L85.461 112.536L85.0064 115.001L84.3977 114.889L85.3643 109.647L85.973 109.759L85.5609 111.994L88.3227 112.503L88.7348 110.269L89.3362 110.38L88.3696 115.621Z" fill="#F3D70D"/>
<path d="M92.9308 111.534C92.6782 111.476 92.4159 111.474 92.1627 111.53C91.9096 111.585 91.6719 111.696 91.4668 111.855C91.027 112.232 90.7435 112.76 90.6717 113.336C90.5297 113.899 90.597 114.495 90.8613 115.013C90.9973 115.237 91.1821 115.426 91.402 115.568C91.6219 115.71 91.8711 115.799 92.1307 115.831C92.5507 115.896 92.9776 115.905 93.4001 115.858L93.3015 116.392C92.8422 116.463 92.3738 116.45 91.9194 116.352C91.5821 116.306 91.2592 116.186 90.9736 116C90.6881 115.815 90.4468 115.569 90.2671 115.28C89.9464 114.64 89.8691 113.906 90.0495 113.213C90.1308 112.722 90.3245 112.256 90.6153 111.851C90.8795 111.494 91.2448 111.225 91.6639 111.077C92.1161 110.923 92.6016 110.893 93.0693 110.991C93.5682 111.073 94.0418 111.268 94.4534 111.561L94.0977 112.033C93.7604 111.785 93.3718 111.616 92.9605 111.539" fill="#F3D70D"/>
<path d="M96.2318 117.071L95.6231 116.958L96.4883 112.266L94.8328 111.961L94.9341 111.412L98.8614 112.136L98.7601 112.685L97.0971 112.379L96.2318 117.071Z" fill="#F3D70D"/>
<path d="M99.6558 112.283L100.227 112.388L99.6894 115.306C99.5908 115.84 99.5004 116.33 99.3636 116.781L103.14 112.956L103.808 113.079L102.847 118.291L102.275 118.185L102.809 115.29C102.898 114.807 102.991 114.303 103.142 113.816L99.362 117.664L98.6939 117.54L99.6558 112.283Z" fill="#F3D70D"/>
<path d="M106.254 118.919L105.646 118.807L106.511 114.115L104.848 113.808L104.949 113.259L108.877 113.983L108.775 114.532L107.12 114.227L106.254 118.919Z" fill="#F3D70D"/>
<path d="M109.381 119.573C109.143 119.533 108.913 119.452 108.704 119.333L108.813 118.739C109.005 118.879 109.226 118.975 109.46 119.019C109.682 119.072 109.915 119.05 110.124 118.957C110.367 118.808 110.573 118.604 110.725 118.362L109.411 114.082L110.079 114.205L111.083 117.461C111.119 117.583 111.142 117.708 111.152 117.834C111.256 117.646 111.332 117.53 111.363 117.482L113.195 114.749L113.841 114.868L111.486 118.272C111.278 118.591 111.036 118.886 110.764 119.152C110.584 119.313 110.367 119.429 110.133 119.489C109.881 119.551 109.618 119.555 109.364 119.5" fill="#F3D70D"/>
<path d="M115.601 120.643L114.992 120.531L115.858 115.838L114.195 115.532L114.296 114.982L118.223 115.707L118.122 116.256L116.466 115.951L115.601 120.643Z" fill="#F3D70D"/>
<path d="M52.3946 118.091L51.4773 113.116C51.4459 113.494 51.38 113.935 51.2869 114.44L50.6722 117.773L50.0782 117.664L51.0366 112.467L51.9498 112.635L52.8173 117.256L55.2906 113.252L56.2335 113.425L55.2751 118.622L54.6515 118.507L55.2744 115.129C55.3456 114.743 55.4223 114.328 55.5578 113.884L52.8846 118.181L52.3946 118.091Z" fill="#F3D70D"/>
<path d="M59.8411 119.464L56.9235 118.926L57.8887 113.692L60.8063 114.23L60.7078 114.765L58.3989 114.339L58.0867 116.032L60.2546 116.432L60.156 116.966L57.9881 116.566L57.6322 118.497L59.9411 118.922L59.8411 119.464Z" fill="#F3D70D"/>
<path d="M63.1366 117.285L61.5484 114.367L62.224 114.492L63.7987 117.4L64.2656 114.868L64.8521 114.976L64.3852 117.508L66.8937 115.353L67.5767 115.479L65.046 117.63L66.6783 120.725L65.973 120.595L64.377 117.553L63.8869 120.21L63.3004 120.102L63.7905 117.444L61.2216 119.719L60.5089 119.588L63.1366 117.285Z" fill="#F3D70D"/>
<path d="M70.762 120.895L71.5232 116.767L70.1646 116.516C69.9648 117.212 69.6915 117.885 69.3493 118.523C69.0067 119.194 68.5917 119.825 68.1116 120.406L70.762 120.895ZM71.7473 122.712L71.1683 122.605L71.3558 121.588L67.5398 120.884L67.3495 121.916L66.7704 121.809L67.0648 120.213L67.4731 120.288C68.5346 118.992 69.3006 117.481 69.7179 115.858L72.2347 116.322L71.3708 121.007L72.039 121.13L71.7473 122.712Z" fill="#F3D70D"/>
<path d="M74.0063 116.665L74.5706 116.769L74.0339 119.679C73.9353 120.213 73.8463 120.696 73.7155 121.155L77.4902 117.338L78.1584 117.461L77.2 122.658L76.6283 122.552L77.1596 119.672C77.2472 119.197 77.3403 118.692 77.4928 118.198L73.7126 122.045L73.0519 121.924L74.0063 116.665Z" fill="#F3D70D"/>
<path d="M81.969 118.609C81.7146 118.551 81.4505 118.55 81.1958 118.607C80.941 118.663 80.7021 118.776 80.4962 118.936C80.0914 119.343 79.8192 119.863 79.7151 120.427C79.611 120.992 79.68 121.574 79.913 122.099C80.0481 122.323 80.2327 122.513 80.4528 122.655C80.6728 122.797 80.9224 122.886 81.1824 122.916C81.6071 122.985 82.0392 122.995 82.4666 122.946L82.368 123.48C81.9085 123.548 81.4407 123.535 80.9859 123.44C80.649 123.397 80.3262 123.278 80.0414 123.092C79.7567 122.907 79.5173 122.66 79.341 122.369C78.9914 121.723 78.8976 120.969 79.0783 120.256C79.1561 119.764 79.3501 119.297 79.6442 118.894C79.9106 118.536 80.2785 118.267 80.7002 118.122C81.1533 117.973 81.6373 117.946 82.1042 118.043C82.6033 118.123 83.0771 118.319 83.4883 118.613L83.14 119.086C82.8032 118.837 82.4152 118.666 82.0042 118.585" fill="#F3D70D"/>
<path d="M87.7009 124.034L88.3171 124.147L88.0255 125.729L87.4464 125.622L87.6367 124.59L83.6871 123.862L84.6523 118.628L85.2685 118.741L84.4046 123.426L87.0922 123.922L87.9561 119.237L88.5649 119.349L87.7009 124.034Z" fill="#F3D70D"/>
<path d="M90.287 119.667L90.8587 119.772L90.322 122.683C90.2234 123.217 90.1344 123.7 89.9962 124.158L93.7709 120.34L94.4316 120.462L93.4732 125.659L92.9016 125.553L93.4328 122.673C93.5204 122.198 93.6135 121.693 93.7734 121.2L93.7363 121.193L89.9562 125.041L89.288 124.918L90.287 119.667Z" fill="#F3D70D"/>
<path d="M99.0326 126.692L98.4313 126.581L99.2979 121.882L96.603 121.385L95.7363 126.084L95.1276 125.972L96.0928 120.738L99.9979 121.458L99.0326 126.692Z" fill="#F3D70D"/>
<path d="M104.423 127.686L103.814 127.573L104.681 122.874L102.973 122.559L102.71 123.401C102.351 124.517 102.07 125.333 101.861 125.839C101.73 126.226 101.51 126.577 101.219 126.865C101.108 126.951 100.978 127.012 100.84 127.041C100.701 127.07 100.558 127.067 100.421 127.032C100.258 127.005 100.102 126.945 99.9622 126.855L100.057 126.343C100.173 126.427 100.307 126.483 100.449 126.507C100.51 126.519 100.574 126.516 100.635 126.501C100.696 126.486 100.753 126.458 100.803 126.419C100.954 126.281 101.074 126.112 101.155 125.924C101.363 125.456 101.546 124.977 101.704 124.49C101.952 123.768 102.237 122.93 102.556 121.906L105.377 122.427L104.423 127.686Z" fill="#F3D70D"/>
<path d="M107.051 122.759L107.623 122.864L107.086 125.774C106.987 126.309 106.898 126.791 106.76 127.249L110.535 123.432L111.173 123.549L110.215 128.746L109.636 128.64L110.167 125.759C110.255 125.284 110.348 124.779 110.508 124.286L106.728 128.134L106.059 128.011L107.051 122.759Z" fill="#F3D70D"/>
<path d="M115.871 129.797L115.262 129.685L115.716 127.22L112.955 126.711L112.5 129.175L111.891 129.063L112.856 123.829L113.465 123.941L113.054 126.169L115.816 126.678L116.227 124.451L116.836 124.563L115.871 129.797Z" fill="#F3D70D"/>
<path d="M120.384 128.342L120.075 126.603C120.026 126.343 119.99 126.08 119.967 125.816C119.86 126.056 119.74 126.29 119.607 126.517L118.691 128.029L120.384 128.342ZM120.812 130.723L120.466 128.94L118.372 128.554L117.419 130.098L116.803 129.984L119.845 125.102L120.358 125.197L121.443 130.84L120.812 130.723Z" fill="#F3D70D"/>
<path d="M123.474 128.528L124.053 128.634C124.456 128.739 124.88 128.724 125.274 128.591C125.409 128.507 125.521 128.393 125.603 128.257C125.684 128.121 125.731 127.967 125.741 127.809C125.774 127.669 125.773 127.522 125.737 127.382C125.701 127.241 125.632 127.112 125.536 127.004C125.255 126.748 124.9 126.589 124.522 126.548L123.847 126.424L123.474 128.528ZM126.392 127.899C126.361 128.133 126.275 128.357 126.142 128.553C126.009 128.748 125.831 128.91 125.624 129.024C125.111 129.249 124.538 129.297 123.994 129.161L123.378 129.047L122.998 131.111L122.389 130.999L123.347 125.802L124.706 126.053C126.012 126.294 126.573 126.919 126.392 127.899Z" fill="#F3D70D"/>
<path d="M131.001 132.587L130.392 132.475L130.847 130.01L128.092 129.502L127.638 131.967L127.022 131.853L127.987 126.619L128.603 126.733L128.192 128.96L130.947 129.468L131.357 127.241L131.966 127.353L131.001 132.587Z" fill="#F3D70D"/>
<path d="M133.512 130.333C133.364 130.898 133.419 131.498 133.668 132.027C133.807 132.233 133.986 132.41 134.194 132.546C134.403 132.683 134.636 132.776 134.881 132.821C135.125 132.866 135.376 132.862 135.62 132.809C135.863 132.756 136.093 132.655 136.296 132.512C136.676 132.078 136.931 131.549 137.036 130.982C137.14 130.415 137.09 129.831 136.891 129.29C136.749 129.085 136.569 128.91 136.36 128.774C136.152 128.639 135.918 128.546 135.673 128.501C135.429 128.456 135.177 128.459 134.934 128.511C134.691 128.563 134.46 128.663 134.255 128.804C133.837 129.205 133.572 129.74 133.508 130.316L133.512 130.333ZM137.68 131.086C137.593 131.809 137.234 132.473 136.677 132.943C136.411 133.15 136.102 133.294 135.773 133.367C135.443 133.439 135.102 133.436 134.774 133.36C134.437 133.316 134.114 133.197 133.829 133.011C133.544 132.826 133.305 132.579 133.129 132.289C132.825 131.631 132.733 130.895 132.865 130.183C132.996 129.47 133.345 128.816 133.863 128.309C134.136 128.111 134.449 127.975 134.781 127.91C135.112 127.845 135.454 127.853 135.782 127.934C136.116 127.979 136.436 128.099 136.718 128.284C137 128.469 137.237 128.714 137.412 129.002C137.759 129.641 137.854 130.387 137.679 131.093" fill="#F3D70D"/>
<path d="M141.814 128.732C141.467 128.694 141.141 128.542 140.888 128.3C140.71 128.033 140.644 127.706 140.703 127.391L141.267 127.495C141.227 127.686 141.262 127.884 141.364 128.05C141.508 128.195 141.698 128.284 141.901 128.303C142.096 128.353 142.302 128.331 142.481 128.241C142.639 128.131 142.75 127.964 142.789 127.775L143.383 127.885C143.354 128.041 143.293 128.19 143.204 128.321C143.115 128.453 143 128.564 142.866 128.649C142.546 128.797 142.185 128.828 141.844 128.737L141.814 128.732ZM139.591 128.759L140.133 128.859L139.596 131.77C139.498 132.304 139.409 132.787 139.27 133.245L143.045 129.427L143.706 129.549L142.747 134.746L142.176 134.64L142.707 131.76C142.795 131.285 142.888 130.78 143.04 130.286L139.26 134.133L138.592 134.01L139.591 128.759Z" fill="#F3D70D"/>
<path d="M74.8322 131.333L73.9149 126.359C73.8762 126.735 73.8103 127.176 73.7172 127.681L73.1024 131.014L72.5456 130.912L73.5122 125.67L74.4254 125.839L75.2916 130.466L77.7662 126.455L78.672 126.622L77.7054 131.863L77.0966 131.751L77.7195 128.373C77.7907 127.987 77.8688 127.564 78.0043 127.12L75.3594 131.43L74.8322 131.333Z" fill="#F3D70D"/>
<path d="M82.3233 132.715L79.3982 132.176L80.3647 126.934L83.2898 127.474L83.1899 128.015L80.8736 127.588L80.5628 129.274L82.7381 129.675L82.6381 130.217L80.4628 129.816L80.1082 131.738L82.4246 132.166L82.3233 132.715Z" fill="#F3D70D"/>
<path d="M86.8729 132.978L87.6354 128.843L86.2768 128.592C86.0768 129.289 85.8009 129.961 85.4541 130.598C85.1091 131.274 84.6857 131.907 84.1927 132.484L86.8729 132.978ZM87.8582 134.795L87.2717 134.687L87.4606 133.662L83.652 132.96L83.4631 133.984L82.884 133.878L83.1756 132.296L83.584 132.371C84.1175 131.745 84.5721 131.055 84.9376 130.318C85.3254 129.564 85.615 128.764 85.7991 127.936L88.3233 128.402L87.4594 133.086L88.1275 133.209L87.8582 134.795Z" fill="#F3D70D"/>
<path d="M90.1572 128.74L90.7289 128.845L90.1908 131.763C90.0922 132.297 90.0033 132.78 89.865 133.238L93.6411 129.413L94.3093 129.536L93.3427 134.777L92.771 134.672L93.3091 131.754C93.3981 131.272 93.4898 130.774 93.6423 130.28L89.8621 134.128L89.194 134.005L90.1572 128.74Z" fill="#F3D70D"/>
<path d="M99.0559 135.225L99.6721 135.338L99.3805 136.92L98.8014 136.813L98.9904 135.788L95.0407 135.06L96.0073 129.819L96.6161 129.931L95.7522 134.615L98.4471 135.112L99.3111 130.428L99.9198 130.54L99.0559 135.225Z" fill="#F3D70D"/>
<path d="M101.687 130.866L102.258 130.971L101.72 133.889C101.622 134.424 101.533 134.906 101.394 135.364L105.17 131.539L105.839 131.662L104.872 136.904L104.3 136.798L104.838 133.881C104.927 133.398 105.019 132.901 105.172 132.407L101.391 136.254L100.723 136.131L101.687 130.866Z" fill="#F3D70D"/>
<path d="M110.542 137.919L109.933 137.806L110.388 135.342L107.633 134.834L107.179 137.299L106.57 137.186L107.537 131.945L108.145 132.057L107.735 134.284L110.489 134.792L110.9 132.565L111.509 132.677L110.542 137.919Z" fill="#F3D70D"/>
<path d="M117.061 139.121L116.452 139.008L117.418 133.767L118.027 133.879L117.061 139.121ZM112.947 137.825L113.838 137.989C114.171 138.075 114.523 138.045 114.836 137.904C114.957 137.831 115.06 137.731 115.136 137.612C115.213 137.493 115.261 137.359 115.277 137.218C115.319 137.08 115.324 136.934 115.292 136.793C115.26 136.653 115.192 136.523 115.095 136.417C114.806 136.191 114.46 136.05 114.095 136.01L113.308 135.865L112.947 137.825ZM112.242 138.232L113.209 132.991L113.818 133.103L113.407 135.33L114.268 135.489C114.777 135.55 115.252 135.772 115.625 136.123C115.766 136.284 115.866 136.478 115.916 136.686C115.966 136.895 115.964 137.112 115.911 137.32C115.884 137.533 115.81 137.739 115.694 137.92C115.579 138.102 115.424 138.256 115.241 138.371C114.796 138.585 114.289 138.635 113.81 138.514L112.242 138.232Z" fill="#F3D70D"/>
<path d="M104.654 81.5006C103.539 79.9296 102.748 78.1527 102.325 76.2731C101.903 74.3935 101.859 72.4487 102.195 70.5518C102.559 68.6624 103.294 66.8641 104.359 65.2611C105.423 63.6581 106.795 62.2824 108.395 61.2137C109.512 62.7815 110.304 64.556 110.727 66.4337C111.15 68.3113 111.194 70.2543 110.857 72.1492C110.497 74.0422 109.763 75.8444 108.698 77.4501C107.633 79.0559 106.258 80.4329 104.654 81.5006ZM109.321 60.5877C109.121 60.2768 108.906 59.9758 108.677 59.6859C108.354 59.8736 108.028 60.0746 107.714 60.2913C105.999 61.4467 104.53 62.93 103.392 64.6556C102.253 66.3813 101.467 68.3152 101.079 70.346C100.716 72.3835 100.759 74.4728 101.207 76.4934C101.655 78.5141 102.498 80.4261 103.688 82.1193C103.907 82.4207 104.137 82.7378 104.372 83.0284C104.695 82.8407 105.037 82.6289 105.336 82.4231C107.053 81.2668 108.525 79.7821 109.666 78.0547C110.808 76.3272 111.596 74.3909 111.986 72.3575C112.341 70.3169 112.288 68.2262 111.831 66.206C111.374 64.1859 110.521 62.2764 109.321 60.5877Z" fill="#F3D70D"/>
<path d="M100.636 103.288C99.5081 101.725 98.7088 99.9496 98.2859 98.069C97.8629 96.1885 97.8251 94.2417 98.1747 92.3462C98.5242 90.4506 99.254 88.6455 100.32 87.0395C101.386 85.4335 102.766 84.0599 104.377 83.0015C105.504 84.5649 106.303 86.3404 106.726 88.2209C107.149 90.1015 107.187 92.0482 106.838 93.9437C106.488 95.8393 105.758 97.6445 104.692 99.2505C103.627 100.856 102.247 102.23 100.636 103.288ZM105.295 82.4154C105.083 82.101 104.854 81.7976 104.611 81.5062C104.288 81.6939 103.963 81.8949 103.648 82.1116C101.924 83.2565 100.448 84.7367 99.3072 86.464C98.1669 88.1913 97.3859 90.1304 97.0105 92.1658C96.6351 94.2013 96.6732 96.2914 97.1223 98.3118C97.5715 100.332 98.4226 102.242 99.625 103.926C99.8417 104.241 100.074 104.545 100.307 104.849C100.632 104.648 100.971 104.449 101.272 104.23C103 103.088 104.479 101.609 105.621 99.8815C106.764 98.1543 107.546 96.2145 107.921 94.178C108.297 92.1415 108.258 90.0502 107.807 88.0291C107.356 86.008 106.501 84.0987 105.295 82.4154Z" fill="#F3D70D"/>
<path d="M103.768 82.1337C102.204 83.2611 100.429 84.0604 98.5483 84.4834C96.6678 84.9063 94.721 84.9441 92.8255 84.5945C90.9299 84.245 89.1248 83.5153 87.5188 82.4494C85.9128 81.3835 84.5392 80.0035 83.4808 78.3925C85.0429 77.2613 86.8182 76.4589 88.6995 76.0338C90.5807 75.6088 92.5286 75.57 94.4252 75.9197C96.3219 76.2695 98.1278 77.0006 99.7337 78.0687C101.34 79.1368 102.712 80.5197 103.768 82.1337ZM82.8671 77.4001C82.5656 77.6193 82.2485 77.8493 81.9555 78.0975C82.1431 78.4205 82.3598 78.7353 82.5633 79.0475C83.7057 80.7747 85.1847 82.2538 86.9119 83.3962C88.6391 84.5387 90.5789 85.3211 92.6154 85.6966C94.6519 86.0722 96.7432 86.0332 98.7642 85.5819C100.785 85.1307 102.695 84.2765 104.378 83.0704C104.693 82.8537 104.994 82.6346 105.298 82.4021C105.099 82.0633 104.898 81.7378 104.682 81.4231C103.537 79.6989 102.057 78.2227 100.329 77.0824C98.602 75.9421 96.6629 75.161 94.6275 74.7856C92.5921 74.4103 90.502 74.4483 88.4815 74.8975C86.4611 75.3466 84.5517 76.1977 82.8671 77.4001Z" fill="#F3D70D"/>
<path d="M125.556 86.1517C123.993 87.2733 122.22 88.0678 120.342 88.4877C118.465 88.9076 116.522 88.9442 114.631 88.5953C112.739 88.2464 110.937 87.5193 109.333 86.4574C107.729 85.3955 106.356 84.0207 105.296 82.4155C106.859 81.2841 108.635 80.4816 110.518 80.0566C112.4 79.6317 114.349 79.593 116.247 79.9429C118.145 80.2929 119.952 81.0242 121.558 82.0927C123.165 83.1612 124.539 84.5445 125.596 86.1591L125.556 86.1517ZM104.655 81.4182C104.341 81.6349 104.037 81.8674 103.73 82.1131C103.931 82.4386 104.135 82.7509 104.351 83.0656C105.494 84.7928 106.973 86.2718 108.7 87.4143C110.427 88.5567 112.367 89.3391 114.404 89.7147C116.44 90.0903 118.531 90.0513 120.552 89.6C122.573 89.1488 124.483 88.2946 126.166 87.0885C126.481 86.8718 126.782 86.6527 127.086 86.4202C126.888 86.0814 126.687 85.7558 126.47 85.4411C125.325 83.7169 123.845 82.2407 122.117 81.1004C120.39 79.9601 118.451 79.1791 116.416 78.8037C114.38 78.4284 112.29 78.4664 110.27 78.9155C108.249 79.3647 106.34 80.2158 104.655 81.4182Z" fill="#F3D70D"/>
<path d="M104.068 81.6256C102.172 81.3 100.359 80.603 98.7335 79.5748C97.1079 78.5465 95.7014 77.2073 94.5949 75.6339C93.515 74.0387 92.763 72.2447 92.3825 70.3563C92.0021 68.4679 92.0007 66.5227 92.3786 64.6338C94.2814 64.9415 96.1021 65.6316 97.7308 66.6624C99.3595 67.6932 100.762 69.0434 101.855 70.6314C102.947 72.2194 103.707 74.0124 104.087 75.902C104.467 77.7916 104.461 79.7386 104.068 81.6256ZM92.64 63.5143C92.268 63.4457 91.8828 63.3747 91.5108 63.3061C91.4397 63.6913 91.3711 64.0633 91.3025 64.4353C90.9064 66.4649 90.9155 68.5528 91.3293 70.5788C91.7431 72.6048 92.5534 74.529 93.7137 76.2407C94.8908 77.942 96.394 79.3926 98.136 80.5086C99.878 81.6245 101.824 82.3835 103.862 82.7416L104.991 82.9499C105.06 82.5779 105.131 82.1926 105.199 81.8206C105.613 79.7909 105.613 77.6988 105.201 75.6688C104.789 73.6388 103.973 71.7125 102.801 70.0045C101.629 68.2964 100.126 66.8416 98.3803 65.7266C96.6346 64.6117 94.6825 63.8593 92.64 63.5143Z" fill="#F3D70D"/>
<path d="M116.652 99.8682C114.748 99.5621 112.926 98.8731 111.295 97.8428C109.665 96.8125 108.26 95.4623 107.167 93.8738C106.073 92.2854 105.312 90.4916 104.931 88.6009C104.55 86.7103 104.557 84.762 104.95 82.8739C106.852 83.1853 108.671 83.8777 110.298 84.9096C111.926 85.9414 113.328 87.2913 114.421 88.8785C115.514 90.4656 116.275 92.2571 116.658 94.1456C117.042 96.034 117.04 97.9805 116.652 99.8682ZM105.196 81.7653L104.067 81.557C103.998 81.929 103.929 82.301 103.861 82.673C103.454 84.6999 103.457 86.7878 103.872 88.8132C104.286 90.8386 105.103 92.7603 106.273 94.4646C107.443 96.1688 108.943 97.6209 110.685 98.7349C112.426 99.8489 114.374 100.602 116.412 100.95L117.528 101.156C117.599 100.771 117.667 100.399 117.736 100.027C118.146 98.0013 118.146 95.914 117.733 93.8889C117.321 91.8638 116.506 89.9423 115.336 88.2386C114.166 86.535 112.665 85.084 110.923 83.9719C109.181 82.8598 107.234 82.1094 105.196 81.7653Z" fill="#F3D70D"/>
<path d="M103.874 82.6753C103.568 84.5783 102.879 86.3996 101.85 88.0293C100.821 89.6589 99.472 91.0631 97.8849 92.157C96.2979 93.2509 94.5057 94.0118 92.6165 94.3939C90.7272 94.776 88.7801 94.7712 86.8928 94.38C87.2005 92.4778 87.89 90.6575 88.9199 89.0289C89.9497 87.4002 91.2985 85.9968 92.8851 84.9032C94.4716 83.8096 96.2631 83.0485 98.1516 82.6656C100.04 82.2827 101.987 82.286 103.874 82.6753ZM85.7842 94.1343C85.7156 94.5063 85.647 94.8783 85.5759 95.2636L86.7052 95.4718C88.7338 95.8848 90.8247 95.8857 92.8536 95.4743C94.8825 95.063 96.808 94.2479 98.5156 93.0775C100.223 91.907 101.678 90.4052 102.793 88.6612C103.909 86.9173 104.662 84.9668 105.009 82.9258C105.078 82.5538 105.146 82.1818 105.215 81.8098L104.086 81.6016C102.058 81.185 99.9668 81.1811 97.9375 81.5901C95.9082 81.9992 93.9821 82.8128 92.2741 83.9824C90.566 85.1521 89.1111 86.6538 87.9961 88.398C86.8811 90.1422 86.1288 92.0931 85.7842 94.1343Z" fill="#F3D70D"/>
<path d="M122.137 70.1222C121.814 72.022 121.116 73.8387 120.085 75.4667C119.054 77.0947 117.709 78.5016 116.13 79.6058C114.535 80.6809 112.743 81.4304 110.858 81.8111C108.972 82.1919 107.03 82.1964 105.143 81.8245C105.449 79.9202 106.138 78.0979 107.169 76.4675C108.199 74.8371 109.549 73.4325 111.137 72.3387C112.726 71.2449 114.52 70.4845 116.41 70.1035C118.301 69.7226 120.249 69.7289 122.137 70.1222ZM104.077 81.5729C104.008 81.9449 103.937 82.3301 103.869 82.7021L104.998 82.9104C107.027 83.311 109.116 83.3042 111.143 82.8903C113.169 82.4763 115.093 81.6636 116.803 80.4992C118.5 79.3162 119.945 77.8082 121.054 76.0627C122.164 74.3171 122.916 72.3688 123.267 70.3304C123.335 69.9585 123.404 69.5865 123.475 69.2012L122.359 68.9954C120.33 68.5878 118.239 68.592 116.212 69.0076C114.185 69.4233 112.261 70.2419 110.556 71.4149C108.851 72.588 107.399 74.0916 106.286 75.8365C105.173 77.5814 104.422 79.5321 104.077 81.5729Z" fill="#F3D70D"/>
</svg>
