<svg width="164" height="31" viewBox="0 0 164 31" fill="none" xmlns="http://www.w3.org/2000/svg">
<path d="M15.5053 14.9712C14.5722 14.0673 13.8286 12.9865 13.3181 11.7921C12.8076 10.5976 12.5404 9.31335 12.5321 8.01444C12.5402 6.71414 12.8073 5.42849 13.3178 4.2325C13.8283 3.0365 14.5719 1.95413 15.5053 1.04853C16.4371 1.95537 17.1797 3.03799 17.69 4.2337C18.2004 5.42941 18.4684 6.71446 18.4786 8.01444C18.4682 9.31303 18.2001 10.5967 17.6897 11.7909C17.1793 12.9851 16.4368 14.0661 15.5053 14.9712ZM16.0617 0.519707C15.8793 0.337354 15.6877 0.164118 15.5053 0C15.3047 0.164118 15.1223 0.337354 14.9307 0.519707C13.9348 1.49904 13.1419 2.66509 12.5973 3.95113C12.0527 5.23716 11.7671 6.61794 11.7568 8.01444C11.7775 10.8304 12.9158 13.5229 14.9216 15.5C15.1131 15.6733 15.2956 15.8556 15.4962 16.0198C15.6877 15.8556 15.8793 15.6733 16.0617 15.5C17.0585 14.5233 17.8521 13.359 18.3969 12.0743C18.9416 10.7896 19.2266 9.40979 19.2356 8.01444C19.2273 6.61763 18.9427 5.23626 18.3979 3.94995C17.8532 2.66364 17.0592 1.49783 16.0617 0.519707Z" fill="#3E3921"/>
<path d="M15.5047 29.9241C14.5648 29.0245 13.8167 27.9439 13.3057 26.7475C12.7947 25.5511 12.5312 24.2637 12.5312 22.9627C12.5312 21.6618 12.7947 20.3744 13.3057 19.178C13.8167 17.9816 14.5648 16.901 15.5047 16.0014C16.4447 16.901 17.1927 17.9816 17.7038 19.178C18.2148 20.3744 18.4783 21.6618 18.4783 22.9627C18.4783 24.2637 18.2148 25.5511 17.7038 26.7475C17.1927 27.9439 16.4447 29.0245 15.5047 29.9241ZM16.0611 15.4999C15.8787 15.3176 15.6871 15.1443 15.4956 14.9802C15.295 15.1443 15.1126 15.3176 14.921 15.4999C13.9165 16.4709 13.1176 17.634 12.5721 18.92C12.0265 20.206 11.7453 21.5887 11.7453 22.9855C11.7453 24.3824 12.0265 25.765 12.5721 27.0511C13.1176 28.3371 13.9165 29.5002 14.921 30.4712C15.1126 30.6626 15.295 30.8267 15.4956 31C15.6871 30.8267 15.8787 30.6626 16.0611 30.4712C17.0656 29.5002 17.8645 28.3371 18.4101 27.0511C18.9556 25.765 19.2368 24.3824 19.2368 22.9855C19.2368 21.5887 18.9556 20.206 18.4101 18.92C17.8645 17.634 17.0656 16.4709 16.0611 15.4999Z" fill="#3E3921"/>
<path d="M14.9849 15.5001C14.0778 16.4316 12.9948 17.174 11.7988 17.6842C10.6027 18.1944 9.31726 18.4623 8.01689 18.4725C6.71651 18.4623 5.43108 18.1944 4.235 17.6842C3.03893 17.174 1.95598 16.4316 1.04887 15.5001C1.95429 14.5658 3.03671 13.8209 4.23303 13.309C5.42935 12.7972 6.71563 12.5285 8.01689 12.5187C9.31814 12.5285 10.6044 12.7972 11.8007 13.309C12.9971 13.8209 14.0795 14.5658 14.9849 15.5001ZM0.529001 14.9257C0.346592 15.099 0.173304 15.2904 1.52588e-05 15.491C0.173304 15.6825 0.346592 15.8648 0.529001 16.0472C1.50405 17.047 2.66809 17.8431 3.95353 18.3894C5.23896 18.9357 6.62016 19.2211 8.01689 19.2293C9.41354 19.2206 10.7946 18.9349 12.0799 18.3887C13.3653 17.8425 14.5294 17.0466 15.5048 16.0472C15.6872 15.8648 15.8605 15.6825 16.0338 15.491C15.8605 15.2904 15.6872 15.099 15.5048 14.9257C14.5294 13.9263 13.3653 13.1304 12.0799 12.5842C10.7946 12.038 9.41354 11.7523 8.01689 11.7437C6.62016 11.7518 5.23896 12.0372 3.95353 12.5835C2.66809 13.1298 1.50405 13.9259 0.529001 14.9257Z" fill="#3E3921"/>
<path d="M29.9331 15.5001C29.0332 16.4398 27.9523 17.1876 26.7555 17.6985C25.5588 18.2094 24.2709 18.4728 22.9696 18.4728C21.6683 18.4728 20.3805 18.2094 19.1837 17.6985C17.987 17.1876 16.9061 16.4398 16.0062 15.5001C16.9047 14.5581 17.9852 13.8082 19.1821 13.2959C20.3791 12.7835 21.6676 12.5193 22.9696 12.5193C24.2717 12.5193 25.5602 12.7835 26.7571 13.2959C27.9541 13.8082 29.0345 14.5581 29.9331 15.5001ZM15.5045 14.9257C15.3167 15.103 15.14 15.2918 14.9756 15.491C15.1397 15.6825 15.3221 15.8648 15.5045 16.0472C16.4737 17.0535 17.636 17.8539 18.9218 18.4007C20.2076 18.9474 21.5906 19.2293 22.9879 19.2293C24.3852 19.2293 25.7681 18.9474 27.0539 18.4007C28.3398 17.8539 29.502 17.0535 30.4712 16.0472C30.6627 15.8648 30.8269 15.6825 31.0002 15.491C30.8357 15.2918 30.659 15.103 30.4712 14.9257C29.502 13.9194 28.3398 13.119 27.0539 12.5722C25.7681 12.0255 24.3852 11.7437 22.9879 11.7437C21.5906 11.7437 20.2076 12.0255 18.9218 12.5722C17.636 13.119 16.4737 13.9194 15.5045 14.9257Z" fill="#3E3921"/>
<path d="M15.1306 15.1264C13.8316 15.1464 12.5416 14.9075 11.3359 14.4238C10.1301 13.9401 9.03281 13.2212 8.1079 12.3091C7.19193 11.3847 6.46997 10.2867 5.98444 9.07952C5.49891 7.87233 5.2596 6.58031 5.28057 5.27935C6.57968 5.25892 7.86983 5.49755 9.07564 5.98129C10.2814 6.46503 11.3787 7.18418 12.3033 8.09672C13.218 9.02197 13.9392 10.1202 14.4246 11.3271C14.9101 12.5341 15.1501 13.8257 15.1306 15.1264ZM5.30793 4.50435L4.56005 4.55906C4.56005 4.82347 4.56005 5.07877 4.56005 5.33406C4.54171 6.72413 4.80176 8.10382 5.32488 9.39189C5.848 10.68 6.62363 11.8504 7.60609 12.8343C8.58855 13.8181 9.75799 14.5955 11.0455 15.1207C12.3331 15.6459 13.7128 15.9083 15.1033 15.8923C15.3587 15.8923 15.614 15.8923 15.8694 15.8923C15.8694 15.637 15.8694 15.3817 15.8694 15.1173C15.8857 13.7229 15.6249 12.3391 15.1019 11.0463C14.579 9.75343 13.8044 8.57729 12.8232 7.58613C11.8366 6.60118 10.6643 5.82165 9.37435 5.29266C8.08435 4.76367 6.70221 4.49573 5.30793 4.50435Z" fill="#3E3921"/>
<path d="M25.7013 25.6935C24.4002 25.7208 23.1071 25.4848 21.8997 24.9996C20.6923 24.5144 19.5955 23.7901 18.6753 22.8702C17.7551 21.9503 17.0306 20.8539 16.5453 19.6468C16.0599 18.4397 15.8238 17.147 15.8512 15.8464C17.1522 15.819 18.4453 16.0551 19.6528 16.5403C20.8602 17.0254 21.957 17.7498 22.8771 18.6697C23.7973 19.5895 24.5219 20.686 25.0072 21.8931C25.4925 23.1001 25.7286 24.3928 25.7013 25.6935ZM15.8877 15.0805C15.6232 15.0805 15.3678 15.0805 15.1124 15.0805C15.1124 15.3358 15.1124 15.5911 15.1124 15.8464C15.0866 17.2417 15.3418 18.628 15.863 19.9227C16.3841 21.2174 17.1605 22.394 18.1459 23.3826C19.1314 24.3711 20.3057 25.1513 21.599 25.6768C22.8922 26.2022 24.2781 26.4622 25.6739 26.4411H26.4491C26.4491 26.1767 26.4491 25.9214 26.4491 25.6661C26.4712 24.2722 26.2133 22.8881 25.6907 21.5956C25.1681 20.3031 24.3915 19.1286 23.4067 18.1415C22.4219 17.1545 21.249 16.375 19.9575 15.8492C18.666 15.3234 17.282 15.062 15.8877 15.0805Z" fill="#3E3921"/>
<path d="M15.1306 15.8465C15.15 17.1473 14.91 18.4389 14.4246 19.6458C13.9391 20.8528 13.218 21.951 12.3032 22.8763C11.3786 23.7888 10.2814 24.508 9.07558 24.9917C7.86977 25.4754 6.57962 25.7141 5.2805 25.6936C5.25444 24.3933 5.49142 23.1012 5.97721 21.8947C6.46299 20.6882 7.18758 19.5923 8.10749 18.6727C9.0274 17.753 10.1237 17.0287 11.3305 16.543C12.5374 16.0574 13.8299 15.8205 15.1306 15.8465ZM4.50527 25.6663C4.50527 25.9216 4.50527 26.1769 4.50527 26.4413H5.2805C6.67661 26.4568 8.06197 26.1957 9.35657 25.673C10.6512 25.1503 11.8294 24.3764 12.8231 23.396C13.8053 22.4017 14.5804 21.2225 15.1033 19.9266C15.6262 18.6306 15.8866 17.2438 15.8693 15.8465C15.8693 15.5912 15.8693 15.336 15.8693 15.0807H15.0941C13.6974 15.0585 12.3106 15.3172 11.0158 15.8413C9.72113 16.3654 8.54498 17.1443 7.55727 18.1317C6.56955 19.1191 5.79041 20.2949 5.26612 21.5893C4.74183 22.8836 4.48309 24.27 4.50527 25.6663Z" fill="#3E3921"/>
<path d="M25.7013 5.27923C25.7214 6.57927 25.4826 7.87032 24.9987 9.07719C24.5149 10.2841 23.7957 11.3826 22.883 12.309C21.9559 13.2205 20.8568 13.939 19.6497 14.4226C18.4426 14.9062 17.1515 15.1454 15.8512 15.1263C15.8238 13.8257 16.0599 12.533 16.5453 11.3259C17.0306 10.1188 17.7551 9.02239 18.6753 8.10249C19.5955 7.1826 20.6923 6.45828 21.8997 5.9731C23.1071 5.48791 24.4002 5.25189 25.7013 5.27923ZM15.0851 15.0898C15.0851 15.3543 15.0851 15.6096 15.0851 15.8649C15.3404 15.8649 15.5958 15.8649 15.8603 15.8649C17.2566 15.8814 18.6422 15.6207 19.9369 15.098C21.2317 14.5752 22.4098 13.8008 23.4029 12.8195C24.3812 11.8299 25.1539 10.6567 25.6767 9.36727C26.1996 8.07787 26.4621 6.69782 26.4491 5.30658C26.4491 5.05129 26.4491 4.79599 26.4491 4.53158C26.1938 4.53158 25.9293 4.53158 25.6739 4.53158C24.2796 4.5095 22.895 4.76732 21.6021 5.28976C20.3092 5.8122 19.1343 6.58865 18.147 7.57313C17.1597 8.55762 16.3799 9.73014 15.854 11.0213C15.3281 12.3124 15.0666 13.6959 15.0851 15.0898Z" fill="#3E3921"/>
<path d="M39.9772 3.48755H40.7037V9.30006H39.9772V4.755L36.9498 9.30006H36.2233V3.48755H36.9498V8.02454L39.9772 3.48755Z" fill="#3E3921"/>
<path d="M45.5203 5.90943L44.8421 6.20005C44.8098 6.11394 44.7641 6.0386 44.7049 5.97401C44.4789 5.65648 44.1398 5.49771 43.6877 5.49771C43.2356 5.49771 42.8966 5.65648 42.6705 5.97401C42.466 6.23235 42.3584 6.61446 42.3476 7.12037C42.3584 7.61551 42.466 7.99763 42.6705 8.26672C42.9019 8.57888 43.241 8.73496 43.6877 8.73496C44.1344 8.73496 44.4735 8.57888 44.7049 8.26672C44.7533 8.20214 44.7964 8.12949 44.8341 8.04876L45.5203 8.33938C45.4341 8.49008 45.3561 8.61117 45.2861 8.70266C44.8879 9.19242 44.3551 9.43192 43.6877 9.42115C43.0203 9.43192 42.4875 9.19242 42.0893 8.70266C41.7663 8.29902 41.5995 7.77158 41.5887 7.12037C41.5995 6.46915 41.7663 5.93903 42.0893 5.53C42.4714 5.05639 43.0042 4.81958 43.6877 4.81958C44.3658 4.81958 44.8986 5.05639 45.2861 5.53C45.3884 5.66993 45.4664 5.79641 45.5203 5.90943Z" fill="#3E3921"/>
<path d="M50.0537 5.90943L49.3756 6.20005C49.3433 6.11394 49.2975 6.0386 49.2383 5.97401C49.0123 5.65648 48.6732 5.49771 48.2212 5.49771C47.7691 5.49771 47.43 5.65648 47.204 5.97401C46.9995 6.23235 46.8918 6.61446 46.8811 7.12037C46.8918 7.61551 46.9995 7.99763 47.204 8.26672C47.4354 8.57888 47.7745 8.73496 48.2212 8.73496C48.6679 8.73496 49.0069 8.57888 49.2383 8.26672C49.2868 8.20214 49.3298 8.12949 49.3675 8.04876L50.0537 8.33938C49.9676 8.49008 49.8896 8.61117 49.8196 8.70266C49.4213 9.19242 48.8885 9.43192 48.2212 9.42115C47.5538 9.43192 47.021 9.19242 46.6227 8.70266C46.2998 8.29902 46.133 7.77158 46.1222 7.12037C46.133 6.46915 46.2998 5.93903 46.6227 5.53C47.0048 5.05639 47.5377 4.81958 48.2212 4.81958C48.8993 4.81958 49.4321 5.05639 49.8196 5.53C49.9219 5.66993 49.9999 5.79641 50.0537 5.90943Z" fill="#3E3921"/>
<path d="M51.5437 4.94068H54.4257V9.30006H53.7395V5.59458H52.1491L51.8747 7.7662C51.8101 8.29902 51.6755 8.69997 51.471 8.96907C51.2719 9.23279 50.9463 9.34312 50.4942 9.30006V8.64615C50.6341 8.64615 50.7471 8.62732 50.8333 8.58964C50.9247 8.54659 50.9947 8.47393 51.0432 8.37167C51.097 8.26403 51.132 8.16178 51.1481 8.0649C51.1696 7.96803 51.1938 7.82002 51.2208 7.62089L51.5437 4.94068Z" fill="#3E3921"/>
<path d="M56.0529 7.36256C56.0798 7.74468 56.1821 8.05414 56.3597 8.29094C56.5911 8.61386 56.9409 8.77532 57.4092 8.77532C58.0119 8.77532 58.4748 8.51968 58.7977 8.00839L59.3386 8.3636C58.9296 9.06864 58.2972 9.42115 57.4415 9.42115C57.1185 9.42115 56.8118 9.35926 56.5211 9.23548C56.2359 9.11169 55.9991 8.93409 55.8107 8.70266C55.477 8.27749 55.3102 7.75813 55.3102 7.14459C55.3102 6.48261 55.477 5.94441 55.8107 5.53C56.1982 5.05639 56.731 4.81958 57.4092 4.81958C58.0873 4.81958 58.6201 5.05639 59.0076 5.53C59.379 5.99285 59.5431 6.6037 59.5001 7.36256H56.0529ZM57.4092 5.45734C56.9409 5.45734 56.5911 5.6188 56.3597 5.94172C56.209 6.13547 56.1121 6.39111 56.0691 6.70865H58.7493C58.7062 6.3965 58.6093 6.14085 58.4586 5.94172C58.2218 5.6188 57.872 5.45734 57.4092 5.45734Z" fill="#3E3921"/>
<path d="M64.0935 4.94068V8.61386H64.473V9.88131H63.7868V9.30006H60.6787V9.88131H59.9925V8.61386C60.4715 8.61386 60.7675 8.12949 60.8805 7.16073L61.1389 4.94068H64.0935ZM63.4074 8.61386V5.59458H61.7363L61.5506 7.24146C61.4752 7.88192 61.3245 8.33938 61.0985 8.61386H63.4074Z" fill="#3E3921"/>
<path d="M67.3389 9.42115C66.6607 9.42115 66.1279 9.18166 65.7404 8.70266C65.4067 8.27749 65.2399 7.74737 65.2399 7.1123C65.2399 6.47184 65.4067 5.94441 65.7404 5.53C65.9234 5.30396 66.1548 5.12905 66.4347 5.00526C66.7199 4.88148 67.0213 4.81958 67.3389 4.81958C68.0278 4.81958 68.5606 5.05639 68.9373 5.53C69.2764 5.93903 69.4459 6.46646 69.4459 7.1123C69.4459 7.75275 69.2764 8.28287 68.9373 8.70266C68.5552 9.18166 68.0224 9.42115 67.3389 9.42115ZM68.3641 8.26672C68.574 7.99225 68.679 7.60744 68.679 7.1123C68.679 6.61177 68.574 6.22966 68.3641 5.96594C68.1381 5.65379 67.7963 5.49771 67.3389 5.49771C66.8868 5.49771 66.5477 5.65379 66.3217 5.96594C66.1118 6.22966 66.0068 6.61177 66.0068 7.1123C66.0068 7.60744 66.1118 7.99225 66.3217 8.26672C66.5531 8.57888 66.8922 8.73496 67.3389 8.73496C67.791 8.73496 68.1327 8.57888 68.3641 8.26672Z" fill="#3E3921"/>
<path d="M70.3334 4.94875L72.4647 4.94068C72.8576 4.94068 73.1697 5.0537 73.4011 5.27974C73.6756 5.51116 73.8129 5.80986 73.8129 6.17584C73.8129 6.43417 73.7375 6.6629 73.5868 6.86203C73.5491 6.92662 73.5007 6.98313 73.4415 7.03157C73.5761 7.11768 73.6864 7.22263 73.7725 7.34641C73.9447 7.54554 74.0308 7.78235 74.0308 8.05683C74.0308 8.44433 73.8828 8.75917 73.5868 9.00136C73.3662 9.20049 73.089 9.30006 72.7553 9.30006H70.3334V4.94875ZM71.06 5.53807V6.82974H72.4647C72.6638 6.82974 72.8226 6.7544 72.941 6.6037C73.0325 6.47992 73.0782 6.33729 73.0782 6.17584C73.0675 6.01976 73.0217 5.88252 72.941 5.76412C72.8226 5.61342 72.6638 5.53807 72.4647 5.53807H71.06ZM71.06 7.41907V8.71074H72.6423C72.8522 8.71074 73.0163 8.64346 73.1347 8.50891C73.2424 8.38513 73.2962 8.23443 73.2962 8.05683C73.307 7.88999 73.2531 7.74468 73.1347 7.62089C73.0109 7.48634 72.8253 7.41907 72.5777 7.41907H71.06Z" fill="#3E3921"/>
<path d="M78.4154 9.30006H77.7777V8.63808C77.4117 9.16013 76.8574 9.42115 76.1147 9.42115C75.6895 9.42115 75.3423 9.30006 75.0732 9.05787C74.8095 8.81568 74.6777 8.49546 74.6777 8.09719C74.6777 7.54285 74.9333 7.13651 75.4446 6.87818C75.5738 6.8136 75.7352 6.75709 75.929 6.70865C76.1281 6.65483 76.2923 6.61716 76.4214 6.59563C76.556 6.5741 76.7766 6.54181 77.0834 6.49875C77.3956 6.4557 77.5974 6.4261 77.6889 6.40995C77.6781 6.11394 77.5759 5.89059 77.3821 5.7399C77.1937 5.58382 76.9435 5.50578 76.6313 5.50578C76.1147 5.50578 75.7056 5.68339 75.4042 6.0386L74.9522 5.55422C75.3827 5.06446 75.9666 4.81958 76.704 4.81958C77.1668 4.81958 77.5597 4.9622 77.8826 5.24745C78.2378 5.54346 78.4154 6.0063 78.4154 6.63599V9.30006ZM77.5274 8.11334C77.5812 8.01646 77.6216 7.90613 77.6485 7.78235C77.6754 7.65318 77.6889 7.54016 77.6889 7.44329C77.6943 7.34641 77.6969 7.19841 77.6969 6.99927C76.9811 7.1123 76.5129 7.19572 76.2923 7.24954C76.0285 7.30335 75.8133 7.39754 75.6464 7.53209C75.4796 7.66664 75.3962 7.83348 75.3962 8.03261C75.3962 8.25865 75.4769 8.44164 75.6383 8.58157C75.7998 8.7215 76.0043 8.79147 76.2519 8.79147C76.8493 8.79147 77.2745 8.56542 77.5274 8.11334Z" fill="#3E3921"/>
<path d="M82.8591 4.94068V5.59458H81.3414V9.30006H80.6229V5.59458H79.1052V4.94068H82.8591Z" fill="#3E3921"/>
<path d="M84.124 7.36256C84.1509 7.74468 84.2532 8.05414 84.4308 8.29094C84.6622 8.61386 85.012 8.77532 85.4803 8.77532C86.083 8.77532 86.5459 8.51968 86.8688 8.00839L87.4097 8.3636C87.0007 9.06864 86.3683 9.42115 85.5126 9.42115C85.1896 9.42115 84.8829 9.35926 84.5922 9.23548C84.307 9.11169 84.0702 8.93409 83.8818 8.70266C83.5481 8.27749 83.3813 7.75813 83.3813 7.14459C83.3813 6.48261 83.5481 5.94441 83.8818 5.53C84.2693 5.05639 84.8021 4.81958 85.4803 4.81958C86.1584 4.81958 86.6912 5.05639 87.0787 5.53C87.4501 5.99285 87.6142 6.6037 87.5712 7.36256H84.124ZM85.4803 5.45734C85.012 5.45734 84.6622 5.6188 84.4308 5.94172C84.2801 6.13547 84.1832 6.39111 84.1402 6.70865H86.8204C86.7773 6.3965 86.6804 6.14085 86.5297 5.94172C86.2929 5.6188 85.9431 5.45734 85.4803 5.45734Z" fill="#3E3921"/>
<path d="M89.1131 4.94068H91.9951V9.30006H91.3089V5.59458H89.7186L89.4441 7.7662C89.3795 8.29902 89.2449 8.69997 89.0404 8.96907C88.8413 9.23279 88.5157 9.34312 88.0636 9.30006V8.64615C88.2035 8.64615 88.3166 8.62732 88.4027 8.58964C88.4942 8.54659 88.5641 8.47393 88.6126 8.37167C88.6664 8.26403 88.7014 8.16178 88.7175 8.0649C88.739 7.96803 88.7633 7.82002 88.7902 7.62089L89.1131 4.94068Z" fill="#3E3921"/>
<path d="M93.1218 4.94068H93.8564V6.5149H95.1562C95.5437 6.5149 95.8693 6.64676 96.133 6.91047C96.4021 7.17957 96.5366 7.51325 96.5366 7.91152C96.5366 8.30978 96.4021 8.63808 96.133 8.89641C95.8639 9.16551 95.5383 9.30006 95.1562 9.30006H93.1299L93.1218 4.94068ZM93.8564 7.20917V8.61386H95.132C95.3096 8.61386 95.4656 8.53851 95.6002 8.38782C95.7294 8.25865 95.7939 8.09988 95.7939 7.91152C95.7939 7.72853 95.732 7.56976 95.6083 7.43521C95.4737 7.28452 95.3149 7.20917 95.132 7.20917H93.8564Z" fill="#3E3921"/>
<path d="M101.118 5.90943L100.439 6.20005C100.407 6.11394 100.361 6.0386 100.302 5.97401C100.076 5.65648 99.7371 5.49771 99.285 5.49771C98.8329 5.49771 98.4938 5.65648 98.2678 5.97401C98.0633 6.23235 97.9556 6.61446 97.9449 7.12037C97.9556 7.61551 98.0633 7.99763 98.2678 8.26672C98.4992 8.57888 98.8383 8.73496 99.285 8.73496C99.7317 8.73496 100.071 8.57888 100.302 8.26672C100.351 8.20214 100.394 8.12949 100.431 8.04876L101.118 8.33938C101.031 8.49008 100.953 8.61117 100.883 8.70266C100.485 9.19242 99.9523 9.43192 99.285 9.42115C98.6176 9.43192 98.0848 9.19242 97.6865 8.70266C97.3636 8.29902 97.1968 7.77158 97.186 7.12037C97.1968 6.46915 97.3636 5.93903 97.6865 5.53C98.0687 5.05639 98.6015 4.81958 99.285 4.81958C99.9631 4.81958 100.496 5.05639 100.883 5.53C100.986 5.66993 101.064 5.79641 101.118 5.90943Z" fill="#3E3921"/>
<path d="M102.696 7.41907V9.30006H101.962L101.97 4.94068H102.696V6.82167H103.148L104.513 4.94068H105.344L103.778 7.1123L105.562 9.30006H104.706L103.156 7.41907H102.696Z" fill="#3E3921"/>
<path d="M109.62 9.30006H108.982V8.63808C108.616 9.16013 108.062 9.42115 107.319 9.42115C106.894 9.42115 106.547 9.30006 106.278 9.05787C106.014 8.81568 105.882 8.49546 105.882 8.09719C105.882 7.54285 106.138 7.13651 106.649 6.87818C106.778 6.8136 106.94 6.75709 107.133 6.70865C107.333 6.65483 107.497 6.61716 107.626 6.59563C107.76 6.5741 107.981 6.54181 108.288 6.49875C108.6 6.4557 108.802 6.4261 108.893 6.40995C108.883 6.11394 108.78 5.89059 108.587 5.7399C108.398 5.58382 108.148 5.50578 107.836 5.50578C107.319 5.50578 106.91 5.68339 106.609 6.0386L106.157 5.55422C106.587 5.06446 107.171 4.81958 107.908 4.81958C108.371 4.81958 108.764 4.9622 109.087 5.24745C109.442 5.54346 109.62 6.0063 109.62 6.63599V9.30006ZM108.732 8.11334C108.786 8.01646 108.826 7.90613 108.853 7.78235C108.88 7.65318 108.893 7.54016 108.893 7.44329C108.899 7.34641 108.901 7.19841 108.901 6.99927C108.186 7.1123 107.717 7.19572 107.497 7.24954C107.233 7.30335 107.018 7.39754 106.851 7.53209C106.684 7.66664 106.601 7.83348 106.601 8.03261C106.601 8.25865 106.681 8.44164 106.843 8.58157C107.004 8.7215 107.209 8.79147 107.456 8.79147C108.054 8.79147 108.479 8.56542 108.732 8.11334Z" fill="#3E3921"/>
<path d="M114.088 9.30006H113.353V7.71777H112.021L111.254 9.30006H110.431L111.262 7.60474C111.101 7.54016 110.958 7.44598 110.834 7.32219C110.565 7.05309 110.431 6.7221 110.431 6.32922C110.431 5.93634 110.565 5.60535 110.834 5.33625C111.098 5.07253 111.424 4.94068 111.811 4.94068H114.08L114.088 9.30006ZM111.835 7.03157H113.353V5.6188H111.835C111.658 5.62957 111.502 5.70491 111.367 5.84485C111.238 5.97401 111.173 6.13547 111.173 6.32922C111.173 6.51221 111.235 6.67098 111.359 6.80552C111.494 6.95622 111.652 7.03157 111.835 7.03157Z" fill="#3E3921"/>
<path d="M120.73 4.94068V9.30006H120.011V5.65917H117.719V9.30006H117V4.94068H120.73Z" fill="#3E3921"/>
<path d="M122.505 4.94068H125.387V9.30006H124.701V5.59458H123.11L122.836 7.7662C122.771 8.29902 122.637 8.69997 122.432 8.96907C122.233 9.23279 121.907 9.34312 121.455 9.30006V8.64615C121.595 8.64615 121.708 8.62732 121.794 8.58964C121.886 8.54659 121.956 8.47393 122.004 8.37167C122.058 8.26403 122.093 8.16178 122.109 8.0649C122.131 7.96803 122.155 7.82002 122.182 7.62089L122.505 4.94068Z" fill="#3E3921"/>
<path d="M130.009 9.30006H129.371V8.63808C129.005 9.16013 128.451 9.42115 127.708 9.42115C127.283 9.42115 126.936 9.30006 126.667 9.05787C126.403 8.81568 126.271 8.49546 126.271 8.09719C126.271 7.54285 126.527 7.13651 127.038 6.87818C127.167 6.8136 127.329 6.75709 127.523 6.70865C127.722 6.65483 127.886 6.61716 128.015 6.59563C128.15 6.5741 128.37 6.54181 128.677 6.49875C128.989 6.4557 129.191 6.4261 129.282 6.40995C129.272 6.11394 129.169 5.89059 128.976 5.7399C128.787 5.58382 128.537 5.50578 128.225 5.50578C127.708 5.50578 127.299 5.68339 126.998 6.0386L126.546 5.55422C126.976 5.06446 127.56 4.81958 128.298 4.81958C128.76 4.81958 129.153 4.9622 129.476 5.24745C129.831 5.54346 130.009 6.0063 130.009 6.63599V9.30006ZM129.121 8.11334C129.175 8.01646 129.215 7.90613 129.242 7.78235C129.269 7.65318 129.282 7.54016 129.282 7.44329C129.288 7.34641 129.291 7.19841 129.291 6.99927C128.575 7.1123 128.107 7.19572 127.886 7.24954C127.622 7.30335 127.407 7.39754 127.24 7.53209C127.073 7.66664 126.99 7.83348 126.99 8.03261C126.99 8.25865 127.07 8.44164 127.232 8.58157C127.393 8.7215 127.598 8.79147 127.845 8.79147C128.443 8.79147 128.868 8.56542 129.121 8.11334Z" fill="#3E3921"/>
<path d="M134.453 4.94068V5.59458H132.935V9.30006H132.216V5.59458H130.699V4.94068H134.453Z" fill="#3E3921"/>
<path d="M139.183 5.34432C139.705 5.76412 139.975 6.35613 139.991 7.12037C139.975 7.88999 139.705 8.48738 139.183 8.91256C138.812 9.20319 138.328 9.37541 137.73 9.42923V11.1165H137.076V9.42923C136.468 9.37541 135.987 9.20319 135.631 8.91256C135.099 8.47662 134.827 7.87922 134.816 7.12037C134.827 6.36151 135.099 5.7695 135.631 5.34432C135.981 5.0537 136.463 4.88148 137.076 4.82766V3.52791H137.73V4.82766C138.344 4.87609 138.828 5.04832 139.183 5.34432ZM138.691 8.38782C139.057 8.09719 139.245 7.67471 139.256 7.12037C139.245 6.56065 139.057 6.14085 138.691 5.86099C138.47 5.678 138.15 5.56229 137.73 5.51385V8.73496C138.139 8.68652 138.46 8.57081 138.691 8.38782ZM136.116 8.38782C136.336 8.57081 136.657 8.68652 137.076 8.73496V5.52193C136.667 5.5596 136.347 5.67262 136.116 5.86099C135.755 6.14623 135.569 6.56603 135.559 7.12037C135.569 7.67471 135.755 8.09719 136.116 8.38782Z" fill="#3E3921"/>
<path d="M142.735 9.42115C142.057 9.42115 141.524 9.18166 141.137 8.70266C140.803 8.27749 140.636 7.74737 140.636 7.1123C140.636 6.47184 140.803 5.94441 141.137 5.53C141.32 5.30396 141.551 5.12905 141.831 5.00526C142.116 4.88148 142.417 4.81958 142.735 4.81958C143.424 4.81958 143.957 5.05639 144.333 5.53C144.673 5.93903 144.842 6.46646 144.842 7.1123C144.842 7.75275 144.673 8.28287 144.333 8.70266C143.951 9.18166 143.419 9.42115 142.735 9.42115ZM143.76 8.26672C143.97 7.99225 144.075 7.60744 144.075 7.1123C144.075 6.61177 143.97 6.22966 143.76 5.96594C143.534 5.65379 143.192 5.49771 142.735 5.49771C142.283 5.49771 141.944 5.65379 141.718 5.96594C141.508 6.22966 141.403 6.61177 141.403 7.1123C141.403 7.60744 141.508 7.99225 141.718 8.26672C141.949 8.57888 142.288 8.73496 142.735 8.73496C143.187 8.73496 143.529 8.57888 143.76 8.26672Z" fill="#3E3921"/>
<path d="M149.33 5.51385C149.653 5.92827 149.814 6.46108 149.814 7.1123C149.814 7.77428 149.653 8.30978 149.33 8.71881C148.953 9.18704 148.45 9.42115 147.82 9.42115C147.25 9.42115 146.795 9.24355 146.456 8.88834V11.2376H145.73V4.94068H146.375V5.43313C146.741 5.0241 147.223 4.81958 147.82 4.81958C148.461 4.81958 148.964 5.05101 149.33 5.51385ZM148.749 8.2748C148.948 8.01108 149.048 7.62358 149.048 7.1123C149.048 6.61177 148.945 6.22696 148.741 5.95787C148.515 5.63495 148.17 5.47349 147.707 5.47349C147.277 5.47349 146.946 5.62149 146.714 5.9175C146.488 6.20275 146.375 6.60101 146.375 7.1123C146.375 7.63435 146.488 8.0353 146.714 8.31516C146.957 8.61117 147.296 8.75917 147.732 8.75917C148.184 8.75917 148.523 8.59772 148.749 8.2748Z" fill="#3E3921"/>
<path d="M154.577 4.94068H155.223L155.231 9.30006H154.504V6.35344L153.205 8.59771H152.728L151.437 6.35344V9.30006H150.702V4.94068H151.364L152.97 7.68547L154.577 4.94068Z" fill="#3E3921"/>
<path d="M159.859 9.30006H159.221V8.63808C158.855 9.16013 158.301 9.42115 157.558 9.42115C157.133 9.42115 156.786 9.30006 156.517 9.05787C156.253 8.81568 156.121 8.49546 156.121 8.09719C156.121 7.54285 156.377 7.13651 156.888 6.87818C157.017 6.8136 157.178 6.75709 157.372 6.70865C157.571 6.65483 157.736 6.61716 157.865 6.59563C157.999 6.5741 158.22 6.54181 158.527 6.49875C158.839 6.4557 159.041 6.4261 159.132 6.40995C159.121 6.11394 159.019 5.89059 158.825 5.7399C158.637 5.58382 158.387 5.50578 158.075 5.50578C157.558 5.50578 157.149 5.68339 156.848 6.0386L156.395 5.55422C156.826 5.06446 157.41 4.81958 158.147 4.81958C158.61 4.81958 159.003 4.9622 159.326 5.24745C159.681 5.54346 159.859 6.0063 159.859 6.63599V9.30006ZM158.971 8.11334C159.024 8.01646 159.065 7.90613 159.092 7.78235C159.119 7.65318 159.132 7.54016 159.132 7.44329C159.138 7.34641 159.14 7.19841 159.14 6.99927C158.424 7.1123 157.956 7.19572 157.736 7.24954C157.472 7.30335 157.257 7.39754 157.09 7.53209C156.923 7.66664 156.839 7.83348 156.839 8.03261C156.839 8.25865 156.92 8.44164 157.082 8.58157C157.243 8.7215 157.448 8.79147 157.695 8.79147C158.293 8.79147 158.718 8.56542 158.971 8.11334Z" fill="#3E3921"/>
<path d="M39.9772 12.7876H40.7037V18.6001H39.9772V14.055L36.9498 18.6001H36.2233V12.7876H36.9498V17.3246L39.9772 12.7876Z" fill="#3E3921"/>
<path d="M44.8421 14.2407H45.5606V18.6001H44.8421V16.6464H42.5494V18.6001H41.8309V14.2407H42.5494V15.9279H44.8421V14.2407Z" fill="#3E3921"/>
<path d="M50.3792 15.2094L49.701 15.5001C49.6687 15.414 49.623 15.3386 49.5638 15.274C49.3377 14.9565 48.9987 14.7977 48.5466 14.7977C48.0945 14.7977 47.7555 14.9565 47.5294 15.274C47.3249 15.5324 47.2173 15.9145 47.2065 16.4204C47.2173 16.9155 47.3249 17.2976 47.5294 17.5667C47.7608 17.8789 48.0999 18.035 48.5466 18.035C48.9933 18.035 49.3324 17.8789 49.5638 17.5667C49.6122 17.5022 49.6553 17.4295 49.693 17.3488L50.3792 17.6394C50.293 17.7901 50.215 17.9112 50.145 18.0027C49.7468 18.4924 49.214 18.7319 48.5466 18.7212C47.8792 18.7319 47.3464 18.4924 46.9482 18.0027C46.6252 17.599 46.4584 17.0716 46.4476 16.4204C46.4584 15.7692 46.6252 15.239 46.9482 14.83C47.3303 14.3564 47.8631 14.1196 48.5466 14.1196C49.2247 14.1196 49.7575 14.3564 50.145 14.83C50.2473 14.9699 50.3253 15.0964 50.3792 15.2094Z" fill="#3E3921"/>
<path d="M54.6139 14.2407V14.8946H53.0962V18.6001H52.3777V14.8946H50.86V14.2407H54.6139Z" fill="#3E3921"/>
<path d="M59.0192 14.2407V18.6001H58.2926V15.4032L56.0242 18.6001H55.3783V14.2407H56.1049V17.3891L58.3734 14.2407H59.0192Z" fill="#3E3921"/>
<path d="M63.537 14.2407V14.8946H62.0193V18.6001H61.3008V14.8946H59.7831V14.2407H63.537Z" fill="#3E3921"/>
<path d="M67.3263 14.2407H68.0528L66.0911 19.3912C65.9135 19.8487 65.709 20.1608 65.4776 20.3277C65.2892 20.4676 65.012 20.5376 64.646 20.5376H64.5411V19.8433L64.6783 19.8595C64.8775 19.8702 65.0255 19.8406 65.1223 19.7707C65.2569 19.6738 65.4345 19.3266 65.6552 18.7292L63.8145 14.2407H64.5492L65.9942 17.8009L67.3263 14.2407Z" fill="#3E3921"/>
<path d="M72.0893 14.2407V14.8946H70.5716V18.6001H69.8531V14.8946H68.3354V14.2407H72.0893Z" fill="#3E3921"/>
<path d="M76.1449 18.6001H75.5072V17.9381C75.1412 18.4601 74.5868 18.7212 73.8441 18.7212C73.419 18.7212 73.0718 18.6001 72.8027 18.3579C72.539 18.1157 72.4072 17.7955 72.4072 17.3972C72.4072 16.8429 72.6628 16.4365 73.1741 16.1782C73.3033 16.1136 73.4647 16.0571 73.6585 16.0087C73.8576 15.9548 74.0217 15.9172 74.1509 15.8956C74.2855 15.8741 74.5061 15.8418 74.8129 15.7988C75.125 15.7557 75.3269 15.7261 75.4184 15.71C75.4076 15.414 75.3053 15.1906 75.1116 15.0399C74.9232 14.8838 74.673 14.8058 74.3608 14.8058C73.8441 14.8058 73.4351 14.9834 73.1337 15.3386L72.6816 14.8542C73.1122 14.3645 73.6961 14.1196 74.4335 14.1196C74.8963 14.1196 75.2892 14.2622 75.6121 14.5475C75.9673 14.8435 76.1449 15.3063 76.1449 15.936V18.6001ZM75.2569 17.4134C75.3107 17.3165 75.3511 17.2062 75.378 17.0824C75.4049 16.9532 75.4184 16.8402 75.4184 16.7433C75.4237 16.6464 75.4264 16.4984 75.4264 16.2993C74.7106 16.4123 74.2424 16.4957 74.0217 16.5496C73.758 16.6034 73.5428 16.6976 73.3759 16.8321C73.2091 16.9667 73.1256 17.1335 73.1256 17.3326C73.1256 17.5587 73.2064 17.7417 73.3678 17.8816C73.5293 18.0215 73.7338 18.0915 73.9814 18.0915C74.5788 18.0915 75.0039 17.8654 75.2569 17.4134Z" fill="#3E3921"/>
<path d="M84.7648 12.7876V18.592H84.0382V14.3618L82.0604 18.6001H81.6809L79.7031 14.3699V18.6001H78.9765V12.7876H79.695L81.8747 17.4134L84.0382 12.7876H84.7648Z" fill="#3E3921"/>
<path d="M86.3945 16.6626C86.4214 17.0447 86.5237 17.3542 86.7013 17.591C86.9327 17.9139 87.2825 18.0753 87.7508 18.0753C88.3536 18.0753 88.8164 17.8197 89.1393 17.3084L89.6802 17.6636C89.2712 18.3687 88.6388 18.7212 87.7831 18.7212C87.4601 18.7212 87.1534 18.6593 86.8628 18.5355C86.5775 18.4117 86.3407 18.2341 86.1523 18.0027C85.8187 17.5775 85.6518 17.0581 85.6518 16.4446C85.6518 15.7826 85.8187 15.2444 86.1523 14.83C86.5398 14.3564 87.0727 14.1196 87.7508 14.1196C88.4289 14.1196 88.9617 14.3564 89.3492 14.83C89.7206 15.2929 89.8847 15.9037 89.8417 16.6626H86.3945ZM87.7508 14.7574C87.2825 14.7574 86.9327 14.9188 86.7013 15.2417C86.5506 15.4355 86.4537 15.6911 86.4107 16.0087H89.0909C89.0478 15.6965 88.951 15.4409 88.8003 15.2417C88.5634 14.9188 88.2136 14.7574 87.7508 14.7574Z" fill="#3E3921"/>
<path d="M96.0684 14.2407L94.7122 16.4123L96.1411 18.6001L95.3257 18.592L94.1471 16.7191H93.5497V18.6001H92.8958V16.7191H92.2984L91.1116 18.592L90.2963 18.6001L91.7252 16.4123L90.3689 14.2407H91.1843L92.2984 16.1217H92.8958V14.2407H93.5497V16.1217H94.139L95.2611 14.2407H96.0684Z" fill="#3E3921"/>
<path d="M100.566 14.2407V17.9139H100.945V19.1813H100.259V18.6001H97.1507V19.1813H96.4645V17.9139C96.9435 17.9139 97.2395 17.4295 97.3525 16.4608L97.6109 14.2407H100.566ZM99.8793 17.9139V14.8946H98.2082L98.0226 16.5415C97.9472 17.1819 97.7965 17.6394 97.5705 17.9139H99.8793Z" fill="#3E3921"/>
<path d="M105.595 14.2407V18.6001H104.868V15.4032L102.6 18.6001H101.954V14.2407H102.681V17.3891L104.949 14.2407H105.595Z" fill="#3E3921"/>
<path d="M110.411 15.2094L109.733 15.5001C109.701 15.414 109.655 15.3386 109.596 15.274C109.37 14.9565 109.031 14.7977 108.579 14.7977C108.127 14.7977 107.788 14.9565 107.562 15.274C107.357 15.5324 107.25 15.9145 107.239 16.4204C107.25 16.9155 107.357 17.2976 107.562 17.5667C107.793 17.8789 108.132 18.035 108.579 18.035C109.026 18.035 109.365 17.8789 109.596 17.5667C109.645 17.5022 109.688 17.4295 109.725 17.3488L110.411 17.6394C110.325 17.7901 110.247 17.9112 110.177 18.0027C109.779 18.4924 109.246 18.7319 108.579 18.7212C107.912 18.7319 107.379 18.4924 106.98 18.0027C106.658 17.599 106.491 17.0716 106.48 16.4204C106.491 15.7692 106.658 15.239 106.98 14.83C107.363 14.3564 107.895 14.1196 108.579 14.1196C109.257 14.1196 109.79 14.3564 110.177 14.83C110.28 14.9699 110.358 15.0964 110.411 15.2094Z" fill="#3E3921"/>
<path d="M114.985 17.9139H115.696V19.2863H114.977V18.6001H111.256V14.2407H111.974V17.8816H114.267V14.2407H114.985V17.9139Z" fill="#3E3921"/>
<path d="M120.225 14.2407V18.6001H119.498V15.4032L117.23 18.6001H116.584V14.2407H117.31V17.3891L119.579 14.2407H120.225Z" fill="#3E3921"/>
<path d="M125.082 14.2407V18.6001H124.363V14.9592H122.07V18.6001H121.352V14.2407H125.082Z" fill="#3E3921"/>
<path d="M126.857 14.2407H129.739V18.6001H129.052V14.8946H127.462L127.188 17.0662C127.123 17.599 126.988 18 126.784 18.2691C126.585 18.5328 126.259 18.6431 125.807 18.6001V17.9462C125.947 17.9462 126.06 17.9273 126.146 17.8897C126.238 17.8466 126.308 17.7739 126.356 17.6717C126.41 17.5641 126.445 17.4618 126.461 17.3649C126.483 17.268 126.507 17.12 126.534 16.9209L126.857 14.2407Z" fill="#3E3921"/>
<path d="M134.506 14.2407V18.6001H133.78V15.4032L131.511 18.6001H130.865V14.2407H131.592V17.3891L133.86 14.2407H134.506Z" fill="#3E3921"/>
<path d="M138.645 14.2407H139.363V18.6001H138.645V16.6464H136.352V18.6001H135.633V14.2407H136.352V15.9279H138.645V14.2407Z" fill="#3E3921"/>
<path d="M143.988 18.6001H143.35V17.9381C142.984 18.4601 142.43 18.7212 141.687 18.7212C141.262 18.7212 140.915 18.6001 140.646 18.3579C140.382 18.1157 140.25 17.7955 140.25 17.3972C140.25 16.8429 140.506 16.4365 141.017 16.1782C141.146 16.1136 141.308 16.0571 141.501 16.0087C141.7 15.9548 141.865 15.9172 141.994 15.8956C142.128 15.8741 142.349 15.8418 142.656 15.7988C142.968 15.7557 143.17 15.7261 143.261 15.71C143.251 15.414 143.148 15.1906 142.954 15.0399C142.766 14.8838 142.516 14.8058 142.204 14.8058C141.687 14.8058 141.278 14.9834 140.977 15.3386L140.525 14.8542C140.955 14.3645 141.539 14.1196 142.276 14.1196C142.739 14.1196 143.132 14.2622 143.455 14.5475C143.81 14.8435 143.988 15.3063 143.988 15.936V18.6001ZM143.1 17.4134C143.154 17.3165 143.194 17.2062 143.221 17.0824C143.248 16.9532 143.261 16.8402 143.261 16.7433C143.267 16.6464 143.269 16.4984 143.269 16.2993C142.554 16.4123 142.085 16.4957 141.865 16.5496C141.601 16.6034 141.386 16.6976 141.219 16.8321C141.052 16.9667 140.969 17.1335 140.969 17.3326C140.969 17.5587 141.049 17.7417 141.211 17.8816C141.372 18.0215 141.577 18.0915 141.824 18.0915C142.422 18.0915 142.847 17.8654 143.1 17.4134Z" fill="#3E3921"/>
<path d="M148.641 14.8139C148.964 15.2283 149.126 15.7611 149.126 16.4123C149.126 17.0743 148.964 17.6098 148.641 18.0188C148.265 18.4871 147.761 18.7212 147.132 18.7212C146.561 18.7212 146.106 18.5436 145.767 18.1884V20.5376H145.041V14.2407H145.687V14.7331C146.053 14.3241 146.534 14.1196 147.132 14.1196C147.772 14.1196 148.275 14.351 148.641 14.8139ZM148.06 17.5748C148.259 17.3111 148.359 16.9236 148.359 16.4123C148.359 15.9118 148.257 15.527 148.052 15.2579C147.826 14.935 147.482 14.7735 147.019 14.7735C146.588 14.7735 146.257 14.9215 146.026 15.2175C145.8 15.5028 145.687 15.901 145.687 16.4123C145.687 16.9344 145.8 17.3353 146.026 17.6152C146.268 17.9112 146.607 18.0592 147.043 18.0592C147.495 18.0592 147.834 17.8977 148.06 17.5748Z" fill="#3E3921"/>
<path d="M153.024 14.2407H153.743V18.6001H153.024V16.6464H150.732V18.6001H150.013V14.2407H150.732V15.9279H153.024V14.2407Z" fill="#3E3921"/>
<path d="M156.729 18.7212C156.051 18.7212 155.518 18.4817 155.13 18.0027C154.797 17.5775 154.63 17.0474 154.63 16.4123C154.63 15.7719 154.797 15.2444 155.13 14.83C155.313 14.604 155.545 14.4291 155.825 14.3053C156.11 14.1815 156.411 14.1196 156.729 14.1196C157.418 14.1196 157.951 14.3564 158.327 14.83C158.666 15.239 158.836 15.7665 158.836 16.4123C158.836 17.0528 158.666 17.5829 158.327 18.0027C157.945 18.4817 157.412 18.7212 156.729 18.7212ZM157.754 17.5667C157.964 17.2923 158.069 16.9075 158.069 16.4123C158.069 15.9118 157.964 15.5297 157.754 15.266C157.528 14.9538 157.186 14.7977 156.729 14.7977C156.277 14.7977 155.938 14.9538 155.712 15.266C155.502 15.5297 155.397 15.9118 155.397 16.4123C155.397 16.9075 155.502 17.2923 155.712 17.5667C155.943 17.8789 156.282 18.035 156.729 18.035C157.181 18.035 157.523 17.8789 157.754 17.5667Z" fill="#3E3921"/>
<path d="M162.137 12.6503H162.719C162.719 12.9571 162.611 13.2181 162.396 13.4334C162.18 13.6487 161.922 13.7563 161.621 13.7563C161.314 13.7563 161.053 13.6487 160.838 13.4334C160.622 13.2181 160.515 12.9571 160.515 12.6503H161.096C161.096 12.7956 161.147 12.9194 161.249 13.0217C161.352 13.1239 161.475 13.1751 161.621 13.1751C161.766 13.1751 161.887 13.1239 161.984 13.0217C162.086 12.9194 162.137 12.7956 162.137 12.6503ZM163.364 14.2407V18.6001H162.638V15.4032L160.369 18.6001H159.723V14.2407H160.45V17.3891L162.719 14.2407H163.364Z" fill="#3E3921"/>
<path d="M42.0035 22.0876V27.892H41.2769V23.6618L39.2991 27.9001H38.9196L36.9418 23.6699V27.9001H36.2152V22.0876H36.9337L39.1134 26.7134L41.2769 22.0876H42.0035Z" fill="#3E3921"/>
<path d="M43.6332 25.9626C43.6601 26.3447 43.7624 26.6542 43.94 26.891C44.1714 27.2139 44.5212 27.3754 44.9895 27.3754C45.5922 27.3754 46.0551 27.1197 46.378 26.6084L46.9189 26.9636C46.5099 27.6687 45.8775 28.0212 45.0218 28.0212C44.6988 28.0212 44.3921 27.9593 44.1014 27.8355C43.8162 27.7117 43.5794 27.5341 43.391 27.3027C43.0573 26.8775 42.8905 26.3582 42.8905 25.7446C42.8905 25.0826 43.0573 24.5444 43.391 24.13C43.7785 23.6564 44.3113 23.4196 44.9895 23.4196C45.6676 23.4196 46.2004 23.6564 46.5879 24.13C46.9593 24.5929 47.1234 25.2037 47.0804 25.9626H43.6332ZM44.9895 24.0574C44.5212 24.0574 44.1714 24.2188 43.94 24.5418C43.7893 24.7355 43.6924 24.9911 43.6494 25.3087H46.3296C46.2865 24.9965 46.1896 24.7409 46.0389 24.5418C45.8021 24.2188 45.4523 24.0574 44.9895 24.0574Z" fill="#3E3921"/>
<path d="M51.6739 23.5407V27.2139H52.0533V28.4813H51.3671V27.9001H48.259V28.4813H47.5728V27.2139C48.0518 27.2139 48.3478 26.7295 48.4608 25.7608L48.7192 23.5407H51.6739ZM50.9877 27.2139V24.1946H49.3166L49.1309 25.8415C49.0555 26.482 48.9048 26.9394 48.6788 27.2139H50.9877Z" fill="#3E3921"/>
<path d="M56.7033 23.5407V27.9001H55.9767V24.7032L53.7082 27.9001H53.0624V23.5407H53.789V26.6892L56.0575 23.5407H56.7033Z" fill="#3E3921"/>
<path d="M61.5602 27.2139H62.2706V28.5863H61.5521V27.9001H57.8305V23.5407H58.549V27.1816H60.8417V23.5407H61.5602V27.2139Z" fill="#3E3921"/>
<path d="M66.7995 23.5407V27.9001H66.0729V24.7032L63.8044 27.9001H63.1586V23.5407H63.8852V26.6892L66.1537 23.5407H66.7995Z" fill="#3E3921"/>
<path d="M70.9379 23.5407H71.6564V27.9001H70.9379V25.9464H68.6452V27.9001H67.9267V23.5407H68.6452V25.228H70.9379V23.5407Z" fill="#3E3921"/>
<path d="M72.7856 23.5407H73.5202V25.1149H74.6585C75.046 25.1149 75.3716 25.2468 75.6353 25.5105C75.9044 25.7796 76.039 26.1133 76.039 26.5116C76.039 26.9098 75.9044 27.2381 75.6353 27.4964C75.3662 27.7655 75.0406 27.9001 74.6585 27.9001H72.7937L72.7856 23.5407ZM76.5395 23.5407H77.258V27.9001H76.5395V23.5407ZM73.5202 25.8092V27.2139H74.6343C74.8119 27.2139 74.968 27.1385 75.1025 26.9879C75.2317 26.8587 75.2963 26.6999 75.2963 26.5116C75.2963 26.3286 75.2344 26.1698 75.1106 26.0352C74.976 25.8846 74.8173 25.8092 74.6343 25.8092H73.5202Z" fill="#3E3921"/>
</svg>
