<svg width="77" height="57" viewBox="0 0 77 57" fill="none" xmlns="http://www.w3.org/2000/svg">
<path fill-rule="evenodd" clip-rule="evenodd" d="M40.701 0.63355C40.6232 0.642133 40.3053 0.669074 39.9944 0.693468C36.1247 0.996836 31.923 2.25458 28.4311 4.15491C27.5657 4.62584 26.7211 5.13422 26.7007 5.19639C26.6815 5.25496 27.4297 5.82604 28.1838 6.32851C30.9354 8.16186 34.2383 9.48732 38.1356 10.3222C43.0244 11.3696 48.8837 11.5594 55.1563 10.8736C56.3876 10.7389 58.5863 10.4405 58.6232 10.403C58.6326 10.3934 58.5629 10.1587 58.4684 9.88149C57.4144 6.79196 55.178 4.3607 51.8655 2.70325C49.7152 1.62739 47.543 1.02135 44.7186 0.709361C44.288 0.661764 43.6402 0.638889 42.4776 0.630183C41.5782 0.623448 40.7787 0.624967 40.701 0.63355ZM24.5291 6.70925C23.0073 7.91073 21.5216 9.40991 20.4605 10.8148C18.7638 13.0613 17.6973 15.4175 17.302 17.7923C17.1467 18.7258 17.0953 19.667 17.1554 20.4791C17.2733 22.0712 17.5916 23.2834 18.2518 24.6547C18.9488 26.1024 19.9794 27.4222 21.2793 28.5317C23.0194 30.017 25.2723 31.1599 27.8002 31.8398C28.8276 32.1162 30.7831 32.4805 30.8517 32.4083C30.8899 32.3681 31.1406 31.7301 31.4536 30.8764C32.2124 28.8067 32.6885 26.7883 32.892 24.7779C33.0359 23.3556 32.9772 21.4702 32.7429 19.9935C32.1164 16.0444 30.0527 11.8293 27.1138 8.49611C26.4295 7.72001 25.0936 6.36091 25.0137 6.3596C24.9912 6.35923 24.7732 6.51656 24.5291 6.70925ZM37.713 12.2314C36.2264 12.3888 34.917 13.3151 34.2581 14.6752C33.934 15.3443 33.8334 15.7402 33.807 16.4512C33.7827 17.1045 33.8265 17.4822 33.987 18.0017C34.4359 19.4545 35.6259 20.6049 37.0672 20.9791C38.5299 21.359 40.0531 20.9604 41.1646 19.9069C42.3015 18.8294 42.8031 17.0929 42.4152 15.5781C41.8662 13.4341 39.8572 12.0043 37.713 12.2314ZM58.3663 12.6455C52.7152 14.8328 48.4797 16.9296 44.658 19.432C40.1599 22.3772 36.6522 25.7751 34.2214 29.5417C33.5802 30.5355 32.6166 32.2239 32.5271 32.5107C32.499 32.6007 32.5023 32.6014 33.0365 32.611C36.1966 32.668 38.9153 32.3116 41.8857 31.4513C48.9082 29.4171 54.799 24.9322 57.4746 19.5828C58.5421 17.4485 59.0326 15.4966 59.0326 13.3823C59.0326 12.6528 59.0104 12.4353 58.9367 12.4397C58.9117 12.4411 58.655 12.5338 58.3663 12.6455ZM38.0819 13.5775C39.0852 14.1047 37.9566 15.7184 36.5824 15.7213C36.2143 15.7221 36.0188 15.6709 35.8554 15.5311C35.688 15.3879 35.6133 15.228 35.6133 15.0131C35.6133 14.6866 35.7221 14.4604 36.0334 14.1394C36.4721 13.6872 36.9574 13.4698 37.5368 13.4659C37.8192 13.464 37.8956 13.4796 38.0819 13.5775ZM40.7817 39.5335V40.0179L40.3668 40.0651C39.085 40.2108 38.143 40.8526 37.5984 41.9512C37.2232 42.7082 37.1655 43.7818 37.4537 44.6437C37.8128 45.7174 38.6694 46.4919 39.8279 46.7902C40.0473 46.8467 40.3108 46.8931 40.4134 46.8935C40.7971 46.8946 40.7817 46.8695 40.7817 47.4941V48.0447L41.4984 48.0335L42.2151 48.0223L42.2265 47.49C42.2342 47.1274 42.2535 46.9476 42.2871 46.926C42.3142 46.9085 42.4233 46.8939 42.5298 46.8935C43.0756 46.8917 43.9084 46.5984 44.3754 46.2435C45.3563 45.4981 45.837 44.3611 45.7077 43.0926C45.5604 41.6482 44.6125 40.5353 43.2241 40.1772C43.0159 40.1234 42.7082 40.0668 42.5404 40.0514L42.2353 40.0232V39.5361V39.0489H41.5085H40.7817V39.5335ZM24.6507 39.5869C23.6364 39.7342 22.5539 40.391 21.9857 41.204C21.4167 42.0179 21.1876 42.7378 21.1879 43.7101C21.1881 44.3376 21.2838 44.8196 21.518 45.3734C22.3103 47.2469 24.4354 48.239 26.4482 47.6753C27.3545 47.4215 28.2195 46.7903 28.7295 46.0108C29.7851 44.3972 29.611 42.2499 28.3108 40.8467C27.393 39.8564 26.029 39.3868 24.6507 39.5869ZM0 43.6485V47.6321H0.70617H1.41234L1.42288 45.897L1.43342 44.1619L2.03582 45.0243C2.36712 45.4986 2.91222 46.2793 3.24715 46.759L3.85609 47.6313L4.71905 47.6317C5.4037 47.632 5.57385 47.6215 5.54248 47.5808C5.07571 46.9754 2.68986 43.6501 2.68788 43.6022C2.68554 43.5447 3.41274 42.5576 5.15828 40.2489C5.38589 39.9479 5.57216 39.693 5.57216 39.6825C5.57216 39.6719 5.18736 39.6683 4.71699 39.6744L3.86187 39.6855L3.49556 40.2036C3.29411 40.4885 2.74772 41.2619 2.28135 41.9222L1.43342 43.1228L1.42288 41.3939L1.41234 39.665H0.70617H0V43.6485ZM9.09986 39.8178C9.06533 39.9032 8.94913 40.1855 8.8416 40.4452C8.73411 40.705 8.2883 41.7954 7.85097 42.8682C7.41363 43.9411 6.93754 45.1054 6.7929 45.4555C6.34826 46.5321 5.93556 47.5638 5.93556 47.5988C5.93556 47.6171 6.28535 47.6321 6.71291 47.6321H7.49027L7.89066 46.6054L8.29109 45.5787H9.73282H11.1746L11.5747 46.5952L11.9749 47.6116L12.7756 47.6228C13.4113 47.6316 13.5717 47.6231 13.5541 47.5817C13.5418 47.5529 12.8081 45.7646 11.9236 43.6075L10.3154 39.6855L9.73904 39.6741L9.1626 39.6627L9.09986 39.8178ZM14.4024 39.6914C14.3871 39.707 14.3745 41.5 14.3745 43.6759V47.6321H15.1014H15.8282V45.9689V44.3056H17.2616H18.695V45.9689V47.6321H19.4016H20.1082V43.6485V39.665H19.4016H18.695V41.2666V42.8682H17.2621H15.8291L15.8185 41.2769L15.808 39.6855L15.1191 39.6743C14.7402 39.6681 14.4177 39.6758 14.4024 39.6914ZM30.4719 39.6923C30.4571 39.7074 30.445 41.5 30.445 43.6759V47.6321H31.1718H31.8986V45.9689V44.3056H33.332H34.7654V45.9689V47.6321H35.4922H36.219V43.6485V39.665H35.4922H34.7654V41.2666V42.8682H33.332H31.8986V41.2666V39.665H31.1987C30.8137 39.665 30.4867 39.6773 30.4719 39.6923ZM48.8624 39.8383C48.8218 39.935 48.7017 40.2266 48.5954 40.4863C48.4892 40.7461 48.3152 41.1711 48.2088 41.4309C48.1023 41.6906 47.713 42.6424 47.3435 43.5459C45.8815 47.1219 45.697 47.5716 45.6802 47.6013C45.6706 47.6182 46.0226 47.632 46.4625 47.6317L47.2624 47.6314L47.6633 46.6051L48.0643 45.5787H49.5047H50.9451L51.3447 46.605L51.7443 47.6312L52.5408 47.6317L53.3372 47.6321L53.3012 47.5397C53.2813 47.4889 53.0979 47.0407 52.8935 46.5438C52.6891 46.0469 52.4355 45.4278 52.3301 45.168C52.0867 44.5688 50.4026 40.4517 50.2218 40.014L50.0861 39.6855L49.5111 39.6741L48.9362 39.6627L48.8624 39.8383ZM54.1468 43.6485V47.6321H54.8736H55.6004V46.1331V44.6342L56.0547 44.6338C57.5681 44.6327 58.4377 44.222 58.869 43.3046C59.0576 42.9035 59.1225 42.6013 59.121 42.1318C59.1195 41.6815 59.0289 41.2881 58.8444 40.931C58.4831 40.2318 57.8036 39.8167 56.8436 39.709C56.628 39.6848 55.933 39.665 55.2992 39.665H54.1468V43.6485ZM60.0824 43.6487V47.634L60.7991 47.6228L61.5158 47.6116L61.5248 44.7163C61.5297 43.1239 61.5352 41.8025 61.537 41.78C61.5413 41.7246 61.6169 41.932 62.143 43.4432C62.3907 44.1547 62.8215 45.3883 63.1003 46.1845L63.6071 47.6321H64.2186H64.83L64.9572 47.2728C65.0768 46.9348 66.3279 43.3585 66.7091 42.2647C66.8052 41.9893 66.8886 41.7688 66.8945 41.7748C66.9004 41.7809 66.906 43.1012 66.9068 44.709L66.9083 47.6321H67.6341H68.3599V43.6478V39.6635L67.3807 39.6745L66.4015 39.6855L66.056 40.6506C65.866 41.1814 65.4595 42.3179 65.1528 43.1763C64.2608 45.6725 64.2328 45.7481 64.2101 45.7249C64.1982 45.7128 63.7049 44.3489 63.1141 42.6942L62.0398 39.6855L61.0611 39.6745L60.0824 39.6635V43.6487ZM72.424 39.6959C72.4038 39.7292 72.1061 40.4533 71.8458 41.1023C71.7688 41.2943 71.6624 41.5531 71.6094 41.6773C71.5564 41.8015 71.0108 43.1321 70.397 44.6342C69.7831 46.1362 69.2563 47.4253 69.2262 47.4986L69.1715 47.6321H69.9693H70.767L71.1645 46.6054L71.562 45.5787H73.0042H74.4463L74.8453 46.6046L75.2443 47.6306L76.0408 47.6313L76.8372 47.6321L76.8016 47.5397C76.7821 47.4889 76.6212 47.0962 76.4442 46.667C76.2672 46.2379 75.6547 44.7409 75.083 43.3405C74.5113 41.9401 73.9404 40.5448 73.8143 40.2399L73.5851 39.6855L73.0146 39.6741C72.7009 39.6679 72.4351 39.6776 72.424 39.6959ZM26.197 41.1142C27.109 41.4474 27.7335 42.1849 27.9243 43.1543C28.2051 44.5806 27.309 46.005 25.9226 46.3362C25.0797 46.5375 24.104 46.2847 23.4889 45.7055C22.7487 45.0085 22.4361 43.8768 22.716 42.908C22.9194 42.2045 23.4401 41.5717 24.0807 41.2498C24.5208 41.0286 24.7702 40.9794 25.3775 40.994C25.822 41.0047 25.9476 41.0231 26.197 41.1142ZM57.1141 41.2186C57.477 41.3863 57.643 41.6239 57.6849 42.0361C57.7414 42.59 57.4413 43.0286 56.9226 43.1503C56.8139 43.1759 56.4719 43.1968 56.1627 43.1968H55.6004V42.1453V41.0939L56.2566 41.1097C56.832 41.1236 56.9375 41.137 57.1141 41.2186ZM40.7817 43.4843V45.4966L40.6505 45.4959C40.4218 45.4946 39.9915 45.3837 39.767 45.2681C39.0978 44.9235 38.7218 44.2833 38.7229 43.4902C38.7235 43.0704 38.7862 42.8044 38.9652 42.463C39.261 41.8984 39.9346 41.4837 40.5697 41.4749L40.7817 41.4719V43.4843ZM42.8191 41.5348C43.844 41.8063 44.4699 42.8428 44.2493 43.9032C44.067 44.7798 43.3997 45.3732 42.4767 45.4794L42.2353 45.5072V43.4896V41.4719H42.4086C42.5038 41.4719 42.6886 41.5002 42.8191 41.5348ZM10.1881 42.9993C10.4242 43.6135 10.6114 44.1221 10.6041 44.1295C10.5968 44.1369 10.2001 44.138 9.7224 44.1319L8.85392 44.1208L9.28123 43.0017C9.51628 42.3862 9.71986 41.8826 9.73371 41.8826C9.74752 41.8826 9.95203 42.3851 10.1881 42.9993ZM49.7454 42.4473C49.8638 42.7579 50.0574 43.2602 50.1756 43.5636C50.2938 43.867 50.3843 44.1214 50.3768 44.1291C50.3693 44.1367 49.9724 44.138 49.4948 44.1319L48.6264 44.1208L49.0542 43.0017C49.2896 42.3862 49.4929 41.8826 49.5061 41.8826C49.5194 41.8826 49.627 42.1367 49.7454 42.4473ZM73.2454 42.4473C73.3638 42.7579 73.5574 43.2602 73.6755 43.5636C73.7937 43.867 73.8843 44.1214 73.8768 44.1291C73.8693 44.1367 73.4722 44.138 72.9945 44.1319L72.126 44.1208L72.5527 43.0017C72.7875 42.3862 72.9909 41.8826 73.0048 41.8826C73.0188 41.8826 73.127 42.1367 73.2454 42.4473ZM23.9757 50.3626C23.619 50.4548 23.2729 50.6531 23.0028 50.9204C22.8673 51.0543 22.7512 51.164 22.7446 51.164C22.7381 51.164 22.7328 50.9976 22.7328 50.7943V50.4247H22.4501H22.1675V53.5254V56.626H22.4703H22.7732V55.3902V54.1545L22.93 54.3564C23.3539 54.9018 23.9285 55.1419 24.6911 55.0922C25.0833 55.0667 25.2988 55.0107 25.6291 54.8487C26.2336 54.5521 26.6715 54.0196 26.8359 53.3813C26.9255 53.0336 26.9261 52.4176 26.8371 52.0725C26.6402 51.3083 26.0355 50.6509 25.317 50.4196C24.9716 50.3085 24.2962 50.2798 23.9757 50.3626ZM29.5567 50.3272C28.9414 50.4483 28.3852 50.8134 28.0467 51.3183C27.5539 52.0535 27.4916 53.0352 27.8872 53.8281C28.077 54.2084 28.4699 54.6239 28.8097 54.8039C29.2521 55.0382 29.4494 55.0856 29.9806 55.0857C30.5309 55.0857 30.8154 55.0105 31.2374 54.7533C32.4757 53.9987 32.7161 52.1705 31.7231 51.0596C31.3019 50.5886 30.7536 50.3418 30.0816 50.3207C29.8484 50.3134 29.6122 50.3163 29.5567 50.3272ZM40.1357 50.3629C39.3114 50.552 38.6635 51.1867 38.4167 52.0469C38.331 52.3457 38.3211 52.9391 38.3966 53.2584C38.5029 53.7085 38.699 54.0654 39.0142 54.3824C39.3532 54.7233 39.6727 54.9091 40.1194 55.0254C40.998 55.2539 41.8278 55.0004 42.3666 54.3389L42.518 54.153V54.5681V54.9833H42.7999H43.0819L43.0927 52.745C43.0986 51.5139 43.0974 50.4883 43.09 50.4657C43.0826 50.4432 42.9509 50.4247 42.7973 50.4247H42.518V50.8186V51.2124L42.3629 51.0129C42.1704 50.7651 41.8463 50.5355 41.5287 50.4219C41.2085 50.3072 40.5075 50.2776 40.1357 50.3629ZM17.3625 52.704V54.9833H17.6654H17.9682V52.9709V50.9586H19.2401H20.512V52.9709V54.9833H20.8148H21.1177V52.704V50.4247H19.2401H17.3625V52.704ZM34.9702 50.5012C34.9377 50.563 34.477 51.6153 33.8637 53.0289C33.8155 53.1398 33.6576 53.5002 33.5128 53.8297L33.2494 54.4288L33.0181 54.4412L32.7869 54.4535V55.3139V56.1742H33.0897H33.3926V55.5783V54.9825L35.3408 54.9931L37.289 55.0038L37.3002 55.589L37.3114 56.1742H37.5886C37.8042 56.1742 37.8713 56.1598 37.8904 56.1093C37.9039 56.0735 37.9149 55.7147 37.9149 55.3118C37.9149 54.9089 37.9039 54.5501 37.8904 54.5144C37.8722 54.4661 37.8092 54.4494 37.6459 54.4494H37.4259L37.3225 54.2132C37.2656 54.0834 37.1336 53.7831 37.0292 53.5459C36.9248 53.3087 36.5771 52.5095 36.2566 51.7698L35.6739 50.4249L35.3422 50.4248C35.0599 50.4247 35.0045 50.4361 34.9702 50.5012ZM44.1641 52.704L44.1748 54.9833H44.4568H44.7388V52.704V50.4247H44.446H44.1533L44.1641 52.704ZM46.3264 51.1332C46.0227 51.5228 45.6312 52.0235 45.4563 52.246C45.2815 52.4684 45.1439 52.6666 45.1506 52.6864C45.1573 52.7063 45.5589 53.2312 46.0431 53.8529L46.9235 54.9833H47.3083H47.6931L47.5593 54.8087C47.256 54.4133 46.7965 53.8203 46.3739 53.2789C46.127 52.9627 45.9105 52.6794 45.8928 52.6493C45.8723 52.6145 45.897 52.5548 45.961 52.4851C46.0569 52.3805 47.2196 50.9021 47.4602 50.5787L47.5748 50.4247H47.2267H46.8786L46.3264 51.1332ZM48.292 52.704V54.9833H51.1589H54.0257V52.704V50.4247H53.7229H53.42V52.4378V54.4509L52.4409 54.4398L51.4617 54.4288L51.4512 52.4268L51.4407 50.4247H51.1383H50.8358V52.4371V54.4494H49.8668H48.8977V52.4371V50.4247H48.5949H48.292V52.704ZM55.0755 52.704V54.9833H55.3784H55.6812V53.9566V52.9299H56.9531H58.225V53.9566V54.9833H58.5278H58.8307V52.704V50.4247H58.5278H58.225V51.3898V52.3549H56.9531H55.6812V51.3898V50.4247H55.3784H55.0755V52.704ZM25.0564 50.939C25.5371 51.0761 26.0144 51.5375 26.2015 52.0458C26.5285 52.9349 26.1339 53.9609 25.3115 54.3601C24.149 54.9244 22.8385 54.1799 22.7434 52.9012C22.6979 52.2897 22.8771 51.7912 23.295 51.3663C23.5197 51.1378 23.6071 51.0796 23.8634 50.9875C24.0299 50.9277 24.2207 50.871 24.2873 50.8616C24.4647 50.8364 24.8231 50.8725 25.0564 50.939ZM30.2585 50.8779C30.8066 50.9585 31.3139 51.3339 31.5443 51.8294C31.8966 52.5868 31.7625 53.486 31.2149 54.0403C30.387 54.8781 28.9548 54.6503 28.4382 53.5986C28.2573 53.2305 28.1972 52.8399 28.2569 52.4213C28.3855 51.5191 29.0099 50.9329 29.9402 50.841C29.9625 50.8388 30.1057 50.8554 30.2585 50.8779ZM41.015 50.8779C41.5039 50.9586 42.0233 51.3116 42.2617 51.7253C42.6341 52.3717 42.6 53.2415 42.1793 53.8226C41.3875 54.9166 39.6635 54.7342 39.1068 53.4976C38.9014 53.0413 38.8822 52.5708 39.0487 52.0785C39.2879 51.3715 39.9191 50.8985 40.701 50.8405C40.7343 50.838 40.8756 50.8549 41.015 50.8779ZM36.094 52.8647C36.4515 53.6985 36.7439 54.3961 36.7439 54.415C36.7439 54.4339 36.108 54.4494 35.3307 54.4494C34.5534 54.4494 33.9175 54.4387 33.9175 54.4257C33.9175 54.4127 34.1012 53.9738 34.3257 53.4504C34.5502 52.9269 34.8522 52.2215 34.9968 51.8826C35.3591 51.034 35.3339 51.0756 35.3944 51.2256C35.4217 51.2933 35.7366 52.0309 36.094 52.8647Z" fill="#3E3921"/>
</svg>
