<svg width="53" height="38" viewBox="0 0 53 38" fill="none" xmlns="http://www.w3.org/2000/svg">
<path fill-rule="evenodd" clip-rule="evenodd" d="M27.9673 0.00513932C27.9146 0.0109636 27.6988 0.0292447 27.4878 0.0457979C24.862 0.251655 22.0109 1.10512 19.6414 2.39463C19.0541 2.71419 18.481 3.05916 18.4671 3.10135C18.4541 3.14109 18.9618 3.52862 19.4735 3.86958C21.3407 5.11364 23.582 6.01306 26.2265 6.5796C29.5439 7.29031 33.5199 7.41911 37.7763 6.95375C38.6119 6.86237 40.1038 6.65986 40.1288 6.63439C40.1352 6.6279 40.0879 6.46863 40.0238 6.28053C39.3086 4.18406 37.791 2.53428 35.5432 1.40958C34.0841 0.679532 32.6101 0.268292 30.6936 0.0565826C30.4014 0.0242842 29.9618 0.00876207 29.1729 0.00285417C28.5626 -0.0017161 28.0201 -0.000684979 27.9673 0.00513932ZM16.9936 4.12794C15.9609 4.94323 14.9528 5.96053 14.2327 6.91385C13.0814 8.43822 12.3577 10.0371 12.0895 11.6486C11.984 12.282 11.9492 12.9207 11.99 13.4718C12.07 14.5521 12.286 15.3747 12.7339 16.3052C13.2069 17.2876 13.9063 18.1831 14.7883 18.936C15.9691 19.9439 17.4979 20.7194 19.2132 21.1808C19.9104 21.3684 21.2373 21.6155 21.2839 21.5666C21.3098 21.5393 21.4799 21.1064 21.6923 20.5271C22.2072 19.1226 22.5303 17.753 22.6684 16.3888C22.766 15.4236 22.7262 14.1443 22.5672 13.1422C22.1421 10.4625 20.7417 7.60223 18.7475 5.34045C18.2832 4.81381 17.3766 3.89156 17.3224 3.89067C17.3071 3.89042 17.1592 3.99718 16.9936 4.12794ZM25.9398 7.87508C24.931 7.98189 24.0425 8.61044 23.5954 9.53339C23.3754 9.98743 23.3072 10.2561 23.2893 10.7386C23.2728 11.1818 23.3025 11.4382 23.4115 11.7907C23.716 12.7765 24.5235 13.5571 25.5015 13.8111C26.4941 14.0688 27.5277 13.7984 28.2819 13.0835C29.0534 12.3523 29.3938 11.174 29.1305 10.1461C28.758 8.69126 27.3948 7.721 25.9398 7.87508ZM39.9545 8.15612C36.1198 9.64034 33.2458 11.0632 30.6525 12.7612C27.6002 14.7598 25.2199 17.0655 23.5705 19.6214C23.1354 20.2957 22.4815 21.4415 22.4208 21.6361C22.4017 21.6971 22.404 21.6976 22.7665 21.7041C24.9108 21.7428 26.7557 21.501 28.7712 20.9172C33.5365 19.5368 37.5338 16.4935 39.3494 12.8635C40.0738 11.4153 40.4066 10.0908 40.4066 8.65609C40.4066 8.16103 40.3916 8.01347 40.3416 8.01642C40.3246 8.01742 40.1504 8.08029 39.9545 8.15612ZM26.1901 8.78852C26.8709 9.14628 26.1051 10.2413 25.1726 10.2433C24.9228 10.2438 24.7901 10.2091 24.6793 10.1142C24.5657 10.017 24.515 9.90854 24.515 9.76268C24.515 9.54111 24.5888 9.38764 24.8001 9.16986C25.0978 8.86298 25.4271 8.71545 25.8202 8.7128C26.0119 8.71152 26.0637 8.72211 26.1901 8.78852ZM28.0221 26.4015V26.7303L27.7405 26.7623C26.8708 26.8611 26.2316 27.2966 25.862 28.0421C25.6074 28.5558 25.5683 29.2843 25.7639 29.8692C26.0075 30.5978 26.5888 31.1233 27.3749 31.3257C27.5238 31.3641 27.7025 31.3956 27.7722 31.3958C28.0326 31.3966 28.0221 31.3795 28.0221 31.8034V32.177L28.5085 32.1694L28.9948 32.1618L29.0025 31.8006C29.0078 31.5545 29.0209 31.4325 29.0436 31.4178C29.062 31.406 29.1361 31.3961 29.2083 31.3958C29.5787 31.3946 30.1438 31.1956 30.4607 30.9548C31.1263 30.4489 31.4525 29.6774 31.3647 28.8166C31.2648 27.8365 30.6216 27.0814 29.6795 26.8383C29.5382 26.8018 29.3294 26.7634 29.2155 26.7529L29.0085 26.7339V26.4033V26.0727H28.5153H28.0221V26.4015ZM17.0761 26.4378C16.3878 26.5377 15.6532 26.9834 15.2677 27.5351C14.8816 28.0874 14.7261 28.5759 14.7263 29.2357C14.7265 29.6614 14.7914 29.9885 14.9503 30.3643C15.488 31.6356 16.93 32.3089 18.2958 31.9263C18.9108 31.7541 19.4978 31.3258 19.8438 30.7969C20.5601 29.7019 20.442 28.2448 19.5597 27.2927C18.937 26.6206 18.0114 26.302 17.0761 26.4378ZM0.348816 29.1939V31.897H0.828003H1.30719L1.31434 30.7196L1.32149 29.5422L1.73026 30.1274C1.95507 30.4493 2.32496 30.979 2.55224 31.3046L2.96545 31.8965L3.55103 31.8967C4.01561 31.897 4.13107 31.8898 4.10978 31.8622C3.79305 31.4514 2.17408 29.1949 2.17273 29.1624C2.17114 29.1234 2.66461 28.4536 3.84908 26.887C4.00353 26.6827 4.12992 26.5097 4.12992 26.5026C4.12992 26.4955 3.86881 26.493 3.54963 26.4971L2.96937 26.5047L2.7208 26.8562C2.58411 27.0496 2.21334 27.5744 1.89688 28.0225L1.32149 28.8371L1.31434 27.664L1.30719 26.4907H0.828003H0.348816V29.1939ZM6.52372 26.5945C6.50029 26.6524 6.42144 26.844 6.34847 27.0202C6.27554 27.1965 5.97302 27.9364 5.67626 28.6644C5.3795 29.3924 5.05643 30.1825 4.95829 30.42C4.65656 31.1506 4.37652 31.8507 4.37652 31.8744C4.37652 31.8869 4.61388 31.897 4.90401 31.897H5.4315L5.70319 31.2003L5.97491 30.5037H6.95323H7.93155L8.20308 31.1934L8.47463 31.8831L9.01796 31.8907C9.44934 31.8967 9.55819 31.8909 9.54622 31.8628C9.53792 31.8433 9.04005 30.6298 8.43986 29.166L7.34858 26.5047L6.95745 26.4969L6.5663 26.4892L6.52372 26.5945ZM10.1219 26.5087C10.1115 26.5192 10.103 27.7359 10.103 29.2125V31.897H10.5962H11.0894V30.7684V29.6398H12.062H13.0347V30.7684V31.897H13.5142H13.9937V29.1939V26.4907H13.5142H13.0347V27.5776V28.6644H12.0624H11.09L11.0828 27.5845L11.0757 26.5047L10.6082 26.4971C10.3511 26.4929 10.1323 26.4981 10.1219 26.5087ZM21.0262 26.5093C21.0161 26.5195 21.0079 27.7359 21.0079 29.2125V31.897H21.5011H21.9943V30.7684V29.6398H22.967H23.9396V30.7684V31.897H24.4328H24.926V29.1939V26.4907H24.4328H23.9396V27.5776V28.6644H22.967H21.9943V27.5776V26.4907H21.5194C21.2581 26.4907 21.0362 26.4991 21.0262 26.5093ZM33.5054 26.6084C33.4779 26.674 33.3964 26.8718 33.3243 27.0481C33.2522 27.2243 33.1341 27.5128 33.0619 27.689C32.9897 27.8653 32.7255 28.5111 32.4748 29.1242C31.4827 31.5508 31.3575 31.856 31.3461 31.8761C31.3396 31.8876 31.5785 31.8969 31.877 31.8968L32.4197 31.8965L32.6918 31.2001L32.9638 30.5037H33.9413H34.9187L35.1899 31.2L35.461 31.8964L36.0015 31.8967L36.5419 31.897L36.5175 31.8343C36.504 31.7999 36.3795 31.4957 36.2408 31.1585C36.1021 30.8213 35.9301 30.4012 35.8585 30.225C35.6934 29.8183 34.5506 27.0246 34.4279 26.7276L34.3358 26.5047L33.9456 26.4969L33.5555 26.4892L33.5054 26.6084ZM37.0913 29.1939V31.897H37.5845H38.0777V30.8799V29.8627L38.3859 29.8625C39.4129 29.8617 40.0029 29.583 40.2956 28.9605C40.4236 28.6883 40.4676 28.4833 40.4666 28.1647C40.4656 27.8591 40.4042 27.5922 40.279 27.3499C40.0338 26.8754 39.5727 26.5937 38.9213 26.5206C38.775 26.5042 38.3033 26.4907 37.8733 26.4907H37.0913V29.1939ZM41.119 29.194V31.8983L41.6053 31.8907L42.0917 31.8831L42.0978 29.9184C42.1011 28.8379 42.1049 27.9412 42.1061 27.9259C42.109 27.8883 42.1603 28.0291 42.5173 29.0545C42.6854 29.5373 42.9777 30.3744 43.1669 30.9147L43.5108 31.897H43.9257H44.3406L44.4269 31.6532C44.5081 31.4238 45.3571 28.9971 45.6157 28.2549C45.6809 28.068 45.7375 27.9184 45.7415 27.9224C45.7455 27.9265 45.7493 28.8225 45.7498 29.9134L45.7509 31.897H46.2434H46.7359V29.1934V26.4897L46.0714 26.4972L45.407 26.5047L45.1725 27.1596C45.0436 27.5197 44.7678 28.291 44.5596 28.8734C43.9543 30.5673 43.9354 30.6186 43.9199 30.6028C43.9118 30.5946 43.5772 29.6692 43.1762 28.5463L42.4473 26.5047L41.7831 26.4972L41.119 26.4897V29.194ZM49.4937 26.5117C49.4799 26.5344 49.2779 27.0257 49.1013 27.4661C49.0491 27.5964 48.9769 27.7719 48.9409 27.8562C48.905 27.9405 48.5347 28.8434 48.1182 29.8627C47.7016 30.882 47.3442 31.7567 47.3237 31.8065L47.2867 31.897H47.828H48.3693L48.639 31.2003L48.9088 30.5037H49.8874H50.866L51.1367 31.1998L51.4075 31.896L51.9479 31.8965L52.4884 31.897L52.4642 31.8343C52.4509 31.7999 52.3418 31.5334 52.2217 31.2421C52.1016 30.9509 51.6859 29.9352 51.298 28.9849C50.9101 28.0346 50.5227 27.0878 50.4371 26.8809L50.2815 26.5047L49.8944 26.497C49.6815 26.4927 49.5012 26.4993 49.4937 26.5117ZM18.1254 27.4742C18.7442 27.7002 19.168 28.2007 19.2974 28.8585C19.488 29.8263 18.8799 30.7929 17.9392 31.0176C17.3672 31.1543 16.7051 30.9827 16.2877 30.5897C15.7855 30.1167 15.5733 29.3488 15.7633 28.6914C15.9012 28.214 16.2546 27.7846 16.6893 27.5662C16.9879 27.4161 17.1572 27.3827 17.5693 27.3926C17.8709 27.3999 17.9561 27.4123 18.1254 27.4742ZM39.1048 27.545C39.3511 27.6588 39.4637 27.82 39.4922 28.0998C39.5305 28.4756 39.3269 28.7732 38.9749 28.8558C38.9011 28.8732 38.669 28.8873 38.4592 28.8873H38.0777V28.1738V27.4604L38.5229 27.4711C38.9134 27.4805 38.985 27.4896 39.1048 27.545ZM28.0221 29.0824V30.4479L27.9331 30.4474C27.7779 30.4466 27.4859 30.3713 27.3336 30.2929C26.8795 30.0591 26.6244 29.6246 26.6251 29.0865C26.6255 28.8016 26.668 28.6211 26.7895 28.3894C26.9902 28.0063 27.4473 27.7248 27.8783 27.7189L28.0221 27.7169V29.0824ZM29.4046 27.7596C30.1001 27.9438 30.5248 28.6471 30.3752 29.3667C30.2514 29.9615 29.7986 30.3642 29.1723 30.4363L29.0085 30.4551V29.086V27.7169H29.1261C29.1907 27.7169 29.3161 27.7361 29.4046 27.7596ZM7.26219 28.7534C7.42239 29.1701 7.54941 29.5152 7.54448 29.5203C7.53952 29.5253 7.2703 29.526 6.94616 29.5219L6.35683 29.5144L6.6468 28.755C6.80629 28.3373 6.94444 27.9956 6.95383 27.9956C6.9632 27.9956 7.10198 28.3366 7.26219 28.7534ZM34.1046 28.3788C34.185 28.5895 34.3163 28.9304 34.3965 29.1362C34.4767 29.3421 34.5382 29.5148 34.5331 29.52C34.528 29.5251 34.2587 29.526 33.9345 29.5219L33.3453 29.5144L33.6356 28.755C33.7953 28.3373 33.9333 27.9956 33.9423 27.9956C33.9512 27.9956 34.0243 28.168 34.1046 28.3788ZM50.051 28.3788C50.1314 28.5895 50.2627 28.9304 50.3429 29.1362C50.4231 29.3421 50.4846 29.5148 50.4795 29.52C50.4744 29.5251 50.205 29.526 49.8808 29.5219L49.2914 29.5144L49.581 28.755C49.7403 28.3373 49.8784 27.9956 49.8878 27.9956C49.8973 27.9956 49.9707 28.168 50.051 28.3788ZM16.618 33.7499C16.376 33.8124 16.1412 33.947 15.9578 34.1283C15.8659 34.2192 15.7871 34.2936 15.7827 34.2936C15.7783 34.2936 15.7746 34.1808 15.7746 34.0428V33.792H15.5828H15.391V35.896V38H15.5965H15.802V37.1615V36.3229L15.9085 36.4599C16.1961 36.83 16.586 36.9929 17.1035 36.9592C17.3696 36.9419 17.5159 36.9039 17.74 36.794C18.1502 36.5927 18.4473 36.2314 18.5589 35.7983C18.6197 35.5623 18.6201 35.1443 18.5597 34.9102C18.4261 34.3916 18.0158 33.9455 17.5282 33.7886C17.2938 33.7131 16.8355 33.6936 16.618 33.7499ZM20.4051 33.7259C19.9876 33.808 19.6102 34.0558 19.3805 34.3984C19.0461 34.8972 19.0038 35.5634 19.2723 36.1014C19.4011 36.3595 19.6677 36.6415 19.8982 36.7636C20.1984 36.9226 20.3323 36.9548 20.6928 36.9548C21.0662 36.9548 21.2592 36.9038 21.5456 36.7292C22.3859 36.2172 22.549 34.9766 21.8752 34.2228C21.5894 33.9032 21.2173 33.7357 20.7613 33.7214C20.6031 33.7164 20.4428 33.7184 20.4051 33.7259ZM27.5837 33.7501C27.0244 33.8784 26.5848 34.3091 26.4173 34.8928C26.3591 35.0955 26.3524 35.4982 26.4036 35.7149C26.4758 36.0203 26.6089 36.2625 26.8228 36.4776C27.0528 36.7089 27.2696 36.835 27.5727 36.9139C28.1689 37.0689 28.7319 36.8969 29.0976 36.448L29.2003 36.3219V36.6036V36.8853H29.3916H29.583L29.5903 35.3665C29.5943 34.5311 29.5935 33.8351 29.5885 33.8198C29.5834 33.8045 29.494 33.792 29.3898 33.792H29.2003V34.0593V34.3265L29.0951 34.1911C28.9644 34.023 28.7445 33.8672 28.529 33.7901C28.3117 33.7123 27.8361 33.6922 27.5837 33.7501ZM12.1305 35.3387V36.8853H12.336H12.5415V35.5198V34.1543H13.4046H14.2677V35.5198V36.8853H14.4732H14.6787V35.3387V33.792H13.4046H12.1305V35.3387ZM24.0786 33.8439C24.0566 33.8859 23.7439 34.5999 23.3278 35.5591C23.2951 35.6344 23.1879 35.8789 23.0896 36.1025L22.9109 36.5091L22.754 36.5175L22.5971 36.5258V37.1096V37.6935H22.8026H23.0081V37.2891V36.8848L24.3301 36.892L25.6521 36.8992L25.6597 37.2963L25.6673 37.6935H25.8554C26.0016 37.6935 26.0472 37.6836 26.0601 37.6494C26.0693 37.6251 26.0768 37.3816 26.0768 37.1082C26.0768 36.8349 26.0693 36.5914 26.0601 36.5671C26.0478 36.5344 26.0051 36.523 25.8942 36.523H25.7449L25.6748 36.3628C25.6362 36.2747 25.5466 36.0709 25.4758 35.9099C25.4049 35.749 25.169 35.2066 24.9515 34.7047L24.5561 33.7921L24.331 33.7921C24.1395 33.792 24.1019 33.7997 24.0786 33.8439ZM30.3173 35.3387L30.3246 36.8853H30.5159H30.7073V35.3387V33.792H30.5086H30.31L30.3173 35.3387ZM31.7846 34.2727C31.5785 34.5371 31.3128 34.8769 31.1942 35.0279C31.0755 35.1788 30.9822 35.3133 30.9867 35.3267C30.9913 35.3402 31.2638 35.6964 31.5924 36.1183L32.1898 36.8853H32.4509H32.712L32.6212 36.7669C32.4154 36.4985 32.1036 36.0961 31.8168 35.7288C31.6493 35.5142 31.5024 35.322 31.4904 35.3016C31.4764 35.2779 31.4932 35.2374 31.5367 35.1901C31.6017 35.1192 32.3907 34.1159 32.554 33.8965L32.6317 33.792H32.3955H32.1593L31.7846 34.2727ZM33.1184 35.3387V36.8853H35.0638H37.0091V35.3387V33.792H36.8036H36.5981V35.158V36.524L35.9337 36.5166L35.2693 36.5091L35.2621 35.1506L35.255 33.792H35.0498H34.8446V35.1575V36.523H34.187H33.5294V35.1575V33.792H33.3239H33.1184V35.3387ZM37.7215 35.3387V36.8853H37.927H38.1325V36.1886V35.4919H38.9956H39.8586V36.1886V36.8853H40.0641H40.2696V35.3387V33.792H40.0641H39.8586V34.4469V35.1018H38.9956H38.1325V34.4469V33.792H37.927H37.7215V35.3387ZM17.3514 34.141C17.6776 34.234 18.0015 34.5471 18.1284 34.8921C18.3503 35.4953 18.0826 36.1915 17.5245 36.4624C16.7356 36.8454 15.8464 36.3402 15.7819 35.4725C15.751 35.0575 15.8726 34.7192 16.1561 34.4309C16.3086 34.2758 16.3679 34.2364 16.5418 34.1739C16.6548 34.1333 16.7843 34.0948 16.8295 34.0884C16.9498 34.0714 17.193 34.0959 17.3514 34.141ZM20.8813 34.0995C21.2533 34.1542 21.5976 34.409 21.7539 34.7452C21.9929 35.2592 21.902 35.8693 21.5303 36.2454C20.9686 36.814 19.9967 36.6594 19.6462 35.9457C19.5234 35.6959 19.4826 35.4309 19.5231 35.1468C19.6104 34.5346 20.0341 34.1368 20.6654 34.0745C20.6805 34.073 20.7777 34.0843 20.8813 34.0995ZM28.1804 34.0995C28.5122 34.1543 28.8646 34.3938 29.0264 34.6745C29.2791 35.1132 29.256 35.7034 28.9705 36.0977C28.4332 36.8401 27.2633 36.7163 26.8856 35.8772C26.7462 35.5676 26.7332 35.2483 26.8461 34.9142C27.0084 34.4344 27.4368 34.1135 27.9673 34.0741C27.9899 34.0725 28.0858 34.0839 28.1804 34.0995ZM24.8412 35.4477C25.0837 36.0135 25.2822 36.4869 25.2822 36.4997C25.2822 36.5125 24.8507 36.523 24.3232 36.523C23.7958 36.523 23.3642 36.5158 23.3642 36.507C23.3642 36.4982 23.4889 36.2003 23.6412 35.8451C23.7936 35.4899 23.9985 35.0112 24.0967 34.7813C24.3425 34.2054 24.3254 34.2337 24.3664 34.3354C24.385 34.3814 24.5986 34.8819 24.8412 35.4477Z" fill="#3E3921"/>
</svg>
